<svg xmlns="http://www.w3.org/2000/svg" xmlns:xlink="http://www.w3.org/1999/xlink" viewBox="8 3611 121.829 51.857"><defs><style>.a{fill:none;}.b{fill:#fff;}.c{clip-path:url(#a);}</style><clipPath id="a"><path class="a" d="M0-51.857H121.829V0H0Z" transform="translate(0 51.857)"/></clipPath></defs><g transform="translate(8 3611)"><path class="b" d="M0,0,.268-2.243h1.8L2.366,0H5.055L2.9-12.709H-.554L-2.706,0ZM1.191-10.575h.04l.548,6.018H.535Z" transform="translate(60.922 20.179)"/><g class="c"><path class="b" d="M0,0V-5.483H.656c.535,0,.835.215.835.641V-.516A1.153,1.153,0,0,0,1.652,0H4.269c-.178-.2-.178-.408-.178-1.388v-2.76c0-1.618-.5-2.331-1.564-2.507v-.036A1.755,1.755,0,0,0,4.021-8.6V-10.11c0-2.03-1.014-2.6-3.293-2.6H-2.6V0ZM0-10.394H.656c.622,0,.768.25.768,1.3,0,1.122-.216,1.3-.768,1.3H0v-2.6" transform="translate(69.431 20.179)"/><path class="b" d="M0,0H-1.923V-2.316H4.521V0H2.6V10.394H0Z" transform="translate(75.624 9.785)"/><path class="b" d="M0,0V-.71c0-.73-.231-1.051-.744-1.051-.537,0-.75.3-.75,1.051,0,2.225,4.093,2.225,4.093,6.37,0,2.653-.82,3.469-3.366,3.469-2.367,0-3.328-.709-3.328-3.058V4.877h2.6v.889c0,.729.231,1.051.75,1.051S0,6.514,0,5.766C-.018,3.134-4.095,3.4-4.095-.835c0-2.28.855-3.239,3.351-3.239,2.2,0,3.268.819,3.268,3.078V0H0" transform="translate(84.596 11.297)"/><path class="b" d="M0,0H5.34V2.316H2.6v2.6H5.217V7.227H2.6V10.4H5.34v2.311H0Z" transform="translate(58.507 22.515)"/><path class="b" d="M0,0H3.2C5.483,0,6.552-.6,6.552-2.987V-9.714c0-2.384-1.069-2.994-3.347-2.994H0ZM2.6-10.39h.6c.533,0,.75.247.75,1.1v5.871c0,.854-.217,1.1-.75,1.1H2.6V-10.39" transform="translate(65.091 35.221)"/><path class="b" d="M0,0C0,2.386-1.069,2.99-3.348,2.99S-6.693,2.386-6.693,0V-9.966h2.6V-.39C-4.1.5-3.881.679-3.348.679S-2.6.5-2.6-.39V-9.966H0V0" transform="translate(79.509 32.481)"/><path class="b" d="M0,0C0-2.1.907-2.991,3.275-2.991S6.551-2.1,6.551,0V1.8h-2.6v-1.9a.6.6,0,0,0-.676-.568c-.462,0-.675.193-.675.889v6.8c0,.693.213.888.675.888a.6.6,0,0,0,.676-.567V4.984h2.6v2.24c0,2.1-.908,2.992-3.276,2.992S0,9.324,0,7.224V0" transform="translate(80.718 25.257)"/><path class="b" d="M0,0,.268-2.239h1.8L2.366,0h2.69L2.9-12.708H-.55L-2.7,0ZM1.193-10.569h.035l.55,6.015H.536Z" transform="translate(90.47 35.221)"/><path class="b" d="M0,0H-1.921V-2.318H4.521V0H2.6V10.39H0Z" transform="translate(96.272 24.831)"/><path class="b" d="M101.72-16.633h2.6V-29.342h-2.6Z" transform="translate(0 51.857)"/><path class="b" d="M0,0C0,2.388,1.068,2.99,3.349,2.99S6.693,2.388,6.693,0V-7.222c0-2.387-1.068-2.993-3.344-2.993S0-9.609,0-7.222ZM2.6-7.207c0-.5.213-.693.748-.693s.745.194.745.693V-.015c0,.5-.213.694-.745.694S2.6.481,2.6-.015V-7.207" transform="translate(105.758 32.481)"/><path class="b" d="M0,0V8.955H-.036L-2.243,0H-5.534V12.708h2.455V3.829h.038L-.8,12.708H2.456V0Z" transform="translate(119.373 22.513)"/><path class="b" d="M0,0C0-1.15.5-1.64,1.8-1.64S3.6-1.15,3.6,0V.987H2.171V-.058A.33.33,0,0,0,1.8-.369c-.253,0-.37.106-.37.489V3.852c0,.381.117.489.37.489a.331.331,0,0,0,.372-.314V2.739H3.6V3.968c0,1.155-.5,1.644-1.8,1.644S0,5.123,0,3.968V0" transform="translate(58.317 39.096)"/><path class="b" d="M0,0C0,1.312.589,1.644,1.84,1.644S3.681,1.312,3.681,0V-3.969c0-1.307-.587-1.637-1.841-1.637S0-5.276,0-3.969ZM1.429-3.955c0-.276.119-.383.411-.383s.41.107.41.383V-.009c0,.274-.115.381-.41.381S1.429.265,1.429-.009V-3.955" transform="translate(62.48 43.065)"/><path class="b" d="M0,0C0,1.312-.587,1.644-1.838,1.644S-3.677,1.312-3.677,0V-5.471h1.429V-.215c0,.49.116.587.41.587s.41-.1.41-.587V-5.471H0V0" transform="translate(70.499 43.065)"/><path class="b" d="M0,0H1.353V6.979H-.439L-1.671,2.1h-.02V6.979H-3.04V0h1.81L-.018,4.913H0Z" transform="translate(74.301 37.594)"/><path class="b" d="M0,0C0-1.15.5-1.64,1.8-1.64S3.6-1.15,3.6,0V.987H2.171V-.058A.331.331,0,0,0,1.8-.369c-.255,0-.37.106-.37.489V3.852c0,.381.115.489.37.489a.332.332,0,0,0,.372-.314V2.739H3.6V3.968c0,1.155-.5,1.644-1.8,1.644S0,5.123,0,3.968V0" transform="translate(76.413 39.096)"/><path class="b" d="M80.714-7.286h1.428v-6.977H80.714Z" transform="translate(0 51.857)"/><path class="b" d="M0,0V-6.979H1.43v5.708h1.5V0Z" transform="translate(83.031 44.573)"/><path class="b" d="M0,0-1.181-.142v-.944L0-1.243V-2.659L-6.683-1.528V.29L0,1.421ZM-5.559-.628V-.649L-2.4-.935V-.28Z" transform="translate(95.947 19.16)"/><path class="b" d="M0,0V-1.29H6.681V.421L2.011,1.6v.018h4.67V2.91H0V1.178L4.706.017V0Z" transform="translate(89.267 13.143)"/><path class="b" d="M0,0V-1.684c0-1.2-.32-1.758-1.573-1.758H-5.109c-1.253,0-1.572.562-1.572,1.758V0ZM-5.467-1.365v-.319c0-.278.131-.393.582-.393H-1.8c.452,0,.581.115.581.393v.319H-5.467" transform="translate(95.947 11.028)"/><path class="b" d="M0,0A24.758,24.758,0,0,1-24.731-24.725,24.758,24.758,0,0,1,0-49.456,24.757,24.757,0,0,1,24.732-24.725,24.757,24.757,0,0,1,0,0M25.919-25.279A25.957,25.957,0,0,0,0-50.658,25.962,25.962,0,0,0-25.932-24.725,25.959,25.959,0,0,0,0,1.2,25.952,25.952,0,0,0,25.915-24.078l0-1.2" transform="translate(25.932 50.658)"/><path class="b" d="M0,0A22.116,22.116,0,0,0-13.995,20.067C-5.058,17.784-.337,9.589,0,0" transform="translate(17.403 4.85)"/><path class="b" d="M0,0A22.094,22.094,0,0,0-4.9.552,22.828,22.828,0,0,1-21.594,22.1,22.107,22.107,0,0,0,0,0" transform="translate(25.506 3.31)"/><path class="b" d="M0,0A22.111,22.111,0,0,1-13.994-20.061C-5.058-17.779-.333-9.589,0,0" transform="translate(17.429 47.053)"/><path class="b" d="M0,0A22.087,22.087,0,0,1-4.9-.552,22.836,22.836,0,0,0-21.592-22.1,22.108,22.108,0,0,1,0,0" transform="translate(25.535 48.594)"/><path class="b" d="M0,0A22.116,22.116,0,0,1,13.992,20.067C5.057,17.784.332,9.589,0,0" transform="translate(34.675 4.85)"/><path class="b" d="M0,0A22.1,22.1,0,0,1,4.9.552,22.834,22.834,0,0,0,21.6,22.1,22.109,22.109,0,0,1,0,0" transform="translate(26.566 3.31)"/><path class="b" d="M0,0A22.109,22.109,0,0,0,13.995-20.061C5.061-17.779.336-9.589,0,0" transform="translate(34.644 47.053)"/><path class="b" d="M0,0A22.1,22.1,0,0,0,4.9-.552,22.83,22.83,0,0,1,21.594-22.1,22.108,22.108,0,0,0,0,0" transform="translate(26.54 48.594)"/></g></g></svg>