<svg xmlns="http://www.w3.org/2000/svg" viewBox="-259.739 1536 383.855 338.88"><defs><style>.a,.d{fill:#ffcd36;}.a,.e{font-size:60px;font-family:Sentinel-Medium, Sentinel;}.a,.d,.e{font-weight:500;}.b,.c,.e{fill:#fff;}.c,.d{font-size:35px;}.c{font-family:ProximaNova-Light, Proxima Nova;font-weight:300;}.d{font-family:ProximaNova-Medium, Proxima Nova;}</style></defs><g transform="translate(-547 -6027)"><text class="a" transform="translate(449.013 7563)"><tspan x="31.401" y="58">86.8%</tspan></text><g transform="translate(348.518 7669.313)"><path class="b" d="M42.114,46.978h0l-.128-1.408a1.624,1.624,0,0,0-.128-.768l-15.1-33.922v-.128l-4.224-9.6A2.168,2.168,0,0,0,20.737,0a2.168,2.168,0,0,0-1.792,1.152l-4.1,9.6v.128L.256,45.058a1.624,1.624,0,0,0-.128.768v1.28L0,47.234l.512,95.877,42.114,1.024ZM16.257,16.9c1.152,2.56,2.688,4.224,4.608,4.224,1.792,0,3.456-1.664,4.608-4.224C30.082,27.137,36.354,41.09,38.018,44.8c-1.792,1.792-5.632,5.76-7.168,7.3h-.128v-.256l-9.6-11.009-9.6,11.009V52.1c-1.536-1.536-5.376-5.376-7.3-7.168C6.144,40.45,12.033,26.881,16.257,16.9Z" transform="translate(0 0)"/><path class="b" d="M13.969,149.782l15.361-.128a13.33,13.33,0,0,0,13.313-13.441l-.128-18.689L.4,116.5l.128,19.841A13.358,13.358,0,0,0,13.969,149.782Z" transform="translate(0.112 32.628)"/></g><text class="c" transform="translate(320.097 7866.88)"><tspan x="14.265" y="28">2013</tspan></text><g transform="translate(538.85 7646.271)"><path class="b" d="M42.114,46.978h0l-.128-1.408a1.624,1.624,0,0,0-.128-.768l-15.1-33.922v-.128l-4.224-9.6A2.168,2.168,0,0,0,20.737,0a2.168,2.168,0,0,0-1.792,1.152l-4.1,9.6v.128L.256,45.058a1.624,1.624,0,0,0-.128.768v1.28L0,47.234.512,166.153l42.114,1.024ZM16.257,16.9c1.152,2.56,2.688,4.224,4.608,4.224,1.792,0,3.456-1.664,4.608-4.224C30.082,27.137,36.354,41.09,38.018,44.8c-1.792,1.792-5.632,5.76-7.168,7.3h-.128v-.256l-9.6-11.009-9.6,11.009V52.1c-1.536-1.536-5.376-5.376-7.3-7.168C6.144,40.45,12.033,26.881,16.257,16.9Z"/><path class="b" d="M13.969,167.782l15.361-.128a13.33,13.33,0,0,0,13.313-13.441l-.128-18.689L.4,134.5l.128,19.841A13.358,13.358,0,0,0,13.969,167.782Z" transform="translate(0.112 37.669)"/></g><text class="d" transform="translate(509.938 7866.88)"><tspan x="12.2" y="28">2016</tspan></text><text class="e" transform="translate(287.261 7563)"><tspan x="28.361" y="58">81%</tspan></text></g></svg>