<svg xmlns="http://www.w3.org/2000/svg" viewBox="110 -4975.387 126.134 149.756"><defs><style>.a{fill:#fff;}</style></defs><g transform="translate(110 -4975.387)"><path class="a" d="M20.9,7.2h0Z" transform="translate(41.698 14.365)"/><g transform="translate(14.152)"><path class="a" d="M69.3,41.941l-1.8-18.57a1.8,1.8,0,0,0-.3-1.2,1.556,1.556,0,0,1,1.2-.6h.3a6.419,6.419,0,0,0,2.7-4.493L72.3,6,47.436,12.589h-1.2L21.079,6l1.2,11.082a7.1,7.1,0,0,0,2.7,4.493h.3a1.556,1.556,0,0,0,1.2.6c0,.3-.3.9-.3,1.2l-2.1,18.57a13.4,13.4,0,0,1-11.98,11.98H8.2l3.894,3.894A14.058,14.058,0,0,0,25.572,61.41h0a10.094,10.094,0,0,0,6.589-5.99l1.2-3.594a22.019,22.019,0,0,0,3.594,5.092,27.524,27.524,0,0,0,4.792,3.594,9.4,9.4,0,0,0,10.183,0,27.526,27.526,0,0,0,4.792-3.594,15.662,15.662,0,0,0,3.594-5.092l1.2,3.594A8.443,8.443,0,0,0,68.1,61.41h0A14.821,14.821,0,0,0,81.58,57.816l3.894-3.894-3.894-.3C74.991,53.023,69.9,48.231,69.3,41.941Zm-6.889-8.087-.6,8.985h0v.6a17.757,17.757,0,0,1-1.2,5.092c-.9,1.8-3,5.691-4.792,7.488-.9.6-2.4,1.8-4.493,3.295a6.877,6.877,0,0,1-4.193,1.2,6.877,6.877,0,0,1-4.193-1.2c-2.1-1.5-3.894-2.7-4.493-3.295a21.027,21.027,0,0,1-4.792-7.488c-.6-1.2-.9-3.894-1.2-5.092v-.6h0l-.3-6.589-.3-4.193a15.213,15.213,0,0,1,.9-5.092h0c.3-.6.3-.9.6-1.5a37.327,37.327,0,0,0,27.855,0A19.7,19.7,0,0,1,62.412,33.855Z" transform="translate(2.208 11.971)"/><path class="a" d="M102.291,9.285,53.77,0h0L4.95,9.285c-.3,0-.3.6,0,.6L53.471,22.763h.3L102.291,9.884C102.59,9.884,102.59,9.285,102.291,9.285Z" transform="translate(-4.725)"/><path class="a" d="M38.79,22.771a2.609,2.609,0,0,0-1.8-2.4V4.8l-1.5.3V20.375a2.278,2.278,0,0,0-1.8,2.4,3.054,3.054,0,0,0,1.5,2.4l-2.7,12.28h7.488l-2.7-12.28A2.372,2.372,0,0,0,38.79,22.771Z" transform="translate(50.689 9.577)"/></g><g transform="translate(0 110.736)"><path class="a" d="M52.714,64.61a14.6,14.6,0,0,0,1.2-3.295,324.7,324.7,0,0,0-40.434,3.894,8.78,8.78,0,0,1-8.386-4.193A16.454,16.454,0,0,1,3,52.63c0-8.985,5.691-12.28,9.884-10.782,4.493,1.5,4.493,6.29,3.594,9.884a3.666,3.666,0,0,1-4.193,3,3.515,3.515,0,0,1-3-2.7l-.6-3c0-.6-1.2-.9-1.2,0-.6,2.1-1.8,6.589.3,10.183a6.542,6.542,0,0,0,6.29,3c6.29-.9,24.26-3,40.734-3.594a26.9,26.9,0,0,0-2.4-17.971l-.6-1.2c-13.179-.3-26.657-1.2-39.835-2.4h0A9.51,9.51,0,0,0,1.8,43.345a24.884,24.884,0,0,0,0,18.57h0A10.094,10.094,0,0,0,12.28,68.2h0c13.478-1.5,26.657-2.1,40.135-2.4Z" transform="translate(0 -36.972)"/><path class="a" d="M74.22,43.345c-1.8-4.193-5.99-6.889-10.183-6.29h0c-12.879,1.5-25.758,2.1-38.937,2.4A33.606,33.606,0,0,1,27.5,58.92c15.575.9,35.043,3,46.424,4.193.3-.3.3-.9.6-1.2h0A26.437,26.437,0,0,0,74.22,43.345Z" transform="translate(50.077 -36.972)"/><path class="a" d="M25.2,49.593c12.879.3,25.758,1.2,38.637,2.4h0a9.328,9.328,0,0,0,7.787-2.7C61.441,48.1,43.77,46,26.7,45.1A39.177,39.177,0,0,1,25.2,49.593Z" transform="translate(50.277 -20.756)"/><path class="a" d="M18.3,37.8a31.2,31.2,0,0,1,.3,26.357H36.271a30.156,30.156,0,0,0-.3-26.357A173.9,173.9,0,0,1,18.3,37.8Z" transform="translate(36.511 -35.321)"/><path class="a" d="M18.3,47.1l2.1,1.5a13.377,13.377,0,0,1,4.792,7.188h0l4.193-5.99,9.285,4.792h0a25.589,25.589,0,0,0-2.7-7.188h0Z" transform="translate(36.511 -16.766)"/></g><path class="a" d="M75.577,29.272,63.9,25.678a1.44,1.44,0,0,0-1.8.6L55.51,35.562c-2.7,4.193-8.985,4.193-11.98,0L36.94,25.977a1.44,1.44,0,0,0-1.8-.6L23.462,28.972C12.081,32.567,5.192,43.349,6.989,54.73l.6,3.894c5.092.3,23.661,1.8,41.932,1.8,18.57,0,37.139-1.2,41.932-1.8l.6-3.894C94.147,43.648,86.959,32.866,75.577,29.272Z" transform="translate(13.378 50.398)"/></g></svg>