<svg xmlns="http://www.w3.org/2000/svg" viewBox="-1024 -5506.522 55.372 65.742"><defs><style>.a{fill:#fff;}</style></defs><g transform="translate(-1184 -6026.864)"><g transform="translate(166 520.342)"><path class="a" d="M35.023,21.778l-.789-8.152A.791.791,0,0,0,34.1,13.1a.683.683,0,0,1,.526-.263h.131a2.818,2.818,0,0,0,1.183-1.972L36.338,6,25.424,8.893H24.9L13.854,6l.526,4.865a3.117,3.117,0,0,0,1.183,1.972h.131a.683.683,0,0,0,.526.263c0,.131-.131.394-.131.526l-.92,8.152a5.882,5.882,0,0,1-5.259,5.259H8.2l1.709,1.709a6.171,6.171,0,0,0,5.917,1.578h0a4.431,4.431,0,0,0,2.893-2.63l.526-1.578a9.666,9.666,0,0,0,1.578,2.235,12.083,12.083,0,0,0,2.1,1.578,4.129,4.129,0,0,0,4.47,0,12.083,12.083,0,0,0,2.1-1.578,6.875,6.875,0,0,0,1.578-2.235l.526,1.578a3.706,3.706,0,0,0,2.893,2.63h0a6.506,6.506,0,0,0,5.917-1.578l1.709-1.709-1.709-.131A5.772,5.772,0,0,1,35.023,21.778ZM32,18.228l-.263,3.945h0v.263a7.8,7.8,0,0,1-.526,2.235,15.318,15.318,0,0,1-2.1,3.287c-.394.263-1.052.789-1.972,1.446a3.019,3.019,0,0,1-1.841.526,3.019,3.019,0,0,1-1.841-.526c-.92-.657-1.709-1.183-1.972-1.446a9.231,9.231,0,0,1-2.1-3.287,13.755,13.755,0,0,1-.526-2.235v-.263h0l-.131-2.893-.131-1.841a6.678,6.678,0,0,1,.394-2.235h0c.131-.263.131-.394.263-.657a16.386,16.386,0,0,0,12.228,0A8.649,8.649,0,0,1,32,18.228Z" transform="translate(-3.631 1.889)"/><path class="a" d="M47.556,4.076,26.256,0h0L4.824,4.076c-.131,0-.131.263,0,.263l21.3,5.654h.131l21.3-5.654C47.687,4.339,47.687,4.076,47.556,4.076Z" transform="translate(-4.725)"/><path class="a" d="M35.261,12.689a1.145,1.145,0,0,0-.789-1.052V4.8l-.657.131v6.706a1,1,0,0,0-.789,1.052,1.341,1.341,0,0,0,.657,1.052L32.5,19.132h3.287L34.6,13.741A1.041,1.041,0,0,0,35.261,12.689Z" transform="translate(4.02 1.511)"/></g><g transform="translate(160 568.955)"><path class="a" d="M23.141,49.105a6.409,6.409,0,0,0,.526-1.446,142.54,142.54,0,0,0-17.75,1.709,3.854,3.854,0,0,1-3.682-1.841,7.223,7.223,0,0,1-.92-3.682c0-3.945,2.5-5.391,4.339-4.733,1.972.657,1.972,2.761,1.578,4.339a1.609,1.609,0,0,1-1.841,1.315,1.543,1.543,0,0,1-1.315-1.183l-.263-1.315c0-.263-.526-.394-.526,0-.263.92-.789,2.893.131,4.47A2.872,2.872,0,0,0,6.18,48.053c2.761-.394,10.65-1.315,17.882-1.578a11.807,11.807,0,0,0-1.052-7.889l-.263-.526c-5.785-.131-11.7-.526-17.487-1.052h0A4.175,4.175,0,0,0,.789,39.77a10.924,10.924,0,0,0,0,8.152h0a4.431,4.431,0,0,0,4.6,2.761h0c5.917-.657,11.7-.92,17.619-1.052Z" transform="translate(0 -36.972)"/><path class="a" d="M46.663,39.77a4.365,4.365,0,0,0-4.47-2.761h0c-5.654.657-11.308.92-17.093,1.052a14.753,14.753,0,0,1,1.052,8.546c6.837.394,15.384,1.315,20.38,1.841.131-.131.131-.394.263-.526h0A11.606,11.606,0,0,0,46.663,39.77Z" transform="translate(7.903 -36.972)"/><path class="a" d="M25.2,47.072c5.654.131,11.308.526,16.961,1.052h0a4.1,4.1,0,0,0,3.419-1.183c-4.47-.526-12.228-1.446-19.723-1.841A17.2,17.2,0,0,1,25.2,47.072Z" transform="translate(7.934 -34.413)"/><path class="a" d="M18.3,37.8a13.7,13.7,0,0,1,.131,11.571h7.758A13.238,13.238,0,0,0,26.058,37.8,76.336,76.336,0,0,1,18.3,37.8Z" transform="translate(5.762 -36.712)"/><path class="a" d="M18.3,47.1l.92.657a5.872,5.872,0,0,1,2.1,3.156h0l1.841-2.63,4.076,2.1h0a11.233,11.233,0,0,0-1.183-3.156h0Z" transform="translate(5.762 -33.784)"/></g><path class="a" d="M36.94,27.022l-5.128-1.578a.632.632,0,0,0-.789.263L28.13,29.783a3.194,3.194,0,0,1-5.259,0l-2.893-4.207a.632.632,0,0,0-.789-.263L14.061,26.89A10.2,10.2,0,0,0,6.83,38.2l.263,1.709c2.235.131,10.387.789,18.408.789,8.152,0,16.3-.526,18.408-.789l.263-1.709C45.092,33.333,41.936,28.6,36.94,27.022Z" transform="translate(162.295 528.295)"/></g></svg>