<svg xmlns="http://www.w3.org/2000/svg" viewBox="-87 -3320.297 520.222 400"><defs><style>.a{fill:#fff;}.b{fill:#ffcd36;}.c,.d,.e{fill:#298dc1;}.c{font-size:24px;}.c,.e{font-family:ProximaNova-Medium, Proxima Nova;font-weight:500;}.e{font-size:20px;}</style></defs><g transform="translate(-547 -6027)"><g transform="translate(667 2965.518)"><path class="a" d="M107.018,385.272c0-.719-.033-1.4-.1-2.091a4.874,4.874,0,0,1-.065-.686c-.065-.457-.131-.915-.229-1.372a10.615,10.615,0,0,0-.359-1.372l-.1-.294a13.691,13.691,0,0,0-3.2-5.455h0c-.229-.229-.457-.457-.719-.686-.065-.065-.163-.131-.229-.2-.1-.065-.163-.163-.261-.229l-.784-.588a10.944,10.944,0,0,0-1.47-.882c-.1-.033-.163-.1-.261-.131-3.463-1.829-7.742-2.613-11.727-3.365-.457-.1-.915-.163-1.339-.261l-1.568-.294c-.065,0-.163-.033-.229-.033-.751-.163-1.47-.294-2.221-.49.1-.555.2-1.078.294-1.666,0-.033-.033-.033-.033-.065-.98-1.274-2.385-3.038-3.626-4.573a26.532,26.532,0,0,0-2.809-3.267h-.033c-.065.261-.163.49-.229.751.065-.327.131-.588.163-.751h0c-1.143-.359-9.963,2.94-11.237,2.646.457,1.241,5.1,3.953,7.742,5.782a14.07,14.07,0,0,1-1.437,1.927,13.7,13.7,0,0,1-3.2,2.777A24.819,24.819,0,0,1,57.3,373.217l.065.065h-.131c-1.274,4.606-1.927,9.473-3.691,14.047-1.764-4.573-2.417-9.441-3.691-14.047h-.131l.065-.065a24.819,24.819,0,0,1-10.453-2.809,14.707,14.707,0,0,1-4.671-4.737c2.646-1.829,7.252-4.541,7.709-5.782-1.274.294-10.094-3.005-11.237-2.646h0c-.131-.1-4.247,5.031-6.4,7.807,0,.033-.033.033-.033.065l.294,1.666c-.751.163-1.47.327-2.221.49-.065,0-.163.033-.229.033l-1.568.294h0c-5.39,1.045-11.466,1.895-15.582,5.227a13.7,13.7,0,0,0-4.508,6.86c-.131.457-.261.915-.359,1.372s-.163.915-.229,1.372l-.1.686c-.065.686-.1,1.4-.1,2.091v2.548H107.051V386.48C107.018,386.121,107.018,385.7,107.018,385.272Z" transform="translate(-0.1 -246.569)"/><path class="a" d="M147.136,276.021a2.322,2.322,0,0,0-1.927-.523,7.161,7.161,0,0,0-2.548,1.372c-.719.555-2.385,2.287-3.561,2.548.033.033.1.065.131.131,2.417,2.417,4.606,4.247,7.905,4.8,3.3-.555,5.488-2.417,7.905-4.8l.131-.131c-1.176-.261-2.842-1.993-3.561-2.548a6.9,6.9,0,0,0-2.548-1.372A2.322,2.322,0,0,0,147.136,276.021Z" transform="translate(-93.693 -191.513)"/><path class="a" d="M108.474,54.074c0-6.174-7.285-11.727-18.685-15.386C87.273,27.189,76.559,18.5,63.851,18.5H48.923c-12.707,0-23.422,8.689-25.937,20.188C11.552,42.379,4.3,47.9,4.3,54.074,4.3,59.2,9.265,63.841,17.432,67.4c0,.1-.033.2-.033.294-.555,7.383,2.319,14.537,6.566,20.482a25.266,25.266,0,0,0,3.43,4.083c.229.2.457.392.686.555a7,7,0,0,0,.621.425.663.663,0,0,0,.555.033c-.065-.163-.1-.359-.163-.523-.1-.392-.229-.784-.327-1.176V91.51a10.2,10.2,0,0,1-1.143-.817,8.831,8.831,0,0,1-3.4-5.292c-.294-1.731.327-4.312,2.613-3.626a.2.2,0,0,0-.033-.131c.033,0,.033.033.065.033-.033-.294-.1-.588-.131-.882.229-.588.392-1.241.588-1.862a23.891,23.891,0,0,1,1.176-3.005,41.333,41.333,0,0,1,2.156-4.345A121.425,121.425,0,0,0,56.4,74.2c3.3,0,6.5-.131,9.637-.359h0c.2.2.392.425.588.621,1.829,1.862,3.724,3.691,5.684,5.357a21.407,21.407,0,0,0,4.312,2.94c.882.457,1.829.849,2.744,1.241a4.394,4.394,0,0,1,.359.457,11.3,11.3,0,0,1,.719,1.013,13.416,13.416,0,0,1,.784,1.274,7.957,7.957,0,0,1,.457.915,12.077,12.077,0,0,1,1.241,4.9,8.226,8.226,0,0,1-.261,2.385,1.617,1.617,0,0,1-.131.425c-.2.555-.392,1.078-.588,1.6-1.111,2.581-2.679,5.031-3.43,7.546a8.225,8.225,0,0,0,1.111,7.383c2.907,4.247,9.9,4.377,11.989-.719.261-.621-.621-.98-1.045-.621a2.992,2.992,0,0,1-3.593.229,4.224,4.224,0,0,1-1.8-4.41c.425-3.169,2.875-5.39,4.835-7.677A31.342,31.342,0,0,0,93.9,93.078a32.614,32.614,0,0,0,2.973-7.611,38.874,38.874,0,0,0-.065-18.685c.131-.065.294-.131.425-.2,1.927,7.611,2.287,15.68-1.241,22.9-.49,1.013-1.307,2.254-2.025,3.593-1.6,2.875-2.907,6.141-.359,8.493.033.033.033,0,.033-.033-1.274-3.038,0-5.619,1.7-8.2a29,29,0,0,0,3.3-6.3A32.584,32.584,0,0,0,99.948,72.2a47.237,47.237,0,0,0-1.274-6.4C104.848,62.5,108.474,58.451,108.474,54.074Zm-30.8,28.681a16.975,16.975,0,0,1-4.443-3.169c-1.862-1.731-3.561-3.626-5.259-5.521-.131-.131-.229-.261-.359-.392a8.606,8.606,0,0,1,.915-.065c.131.1.229.2.359.294a67.556,67.556,0,0,1,9.9,9.408C78.421,83.115,78.061,82.951,77.669,82.755Z" transform="translate(-2.928 -18.5)"/></g><path class="b" d="M145.7,72.85A72.851,72.851,0,1,0,8.112,106.234h0l.312.468c.624,1.248,1.248,2.34,2.028,3.588L73.007,222.3l62.555-112.006c.624-1.092,1.4-2.34,2.028-3.588l.312-.468h0A74.58,74.58,0,0,0,145.7,72.85Z" transform="translate(647 2706.703)"/><ellipse class="a" cx="53.507" cy="53.507" rx="53.507" ry="53.507" transform="translate(666 2726.047)"/><text class="c" transform="translate(624 2766.559)"><tspan x="51.112" y="19">St. Louis</tspan></text><g transform="translate(-23)"><g transform="translate(866.348 2958.67)"><path class="a" d="M435.1,63.432a8.5,8.5,0,0,0,6.662,5.546c.066.394.131.755.2,1.149-2.1,3.282-3.183,6.99-2.264,10.731a12.428,12.428,0,0,0,8.4,8.565,9.659,9.659,0,0,0,.131,12.339c3.216,3.708,9.123,5.054,14.144,3.675.788,4.1,4.561,7.745,9.451,8.467a11.955,11.955,0,0,0,8.959-2.2c.131-.755.23-1.542.3-2.3a40.245,40.245,0,0,0,0-6.6,27.855,27.855,0,0,1-4.3-6.137c-2.2-4.463-3.15-9.549-4.233-14.275-.1-.492-.23-.984-.361-1.477-3.938-2.035-6.694-5.218-7.515-8.663-.591-2.461.033-6.169,3.183-5.677.1.525.23,1.083.361,1.608,0,.427-.033.886-.033,1.313a19.236,19.236,0,0,0,.459,4.725c.394,1.575.788,3.741,2.986,4.66a.554.554,0,0,0,.164.066,3.07,3.07,0,0,0,.525.131,2.445,2.445,0,0,0,2.461-.755c.788-1.378-.755-3.118-1.181-4.627a30.31,30.31,0,0,1-.788-4.463,112.541,112.541,0,0,1-1.05-13.717c-.033-2.855-.3-5.972.394-8.762.623-2.4,2.724-3.708,4.4-5.316,2.067-2.035,4.1-3.643,7.121-4.036,4.693-.591,7.941,2.428,11.879,4.4q1.378.689,2.855,1.28a36.426,36.426,0,0,0,5.841,1.8,36.047,36.047,0,0,0,10.928.853,22.879,22.879,0,0,0,7.876-2.035,7.366,7.366,0,0,1,1.608,3.052c1.9,7.416.3,15.062-.689,22.479a35.32,35.32,0,0,1-.788,4.463c-.427,1.51-1.969,3.249-1.181,4.627a2.38,2.38,0,0,0,2.461.755,2.731,2.731,0,0,0,.492-.131l.2-.1c2.2-.919,2.592-3.118,2.986-4.66a17.768,17.768,0,0,0,.459-4.725c0-.394,0-.82-.033-1.214.164-.558.263-1.116.394-1.674,3.183-.492,3.774,3.216,3.183,5.677-.853,3.446-3.577,6.629-7.515,8.663-.131.492-.23.984-.361,1.477-1.083,4.725-2.067,9.812-4.233,14.275a27.532,27.532,0,0,1-4.3,6.137,36.386,36.386,0,0,0,.3,8.86,11.815,11.815,0,0,0,8.959,2.2c4.89-.722,8.664-4.365,9.451-8.466,4.988,1.378,10.927.033,14.111-3.675a9.7,9.7,0,0,0,.131-12.339,12.492,12.492,0,0,0,8.4-8.565c.952-3.774-.164-7.449-2.264-10.731.066-.394.131-.755.2-1.149a8.439,8.439,0,0,0,6.662-5.546c1.313-4.4-1.28-9.385-5.907-11.486,3.347-3.282,4.988-7.909,3.183-12.076-1.706-3.938-6.268-6.694-11.092-6.694.263-5.152-1.346-10.764-6.432-13.881a15.058,15.058,0,0,0-12.011-1.51c.033-5.743-4.791-11.354-11.551-12.864a18.526,18.526,0,0,0-9.582.492,7.984,7.984,0,0,0-.656-.82A10.945,10.945,0,0,0,498.832,0a10.254,10.254,0,0,0-9.024,5.907,18.424,18.424,0,0,0-10.928-.984c-6.76,1.51-11.617,7.121-11.551,12.864a15.074,15.074,0,0,0-12.01,1.51c-5.054,3.15-6.662,8.729-6.432,13.881-4.824-.033-9.353,2.757-11.059,6.694-1.8,4.168-.164,8.795,3.183,12.076v.033C436.383,54.08,433.791,59.068,435.1,63.432Z" transform="translate(-432.576 0.001)"/><path class="a" d="M463.705,382.09c.033-.1.033-.2.066-.3-3.741.164-7.876-.459-11.19.066a39.861,39.861,0,0,0-7.646,1.477c-8.007,2.428-15.949,9.221-16.835,17.425a19.865,19.865,0,0,0,11.584,3.675H481.82C472.106,392.591,463.541,382.057,463.705,382.09Z" transform="translate(-428.1 -256.405)"/><path class="a" d="M702.752,383.15a39.88,39.88,0,0,0-7.646-1.477c-3.314-.525-7.449.131-11.19-.066a.955.955,0,0,1,.066.3c.164,0-8.4,10.5-18.082,22.315h41.873a20,20,0,0,0,11.847-3.872C718.57,392.273,710.694,385.578,702.752,383.15Z" transform="translate(-587.864 -256.283)"/><path class="a" d="M601.37,183.17a11.434,11.434,0,0,0-3.643-1.378,24.468,24.468,0,0,0-4.889-.492c-2-.066-4-.066-5.973,0-2,.066-4,.164-6.005.328h0l-2.494.2a32.594,32.594,0,0,1-6.2,0l-2.494-.2h0c-2-.164-4-.263-6.005-.328s-4-.066-5.972,0a30.483,30.483,0,0,0-4.89.492,11.433,11.433,0,0,0-3.642,1.378l-.066.033v.164a60.223,60.223,0,0,0,.689,9.385c.394,2.691,1.018,5.644,3.807,6.76a13.14,13.14,0,0,0,4.2.722,33.144,33.144,0,0,0,5.415,0,10.216,10.216,0,0,0,7.351-4.66c.886-1.411,1.313-3.019,2.067-4.5.525-1.083,1.936-3.478,3.249-2.56,2.363,1.641,2.658,4.758,4.1,7.023a10.156,10.156,0,0,0,7.318,4.66,33.138,33.138,0,0,0,5.415,0,12.161,12.161,0,0,0,4.2-.722c2.789-1.148,3.413-4.1,3.807-6.76a55.983,55.983,0,0,0,.689-9.385v-.164ZM554.8,184.285a16.29,16.29,0,0,1,5.907-.492,46.938,46.938,0,0,1,6.432.656,16,16,0,0,1,2.822.624,2.265,2.265,0,0,1,1.247,1.214c-4.4,0-8.762.033-13.159.033-1.9,0-3.84.033-5.743.033A4.239,4.239,0,0,1,554.8,184.285Zm11.584,12.864c-2.625,1.936-5.808,1.542-8.86,1.313a11.747,11.747,0,0,1-2.822-.427,3.763,3.763,0,0,1-2.33-2.067c1.181,0,2.363.033,3.544.033,3.905.033,7.81.033,11.715.033A9.8,9.8,0,0,1,566.388,197.149Zm1.214-1.083a12.545,12.545,0,0,0,1.28-1.674A10.281,10.281,0,0,1,567.6,196.066Zm1.936-2.921c-.2.427-.426.82-.656,1.214-3.61,0-7.219,0-10.829.033-2.067,0-4.135.033-6.2.033a10.215,10.215,0,0,1-.23-1.444l-.1-1.083c1.477,0,2.921.033,4.4.033,4.725.033,9.451.033,14.144.033C569.867,192.391,569.7,192.785,569.539,193.146Zm1.181-2.822c-4.233,0-8.466.033-12.7.033-2.166,0-4.365.033-6.531.033,0-.328.033-.656.066-.984.066-.558.131-1.05.23-1.542,1.378,0,2.724.033,4.1.033,5.152.033,10.271.033,15.424.033A10.226,10.226,0,0,1,570.72,190.324Zm9.779-5.283a14,14,0,0,1,2.822-.623,46.936,46.936,0,0,1,6.432-.656,16.29,16.29,0,0,1,5.907.492,4.594,4.594,0,0,1,2.527,1.969h-18.9A2.149,2.149,0,0,1,580.5,185.04Zm15.259,13a11.749,11.749,0,0,1-2.822.427c-3.052.23-6.235.623-8.86-1.313a12.468,12.468,0,0,1-1.214-1.083c5.054,0,10.107,0,15.161.033A3.633,3.633,0,0,1,595.759,198.035Zm3.118-5.021c-.066.427-.131.886-.23,1.313h-17.1c-.23-.394-.46-.788-.656-1.214-.164-.361-.361-.755-.525-1.149,6.169,0,12.339.033,18.541.033C598.909,192.358,598.909,192.686,598.876,193.014Zm-8.565-2.724H579.744a11.567,11.567,0,0,1-.591-2.33c6.53,0,13.028.033,19.558.033a18.259,18.259,0,0,1,.262,2.3Z" transform="translate(-509.387 -121.771)"/></g><g transform="translate(861 2770.703)"><g transform="translate(17.908 0)"><path class="d" d="M108.437,53.879A54.22,54.22,0,0,0,0,53.879a53.559,53.559,0,0,0,6.037,24.69h0l.232.346c.464.923.929,1.731,1.509,2.654l46.556,82.837,46.556-82.837c.464-.808,1.045-1.731,1.509-2.654l.232-.346h0A54.875,54.875,0,0,0,108.437,53.879Z" transform="translate(0 0)"/><ellipse class="a" cx="39.822" cy="39.573" rx="39.822" ry="39.573" transform="translate(14.396 14.306)"/></g><text class="e" transform="translate(0 44.973)"><tspan x="40.911" y="16">Detroit</tspan></text></g></g><g transform="translate(23)"><g transform="translate(437 2770.703)"><g transform="translate(17.908 0)"><path class="d" d="M108.437,53.879A54.22,54.22,0,0,0,0,53.879a53.559,53.559,0,0,0,6.037,24.69h0l.232.346c.464.923.929,1.731,1.509,2.654l46.556,82.837,46.556-82.837c.464-.808,1.045-1.731,1.509-2.654l.232-.346h0A54.875,54.875,0,0,0,108.437,53.879Z" transform="translate(0 0)"/><ellipse class="a" cx="39.822" cy="39.573" rx="39.822" ry="39.573" transform="translate(14.396 14.306)"/></g><text class="e" transform="translate(0 44.973)"><tspan x="34.621" y="16">Chicago</tspan></text></g><g transform="translate(440.395 2967.739)"><path class="a" d="M1007.447,379.664a39.678,39.678,0,0,0-7.61-1.47c-4.54-.719-10.55.751-15.09-.686a8.819,8.819,0,0,1-2.417-1.208,23.565,23.565,0,0,1-7.218,4.148,36.982,36.982,0,0,1-11.235,1.992c-.49.033-.948.033-1.437.033a17.821,17.821,0,0,0-3.495-.033h-.588a13.875,13.875,0,0,0-3.495.033c-.49,0-.947-.033-1.437-.033a36.806,36.806,0,0,1-11.235-1.992,23.56,23.56,0,0,1-7.218-4.148,7.991,7.991,0,0,1-2.417,1.208c-4.507,1.47-10.55-.033-15.089.686a39.678,39.678,0,0,0-7.61,1.47c-7.969,2.417-15.873,9.178-16.755,17.343a19.772,19.772,0,0,0,11.529,3.658h107.815a19.9,19.9,0,0,0,11.791-3.854C1023.19,388.744,1015.351,382.081,1007.447,379.664Z" transform="translate(-893.1 -261.701)"/><path class="a" d="M974.83,70.82a6.86,6.86,0,0,0,2.286,3.723,4.634,4.634,0,0,0,.718.425c.1,1.012.2,2.025.359,3a10.378,10.378,0,0,0,2.744,5.944,2.571,2.571,0,0,1,2.09-.49c.131.653.261,1.274.457,1.927a17.6,17.6,0,0,0,1.568,3.887,13.41,13.41,0,0,0,.718,1.143c.065.1.294.163.359,0v-.033a13.031,13.031,0,0,0,.849-5.128c0-.653,0-1.306-.033-1.992l.1.2a1.4,1.4,0,0,0,1.013.425c.261,3.07,1.8,6.924,4.7,8.753a7.859,7.859,0,0,0,4.148,1.208,10.3,10.3,0,0,0,5.095-1.47,16.324,16.324,0,0,0,4.148-3.4c1.372-1.568,3.723-4.638,4.181-7.806a.3.3,0,0,1,.033-.163,4.552,4.552,0,0,1,1.176-.947,4.262,4.262,0,0,1,.816-.327l.1-.033a.637.637,0,0,1,.261-.033.9.9,0,0,1,.294-.033h.914c.1,0,.2.033.327.033.066,0,.164.033.229.033.033,0,.065.033.1.033a3.56,3.56,0,0,1,.817.327,3.96,3.96,0,0,1,1.175.947v.163c.458,3.168,2.842,6.271,4.181,7.806a16.326,16.326,0,0,0,4.148,3.4,10.3,10.3,0,0,0,5.095,1.47,7.575,7.575,0,0,0,4.148-1.208c2.907-1.829,4.442-5.683,4.7-8.753a1.4,1.4,0,0,0,1.013-.425.737.737,0,0,0,.065-.621,1.172,1.172,0,0,0-1.11-.784,8.153,8.153,0,0,0-.163-.947,9.218,9.218,0,0,0-6.075-6.5,18.588,18.588,0,0,0-5.749-.719c-.686,0-1.4.033-2.058.033a14,14,0,0,0-3.821.523,5.166,5.166,0,0,0-1.535-.327c-1.274-.131-2.58-.229-3.985-.294-.555-.033-1.143-.033-1.764-.033h-.392c-.653,0-1.208,0-1.764.033-1.4.065-2.711.163-3.985.294a5.836,5.836,0,0,0-1.535.327,15.382,15.382,0,0,0-3.821-.523c-.653-.033-1.372-.033-2.058-.033a18.588,18.588,0,0,0-5.749.719,9.218,9.218,0,0,0-6.075,6.5,8.139,8.139,0,0,0-.163.947,1.1,1.1,0,0,0-1.111.784.121.121,0,0,1-.032.1V81.99c0-3.2.032-6.369,0-9.57-.033-2.842-.294-5.944.392-8.721.62-2.384,2.711-3.691,4.376-5.291,2.058-2.025,4.083-3.625,7.088-4.017,4.671-.588,7.9,2.417,11.823,4.377q1.372.686,2.841,1.274a36.276,36.276,0,0,0,5.814,1.8,35.877,35.877,0,0,0,10.876.849,22.77,22.77,0,0,0,7.839-2.025,7.331,7.331,0,0,1,1.6,3.038c.719,2.776.425,5.879.392,8.721-.033,3.2,0,6.369,0,9.57,0,1.078-.033,2.156-.033,3.233a13.128,13.128,0,0,0,.849,5.128v.033c.065.163.261.1.359,0a13.427,13.427,0,0,0,.719-1.143,16.692,16.692,0,0,0,1.568-3.887c.163-.653.327-1.274.457-1.927a2.54,2.54,0,0,1,2.091.49,7.718,7.718,0,0,0,1.6-2.221,6.311,6.311,0,0,0,1.666-2.842,8.146,8.146,0,0,0,.032-4.246,8.725,8.725,0,0,0,1.633-10.19,8.7,8.7,0,0,0,1.4-6.271,9.9,9.9,0,0,0-1.666-3.854c-.425-.653-.229-.686.065-1.535a9.054,9.054,0,0,0,.49-2.45,7.294,7.294,0,0,0-1.764-4.834,17.049,17.049,0,0,1-1.568-1.5,4.929,4.929,0,0,1-.523-1.568,6.333,6.333,0,0,0-5.16-4.409,7.7,7.7,0,0,0-6.663-4.311c-.49,0-1.339-1.5-1.764-1.829a9.23,9.23,0,0,0-5.259-1.992,14.192,14.192,0,0,0-5.879-3.952,11.14,11.14,0,0,0-9.178,1.208c-.2.033-.359.065-.555.1a12.077,12.077,0,0,0-5.1-1.045c-3.2.065-7.087,1.764-8.753,4.638a11.375,11.375,0,0,0-4.475.033,7.351,7.351,0,0,0-4.409,3.331,9.164,9.164,0,0,0-6.826,2.221,8.646,8.646,0,0,0-2.777,7.088,8.252,8.252,0,0,0-4.017,4.605,8.337,8.337,0,0,0,.294,6.271,9.077,9.077,0,0,0-.915,10.419A7.228,7.228,0,0,0,974.83,70.82Zm50,3.854c.621-.033,1.339-.033,2.025-.033a17.973,17.973,0,0,1,5.52.686,8.591,8.591,0,0,1,5.618,6.01c.065.327.131.653.163.98a8,8,0,0,1,.033,1.241v.163c-.2,2.94-1.666,6.663-4.409,8.394A7.2,7.2,0,0,1,1030,93.225c-2.907,0-6.173-1.731-8.72-4.638-1.045-1.208-3.56-4.377-4.017-7.479a6.883,6.883,0,0,1-.066-1.143,4.7,4.7,0,0,1,1.731-3.593C1020.556,74.968,1022.81,74.739,1024.835,74.674Zm-16.788.49h.2c1.372-.065,2.744-.065,3.821-.1H1015c1.045,0,2.417.033,3.821.1h.163a2.159,2.159,0,0,1,.458.033,5.853,5.853,0,0,0-.915.653,5.544,5.544,0,0,0-1.927,3.593c-.163-.131-.326-.229-.523-.359a.438.438,0,0,0-.228-.2,4.889,4.889,0,0,0-2.188-.49h-.327a5.1,5.1,0,0,0-2.188.49c-.1.033-.163.131-.229.2a4.977,4.977,0,0,0-.522.359,5.547,5.547,0,0,0-1.927-3.593,5.879,5.879,0,0,0-.915-.653A2.469,2.469,0,0,1,1008.047,75.164Zm-19.237,7.153a8.758,8.758,0,0,1,.163-.98,8.527,8.527,0,0,1,5.618-6.01,19.035,19.035,0,0,1,5.52-.686c.718,0,1.4.033,2.025.033,2.025.065,4.311.294,5.879,1.666a4.8,4.8,0,0,1,1.731,3.593,6.907,6.907,0,0,1-.065,1.143c-.457,3.1-2.972,6.238-4.017,7.479-2.548,2.907-5.781,4.638-8.721,4.638a6.84,6.84,0,0,1-3.789-1.11c-2.744-1.731-4.214-5.454-4.41-8.394v-.163A7.485,7.485,0,0,1,988.809,82.316Z" transform="translate(-947.983 -25.43)"/></g></g></g></svg>