<svg xmlns="http://www.w3.org/2000/svg" viewBox="7067 -5129.367 960.146 500">
  <defs>
    <style>
      .cls-1 {
        fill: rgba(255,255,255,0);
        stroke: #fff;
      }

      .cls-2, .cls-3, .cls-5, .cls-6 {
        fill: #fff;
      }

      .cls-2 {
        font-size: 60px;
      }

      .cls-2, .cls-3 {
        font-family: Sentinel-Medium, Sentinel;
        font-weight: 500;
      }

      .cls-3 {
        font-size: 48px;
      }

      .cls-4 {
        font-size: 24px;
      }

      .cls-4, .cls-6 {
        font-family: ProximaNova-Light, Proxima Nova;
        font-weight: 300;
      }

      .cls-6 {
        font-size: 28px;
      }

      .cls-7 {
        stroke: none;
      }

      .cls-8 {
        fill: none;
      }
    </style>
  </defs>
  <g id="Group_8153" data-name="Group 8153" transform="translate(6827 -6021)">
    <g id="Rectangle_847" data-name="Rectangle 847" class="cls-1" transform="translate(240 891.633)">
      <rect class="cls-7" width="960" height="500"/>
      <rect class="cls-8" x="0.5" y="0.5" width="959" height="499"/>
    </g>
    <text id="_3_100_Maritz_Employees" data-name="3,100 Maritz Employees" class="cls-2" transform="translate(240 1071.633)"><tspan x="162.643" y="58">3,100 Maritz Employees</tspan></text>
    <g id="Group_7278" data-name="Group 7278" transform="translate(631 417)">
      <text id="_2_203_Hours_of_uplifting_hard_work" data-name="2,203 Hours
of uplifting hard work" class="cls-3" transform="translate(138 822)"><tspan x="3.567" y="46">2,203 Hours</tspan><tspan class="cls-4"><tspan x="24.471" y="86">of uplifting hard work</tspan></tspan></text>
    </g>
    <g id="Group_7277" data-name="Group 7277" transform="translate(267 417)">
      <text id="_645_Employees_giving_their_all_" data-name="645 Employees
giving their all " class="cls-3" transform="translate(138 822)"><tspan x="2.152" y="46">645 Employees</tspan><tspan class="cls-4"><tspan x="90.724" y="86">giving their all </tspan></tspan></text>
    </g>
    <g id="Group_4941" data-name="Group 4941" transform="translate(469.956 930.855)">
      <path id="Path_4637" data-name="Path 4637" class="cls-5" d="M237.236,55.689a2.537,2.537,0,0,1,1.681-.877h10.893a2.381,2.381,0,0,1,1.535.877l1.9,2.193,1.9,2.193,2.924,3.363,2.851-3.29,1.9-2.266,1.9-2.193a2.537,2.537,0,0,1,1.681-.877H277.3a2.381,2.381,0,0,1,1.535.877l1.9,2.193,1.9,2.266L286,64.023l3.363-3.875,1.9-2.193,1.9-2.193a2.537,2.537,0,0,1,1.681-.877h10.893a2.38,2.38,0,0,1,1.535.877l1.9,2.193,1.9,2.193L314,63.511l2.851-3.29,1.9-2.266,1.9-2.193a2.537,2.537,0,0,1,1.681-.877h10.893a2.381,2.381,0,0,1,1.535.877l1.9,2.193,1.9,2.266,2.339,2.7,2.413-2.778,1.9-2.193,1.9-2.193a2.537,2.537,0,0,1,1.682-.877h10.893a2.38,2.38,0,0,1,1.535.877l1.9,2.193,1.9,2.193,2.924,3.363,2.851-3.29,1.9-2.266,1.9-2.193a2.537,2.537,0,0,1,1.681-.877H387.18a2.381,2.381,0,0,1,1.535.877l1.9,2.193.219.219c.439-2.413.8-4.825,1.024-7.238a51.9,51.9,0,0,0-.585-14.914A44.08,44.08,0,0,0,385.5,21.328,43.485,43.485,0,0,0,375.118,9.777,44.691,44.691,0,0,0,347.41.2c-.731,0-1.535,0-2.266.073a44.816,44.816,0,0,0-28.878,12.5A41.508,41.508,0,0,0,312.83,16.5h0a41.494,41.494,0,0,0-3.436-3.728A42.868,42.868,0,0,0,296.307,4,45.352,45.352,0,0,0,280.516.273C279.785.2,278.981.2,278.25.2a44.523,44.523,0,0,0-13.89,2.193,43.5,43.5,0,0,0-13.817,7.384,46,46,0,0,0-10.381,11.551,44.7,44.7,0,0,0-5.776,14.695,51.776,51.776,0,0,0-.585,14.914c.219,2.413.585,4.825,1.024,7.238l.219-.219ZM382.062,43.407a5.044,5.044,0,1,1-5.044,5.044A5.054,5.054,0,0,1,382.062,43.407Zm-27.561,0a5.044,5.044,0,1,1-5.045,5.044A5.054,5.054,0,0,1,354.5,43.407Zm-26.538,0a5.044,5.044,0,1,1-5.044,5.044A5.055,5.055,0,0,1,327.963,43.407Zm-27.562,0a5.044,5.044,0,1,1-5.044,5.044A5.055,5.055,0,0,1,300.4,43.407Zm-28.512,0a5.044,5.044,0,1,1-5.044,5.044A5.055,5.055,0,0,1,271.889,43.407Zm-27.562,0a5.044,5.044,0,1,1-5.044,5.044A5.055,5.055,0,0,1,244.328,43.407Z" transform="translate(-62.789 0)"/>
      <path id="Path_4638" data-name="Path 4638" class="cls-5" d="M382.561,111.346v-6.36h-5.337s4.9-21.64,4.825-21.786l-1.754,2.047-1.9,2.266-1.9,2.193a2.4,2.4,0,0,1-2.413.8,2.345,2.345,0,0,1-2.193-.8l-1.9-2.193-1.9-2.193L366.4,83.346c0,.146-.073.292-.073.439V95.263h0V111.2a2.42,2.42,0,0,1-2.339,2.413A2.254,2.254,0,0,1,361.8,111.2V97.675h-2.632V111.2a2.42,2.42,0,0,1-2.339,2.413,2.254,2.254,0,0,1-2.193-2.413V96.433h0V83.785a1.085,1.085,0,0,0-.073-.512l-1.755,2.047-1.9,2.193L349,89.707l-.439.439h0a2.141,2.141,0,0,1-3.071-.366l-1.9-2.193-1.9-2.266-1.681-1.974c0,.146,4.9,21.713,4.9,21.713h-5.337v6.36a2.342,2.342,0,0,1-2.266,2.339,2.123,2.123,0,0,1-2.047-2.339v-6.433h-2.193v6.36a2.342,2.342,0,0,1-2.266,2.339,2.123,2.123,0,0,1-2.047-2.339v-6.36h-5.629s4.9-21.64,4.825-21.786L326.2,85.247l-1.9,2.266-1.9,2.193a2.4,2.4,0,0,1-2.413.8,2.345,2.345,0,0,1-2.193-.8l-1.9-2.193-1.9-2.193L312.3,83.346c0,.146-.073.292-.073.439V95.263h0V111.2a2.42,2.42,0,0,1-2.339,2.413A2.254,2.254,0,0,1,307.7,111.2V97.675h-2.632V111.2a2.42,2.42,0,0,1-2.339,2.413,2.254,2.254,0,0,1-2.193-2.413V96.433h0V83.785a1.083,1.083,0,0,0-.073-.512l-1.755,2.047-1.9,2.193-1.9,2.193a6.355,6.355,0,0,1-5.483.073l-1.9-2.193-1.9-2.266-1.682-1.974c0,.146,4.9,21.713,4.9,21.713H283.5v6.36a2.342,2.342,0,0,1-2.266,2.339,2.123,2.123,0,0,1-2.047-2.339v-6.433h-2.193v6.36a2.342,2.342,0,0,1-2.266,2.339,2.123,2.123,0,0,1-2.047-2.339v-6.36h-5.337s4.9-21.64,4.825-21.786l-1.755,2.047-1.9,2.266-1.9,2.193a2.4,2.4,0,0,1-2.413.8,2.345,2.345,0,0,1-2.193-.8l-1.9-2.193-1.9-2.193-1.681-1.974c0,.146-.073.292-.073.439V95.263h0V111.2a2.57,2.57,0,0,1-.95,1.974c1.17,1.681,2.413,3.436,3.728,5.118,2.34,3,4.825,5.995,7.53,8.846,2.486,2.632,5.118,5.337,7.9,7.9,2.486,2.339,5.191,4.679,8.042,6.945,2.486,2.047,5.118,4.094,7.823,5.995,2.413,1.755,4.9,3.436,7.311,4.971,2.266,1.462,4.386,2.778,6.507,3.948,1.974,1.1,3.8,2.12,5.556,2.924a38.211,38.211,0,0,0,4.533,1.974,13,13,0,0,0,4.9,1.023h.439a13,13,0,0,0,4.9-1.023,38.207,38.207,0,0,0,4.533-1.974c1.755-.877,3.582-1.828,5.556-2.924,2.12-1.243,4.313-2.486,6.507-3.948,2.412-1.608,4.9-3.217,7.311-4.971,2.705-1.9,5.264-3.948,7.823-5.995,2.778-2.266,5.483-4.606,8.042-6.945,2.778-2.632,5.483-5.264,7.9-7.9,2.7-2.924,5.191-5.849,7.53-8.846,1.316-1.755,2.632-3.509,3.8-5.264A1.716,1.716,0,0,1,382.561,111.346Z" transform="translate(-68.698 -22.321)"/>
      <g id="Group_4939" data-name="Group 4939" transform="translate(0.044 43.334)">
        <path id="Path_4639" data-name="Path 4639" class="cls-5" d="M240.4,96.1v3.875h0v14.768a2.254,2.254,0,0,0,2.193,2.413,2.372,2.372,0,0,0,2.339-2.413v-8.334c-.877-1.755-1.755-3.509-2.559-5.264Q241.277,98.622,240.4,96.1Z" transform="translate(-64.681 -69.123)"/>
        <path id="Path_4640" data-name="Path 4640" class="cls-5" d="M231.771,81.374l-3.875,4.46a2.3,2.3,0,0,0,.219,3.217,2.141,2.141,0,0,0,3.071-.366l1.9-2.193,1.608-1.828c-.439-1.755-.877-3.509-1.17-5.264Z" transform="translate(-61.17 -64.632)"/>
        <path id="Path_4641" data-name="Path 4641" class="cls-5" d="M250.1,116.5v3.728a2.254,2.254,0,0,0,2.193,2.413,2.308,2.308,0,0,0,1.389-.512c-1.1-1.608-2.12-3.144-3.071-4.752A5.453,5.453,0,0,0,250.1,116.5Z" transform="translate(-67.29 -74.609)"/>
        <ellipse id="Ellipse_102" data-name="Ellipse 102" class="cls-5" cx="5.044" cy="5.044" rx="5.044" ry="5.044" transform="translate(10.276)"/>
        <ellipse id="Ellipse_103" data-name="Ellipse 103" class="cls-5" cx="5.044" cy="5.044" rx="5.044" ry="5.044" transform="translate(37.838 0.073)"/>
        <path id="Path_4642" data-name="Path 4642" class="cls-5" d="M13,96.1v3.875h0v14.768a2.254,2.254,0,0,0,2.193,2.413,2.372,2.372,0,0,0,2.339-2.413v-8.334c-.877-1.755-1.755-3.509-2.559-5.264Z" transform="translate(-3.528 -69.123)"/>
        <path id="Path_4643" data-name="Path 4643" class="cls-5" d="M4.471,81.374.6,85.833A2.3,2.3,0,0,0,.816,89.05a2.141,2.141,0,0,0,3.071-.366l1.9-2.193L7.4,84.664c-.439-1.755-.877-3.509-1.17-5.264Z" transform="translate(-0.044 -64.632)"/>
        <path id="Path_4644" data-name="Path 4644" class="cls-5" d="M22.8,116.5v3.728a2.254,2.254,0,0,0,2.193,2.413,2.308,2.308,0,0,0,1.389-.512c-1.1-1.608-2.12-3.144-3.071-4.752C23.166,117.085,22.946,116.792,22.8,116.5Z" transform="translate(-6.163 -74.609)"/>
        <path id="Path_4645" data-name="Path 4645" class="cls-5" d="M23.46,109.014V93.077h0V81.526a.927.927,0,0,1,.073-.439l1.681,1.974,1.9,2.193,1.9,2.193a2.24,2.24,0,0,0,2.193.8,2.3,2.3,0,0,0,2.413-.8l1.9-2.193,1.9-2.266,1.755-2.047c.146.219-4.752,21.786-4.752,21.786h5.337v6.36a2.164,2.164,0,0,0,2.047,2.339,2.294,2.294,0,0,0,2.266-2.339v-6.36H46.27v6.36a2.164,2.164,0,0,0,2.047,2.339,2.294,2.294,0,0,0,2.266-2.339v-6.36H55.92s-4.9-21.567-4.9-21.713L52.7,82.988l1.9,2.266,1.9,2.193a2.111,2.111,0,0,0,2.778.585c-.146-.073-.219-.146-.366-.219A2.3,2.3,0,0,1,58.7,84.6l.512-.585-3.363-3.875-1.9-2.266-1.9-2.193A2.567,2.567,0,0,0,50.51,74.8H39.763a2.908,2.908,0,0,0-1.681.877l-1.9,2.193-1.9,2.266-2.851,3.29L28.5,80.064l-1.9-2.193-1.9-2.193a2.567,2.567,0,0,0-1.535-.877H12.2a2.908,2.908,0,0,0-1.681.877l-1.9,2.193L8.4,78.09c.366,1.755.731,3.509,1.17,5.264l.366-.439,1.755-2.047a2.024,2.024,0,0,1,.073.658v8.846c.585,1.681,1.316,3.363,2.047,5.044.8,1.755,1.608,3.509,2.559,5.264V95.416H19v9.87c.146.292.366.585.512.877.95,1.608,1.974,3.144,3.071,4.752A2.6,2.6,0,0,0,23.46,109.014Z" transform="translate(-2.291 -63.395)"/>
        <ellipse id="Ellipse_104" data-name="Ellipse 104" class="cls-5" cx="5.044" cy="5.044" rx="5.044" ry="5.044" transform="translate(66.35)"/>
        <ellipse id="Ellipse_105" data-name="Ellipse 105" class="cls-5" cx="5.044" cy="5.044" rx="5.044" ry="5.044" transform="translate(93.911 0.073)"/>
        <path id="Path_4646" data-name="Path 4646" class="cls-5" d="M128.937,77.971l-1.9-2.193A2.567,2.567,0,0,0,125.5,74.9H114.608a2.908,2.908,0,0,0-1.681.877l-1.9,2.193-1.9,2.266-2.851,3.29-2.924-3.363-1.9-2.193-1.9-2.193a2.567,2.567,0,0,0-1.535-.877H87.046a2.908,2.908,0,0,0-1.681.877l-1.9,2.193-1.9,2.193L78.2,84.038l.512.585a2.3,2.3,0,0,1-.219,3.217c-.073.073-.219.146-.292.219a2.122,2.122,0,0,0,2.7-.658l1.9-2.193,1.9-2.193,1.755-2.047a1.084,1.084,0,0,1,.073.512V94.2h0v14.768a2.254,2.254,0,0,0,2.193,2.413,2.372,2.372,0,0,0,2.339-2.413V95.443H93.7v13.6a2.254,2.254,0,0,0,2.193,2.413,2.372,2.372,0,0,0,2.339-2.413V93.1h0V81.553a.927.927,0,0,1,.073-.439l1.681,1.974,1.9,2.193,1.9,2.193a2.24,2.24,0,0,0,2.193.8,2.3,2.3,0,0,0,2.413-.8l1.9-2.193,1.9-2.266,1.755-2.047c.073.146-4.825,21.786-4.825,21.786h5.337v6.36a2.164,2.164,0,0,0,2.047,2.339,2.294,2.294,0,0,0,2.266-2.339v-6.36h2.193v6.36a2.165,2.165,0,0,0,2.047,2.339,2.294,2.294,0,0,0,2.266-2.339v-6.36h5.337s-4.9-21.567-4.9-21.713l1.681,1.974,1.9,2.266,1.9,2.193a2.083,2.083,0,0,0,3.07.366h0a2.091,2.091,0,0,1-2.632,0,2.3,2.3,0,0,1-.219-3.217l1.462-1.681-2.339-2.705Z" transform="translate(-21.062 -63.422)"/>
        <path id="Path_4647" data-name="Path 4647" class="cls-5" d="M78.32,88.085l-.512-.585-.512.585a2.3,2.3,0,0,0,.219,3.217c.146.073.219.146.366.219.073-.073.219-.146.292-.219A2.365,2.365,0,0,0,78.32,88.085Z" transform="translate(-20.67 -66.811)"/>
        <ellipse id="Ellipse_106" data-name="Ellipse 106" class="cls-5" cx="5.044" cy="5.044" rx="5.044" ry="5.044" transform="translate(120.45)"/>
        <ellipse id="Ellipse_107" data-name="Ellipse 107" class="cls-5" cx="5.044" cy="5.044" rx="5.044" ry="5.044" transform="translate(148.011 0.073)"/>
        <path id="Path_4648" data-name="Path 4648" class="cls-5" d="M227.026,85.934l-3.875-4.46L221.47,79.5c-.366,1.755-.731,3.509-1.17,5.264l1.608,1.828,1.9,2.193a2.083,2.083,0,0,0,3.071.366A2.229,2.229,0,0,0,227.026,85.934Z" transform="translate(-59.276 -64.659)"/>
        <path id="Path_4649" data-name="Path 4649" class="cls-5" d="M209.5,107.03h.95v6.36a2.165,2.165,0,0,0,2.047,2.339,2.294,2.294,0,0,0,2.266-2.339v-6.36H220.1s-2.266-9.8-3.655-16.23a88.6,88.6,0,0,1-3.363,8.919A56.146,56.146,0,0,1,209.5,107.03Z" transform="translate(-56.371 -67.698)"/>
        <path id="Path_4650" data-name="Path 4650" class="cls-5" d="M202.8,121.795a1.841,1.841,0,0,0,1.462.658,2.294,2.294,0,0,0,2.266-2.339V115.8c-.292.439-.512.95-.8,1.389C204.774,118.724,203.824,120.26,202.8,121.795Z" transform="translate(-54.57 -74.421)"/>
        <path id="Path_4651" data-name="Path 4651" class="cls-5" d="M203.286,77.971l-1.9-2.193a2.567,2.567,0,0,0-1.535-.877H188.957a2.908,2.908,0,0,0-1.681.877l-1.9,2.193-1.9,2.266-2.851,3.29L177.7,80.164l-1.9-2.193-1.9-2.193a2.567,2.567,0,0,0-1.535-.877H161.4a2.908,2.908,0,0,0-1.681.877l-1.9,2.193-1.9,2.193L153.5,82.942l1.535,1.755a2.365,2.365,0,0,1-.146,3.217,2.481,2.481,0,0,0,.439-.439l1.9-2.193,1.9-2.193,1.755-2.047a1.084,1.084,0,0,1,.073.512V94.274h0v14.768a2.254,2.254,0,0,0,2.193,2.413,2.372,2.372,0,0,0,2.339-2.413v-13.6h2.632v13.6a2.254,2.254,0,0,0,2.193,2.413,2.372,2.372,0,0,0,2.339-2.413V93.1h0V81.553a.927.927,0,0,1,.073-.439l1.681,1.974,1.9,2.193,1.9,2.193a2.24,2.24,0,0,0,2.193.8,2.3,2.3,0,0,0,2.413-.8l1.9-2.193,1.9-2.266,1.755-2.047c.073.146-4.825,21.786-4.825,21.786h5.337v6.36a2.607,2.607,0,0,0,.585,1.682c1.023-1.535,2.047-3.071,2.924-4.533.292-.439.512-.95.8-1.389v-2.12h1.17c1.316-2.413,2.559-4.9,3.655-7.384a82.409,82.409,0,0,0,3.363-8.919c-.658-3.071-1.17-5.41-1.17-5.41l1.682,1.974.365.439c.439-1.755.877-3.509,1.17-5.264Z" transform="translate(-41.312 -63.422)"/>
        <path id="Path_4652" data-name="Path 4652" class="cls-5" d="M151.416,90.771a2.091,2.091,0,0,0,2.632,0,2.229,2.229,0,0,0,.146-3.217L152.659,85.8,151.2,87.481A2.383,2.383,0,0,0,151.416,90.771Z" transform="translate(-40.544 -66.353)"/>
      </g>
      <g id="Group_4940" data-name="Group 4940" transform="translate(314.448 43.334)">
        <path id="Path_4653" data-name="Path 4653" class="cls-5" d="M454.426,85.934l-3.875-4.46L448.87,79.5c-.365,1.755-.731,3.509-1.17,5.264l1.608,1.828,1.9,2.193a2.083,2.083,0,0,0,3.07.366A2.365,2.365,0,0,0,454.426,85.934Z" transform="translate(-434.833 -64.659)"/>
        <path id="Path_4654" data-name="Path 4654" class="cls-5" d="M436.8,107.03h.951v6.36a2.164,2.164,0,0,0,2.047,2.339,2.294,2.294,0,0,0,2.266-2.339v-6.36H447.4s-2.266-9.8-3.655-16.23a88.62,88.62,0,0,1-3.363,8.919A56.158,56.158,0,0,1,436.8,107.03Z" transform="translate(-431.902 -67.698)"/>
        <path id="Path_4655" data-name="Path 4655" class="cls-5" d="M430.1,121.795a1.84,1.84,0,0,0,1.462.658,2.294,2.294,0,0,0,2.266-2.339V115.8c-.292.439-.512.95-.8,1.389C432.147,118.724,431.124,120.26,430.1,121.795Z" transform="translate(-430.1 -74.421)"/>
        <path id="Path_4656" data-name="Path 4656" class="cls-5" d="M671.1,83.4c0,.073.512,2.339,1.17,5.41.292-.95.585-1.9.8-2.851,0-.073,0-.073.073-.146l-.366-.439Z" transform="translate(-494.91 -65.708)"/>
        <ellipse id="Ellipse_108" data-name="Ellipse 108" class="cls-5" cx="5.044" cy="5.044" rx="5.044" ry="5.044" transform="translate(27.562)"/>
        <ellipse id="Ellipse_109" data-name="Ellipse 109" class="cls-5" cx="5.044" cy="5.044" rx="5.044" ry="5.044" transform="translate(55.123 0.073)"/>
        <path id="Path_4657" data-name="Path 4657" class="cls-5" d="M466.7,96.1v3.875h0v14.768a2.254,2.254,0,0,0,2.193,2.413,2.372,2.372,0,0,0,2.339-2.413v-8.334c-.877-1.755-1.755-3.509-2.559-5.264Q467.577,98.622,466.7,96.1Z" transform="translate(-439.943 -69.123)"/>
        <path id="Path_4658" data-name="Path 4658" class="cls-5" d="M458.071,81.374l-3.875,4.46a2.3,2.3,0,0,0,.219,3.217,2.141,2.141,0,0,0,3.071-.366l1.9-2.193L461,84.664c-.439-1.755-.877-3.509-1.17-5.264Z" transform="translate(-436.431 -64.632)"/>
        <path id="Path_4659" data-name="Path 4659" class="cls-5" d="M476.5,116.5v3.728a2.254,2.254,0,0,0,2.193,2.413,2.308,2.308,0,0,0,1.389-.512c-1.1-1.608-2.12-3.144-3.071-4.752A5.452,5.452,0,0,1,476.5,116.5Z" transform="translate(-442.578 -74.609)"/>
        <path id="Path_4660" data-name="Path 4660" class="cls-5" d="M477.16,109.014V93.077h0V81.526a.927.927,0,0,1,.073-.439l1.681,1.974,1.9,2.193,1.9,2.193a2.24,2.24,0,0,0,2.193.8,2.3,2.3,0,0,0,2.413-.8l1.9-2.193,1.9-2.266,1.755-2.047c.073.146-4.825,21.786-4.825,21.786h5.337v6.36a2.164,2.164,0,0,0,2.047,2.339,2.294,2.294,0,0,0,2.266-2.339v-6.36H499.9v6.36a2.165,2.165,0,0,0,2.047,2.339,2.294,2.294,0,0,0,2.266-2.339v-6.36h5.337s-4.9-21.567-4.9-21.713l1.682,1.974,1.9,2.266,1.9,2.193a2.111,2.111,0,0,0,2.778.585c-.146-.073-.219-.146-.366-.219a2.3,2.3,0,0,1-.219-3.217l.512-.585-3.363-3.875-1.9-2.266-1.9-2.193a2.567,2.567,0,0,0-1.535-.877H493.244a2.908,2.908,0,0,0-1.681.877l-1.9,2.193-1.9,2.266-2.851,3.29-2.924-3.363-1.9-2.193-1.9-2.193a2.566,2.566,0,0,0-1.535-.877H465.9a2.907,2.907,0,0,0-1.681.877l-1.9,2.193-.219.219c.366,1.755.731,3.509,1.17,5.264l.366-.439,1.754-2.047a1.083,1.083,0,0,1,.073.512v8.846c.585,1.681,1.316,3.363,2.047,5.044.8,1.755,1.608,3.509,2.559,5.264V95.416H472.7v9.87c.146.292.366.585.512.877.95,1.608,1.974,3.144,3.071,4.752A2.9,2.9,0,0,0,477.16,109.014Z" transform="translate(-438.706 -63.395)"/>
        <ellipse id="Ellipse_110" data-name="Ellipse 110" class="cls-5" cx="5.044" cy="5.044" rx="5.044" ry="5.044" transform="translate(83.562)"/>
        <ellipse id="Ellipse_111" data-name="Ellipse 111" class="cls-5" cx="5.044" cy="5.044" rx="5.044" ry="5.044" transform="translate(111.124 0.073)"/>
        <path id="Path_4661" data-name="Path 4661" class="cls-5" d="M582.637,77.971l-1.9-2.193A2.566,2.566,0,0,0,579.2,74.9H568.234a2.908,2.908,0,0,0-1.681.877l-1.9,2.193-1.9,2.266-2.851,3.29-2.924-3.363-1.9-2.193-1.9-2.193a2.567,2.567,0,0,0-1.535-.877H540.746a2.907,2.907,0,0,0-1.681.877l-1.9,2.193-1.9,2.193L531.9,84.038l.512.585a2.3,2.3,0,0,1-.219,3.217c-.073.073-.219.146-.292.219a2.122,2.122,0,0,0,2.7-.658l1.9-2.193,1.9-2.193,1.755-2.047a1.085,1.085,0,0,1,.073.512V94.2h0v14.768a2.254,2.254,0,0,0,2.193,2.413,2.372,2.372,0,0,0,2.34-2.413V95.443H547.4v13.6a2.254,2.254,0,0,0,2.193,2.413,2.372,2.372,0,0,0,2.34-2.413V93.1h0V81.553a.927.927,0,0,1,.073-.439l1.681,1.974,1.9,2.193,1.9,2.193a2.24,2.24,0,0,0,2.193.8,2.3,2.3,0,0,0,2.413-.8l1.9-2.193,1.9-2.266,1.755-2.047c.073.146-4.825,21.786-4.825,21.786h5.337v6.36a2.165,2.165,0,0,0,2.047,2.339,2.294,2.294,0,0,0,2.266-2.339v-6.36h2.193v6.36a2.165,2.165,0,0,0,2.047,2.339,2.294,2.294,0,0,0,2.266-2.339v-6.36h5.337s-4.9-21.567-4.9-21.713l1.682,1.974,1.9,2.266,1.9,2.193a2.083,2.083,0,0,0,3.071.366h0a2.091,2.091,0,0,1-2.632,0,2.3,2.3,0,0,1-.219-3.217l1.462-1.681-2.339-2.705Z" transform="translate(-457.476 -63.422)"/>
        <path id="Path_4662" data-name="Path 4662" class="cls-5" d="M531.92,88.085l-.512-.585-.512.585a2.3,2.3,0,0,0,.219,3.217c.146.073.219.146.365.219.073-.073.219-.146.292-.219A2.229,2.229,0,0,0,531.92,88.085Z" transform="translate(-457.058 -66.811)"/>
        <ellipse id="Ellipse_112" data-name="Ellipse 112" class="cls-5" cx="5.044" cy="5.044" rx="5.044" ry="5.044" transform="translate(137.662)"/>
        <ellipse id="Ellipse_113" data-name="Ellipse 113" class="cls-5" cx="5.044" cy="5.044" rx="5.044" ry="5.044" transform="translate(165.223 0.073)"/>
        <path id="Path_4663" data-name="Path 4663" class="cls-5" d="M680.726,85.934l-3.875-4.46L675.17,79.5c-.365,1.755-.731,3.509-1.17,5.264l1.608,1.828,1.9,2.193a2.083,2.083,0,0,0,3.07.366A2.365,2.365,0,0,0,680.726,85.934Z" transform="translate(-495.69 -64.659)"/>
        <path id="Path_4664" data-name="Path 4664" class="cls-5" d="M663.2,107.03h.95v6.36a2.165,2.165,0,0,0,2.047,2.339,2.294,2.294,0,0,0,2.266-2.339v-6.36H673.8s-2.266-9.8-3.655-16.23a88.576,88.576,0,0,1-3.363,8.919C665.759,102.132,664.516,104.617,663.2,107.03Z" transform="translate(-492.786 -67.698)"/>
        <path id="Path_4665" data-name="Path 4665" class="cls-5" d="M656.5,121.795a1.841,1.841,0,0,0,1.462.658,2.294,2.294,0,0,0,2.266-2.339V115.8c-.293.439-.512.95-.8,1.389C658.474,118.724,657.523,120.26,656.5,121.795Z" transform="translate(-490.984 -74.421)"/>
        <path id="Path_4666" data-name="Path 4666" class="cls-5" d="M656.986,77.971l-1.9-2.193a2.566,2.566,0,0,0-1.535-.877H642.584a2.907,2.907,0,0,0-1.681.877L639,77.971l-1.9,2.266-2.851,3.29-2.924-3.363-1.9-2.193-1.9-2.193a2.567,2.567,0,0,0-1.535-.877H615.1a2.908,2.908,0,0,0-1.681.877l-1.9,2.193-1.9,2.193L607.2,82.942l1.535,1.755a2.365,2.365,0,0,1-.146,3.217,2.49,2.49,0,0,0,.439-.439l1.9-2.193,1.9-2.193,1.755-2.047a1.085,1.085,0,0,1,.073.512V94.274h0v14.768a2.254,2.254,0,0,0,2.193,2.413,2.372,2.372,0,0,0,2.339-2.413v-13.6h2.632v13.6a2.254,2.254,0,0,0,2.193,2.413,2.372,2.372,0,0,0,2.339-2.413V93.1h0V81.553a.929.929,0,0,1,.073-.439l1.682,1.974,1.9,2.193,1.9,2.193a2.24,2.24,0,0,0,2.193.8,2.3,2.3,0,0,0,2.413-.8l1.9-2.193,1.9-2.266,1.754-2.047c.073.146-4.825,21.786-4.825,21.786h5.337v6.36a2.608,2.608,0,0,0,.585,1.682c1.023-1.535,2.047-3.071,2.924-4.533.292-.439.512-.95.8-1.389v-2.12h1.17c1.316-2.413,2.559-4.9,3.655-7.384a82.456,82.456,0,0,0,3.363-8.919c-.658-3.071-1.17-5.41-1.17-5.41l1.681,1.974.365.439c.439-1.755.877-3.509,1.17-5.264Z" transform="translate(-477.726 -63.422)"/>
        <path id="Path_4667" data-name="Path 4667" class="cls-5" d="M605.116,90.771a2.091,2.091,0,0,0,2.632,0,2.229,2.229,0,0,0,.146-3.217L606.359,85.8,604.9,87.481A2.383,2.383,0,0,0,605.116,90.771Z" transform="translate(-476.958 -66.353)"/>
      </g>
    </g>
    <text id="empowered_to_serve_our_communities" data-name="empowered to serve our communities" class="cls-6" transform="translate(240 1151)"><tspan x="250.526" y="22">empowered to serve our communities</tspan></text>
  </g>
</svg>
