<svg xmlns="http://www.w3.org/2000/svg" viewBox="2282.579 -1693.367 640.421 232.915">
  <defs>
    <style>
      .cls-1, .cls-2, .cls-3 {
        fill: #fff;
      }

      .cls-2 {
        font-size: 60px;
        font-family: Sentinel-Medium, Sentinel;
        font-weight: 500;
      }

      .cls-3 {
        font-size: 24px;
        font-family: ProximaNova-Light, Proxima Nova;
        font-weight: 300;
      }
    </style>
  </defs>
  <g id="Group_8149" data-name="Group 8149" transform="translate(1911 -6027)">
    <g id="Group_5020" data-name="Group 5020" transform="translate(371.579 4346.573)">
      <g id="Group_5016" data-name="Group 5016" transform="translate(42.17 62.334)">
        <g id="Group_5011" data-name="Group 5011" transform="translate(0 0.593)">
          <path id="Path_4692" data-name="Path 4692" class="cls-1" d="M40.491,43.256A4.528,4.528,0,0,1,42.627,41.3a2.456,2.456,0,0,0,.712.534,1.187,1.187,0,1,0-.89-1.423v.178A5.542,5.542,0,0,0,39.6,43.079a4.862,4.862,0,1,0,4.27,5.872A4.522,4.522,0,0,0,40.491,43.256Zm.534,4.982a1.187,1.187,0,1,1,1.423-.89A1.135,1.135,0,0,1,41.025,48.239Z" transform="translate(-15.403 -32.106)"/>
          <path id="Path_4693" data-name="Path 4693" class="cls-1" d="M38.888,43.32c-.534-.178-.89.178-1.068.712s.178.89.712,1.068.89-.178,1.068-.712A.784.784,0,0,0,38.888,43.32Zm0,1.423c-.178,0-.178-.178-.178-.356s.178-.178.356-.178.178.178.178.356A.621.621,0,0,1,38.888,44.744Z" transform="translate(-12.732 -29.145)"/>
          <path id="Path_4694" data-name="Path 4694" class="cls-1" d="M41.847,41.02a1.169,1.169,0,0,0-1.423.89v.178A5.327,5.327,0,0,0,39,42.8l.534.534L40.6,42.8a2.456,2.456,0,0,0,.712.534,1.169,1.169,0,0,0,1.423-.89A1.1,1.1,0,0,0,41.847,41.02Z" transform="translate(-11.776 -30.937)"/>
          <path id="Path_4695" data-name="Path 4695" class="cls-1" d="M29.484,43.038a14.958,14.958,0,0,0,6.584,4.8c.712.178,1.246.356,1.6,0h0a2.175,2.175,0,0,0,.534-1.6,15.854,15.854,0,0,0-2.669-7.829c-2.313-3.025-5.16-3.559-6.406-2.491l-.178.178h-.178C27.7,37.167,27.348,40.014,29.484,43.038Zm-.178-6.584h0l.178-.178A2.552,2.552,0,0,1,31.8,36.1a6.017,6.017,0,0,1,3.381,2.669,15.279,15.279,0,0,1,2.669,7.473h0c0,.356,0,.89-.178,1.068h0c-.178.178-.534,0-.89,0H36.6a14.592,14.592,0,0,1-6.228-4.626,9.155,9.155,0,0,1-1.6-3.915A2.072,2.072,0,0,1,29.306,36.455Z" transform="translate(-20.409 -35.269)"/>
          <path id="Path_4696" data-name="Path 4696" class="cls-1" d="M31.812,35.986h0l.356-.178a2.584,2.584,0,0,1,2.135.534A6.783,6.783,0,0,1,36.794,39.9a14.29,14.29,0,0,1,.712,4.8l.534.534a19.573,19.573,0,0,0-.712-5.516c-1.246-3.559-3.737-4.8-5.338-4.27h-.356c-.178,0-.356.178-.534.356.178.178.356.178.534.356C31.634,35.986,31.634,35.986,31.812,35.986Z" transform="translate(-17.933 -35.333)"/>
          <path id="Path_4697" data-name="Path 4697" class="cls-1" d="M42.383,46.35a4.807,4.807,0,0,1,1.779-3.025,8.709,8.709,0,0,0-2.135-2.313c0,.356,0,.534.178.712l.534.534h0a25.249,25.249,0,0,0-.89,3.915,38.413,38.413,0,0,0-.534,6.228,12.26,12.26,0,0,1-1.423.534,33.987,33.987,0,0,1,.356-7.3c0-.356.178-.534.178-.89h-.712c-.178,0-.356-.178-.712-.178-.178,0-.178,0-.356-.178,0,.356-.178.534-.178.89a29.247,29.247,0,0,0-.356,7.829H36.689a25.548,25.548,0,0,1,.356-8.185c0-.356.178-.712.178-1.246l-1.6-1.068a6.4,6.4,0,0,0-.356,1.957,46.544,46.544,0,0,0-.178,8.541c-.534-.178-.89-.356-1.423-.534a32.254,32.254,0,0,1,.356-8.185c.178-.89.356-1.779.534-2.491a10.736,10.736,0,0,1-1.423-1.423,22.973,22.973,0,0,0-.89,3.737,33.987,33.987,0,0,0-.356,7.3,11.511,11.511,0,0,1-1.423-1.6,32.539,32.539,0,0,1,.356-5.872c.178-.89.356-1.6.534-2.313a8.356,8.356,0,0,1,1.6-1.068c-.178-.178-.178-.356-.356-.356a7.634,7.634,0,0,0-3.737,4.092H23.7l2.669,1.068,1.957.89A8.109,8.109,0,0,0,35.266,54a8.607,8.607,0,0,0,8.363-2.669A8.044,8.044,0,0,1,42.383,46.35Z" transform="translate(-23.7 -31.463)"/>
        </g>
        <g id="Group_5012" data-name="Group 5012" transform="translate(124.019 39.961)">
          <path id="Path_4698" data-name="Path 4698" class="cls-1" d="M95,65.555A2.43,2.43,0,0,0,99.445,63.6a2.455,2.455,0,0,0-3.025-1.423,3.2,3.2,0,0,0-1.6-1.068v-.178c-.178-.356-.534-.356-.89-.178s-.356.534-.178.89.534.356.89.178c.178,0,.178-.178.356-.356a2.2,2.2,0,0,1,1.423.712A2.772,2.772,0,0,0,95,65.555Zm.712-1.068a.678.678,0,1,1,.89.356A.65.65,0,0,1,95.708,64.488Z" transform="translate(-93.217 -54.984)"/>
          <path id="Path_4699" data-name="Path 4699" class="cls-1" d="M94.932,63.066c.178.178.356.356.534.178s.356-.356.178-.534-.356-.356-.534-.178A.341.341,0,0,0,94.932,63.066Zm.178,0h0l.178-.178c0,.178,0,.356-.178.178C95.288,63.244,95.11,63.244,95.11,63.066Z" transform="translate(-92.263 -53.562)"/>
          <path id="Path_4700" data-name="Path 4700" class="cls-1" d="M93.756,61.632a.782.782,0,0,1,.89.178v.178c.178,0,.534.178.712.178,0,.178-.178.178-.178.356-.178,0-.356-.178-.534-.178a.383.383,0,0,1-.356.356.782.782,0,0,1-.89-.178C93.4,61.988,93.578,61.632,93.756,61.632Z" transform="translate(-93.4 -54.263)"/>
          <path id="Path_4701" data-name="Path 4701" class="cls-1" d="M100.966,57.71h0c-.89-.356-2.313.178-3.2,1.957a9.133,9.133,0,0,0-.534,4.27.924.924,0,0,0,.356.712h0c.178.178.534,0,.89-.178a8.4,8.4,0,0,0,2.847-3.2C102.211,59.49,101.678,58.066,100.966,57.71Zm.534,1.246a3.063,3.063,0,0,1-.356,2.135,6.463,6.463,0,0,1-2.669,3.025H98.3c-.178,0-.356.178-.356,0h0c-.178,0-.178-.356-.178-.534h0A8.926,8.926,0,0,1,98.3,59.49,4.845,4.845,0,0,1,99.72,57.71c.356-.178.89-.356,1.068-.178h0A5.328,5.328,0,0,1,101.5,58.956Z" transform="translate(-90.468 -57.459)"/>
          <path id="Path_4702" data-name="Path 4702" class="cls-1" d="M98.745,57.878h0a1.615,1.615,0,0,0-1.246.534,3.906,3.906,0,0,0-.89,2.135,5.712,5.712,0,0,0,.178,2.491c0,.178-.178.178-.178.356a7.7,7.7,0,0,1-.178-2.847c.178-1.957,1.423-2.847,2.313-2.847H99.1c0,.178-.178.178-.356.178Z" transform="translate(-91.094 -57.27)"/>
          <path id="Path_4703" data-name="Path 4703" class="cls-1" d="M97.746,64.07A3.165,3.165,0,0,0,96.5,62.647a3.875,3.875,0,0,1,.89-1.423v.356c0,.178-.178.178-.178.356h0a6.578,6.578,0,0,1,.89,1.957,21.514,21.514,0,0,1,.89,3.2c.178,0,.534.178.712.178a11.81,11.81,0,0,0-1.068-3.559.621.621,0,0,0-.178-.356c.178,0,.178,0,.356-.178.178,0,.178-.178.356-.178a.174.174,0,0,0,.178-.178.621.621,0,0,0,.178.356,16.042,16.042,0,0,1,1.068,3.915,1.07,1.07,0,0,0,.712-.178,15.387,15.387,0,0,0-1.068-4.092c0-.178-.178-.356-.178-.534.178-.178.534-.356.712-.712.178.356.356.534.356.89a19.927,19.927,0,0,1,1.068,4.092c.178-.178.534-.178.712-.356a19.928,19.928,0,0,0-1.068-4.092c-.178-.356-.356-.89-.534-1.246.178-.356.356-.534.534-.89a16.531,16.531,0,0,1,.89,1.779,15.887,15.887,0,0,1,1.068,3.559,3.889,3.889,0,0,1,.534-.89,19.444,19.444,0,0,0-.89-3.025l-.534-1.068a3.006,3.006,0,0,0-.89-.356l.178-.178a3.776,3.776,0,0,1,2.313,1.779l1.068-.178,1.6-.356-1.246.89-.89.712a4.464,4.464,0,0,1-7.117,4.092A6.783,6.783,0,0,0,97.746,64.07Z" transform="translate(-90.984 -55.634)"/>
        </g>
        <g id="Group_5013" data-name="Group 5013" transform="translate(124.842 4.833)">
          <path id="Path_4704" data-name="Path 4704" class="cls-1" d="M96.11,49.37a3.668,3.668,0,0,0,6.761-2.847,3.663,3.663,0,0,0-4.448-2.135,3.271,3.271,0,0,0-2.491-1.423v-.178a.916.916,0,1,0-.356,1.246c.178-.178.356-.356.356-.534a4.241,4.241,0,0,1,1.957,1.068A4,4,0,0,0,96.11,49.37Zm1.068-1.423a.958.958,0,1,1,1.246.534A.919.919,0,0,1,97.177,47.946Z" transform="translate(-93.552 -34.097)"/>
          <path id="Path_4705" data-name="Path 4705" class="cls-1" d="M95.9,45.92a.678.678,0,1,0,.356-.89C95.9,45.209,95.9,45.564,95.9,45.92Zm.356,0c0-.178,0-.178.178-.178s.178,0,.178.178,0,.178-.178.178A.174.174,0,0,1,96.256,45.92Z" transform="translate(-92.275 -32.07)"/>
          <path id="Path_4706" data-name="Path 4706" class="cls-1" d="M94.463,43.731a1.179,1.179,0,0,1,1.246.356v.178a2.529,2.529,0,0,1,1.068.356c-.178.178-.178.356-.356.356a1.333,1.333,0,0,0-.89-.178c0,.178-.178.356-.356.534a1.179,1.179,0,0,1-1.246-.356A.919.919,0,0,1,94.463,43.731Z" transform="translate(-93.863 -33.084)"/>
          <path id="Path_4707" data-name="Path 4707" class="cls-1" d="M104.635,38.043h0c-.178,0-.178,0-.178-.178-1.068-.534-3.2.356-4.27,2.847a10.68,10.68,0,0,0-.712,6.05,1.076,1.076,0,0,0,.534,1.068h0c.356.178.712,0,1.246-.178a10.561,10.561,0,0,0,4.092-4.626C106.415,40.712,105.7,38.577,104.635,38.043ZM105.347,40a5.52,5.52,0,0,1-.534,3.2,10.861,10.861,0,0,1-3.915,4.448h0a.174.174,0,0,0-.178.178h0a.654.654,0,0,1-.534.178h0a1.349,1.349,0,0,1-.356-.712h0a10.1,10.1,0,0,1,.712-5.872,5.917,5.917,0,0,1,2.135-2.491,1.771,1.771,0,0,1,1.6-.178h0C104.991,38.577,105.347,39.289,105.347,40Z" transform="translate(-89.622 -37.716)"/>
          <path id="Path_4708" data-name="Path 4708" class="cls-1" d="M101.689,38.54h-.178a2.173,2.173,0,0,0-1.6.712,5.228,5.228,0,0,0-1.246,3.025,11.672,11.672,0,0,0,.178,3.559c-.178.178-.178.356-.356.356a10.676,10.676,0,0,1-.356-4.092c.356-2.847,1.957-4.27,3.2-4.092h.356c.178,0,.356,0,.356.178s-.178.178-.356.356Z" transform="translate(-90.591 -37.502)"/>
          <path id="Path_4709" data-name="Path 4709" class="cls-1" d="M100.079,47.25A3.857,3.857,0,0,0,98.3,45.292a4.607,4.607,0,0,1,1.246-1.957v.534c-.178.178-.178.356-.356.534h0a17.957,17.957,0,0,1,1.246,2.669,22.326,22.326,0,0,1,1.246,4.626,2.257,2.257,0,0,0,1.068.178,19.814,19.814,0,0,0-1.423-5.338c0-.178-.178-.356-.178-.534a.654.654,0,0,0,.534-.178.621.621,0,0,0,.356-.178c.178,0,.178-.178.356-.178.178.178.178.356.356.712a39.62,39.62,0,0,1,1.6,5.694c.356,0,.712-.178,1.068-.178a19.094,19.094,0,0,0-1.6-6.05c-.178-.356-.178-.534-.356-.89l1.068-1.068c.178.356.356.89.534,1.246a25.389,25.389,0,0,1,1.6,6.05,3.889,3.889,0,0,0,.89-.534,23.546,23.546,0,0,0-1.423-5.872,8.312,8.312,0,0,0-.89-1.779c.356-.356.534-.89.89-1.246.356.89.89,1.6,1.246,2.491a19.815,19.815,0,0,1,1.423,5.338,9.933,9.933,0,0,0,.89-1.423,38.642,38.642,0,0,0-1.246-4.27c-.178-.534-.534-1.068-.712-1.6a12.258,12.258,0,0,0-1.423-.534c0-.178.178-.178.178-.356a5.377,5.377,0,0,1,3.381,2.491l1.6-.356L113.6,42.8l-1.779,1.246-1.246.89a6.626,6.626,0,0,1-10.5,6.05A5.392,5.392,0,0,0,100.079,47.25Z" transform="translate(-90.404 -35.001)"/>
        </g>
        <g id="Group_5014" data-name="Group 5014" transform="translate(9.43 86.231)">
          <path id="Path_4710" data-name="Path 4710" class="cls-1" d="M38.115,87.266a2.338,2.338,0,0,1,.534-2.135c.178,0,.356.178.712,0a.844.844,0,1,0-1.068-.534v.178a3.788,3.788,0,0,0-.534,2.847,3.627,3.627,0,1,0,5.16,1.6A3.72,3.72,0,0,0,38.115,87.266Zm2.669,2.847a.958.958,0,1,1,.534-1.246A1.385,1.385,0,0,1,40.784,90.113Z" transform="translate(-23.524 -83.462)"/>
          <path id="Path_4711" data-name="Path 4711" class="cls-1" d="M38.586,86.3a.678.678,0,1,0,.89.356C39.3,86.3,38.942,86.3,38.586,86.3Zm.534.89c-.178,0-.178,0-.178-.178s0-.178.178-.178.178,0,.178.178A.174.174,0,0,1,39.12,87.19Z" transform="translate(-21.861 -81.251)"/>
          <path id="Path_4712" data-name="Path 4712" class="cls-1" d="M39.168,84.029a.793.793,0,0,0-.534,1.068v.178L38.1,86.342h.534a.924.924,0,0,1,.356-.712c.178,0,.356.178.712,0a.844.844,0,1,0-.534-1.6Z" transform="translate(-21.908 -83.073)"/>
          <path id="Path_4713" data-name="Path 4713" class="cls-1" d="M32.361,90.9a10.572,10.572,0,0,0,6.228,0c.534-.178.89-.356.89-.712h0c.178-.356,0-.712-.356-1.068a11.989,11.989,0,0,0-4.982-3.559c-2.669-.89-4.626,0-4.982,1.246v.356C28.625,88.049,29.692,90.006,32.361,90.9Zm-3.025-3.915h0V86.8a1.56,1.56,0,0,1,1.246-1.068,4.059,4.059,0,0,1,3.2.178,11.484,11.484,0,0,1,4.8,3.381h0a1.349,1.349,0,0,1,.356.712h0c0,.178-.356.356-.534.356h-.178a10.88,10.88,0,0,1-5.872,0,4.767,4.767,0,0,1-2.669-1.779A1.815,1.815,0,0,1,29.336,86.981Z" transform="translate(-28.981 -82.11)"/>
          <path id="Path_4714" data-name="Path 4714" class="cls-1" d="M30.934,85.365h0a1.869,1.869,0,0,1,1.6-.89,5.221,5.221,0,0,1,3.025,1.068,11.975,11.975,0,0,1,2.491,2.669h.534a11.528,11.528,0,0,0-2.847-3.025c-2.313-1.6-4.448-1.246-5.16-.356v.356c0,.178-.178.178-.178.356a.654.654,0,0,1,.534-.178Z" transform="translate(-27.909 -82.985)"/>
          <path id="Path_4715" data-name="Path 4715" class="cls-1" d="M41.455,89.8a3.491,3.491,0,0,1-.178-2.669,4.926,4.926,0,0,0-2.313-.534l.356.356h.534A19.772,19.772,0,0,0,41.1,89.8,31.336,31.336,0,0,0,43.59,93.9a3.889,3.889,0,0,1-.534.89,29.674,29.674,0,0,1-3.025-4.626c-.178-.178-.178-.356-.356-.534-.178.178-.356.178-.534.356-.178,0-.356.178-.534.178s-.178,0-.356.178c.178.178.178.356.356.712a19.976,19.976,0,0,0,3.2,4.982c-.178.178-.534.356-.89.712a21.583,21.583,0,0,1-3.381-5.16c-.178-.356-.178-.534-.356-.89-.534,0-.89.178-1.423.178.178.356.356.89.534,1.246a21.584,21.584,0,0,0,3.381,5.16c-.356.178-.712.178-1.068.356a21.584,21.584,0,0,1-3.381-5.16,7.437,7.437,0,0,1-.712-1.779c-.534,0-1.068-.178-1.6-.178l1.068,2.669a29.135,29.135,0,0,0,2.847,4.626,5.2,5.2,0,0,1-1.6-.356,20.655,20.655,0,0,1-2.313-3.915,6.32,6.32,0,0,1-.712-1.6c.178-.534.356-.89.534-1.423-.178,0-.356,0-.356-.178a4.764,4.764,0,0,0-.356,4.092L30.779,95.5,29,96.742l2.135-.534,1.6-.356a6.14,6.14,0,0,0,7.651,1.6A6.637,6.637,0,0,0,44.3,92.116,3.749,3.749,0,0,1,41.455,89.8Z" transform="translate(-29 -81.017)"/>
        </g>
        <g id="Group_5015" data-name="Group 5015" transform="translate(24.006)">
          <path id="Path_4716" data-name="Path 4716" class="cls-1" d="M128.13,69.189a3,3,0,0,0,3.025-3.381l-.89-6.228a4.375,4.375,0,0,0-4.092-3.381H42.189A4.34,4.34,0,0,0,38.1,59.581l-.89,6.228a3.089,3.089,0,0,0,3.025,3.381Z" transform="translate(-37.192 -18.478)"/>
          <path id="Path_4717" data-name="Path 4717" class="cls-1" d="M122.823,58.589a2.188,2.188,0,0,0,2.135-3.2l-3.2-6.761a6.249,6.249,0,0,0-4.982-3.025H48.092a6.529,6.529,0,0,0-4.982,3.025l-3.2,6.761c-.712,1.779.178,3.2,2.135,3.2Z" transform="translate(-35.265 -26.739)"/>
          <path id="Path_4718" data-name="Path 4718" class="cls-1" d="M107.905,47.811c1.779,0,2.313-1.068,1.068-2.491l-10.32-8.541A15.631,15.631,0,0,0,92.425,35H63.066a13.45,13.45,0,0,0-6.228,1.957L46.518,45.5c-1.246,1.246-.89,2.491,1.068,2.491h60.319Z" transform="translate(-30.489 -35)"/>
          <path id="Path_4719" data-name="Path 4719" class="cls-1" d="M127.056,79.811a4.147,4.147,0,0,0,3.915-3.381l.712-6.05A3.125,3.125,0,0,0,128.48,67H40.4a3.233,3.233,0,0,0-3.2,3.381l.712,6.05a4.343,4.343,0,0,0,3.915,3.381Z" transform="translate(-37.185 -10.061)"/>
          <path id="Path_4720" data-name="Path 4720" class="cls-1" d="M86.206,103.864h0V91.942A10.254,10.254,0,0,0,76.064,81.8H65.922A10.254,10.254,0,0,0,55.779,91.942v12.1A3.245,3.245,0,0,0,54,107.066v4.092a3.5,3.5,0,0,0,3.381,3.381H85.316a3.5,3.5,0,0,0,3.381-3.381v-4.092A3.418,3.418,0,0,0,86.206,103.864Zm-29.715,0Zm4.448-.178V91.942a4.973,4.973,0,0,1,4.982-4.982H76.064a4.973,4.973,0,0,1,4.982,4.982v11.744Z" transform="translate(-24.092 1.473)"/>
          <path id="Path_4721" data-name="Path 4721" class="cls-1" d="M123.76,77.6H41.733A2.188,2.188,0,0,0,39.6,80.8l2.847,6.584a6.215,6.215,0,0,0,4.8,3.025H66.643a11.589,11.589,0,0,1,10.676-6.939H87.462a11.589,11.589,0,0,1,10.676,6.939h20.284a5.944,5.944,0,0,0,4.8-3.025l2.847-6.584C126.607,79.023,125.717,77.6,123.76,77.6Z" transform="translate(-35.49 -1.801)"/>
          <path id="Path_4722" data-name="Path 4722" class="cls-1" d="M61.159,98.264V88.3H46.746c-1.779,0-2.313,1.068-.89,2.313a98.543,98.543,0,0,0,13.7,10.142A5.062,5.062,0,0,1,61.159,98.264Z" transform="translate(-31.073 6.538)"/>
          <path id="Path_4723" data-name="Path 4723" class="cls-1" d="M88.124,88.3H73v9.43a4.879,4.879,0,0,1,2.313,3.025,118.345,118.345,0,0,0,13.7-10.142C90.437,89.19,90.082,88.3,88.124,88.3Z" transform="translate(-9.285 6.538)"/>
        </g>
      </g>
      <g id="Group_5017" data-name="Group 5017" transform="translate(0 -0.073)">
        <path id="Path_4724" data-name="Path 4724" class="cls-1" d="M32.749,15.408a7.426,7.426,0,0,1,4.27-4.092,2.767,2.767,0,0,0,1.423,1.068A2.143,2.143,0,0,0,41.112,10.6a2.268,2.268,0,1,0-4.448-.89v.356a9.808,9.808,0,0,0-5.338,5.338,9.475,9.475,0,0,0-9.786,8.185,9.54,9.54,0,1,0,11.21-8.185Zm1.423,9.786a2.516,2.516,0,1,1,2.847-2.135A2.351,2.351,0,0,1,34.173,25.194Z" transform="translate(16.716 6.252)"/>
        <path id="Path_4725" data-name="Path 4725" class="cls-1" d="M30.147,15.412a1.887,1.887,0,1,0,1.6,2.135C31.749,16.48,31.037,15.412,30.147,15.412Zm0,2.847c-.356,0-.534-.356-.356-.534,0-.356.356-.534.534-.356.356,0,.534.356.356.534C30.681,18.081,30.5,18.259,30.147,18.259Z" transform="translate(21.809 12.12)"/>
        <path id="Path_4726" data-name="Path 4726" class="cls-1" d="M35.638,10.735a2.143,2.143,0,0,0-2.669,1.779v.356a10.62,10.62,0,0,0-2.669,1.6c.356.356.712.534,1.068.89a7.347,7.347,0,0,1,1.957-1.246,2.767,2.767,0,0,0,1.423,1.068A2.143,2.143,0,0,0,37.417,13.4,2.263,2.263,0,0,0,35.638,10.735Z" transform="translate(23.614 8.434)"/>
        <path id="Path_4727" data-name="Path 4727" class="cls-1" d="M11.371,15.567c3.381,4.27,9.608,8.185,13.523,9.075,1.246.356,2.491.534,3.2-.178h0c.712-.534.89-1.6.712-3.025,0-4.092-2.669-10.854-6.05-15.124C18.31.442,12.616-.447,9.947,1.51l-.178.178-.178.178C7.1,4,6.744,9.695,11.371,15.567ZM10.125,2.755h0l.178-.178.178-.178a5.791,5.791,0,0,1,4.626-.534,13.168,13.168,0,0,1,7.117,4.982A28.435,28.435,0,0,1,28.1,21.438v.178c0,.534.178,1.6-.356,2.135h-.178c-.356.356-1.068.178-1.6,0h0c-.178,0-.356-.178-.534-.178h-.178c-3.559-.89-9.43-4.448-12.811-8.719A12.875,12.875,0,0,1,8.7,7.2,6.338,6.338,0,0,1,10.125,2.755Z" transform="translate(6.067 0.578)"/>
        <path id="Path_4728" data-name="Path 4728" class="cls-1" d="M15.4,1.481h.356l.178-.178c1.246-.534,2.847-.178,4.448.712a14,14,0,0,1,5.338,6.761,28.574,28.574,0,0,1,1.779,9.43c.356.356.712.534,1.068.89A29.954,29.954,0,0,0,26.611,8.42C23.942,1.481,18.6-1.011,15.579.235c-.178,0-.178.178-.356.178h-.356L13.8.947l1.068.534A.334.334,0,0,0,15.4,1.481Z" transform="translate(10.755 0.073)"/>
        <path id="Path_4729" data-name="Path 4729" class="cls-1" d="M37.188,21.8a10.758,10.758,0,0,1,3.381-6.406,17.6,17.6,0,0,0-4.448-4.448,4.926,4.926,0,0,1,.178,1.6,4.718,4.718,0,0,0,1.068.89h0a55.456,55.456,0,0,0-1.6,7.829A60.365,60.365,0,0,0,35.409,33.9a17.957,17.957,0,0,1-2.669,1.246,56.013,56.013,0,0,1,.178-14.413c0-.534.178-1.068.178-1.779H31.672a3.3,3.3,0,0,1-1.246-.356,7.706,7.706,0,0,0-.89-.178c-.178.534-.178,1.246-.356,1.779A66.136,66.136,0,0,0,29,35.856a13.467,13.467,0,0,1-2.669.178,62.741,62.741,0,0,1-.178-16.37c.178-.89.178-1.6.356-2.313-1.068-.534-2.135-1.068-3.381-1.779a26.993,26.993,0,0,0-.534,3.737,64.373,64.373,0,0,0,0,16.548,13.334,13.334,0,0,1-2.847-.89,61.6,61.6,0,0,1,0-16.192,52.152,52.152,0,0,1,.89-5.16c-1.068-.89-2.135-1.779-3.025-2.669-.534,2.313-1.068,4.8-1.423,7.3a56.013,56.013,0,0,0-.178,14.413,16.224,16.224,0,0,1-3.025-3.025,67.754,67.754,0,0,1,.356-11.921,45.513,45.513,0,0,1,.89-4.8,14.8,14.8,0,0,1,3.2-2.313c-.178-.356-.534-.534-.712-.89a14.384,14.384,0,0,0-6.939,8.541l-4.092.178L0,19.13l5.516,1.957L9.43,22.511c.178,7.117,6.228,13.345,14.59,14.59a16.71,16.71,0,0,0,16.192-6.228A10.259,10.259,0,0,1,37.188,21.8Z" transform="translate(0 7.69)"/>
      </g>
      <g id="Group_5018" data-name="Group 5018" transform="translate(203.521 106.532)">
        <path id="Path_4730" data-name="Path 4730" class="cls-1" d="M118.161,85.652a8.787,8.787,0,1,0,16.9-4.8,8.789,8.789,0,0,0-9.786-6.228,9.651,9.651,0,0,0-5.338-4.27c0-.178,0-.178-.178-.356a2.083,2.083,0,1,0-1.246,2.669,2.392,2.392,0,0,0,1.246-1.068,6.754,6.754,0,0,1,4.27,3.381A8.884,8.884,0,0,0,118.161,85.652Zm2.847-3.025a2.2,2.2,0,1,1,2.669,1.6A2.331,2.331,0,0,1,121.008,82.627Z" transform="translate(-113.323 -52.983)"/>
        <path id="Path_4731" data-name="Path 4731" class="cls-1" d="M118.815,77.406a1.576,1.576,0,1,0,1.068-1.957A1.682,1.682,0,0,0,118.815,77.406Zm.89.178c0-.178,0-.534.356-.534.178,0,.534,0,.534.356,0,.178,0,.534-.356.534C119.883,78.118,119.7,77.94,119.7,77.584Z" transform="translate(-110.952 -47.763)"/>
        <path id="Path_4732" data-name="Path 4732" class="cls-1" d="M115.838,71.548a2.116,2.116,0,0,1,2.669,1.246c0,.178,0,.178.178.356a10.517,10.517,0,0,1,2.491,1.068l-.89.89a6.578,6.578,0,0,0-1.957-.89,1.881,1.881,0,0,1-1.246,1.068,2.116,2.116,0,0,1-2.669-1.246A2.406,2.406,0,0,1,115.838,71.548Z" transform="translate(-114.381 -50.801)"/>
        <path id="Path_4733" data-name="Path 4733" class="cls-1" d="M143.126,60.825a.174.174,0,0,1-.178-.178l-.178-.178c-2.491-1.6-7.651-.178-11.21,5.516-2.669,4.27-4.092,10.676-3.737,14.413,0,1.246.356,2.313,1.068,2.669h0a2.768,2.768,0,0,0,2.847-.178c3.559-1.246,8.719-5.516,11.388-9.786C146.685,67.586,145.617,62.426,143.126,60.825Zm1.246,4.8a13.185,13.185,0,0,1-2.135,7.3c-2.669,4.27-7.651,8.185-10.676,9.252h-.178a.621.621,0,0,0-.356.178h0a2.108,2.108,0,0,1-1.423.178h-.178c-.534-.356-.534-1.246-.534-1.957V80.4a24.422,24.422,0,0,1,3.737-13.879,13.83,13.83,0,0,1,5.872-5.338,5.383,5.383,0,0,1,4.092,0l.178.178h.356A8.111,8.111,0,0,1,144.371,65.629Z" transform="translate(-103.947 -59.829)"/>
        <path id="Path_4734" data-name="Path 4734" class="cls-1" d="M135.462,61.192h-.356l-.178-.178c-1.068-.356-2.491.178-3.915,1.246a14.11,14.11,0,0,0-4.092,6.761,23.826,23.826,0,0,0-.534,8.719c-.356.356-.534.712-.89.89a26.716,26.716,0,0,1,.534-9.964c1.779-6.584,6.228-9.43,9.075-8.719.178,0,.178,0,.178.178h.356a1.359,1.359,0,0,1,.89.356,3.124,3.124,0,0,0-.89.712Z" transform="translate(-105.891 -59.84)"/>
        <path id="Path_4735" data-name="Path 4735" class="cls-1" d="M128.737,81.011A9.789,9.789,0,0,0,125,75.673a17.043,17.043,0,0,1,3.559-4.448v1.423a4.718,4.718,0,0,0-.89,1.068h0c.89,2.313,1.6,4.626,2.313,6.939a52.144,52.144,0,0,1,1.779,11.388,13.947,13.947,0,0,0,2.491.89,47.565,47.565,0,0,0-1.779-12.989,5.2,5.2,0,0,1-.356-1.6,4.422,4.422,0,0,0,1.423-.178c.356-.178.712-.178,1.068-.356a1.349,1.349,0,0,0,.712-.356,5.2,5.2,0,0,1,.356,1.6,56.724,56.724,0,0,1,1.779,14.235,11.746,11.746,0,0,0,2.491-.178,49.038,49.038,0,0,0-1.779-14.946l-.534-2.135a14.851,14.851,0,0,0,2.847-2.135,18.776,18.776,0,0,1,.89,3.381,55.288,55.288,0,0,1,1.779,14.946c.89-.356,1.779-.712,2.491-1.068a46.82,46.82,0,0,0-1.779-14.59,32.542,32.542,0,0,0-1.423-4.448,19.043,19.043,0,0,0,2.491-2.847c.712,2.135,1.423,4.27,2.135,6.584a56.9,56.9,0,0,1,1.779,12.989,20.483,20.483,0,0,0,2.491-3.025,55.324,55.324,0,0,0-1.6-10.676,38.64,38.64,0,0,0-1.246-4.27,13.66,13.66,0,0,0-3.2-1.779c.178-.356.356-.534.534-.89a12.968,12.968,0,0,1,7.117,6.939l3.737-.178,5.338-.356-4.8,2.491-3.559,1.779c.534,6.406-4.27,12.811-11.566,14.946-5.872,1.6-11.922,0-15.48-3.737A9.445,9.445,0,0,0,128.737,81.011Z" transform="translate(-106.105 -53.325)"/>
      </g>
      <g id="Group_5019" data-name="Group 5019" transform="translate(131.803 11.386)">
        <path id="Path_4736" data-name="Path 4736" class="cls-1" d="M76.673,24.471a6.2,6.2,0,1,0,4.982-7.829,6.976,6.976,0,0,0-3.737-3.025v-.178c-.356-.712-1.068-1.246-1.779-.89s-1.246,1.068-.89,1.779,1.068,1.246,1.779.89a1.777,1.777,0,0,0,.89-.712,5.6,5.6,0,0,1,3.025,2.313A6.259,6.259,0,0,0,76.673,24.471Zm1.957-2.135A1.576,1.576,0,1,1,80.588,23.4,1.682,1.682,0,0,1,78.63,22.336Z" transform="translate(-73.247 -1.637)"/>
        <path id="Path_4737" data-name="Path 4737" class="cls-1" d="M77.22,18.639a1.187,1.187,0,0,0,2.313-.534,1.333,1.333,0,0,0-1.423-.89A1.1,1.1,0,0,0,77.22,18.639Zm.534.178c0-.178,0-.356.178-.356s.356,0,.356.178,0,.356-.178.356S77.754,18.995,77.754,18.817Z" transform="translate(-71.659 2.06)"/>
        <path id="Path_4738" data-name="Path 4738" class="cls-1" d="M75.01,14.55a1.329,1.329,0,0,1,1.779.89V15.8a5.328,5.328,0,0,1,1.779.712,2.457,2.457,0,0,0-.534.712,3.768,3.768,0,0,0-1.246-.534,1.777,1.777,0,0,1-.89.712,1.329,1.329,0,0,1-1.779-.89A1.592,1.592,0,0,1,75.01,14.55Z" transform="translate(-74.075 -0.079)"/>
        <path id="Path_4739" data-name="Path 4739" class="cls-1" d="M94.362,6.959h0a.551.551,0,0,0-.356-.178C92.227,5.714,88.668,6.6,86.177,10.7a20.609,20.609,0,0,0-2.669,10.142A2.217,2.217,0,0,0,84.22,22.8h0a1.975,1.975,0,0,0,1.957-.178c2.491-.89,6.05-3.915,8.007-6.761C96.675,11.586,95.964,8.027,94.362,6.959Zm.89,3.2a10.2,10.2,0,0,1-1.6,5.16,18.211,18.211,0,0,1-7.473,6.584H86c-.178,0-.178.178-.356.178h0a1.134,1.134,0,0,1-1.068,0h0c-.356-.178-.356-.89-.356-1.246h0a19.927,19.927,0,0,1,2.491-9.786A8.993,8.993,0,0,1,90.8,7.315a3.9,3.9,0,0,1,2.847,0l.178.178h.178C94.718,7.849,95.074,8.917,95.252,10.162Z" transform="translate(-66.737 -6.367)"/>
        <path id="Path_4740" data-name="Path 4740" class="cls-1" d="M88.743,6.993h-.356a3.453,3.453,0,0,0-2.669.89,9.157,9.157,0,0,0-2.847,4.8,18.127,18.127,0,0,0-.356,6.228,2.457,2.457,0,0,0-.534.712,18.1,18.1,0,0,1,.356-6.939c1.246-4.626,4.27-6.584,6.406-6.05H89.1a1.349,1.349,0,0,1,.712.356l-.534.534C88.92,6.993,88.92,6.993,88.743,6.993Z" transform="translate(-68.057 -6.223)"/>
        <path id="Path_4741" data-name="Path 4741" class="cls-1" d="M84.169,21.019A6.391,6.391,0,0,0,81.5,17.282a8.7,8.7,0,0,1,2.491-3.2v1.068l-.712.712h0c.534,1.6,1.068,3.2,1.6,4.982a41.592,41.592,0,0,1,1.246,8.007c.534.178,1.246.534,1.779.712a31.892,31.892,0,0,0-1.246-9.075c-.178-.356-.178-.712-.356-1.068a1.6,1.6,0,0,0,.89-.178,1.349,1.349,0,0,0,.712-.356c.178,0,.356-.178.534-.178.178.356.178.712.356,1.068a39.2,39.2,0,0,1,1.246,9.964H91.82a36.027,36.027,0,0,0-1.246-10.5,5.5,5.5,0,0,1-.356-1.423,13.58,13.58,0,0,0,1.957-1.423c.178.712.534,1.6.712,2.313a43.336,43.336,0,0,1,1.246,10.5c.534-.178,1.246-.534,1.779-.712a42.958,42.958,0,0,0-1.246-10.32c-.356-1.068-.534-2.135-.89-3.2a17.72,17.72,0,0,0,1.779-1.957,35.146,35.146,0,0,1,1.423,4.626,41.178,41.178,0,0,1,1.246,9.075,18.847,18.847,0,0,0,1.779-2.135A36.435,36.435,0,0,0,98.76,17.1a19.439,19.439,0,0,0-.89-3.025,9.587,9.587,0,0,0-2.313-1.246c.178-.178.356-.356.356-.534a8.823,8.823,0,0,1,4.982,4.8l2.669-.178,3.737-.178-3.381,1.779-2.491,1.246c.356,4.626-3.025,9.075-8.185,10.5-4.092,1.068-8.363,0-10.854-2.669A6.669,6.669,0,0,0,84.169,21.019Z" transform="translate(-68.288 -1.744)"/>
      </g>
      <path id="Path_4742" data-name="Path 4742" class="cls-1" d="M97.249,93.826a3.454,3.454,0,0,0-2.847.89h0a3.875,3.875,0,0,0-1.246,1.6c-.89.712-3.025.356-3.025.356.356-5.872-2.847-7.473-5.694-7.473-2.491,0-6.228,4.8-7.651,9.253a6.063,6.063,0,0,0-4.8-4.982c-2.847-.534-4.626,3.915-4.626,4.092-.178.534-2.313,2.669-3.915,1.246a3.456,3.456,0,0,0-4.448.356c-.89,1.068-1.423.712-2.669.534a2.8,2.8,0,0,0-2.135-.712c-3.915-.356.534,6.584,1.957,9.43s7.829,4.8,7.829,4.8c1.423,1.068,5.16,7.3,4.982,9.608-.178,3.559-.356,7.117-3.025,9.964-2.313,2.313-3.381,9.252-1.957,13.167,1.6,4.27,5.16,6.05,8.541,2.491a12.175,12.175,0,0,0,2.847-10.5c-.534-2.491-1.6-4.626-2.135-6.939-.89-3.737.534-12.277,3.2-14.235,1.6-.712,2.135.356,3.2,2.669h0c.534,1.068,0,1.779,0,2.491-.178,1.423-3.2,6.761-3.381,8.541A6.39,6.39,0,0,0,80.7,137.6c3.737,1.068,5.872-2.313,6.228-5.694.356-1.957-1.423-6.228-1.779-6.583a8.9,8.9,0,0,1-1.957-3.559,9.719,9.719,0,0,1,1.6-4.982c2.847-.178,6.584-1.957,9.786-4.8h0V111.8h0C100.452,107.705,105.79,94.538,97.249,93.826ZM72.516,142.4c-.178,1.068-.356,4.982-2.669,4.8-.89,0-1.6-1.246-1.423-2.313h0v-.178c.178-1.068,1.068-1.6,1.6-2.135,1.779-3.2,1.246-4.8,1.246-4.8A7.672,7.672,0,0,1,72.516,142.4ZM84.26,130.836c0,.712,0,3.559-1.957,3.559a1.453,1.453,0,0,1-1.423-1.6h0v-.178c.178-.712.89-1.068,1.246-1.6,1.246-2.313.712-3.381.712-3.381A5.152,5.152,0,0,1,84.26,130.836Z" transform="translate(41.005 69.573)"/>
    </g>
    <text id="_8_Colonies" data-name="8 Colonies" class="cls-2" transform="translate(722 4333.633)"><tspan x="0" y="58">8 Colonies</tspan></text>
    <text id="Each_colony_can_have_up_to_60_000_bees._That_s_up_to_480_000_bees_" data-name="Each colony can have up to 60,000 bees. 

That’s up to 480,000 bees! " class="cls-3" transform="translate(722 4430.633)"><tspan x="0" y="19">Each colony can have up to </tspan><tspan x="0" y="49">60,000 bees. </tspan><tspan x="0" y="79"></tspan><tspan x="0" y="109">That’s up to 480,000 bees! </tspan></text>
  </g>
</svg>
