<svg xmlns="http://www.w3.org/2000/svg" viewBox="2524 -4062.646 215 410.646">
  <defs>
    <style>
      .cls-1, .cls-2 {
        fill: #fff;
      }

      .cls-2 {
        font-size: 24px;
        font-family: ProximaNova-Light, Proxima Nova;
        font-weight: 300;
      }
    </style>
  </defs>
  <g id="Group_8153" data-name="Group 8153" transform="translate(1911 -6027)">
    <path id="Path_4691" data-name="Path 4691" class="cls-1" d="M15.748,76.633a6.735,6.735,0,0,0,5.1,6.6v3.639a4.923,4.923,0,0,0,4.626,4.8h9.252c2.449,0,4.116-2.347,4.116-4.8V83.231a6.764,6.764,0,0,0,5.1-6.6V67.177H15.714v9.456ZM31.054,88.878a.755.755,0,0,1-.748.748H22.959a.755.755,0,0,1-.748-.748v-.2a.755.755,0,0,1,.748-.748h7.347a.755.755,0,0,1,.748.748v.2Zm0-2.721a.755.755,0,0,1-.748.748H22.959a.755.755,0,0,1-.748-.748v-.2a.755.755,0,0,1,.748-.748h7.347a.755.755,0,0,1,.748.748v.2Zm-1.02-8.367a2.656,2.656,0,0,1-2.653,2.653H20.816a2.656,2.656,0,0,1-2.653-2.653v-.442a2.656,2.656,0,0,1,2.653-2.653h6.565a2.656,2.656,0,0,1,2.653,2.653Zm.1,18.537a3.986,3.986,0,0,0,3.571-2.959H26.565A3.95,3.95,0,0,0,30.136,96.327Zm6.224-60.952c1.02,1.939,7.449,4.966,9.524-5.238-10.918-6.259-10.612,3.4-10.612,3.4s.544-2.891,7.721-1.5c-5.646-.34-7.619,2.041-8.435,4.15a9.334,9.334,0,0,1-.408,3.163A35.009,35.009,0,0,1,36.361,35.374ZM9.422,24.388C6.6,51.258,24.864,48.878,28.946,44.9c4.354,7.415.714,20.578.714,20.578h3.571S38.707,36.6,15.068,31.395c18.844,2.279,17.925,9.728,17.925,9.728S41.293,17.449,9.422,24.388ZM29.966,0A30.02,30.02,0,0,0,0,30,29.446,29.446,0,0,0,2.687,42.415a25.65,25.65,0,0,0,5.2,6.871c3.844,3.98,8.231,8.707,8.231,16.19h2.007c0-8.5-4.864-13.5-8.81-17.585a25.439,25.439,0,0,1-4.83-6.259,28.012,28.012,0,1,1,53.5-11.667c0,10-5.374,15.476-7.347,17.109-3.844,3.163-8.605,7.143-8.776,17.755l2.007.034c.17-9.694,4.15-13.027,8.027-16.259a25.087,25.087,0,0,0,5.782-7.143C59.626,37.415,60,34.456,60,29.932A30.064,30.064,0,0,0,29.966,0Z" transform="translate(689.714 1964.354)"/>
    <text id="Electronic_recycling_Green_Vendor_Fair_Electric_car_chargers_Ride_sharing_Preserved_wetlands_Beehives_MO_DIRT" data-name="Electronic recycling
Green Vendor Fair 
Electric car chargers 
Ride sharing
Preserved wetlands
Beehives
MO DIRT" class="cls-2" transform="translate(613 2076)"><tspan x="6.7" y="19">Electronic recycling</tspan><tspan x="11.896" y="59">Green Vendor Fair </tspan><tspan x="2.212" y="99">Electric car chargers </tspan><tspan x="43.108" y="139">Ride sharing</tspan><tspan x="4.996" y="179">Preserved wetlands</tspan><tspan x="59.392" y="219">Beehives</tspan><tspan x="60.988" y="259">MO DIRT</tspan></text>
  </g>
</svg>
