<svg xmlns="http://www.w3.org/2000/svg" viewBox="9525 -2769 960 383.892">
  <defs>
    <style>
      .cls-1 {
        fill: rgba(255,255,255,0);
        stroke: #fff;
      }

      .cls-2, .cls-3, .cls-4, .cls-5 {
        fill: #fff;
      }

      .cls-2 {
        font-size: 72px;
        font-family: Sentinel-Medium, Sentinel;
        font-weight: 500;
      }

      .cls-3 {
        font-size: 24px;
        font-family: ProximaNova-Light, Proxima Nova;
        font-weight: 300;
      }

      .cls-4 {
        fill-rule: evenodd;
      }

      .cls-6 {
        stroke: none;
      }

      .cls-7 {
        fill: none;
      }
    </style>
  </defs>
  <g id="Group_8159" data-name="Group 8159" transform="translate(9285 -6038)">
    <g id="Rectangle_842" data-name="Rectangle 842" class="cls-1" transform="translate(570 3269)">
      <rect class="cls-6" width="300" height="380"/>
      <rect class="cls-7" x="0.5" y="0.5" width="299" height="379"/>
    </g>
    <g id="Group_8158" data-name="Group 8158">
      <g id="Rectangle_844" data-name="Rectangle 844" class="cls-1" transform="translate(240 3269)">
        <rect class="cls-6" width="300" height="380"/>
        <rect class="cls-7" x="0.5" y="0.5" width="299" height="379"/>
      </g>
      <text id="_73_" data-name="73%" class="cls-2" transform="translate(291 3445.69)"><tspan x="30.916" y="69">73%</tspan></text>
      <text id="improved_their_blood_pressure" data-name="improved their 
blood pressure" class="cls-3" transform="translate(240 3540.604)"><tspan x="74.976" y="19">improved their </tspan><tspan x="71.364" y="49">blood pressure</tspan></text>
      <g id="Group_4933" data-name="Group 4933" transform="translate(328.986 3301.962)">
        <path id="Path_4621" data-name="Path 4621" class="cls-4" d="M29.2,126.789C7.868,130.824-9.741,95.45,6.138,80.567c-1.467-3.04-2.725-3.406.21-4.821-11.634-22.692-4.821-33.016,18.6-40.2C3.046,2.9,43.871-13.031,59.173,13.12c15.2-25.941,55.289-10.429,34.85,21.434,29.452,8.437,31.182,20.438,17.346,46.118a28.444,28.444,0,1,1-3.144-2.516c12.892-23.9,10.481-32.6-16.56-40.143-.314.419-.576.786-.891,1.205.419-.839-8.437.367-9.59-.1-2.149-.839-4.612-5.922-7.7-2.516-2.516,2.778-1.782,2.725-4.926,2.568-4.245-.21-4.559-.1-5.188,4.874l-2.83-24.631c-.419-3.721-2.1-1.677-2.1-1.677-.367.629-4.193,21.12-5.083,25.312-1.363-2.411-1.52-3.354-3.668-3.2-5.031.314-5.083-3.721-7.284-2.411-6.551,3.93-2.411,2.253-13.573,2.411-1,0-.524.262-1.363-.838-.891.262-1.834.524-2.725.838C4.2,46.4-.046,54.626,9.911,74.016c2.987-1.467,2.411-.524,3.983,2.62,21.382-4.14,39.043,31.391,23.059,46.222.367.734,1.258,1.991.262,2.516l-6.236,3.04c-1.048.524-1.467-.943-1.782-1.625Zm79.186-19.338a44.823,44.823,0,0,1,4.507,1.991,22.28,22.28,0,0,0-2.62-20.7,48.7,48.7,0,0,1-4.088,3.092.844.844,0,0,1-1-1.363,49.568,49.568,0,0,1,4.14-2.987,22.15,22.15,0,0,0-19.443-8.071,43.771,43.771,0,0,1,.681,5.136.845.845,0,0,1-1.677.21,38.912,38.912,0,0,1-.472-5.136,21.9,21.9,0,0,0-5.45,1.677L95.229,99.171a4.079,4.079,0,0,1-3.144,6.656A3.972,3.972,0,0,1,88.1,102.42L81.865,81.877A22.511,22.511,0,0,0,71.751,92.568c.472.052,3.983,1.677,4.664,1.991a.857.857,0,0,1-.681,1.572,43.1,43.1,0,0,1-4.612-2.044,22.688,22.688,0,0,0-1.31,7.6,22.237,22.237,0,0,0,4.193,13c.943-.839,2.83-2.1,3.93-2.935a.844.844,0,0,1,1,1.363c-1.258.891-2.673,2.044-3.93,2.882a22.3,22.3,0,0,0,19.076,7.861l-.524-4.821a.845.845,0,0,1,1.677-.21l.524,4.769a22.41,22.41,0,0,0,16.456-12.525,46.536,46.536,0,0,1-4.559-1.991.893.893,0,0,1,.734-1.625ZM89.464,40.843c-2.411.157-5.607,0-7.022,0-4.193,0-3.721-2.149-6.865-3.721-2.83,2.2-1.52,4.088-7.18,3.773a12.89,12.89,0,0,0-2.463,0c-.786,1.52-1.1,9.748-1.572,11.739-.21.943-1.887,1.729-2.149-.629l-3.2-27.775c-.419,2.044-3.93,20.753-4.507,21.591-1.782,2.673-3.354-4.4-4.769-4.3-3.616.21-3.93-.367-6.656-2.463-6.446,3.93-3.983,2.411-13.626,2.463C37.215,50.9,48.168,60.286,59.173,69.666c11.215-9.59,22.482-19.233,30.291-28.823ZM8.654,91c-5.555-.262-5.607,10.953,0,11.267C14.261,102.525,14.261,91.258,8.654,91Z" transform="translate(0 0)"/>
      </g>
      <g id="Rectangle_843" data-name="Rectangle 843" class="cls-1" transform="translate(900 3269)">
        <rect class="cls-6" width="300" height="380"/>
        <rect class="cls-7" x="0.5" y="0.5" width="299" height="379"/>
      </g>
      <text id="_65_" data-name="65%" class="cls-2" transform="translate(622 3445.69)"><tspan x="30.196" y="69">65%</tspan></text>
      <text id="_39_" data-name="39%" class="cls-2" transform="translate(952 3445.69)"><tspan x="29.8" y="69">39%</tspan></text>
      <text id="improved_their_glucose_levels" data-name="improved their 
glucose levels" class="cls-3" transform="translate(570 3540.604)"><tspan x="74.976" y="19">improved their </tspan><tspan x="75.888" y="49">glucose levels</tspan></text>
      <text id="improved_their_smoking_habits" data-name="improved their 
smoking habits" class="cls-3" transform="translate(900 3540.604)"><tspan x="74.976" y="19">improved their </tspan><tspan x="72.156" y="49">smoking habits</tspan></text>
      <g id="Group_4934" data-name="Group 4934" transform="translate(658.873 3306.045)">
        <path id="Path_4622" data-name="Path 4622" class="cls-5" d="M307.443,462.736a2.223,2.223,0,0,0-.8-.137,2.306,2.306,0,0,0-2.145,1.482l-8.208,22.031a2.285,2.285,0,0,0,.059,1.755,2.211,2.211,0,0,0,1.287,1.189l22.031,8.208a2.329,2.329,0,0,0,2.944-1.345l8.208-22.031a2.28,2.28,0,0,0-1.345-2.944Z" transform="translate(-238.304 -372.445)"/>
        <path id="Path_4623" data-name="Path 4623" class="cls-5" d="M47.038,159.15a2.335,2.335,0,0,0,3.1.916L70.8,148.855a2.276,2.276,0,0,0,1.111-1.365,2.239,2.239,0,0,0-.175-1.735L60.53,125.089a2.282,2.282,0,0,0-2.008-1.189,2.384,2.384,0,0,0-1.092.273l-20.666,11.21a2.282,2.282,0,0,0-.916,3.1Z" transform="translate(-28.531 -99.78)"/>
        <path id="Path_4624" data-name="Path 4624" class="cls-5" d="M12.249,443.293c8.7,0,20.3-5.4,27.607-12.829,8.189-8.345,9.729-18.073,4.133-26.067a29.119,29.119,0,0,0-5.011-5.089A17.928,17.928,0,0,0,28.489,395.8c-5.537,0-11.074,2.671-16.046,7.721A46.548,46.548,0,0,0,1.194,423.407C-.775,430.835,0,436.977,3.339,440.252,5.366,442.28,8.369,443.293,12.249,443.293Zm-8.091-20.92a37.992,37.992,0,0,1,9.2-16.241,26.312,26.312,0,0,1,3.821-3.236,20.8,20.8,0,0,1,3.919-2.125,16.571,16.571,0,0,1,4.426-1.111.549.549,0,0,1,.6.487.56.56,0,0,1-.487.6,15.125,15.125,0,0,0-4.133,1.033,19.14,19.14,0,0,0-3.7,2.008,25.24,25.24,0,0,0-3.646,3.1A37.1,37.1,0,0,0,5.23,422.647a21.72,21.72,0,0,0-.741,7.916.546.546,0,0,1-.487.6H3.943a.564.564,0,0,1-.546-.487A21.765,21.765,0,0,1,4.158,422.374Z" transform="translate(0 -318.669)"/>
        <path id="Path_4625" data-name="Path 4625" class="cls-5" d="M294.564,6.534a6.717,6.717,0,0,0-2.184-4.894c-2.749-2.71-8.6-2.4-13.647,2.749L214.2,78.691a27.255,27.255,0,0,1,2.924,2.885L289.9,15.21C292.966,12.305,294.584,9.283,294.564,6.534Z" transform="translate(-172.336 0)"/>
        <path id="Path_4626" data-name="Path 4626" class="cls-5" d="M459.156,280.955A2.283,2.283,0,0,0,457.3,280a2.4,2.4,0,0,0-1.345.429l-19.068,13.745a2.263,2.263,0,0,0-.916,1.482,2.195,2.195,0,0,0,.409,1.7l13.745,19.068a2.356,2.356,0,0,0,3.2.526L472.394,303.2a2.263,2.263,0,0,0,.916-1.482,2.195,2.195,0,0,0-.409-1.7Z" transform="translate(-350.848 -225.446)"/>
      </g>
      <path id="Path_4620" data-name="Path 4620" class="cls-4" d="M41.583,45.228c-1.068,2.493-4.986,5.7-9.259,7.123-1.781,5.342-2.849,9.972-5.7,13.177a27.936,27.936,0,0,0,.712-4.986A10.507,10.507,0,0,0,22,58.761c.356-1.781,1.425-2.849,1.425-4.274A33.025,33.025,0,0,0,32.68,44.16c2.137-.712,6.41-3.917,8.191-5.342,0,2.137.712,4.274.712,6.41ZM123.492,0a89.421,89.421,0,0,1,16.382,38.105l-33.12-.356c-6.41,2.493-11.752,5.7-25.641,19.587-6.41,6.41-10.684,4.63-17.45,7.479-13.177,5.342-33.476,17.094-39.53,30.271-3.205,0-5.342-2.493-7.123-4.986a24.648,24.648,0,0,0,3.205-12.108A80.824,80.824,0,0,1,45.857,50.926c-3.205-6.41-2.849-21.368-1.424-26.709-1.781,2.137-3.917,7.835-3.917,11.4-3.205,2.137-6.054,4.986-9.259,5.7a54.723,54.723,0,0,1-9.972,10.684c-1.781,7.123-2.493,13.177-4.63,17.094,2.493,11.752,1.781,20.655-6.766,22.08-.712-2.849-4.986-14.6-6.054-19.943C4.546,64.459,5.615,58.4,5.258,51.638a16.13,16.13,0,0,1,1.068-5.7C10.956,35.613,19.5,24.217,26.27,12.108c6.054-9.615,8.9-8.9,19.231-9.259,34.9,0,56.624-1.425,77.991-2.849ZM20.928,96.866a6.6,6.6,0,0,0-.712,2.493c-1.781,2.493-3.561,3.205-2.137,7.835a10.635,10.635,0,0,1,2.137-4.986A48.647,48.647,0,0,1,21.64,110.4a27.078,27.078,0,0,1-.356,4.986,36.28,36.28,0,0,1-12.464-.712,27.912,27.912,0,0,1,1.781-4.986,9.034,9.034,0,0,0,4.274.712c0-.356-4.274-1.781-4.986-2.493-.712-2.137-.712-4.274-1.068-6.766.356-2.137.356-4.274.712-6.766l6.41-.712,4.986,3.205ZM22,124.288v-2.137h2.137c.356.356.356,1.068.712,1.424-.356,0-2.137,0-2.849.712ZM3.834,119.3a6.252,6.252,0,0,0,1.781-1.425A7.45,7.45,0,0,1,7.751,119.3c-.356,1.068-1.068,2.493-1.425,3.561-.356,0-.712-.356-1.068-.356,0-1.068-.356-1.781-.356-2.849a3.587,3.587,0,0,0-1.068-.356Zm-2.493.356c.356-.356.712-.356,1.068-.712.356.356.712.712,1.068.712-.356.712-.356,1.424-.712,2.137-.356,0-.356,0-.712-.356a3.21,3.21,0,0,0-.356-1.781Zm8.547.356c.712-.356,2.137-.356,2.849-.712.356.712,1.068,1.068,1.424,1.781-.712,1.068-1.424,2.493-2.137,3.561-.356-.356-.712-.356-1.068-.712,0-1.068.356-2.137.356-3.205.356,0-1.068-.356-1.425-.712ZM25.2,122.151l-1.068-1.425,1.068-.712,1.425.712L25.2,122.151Zm-2.849-2.493a6.252,6.252,0,0,1-1.781-1.425,6.252,6.252,0,0,0-1.781,1.425c.356,1.068.712,2.493,1.068,3.917.356,0,.712-.356,1.068-.712,0-1.068.356-1.781.356-2.849a1.758,1.758,0,0,0,1.068-.356ZM14.518,125v-2.137c.712,0,1.781-.356,2.493-.356.356.356,0,1.425.356,1.781a11.01,11.01,0,0,0-2.849.712Zm7.835-8.191,1.424,1.068H20.928l-1.068-1.068Zm-3.917-.356-.712,1.068.356,3.205-1.068.712-2.137-3.561.356-.356,3.205-1.068Zm-4.274.356v2.137l-2.493-.712.356-1.425ZM10.6,116.1,9.532,118.59l-2.493-1.425.712-.712L10.6,116.1ZM21.64,60.9A9.246,9.246,0,0,1,25.2,62.322a54.291,54.291,0,0,1-1.068,6.766c-1.425,2.137-2.493,4.274-3.917,6.766-.356-1.425-.356-4.63-.712-5.7.712-3.205,1.781-6.054,2.137-9.259ZM1.7,73.006C2.766,84.046,3.122,86.895,3.834,91.88c.356.356,3.205-.712,3.205-1.781C5.258,83.333,4.19,79.06,1.7,73.006ZM4.546,45.584C3.478,48.077,1.7,65.527,1.341,70.157.273,60.185-.8,49.858.985,44.872,2.053,39.53,7.039,31.7,12.381,24.217,17.011,17.45,22,7.835,29.475,5.7,23.421,7.835,7.039,39.174,4.546,45.584Z" transform="translate(979.967 3305)"/>
    </g>
  </g>
</svg>
