<svg xmlns="http://www.w3.org/2000/svg" viewBox="9555 -3480 900 250">
  <defs>
    <style>
      .cls-1 {
        fill: rgba(255,255,255,0);
        stroke: #fff;
      }

      .cls-2, .cls-3, .cls-4 {
        fill: #fff;
      }

      .cls-2 {
        font-size: 72px;
        font-family: Sentinel-Medium, Sentinel;
        font-weight: 500;
      }

      .cls-3 {
        font-size: 24px;
        font-family: ProximaNova-Light, Proxima Nova;
        font-weight: 300;
      }

      .cls-5 {
        stroke: none;
      }

      .cls-6 {
        fill: none;
      }
    </style>
  </defs>
  <g id="Group_8157" data-name="Group 8157" transform="translate(9285 -6038)">
    <g id="Rectangle_782" data-name="Rectangle 782" class="cls-1" transform="translate(270 2558)">
      <rect class="cls-5" width="900" height="250"/>
      <rect class="cls-6" x="0.5" y="0.5" width="899" height="249"/>
    </g>
    <text id="_65_" data-name="65%" class="cls-2" transform="translate(368.93 2601.69)"><tspan x="30.196" y="69">65%</tspan></text>
    <text id="improved_their_LDL_cholesterol" data-name="improved their 
LDL cholesterol" class="cls-3" transform="translate(306 2693.604)"><tspan x="87.873" y="19">improved their </tspan><tspan x="81.921" y="49">LDL cholesterol</tspan></text>
    <text id="_68_" data-name="68%" class="cls-2" transform="translate(871.93 2601.69)"><tspan x="29.98" y="69">68%</tspan></text>
    <text id="improved_their_triglycerides" data-name="improved their 
triglycerides" class="cls-3" transform="translate(809 2693.604)"><tspan x="87.873" y="19">improved their </tspan><tspan x="99.777" y="49">triglycerides</tspan></text>
    <g id="heart_2_" transform="translate(674.303 2605.241)">
      <path id="Path_4627" data-name="Path 4627" class="cls-4" d="M12,28.659c5.545,0,10.628.462,14.555,4.621A19.087,19.087,0,0,1,31.41,47.6c-.231,1.617-.693,3-.924,4.852A9.826,9.826,0,0,1,30.024,55a20.276,20.276,0,0,1,4.852-2.772c6.007-2.772,12.476-4.852,19.176-4.39a29.136,29.136,0,0,1,6.469,1.155c-2.541-3.235-3.466-6.7-5.314-10.166a70.867,70.867,0,0,0-6.469-9.7c-2.079-2.772-4.39-5.545-6.7-8.086A33.015,33.015,0,0,0,37.417,17.8c-3.7-2.079-7.855-2.772-12.014-4.159A53.655,53.655,0,0,0,10.617,11.1a1.7,1.7,0,0,0-1.386.462c-.231.231-.231.693-.462.924a46.487,46.487,0,0,0-.231,13.862C9,28.659,10.155,28.659,12,28.659Z" transform="translate(10.615 14.545)"/>
      <path id="Path_4628" data-name="Path 4628" class="cls-4" d="M28.824,28.418a47.251,47.251,0,0,1,7.162,4.621c2.541,2.079,4.39,4.852,6.469,7.624a77.968,77.968,0,0,1,6.469,8.779c1.848,3,2.31,6.469,3.928,9.473s3.235,5.776,4.852,8.779c.231.462.462.693.693,1.155A34.468,34.468,0,0,1,58.859,64a44.306,44.306,0,0,1,3.466-11.09c.924-1.848,1.848-3.466,2.772-5.314a5.03,5.03,0,0,1,1.155-1.848c.231-3.928-.924-7.855-1.848-11.783a28.964,28.964,0,0,0-2.079-5.776c-1.386-2.541-8.548-7.624-7.393-10.628a9.046,9.046,0,0,1,1.848-2.31,46.246,46.246,0,0,0,6.238-7.162c-3-2.541-5.776-5.314-8.548-8.086-3,3.928-6.007,7.855-8.779,11.552-2.31,3-4.159-6.7-5.314-7.393-1.617-.924-6.238,0-8.086,0-.462,0,3,5.545,3.235,6.007.462.924,1.848,4.852-.924,3.7-.924-2.31-1.848-4.621-2.541-6.931-.231-.462-.231-.693-.693-.924-.231,0-.462-.231-.693-.231-1.155,0-2.31-.231-3.466-.231.462,1.617,2.31,5.083,1.386,6.7s-5.083-.231-7.162-.231C17.5,12.245,14.962,20.1,14.5,23.566,19.352,23.8,24.435,26.107,28.824,28.418Z" transform="translate(18.976)"/>
      <path id="Path_4629" data-name="Path 4629" class="cls-4" d="M40.71,30.506c-.231.693-.231,1.386-.462,2.079-.231-.231-.462-.231-.462-.462-.231.924-.231,2.079-.462,3a50.177,50.177,0,0,1-1.617,5.545,63.985,63.985,0,0,0-2.541,11.09c-.231,3-.231,6.238,1.155,9.01a16.248,16.248,0,0,0,4.621,5.083c3.928,3,8.548,5.083,12.014,8.548a23.532,23.532,0,0,1,4.852,6.931c.231-.924.462-1.848.693-3,2.079-9.473-.924-17.79-2.772-27.031a14.909,14.909,0,0,0-2.772-6.469c.231-8.548,1.155-16.866,1.386-25.414.231-6.931-4.852-7.624-10.628-8.086-2.541-.231-2.772.231-2.772,2.772-.231,4.159.231,8.317,0,12.476A10.585,10.585,0,0,1,40.71,30.506Z" transform="translate(45.905 14.777)"/>
      <path id="Path_4630" data-name="Path 4630" class="cls-4" d="M100.246,57.191a38.245,38.245,0,0,0-6.931-5.083L87.77,48.642c-.462-.231-4.852-3.466-5.083-3.235a2.456,2.456,0,0,0,.231,2.772,4.263,4.263,0,0,1,1.155,2.772,8.567,8.567,0,0,1-.924,3.235c-1.155,1.848-1.617,2.541-.462,4.852.693,1.386.462,2.31.462,3.7a29.083,29.083,0,0,1-.924,6.238,11.788,11.788,0,0,1-2.772,4.621c-.462.462-1.155.924-1.617,1.386,2.079-3,3.928-6.469,4.159-10.166A9.292,9.292,0,0,0,81.3,59.27a5.266,5.266,0,0,1-.693-2.541c0-2.772,2.772-4.621.924-7.393-1.155-1.617-1.617-3.928-.462-5.545h0c-1.155-1.386-1.617-.924-2.541.231s-1.386,2.772-2.31,3.928c-1.155,1.155-1.617,2.772-2.31,4.39-1.155,3,0,6.238-1.155,9.241a25.383,25.383,0,0,1-2.079,3.235,18.42,18.42,0,0,1-1.848,3.7c-.231.231-.693.231-.462-.231.462-1.155.462-2.541.924-3.7a23.087,23.087,0,0,1,1.848-3.235,10.884,10.884,0,0,0,.924-3.928c0-.231.231-1.386-.231-1.617-.231-.231-1.155.462-1.386.693-.693.231-1.155.231-1.848.462-2.079.693-3.928,2.541-5.314,4.159h0c1.155-1.617,2.079-3.235,3.7-4.39,1.386-.924,3.466-.693,4.621-1.848.924-.693.924-1.617,1.155-2.772A30.078,30.078,0,0,1,74.6,48.18l1.386-2.772c.693-1.155,1.155-2.31,1.848-3.466A11.263,11.263,0,0,0,78.76,39.4c0-.231-.462-1.848-.693-1.848s-.231,0-.462.231a6.155,6.155,0,0,1-2.31,1.386,11.706,11.706,0,0,1-3,.462,8.8,8.8,0,0,0-2.31.693c-1.386,1.155-.231,3,.231,4.39.924,3.235-.693,5.083-2.772,7.393h-.231c.924-1.848,1.848-3.928,1.386-6.238-.231-1.386-1.155-2.541-1.155-4.159a2.93,2.93,0,0,1,.231-1.386c-.462-.462-.924-1.155-1.848-.693a11.115,11.115,0,0,0-2.541,2.079,4.152,4.152,0,0,1-2.079.924H59.122a1.2,1.2,0,0,1-.924-.462s1.155-.231,1.386-.231h1.155a3.751,3.751,0,0,0,2.079-1.155,20.112,20.112,0,0,1,2.541-2.079,3.937,3.937,0,0,1,2.31,0,1.731,1.731,0,0,0,1.155-.231c.462,0,.924-.231,1.386-.231a20.806,20.806,0,0,1,3.7-.693,4.879,4.879,0,0,0,2.31-.924c.462-.462.462-1.155.693-1.848a25.252,25.252,0,0,0-1.848-3.466c-.231-.231-.462-.693-.693-.924-3.928-2.31-9.01-2.541-13.631-2.079A40.983,40.983,0,0,0,41.1,36.4a17.575,17.575,0,0,1-4.39,2.772,9.656,9.656,0,0,1-2.31.924,8.206,8.206,0,0,0-2.079.924,5.05,5.05,0,0,0-.693,1.155,3.864,3.864,0,0,0-.231,2.772c.462,3,2.079,5.776,3.235,8.548a29.6,29.6,0,0,1,2.541,7.624,20.8,20.8,0,0,0,.693,3.7c.462,1.386,1.848,2.31,3.235,3a11.7,11.7,0,0,1,4.852,4.621A27.181,27.181,0,0,1,47.57,77.06c0,.231,2.079.462,2.31.462l2.079.693a40.148,40.148,0,0,1,4.39,2.31,18.418,18.418,0,0,0-3.466-.693c-1.386-.462-3-1.155-4.621-.924,0,.231,0,.462.231.462.693,2.31,2.31,4.159,3.928,6.007,1.617,1.617,3.7,3.235,4.621,5.314,0,.231,0,.231-.231.231-4.159-2.31-8.317-5.314-10.166-9.7-.924-2.541-1.386-5.314-2.541-7.624a10.085,10.085,0,0,0-4.39-3.928,22.324,22.324,0,0,1,.231,5.545c0,3.235-.462,6.469-.231,9.7a34.468,34.468,0,0,1,.462,4.852v2.31c1.155,1.386,3,2.541,4.159,3.928.462.693.693,1.386,1.155,2.079a11.609,11.609,0,0,0-2.772-1.848,10.259,10.259,0,0,1-2.541-1.848.226.226,0,0,0-.231-.231v.231a17.3,17.3,0,0,0,2.31,9.7c.231.231-.231.462-.231.231A18.126,18.126,0,0,1,38.328,96a34.121,34.121,0,0,1-.231-4.852,26.041,26.041,0,0,0-.693-4.159,14.505,14.505,0,0,1-2.541,2.772,8.483,8.483,0,0,0-2.079,4.621,23.193,23.193,0,0,0-.924,5.545,35.049,35.049,0,0,1-.693-4.852c0-1.617.462-4.159,1.386-5.314,1.155-1.617,3-2.541,4.39-3.928a45.413,45.413,0,0,1,0-9.7,49.346,49.346,0,0,1,.231-8.317A9.156,9.156,0,0,1,34.4,62.5a32.436,32.436,0,0,0-3-7.855c-.693-1.155-1.386-2.541-2.079-3.7a4.644,4.644,0,0,1-.924,1.848,15.159,15.159,0,0,0-1.848,8.317c0,3.466,1.386,6.469,2.079,9.7.462,2.772.693,5.314-.462,7.855a7.69,7.69,0,0,1-1.386,2.31,11.947,11.947,0,0,0,1.386,3,12.245,12.245,0,0,1,.693,6.469,15.6,15.6,0,0,1-.462,3.235,7.691,7.691,0,0,0,.231,3.235c.462,1.617.693,3.235-.231,4.621,0,.231-.231,0-.231-.231.462-2.31-.693-4.621-.693-6.7a64.927,64.927,0,0,0-.231-6.7c-.231-1.617-.924-3.7-1.386-5.545V82.6a11.764,11.764,0,0,0-1.386,4.852c0,2.541-.924,3.928-2.541,6.007-2.079,2.541-.693,5.545-.462,8.548,0,.231-.231.231-.462,0-.924-2.31-2.31-4.39-1.848-7.162.462-2.31,2.541-3.7,2.772-6.007.231-2.772,0-4.852,1.617-7.393,1.617-3,3-5.314,2.541-8.779-.462-3-1.848-5.776-2.31-8.779h0l-.462.462c-1.848,1.386-4.159,2.31-4.852,4.621-1.155,2.772.462,5.776,0,8.548a6.852,6.852,0,0,1-1.617,3.466c-.462.462-.693.924-1.155,1.155.462.693-.693,1.155-.693,1.386.462-1.155,1.155-2.31,1.617-3.466a10.254,10.254,0,0,0,.462-5.314c-.231-.924-.231-1.848-.462-3,0,.231-.231.231-.462.462a10.674,10.674,0,0,1-1.617,1.617c-.462.231-1.617,1.155-1.155.231.231-.693,1.155-1.386,1.617-2.079s.924-1.617,1.386-2.31a13.75,13.75,0,0,1,3.928-5.083c.693-.462,1.617-.924,2.31-1.386s1.155-1.155,1.848-1.617a16.519,16.519,0,0,1,.693-5.776A29.586,29.586,0,0,1,27.7,50.259a8.206,8.206,0,0,0,.924-2.079,2.93,2.93,0,0,1-.231-1.386,18.675,18.675,0,0,1-.231-3.7c0-.462.231-1.155.231-1.617-1.617.231-3.466.231-5.083.462-3.466.231-6.931.462-10.166,2.079a14.908,14.908,0,0,0-7.162,6.931c-.231.462-.231.924-.462,1.386a41.548,41.548,0,0,0-1.386,5.083A173.25,173.25,0,0,0,.9,79.37C.669,82.6.438,86.07.207,89.536-.024,94.619-.255,99.008.9,103.86c1.155,4.39,4.159,6.469,8.548,7.624A42.723,42.723,0,0,0,23.773,113.1a102.065,102.065,0,0,0,26.338-3.7c8.086-2.079,15.017-6.931,22.411-10.628A69.446,69.446,0,0,0,87.77,88.15c4.621-4.159,7.393-9.242,10.166-14.786a110.117,110.117,0,0,0,5.083-12.014A18.51,18.51,0,0,0,100.246,57.191Z" transform="translate(0 36.842)"/>
      <path id="Path_4631" data-name="Path 4631" class="cls-4" d="M20.628,47.538c3.235-.231,6.469-.462,9.241-1.617a24.042,24.042,0,0,0,2.772-12.476c-.231-3-1.155-12.014-5.545-12.245a5.52,5.52,0,0,0-3.235,1.155C19.7,24.9,16.238,28.593,13,32.059A37.493,37.493,0,0,0,3.762,51c-.231.924-.231,1.617-.462,2.541C8.383,49.387,14.621,48.231,20.628,47.538Z" transform="translate(4.3 27.78)"/>
    </g>
  </g>
</svg>
