<svg xmlns="http://www.w3.org/2000/svg" xmlns:xlink="http://www.w3.org/1999/xlink" viewBox="-494 -6002 200 40.75">
  <defs>
    <style>
      .cls-1 {
        fill: none;
      }

      .cls-2 {
        clip-path: url(#clip-path);
      }

      .cls-3 {
        fill: #fff;
      }
    </style>
    <clipPath id="clip-path">
      <path id="Path_7665" data-name="Path 7665" class="cls-1" d="M0-68.776H200v40.75H0Z" transform="translate(0 68.776)"/>
    </clipPath>
  </defs>
  <g id="Group_7860" data-name="Group 7860" transform="translate(-494 -6002)">
    <g id="Group_7859" data-name="Group 7859" class="cls-2" transform="translate(0 0)">
      <g id="Group_7837" data-name="Group 7837" transform="translate(56.849 0.538)">
        <path id="Path_7643" data-name="Path 7643" class="cls-3" d="M-24.37-22.735l.047-26.514a19.869,19.869,0,0,1,.646-6.26l.1-.277-.293,0-4.536,0c-12.228,30.04-12.221,30.051-13.158,32.346-.374-.937-12.866-32.338-12.866-32.338h-5.312l.1.281c.309.831.628,1.687.617,6.26l-.037,26.467a19.973,19.973,0,0,1-.645,6.281l-.1.278,5.77-.006-.057-.261A23.9,23.9,0,0,1-54.7-22.86l-.07-2.817s-.408-17.972-.513-22.8c.8,2.074,12.682,32.65,12.682,32.65l1.573,0S-28.807-46.4-27.989-48.438c-.062,2.131-.665,24.1-.665,24.1-.127,5.416-.184,6.009-.769,7.857l-.084.274,5.856.013-.1-.287c-.309-.824-.628-1.685-.618-6.254" transform="translate(59.804 55.794)"/>
      </g>
      <g id="Group_7838" data-name="Group 7838" transform="translate(123.751 11.999)">
        <path id="Path_7644" data-name="Path 7644" class="cls-3" d="M-3.71-19.335l-.126-.291c-.387-1.055-.62-1.693-.61-9.637,0,0,.025-10.778.025-10.908A7.248,7.248,0,0,1,.838-43.4a9.492,9.492,0,0,1,3.121.428l.271.079.023-3.835-.105-.062a6.271,6.271,0,0,0-2.788-.661c-2.813-.007-4.835,2.029-5.813,3.285-.046-.8-.209-3.229-.209-3.229L-9.1-45.379l.063.18c.458,1.385.686,2.083.671,11.018l-.008,4.966c-.017,7.947-.254,8.583-.646,9.641l-.085.264Z" transform="translate(9.105 47.45)"/>
      </g>
      <g id="Group_7839" data-name="Group 7839" transform="translate(140.541 12.089)">
        <path id="Path_7645" data-name="Path 7645" class="cls-3" d="M-3.237-12.43-3.2-30.5l-.286.125L-7.944-28.5l.2.705.31,1.264c.163,1.143.169,2.2.207,8.065l0,1.112-.009,4.929c-.01,7.853-.235,8.548-.574,9.608l-.1.335,5.321,0-.1-.3c-.337-1.021-.561-1.7-.549-9.643" transform="translate(7.944 30.505)"/>
      </g>
      <g id="Group_7840" data-name="Group 7840" transform="translate(167.498 12.514)">
        <path id="Path_7646" data-name="Path 7646" class="cls-3" d="M-14.813-16.624a40.865,40.865,0,0,1-6.7.4l-6.389-.131-1.175.055-.633.03c.5-.691,17.45-24.523,17.45-24.523h-.4l-20.492.007c-.769,0-.912.408-1.144,1.266,0,0-.608,2.714-.608,2.714l.35-.118c2.133-.687,4.322-.684,12.47-.669,1.859,0,2.412.008,3.55-.076L-36.352-13.2l19.511.039c2.093,0,2.769-.039,3.126-.889l1.5-3.472-.482.209a7.259,7.259,0,0,1-2.116.687" transform="translate(36.352 40.797)"/>
      </g>
      <g id="Group_7841" data-name="Group 7841" transform="translate(149.672 4.292)">
        <path id="Path_7647" data-name="Path 7647" class="cls-3" d="M-.01-5.639-.025-2.046s4.644.006,5.033.009c0,.406-.033,17.209-.033,17.209-.008,2.4-.02,7.418,5.935,7.431a9.665,9.665,0,0,0,4.434-1l.108-.053.018-3.562-.337.24a5.539,5.539,0,0,1-3.462,1.2c-2.282-.01-2.714-1.647-2.7-4.668,0,0,.025-16.388.027-16.8l5.923,0,.008-3.592-5.907,0v-8.207l-.3.153-3.69,1.867s-.012,5.8-.012,6.191Z" transform="translate(0.025 13.839)"/>
      </g>
      <g id="Group_7842" data-name="Group 7842" transform="translate(97.278 12.102)">
        <path id="Path_7648" data-name="Path 7648" class="cls-3" d="M-11.481-10.333c-.006,2.6-.5,10.2-7.641,10.245-3.159.027-4.866-1.6-4.859-4.559.01-5.637,6.734-6.281,11.792-6.271h.714Zm4.056,3.172.017-7.925c.012-7-3.091-10.257-9.772-10.272a15.048,15.048,0,0,0-7.38,2.294l-.094.066,0,4.324.281-.207c1.729-1.414,3.889-3,6.4-3,4.235.007,6.513,1.807,6.5,6.521v1.169c-.178,0-.405,0-.405,0-5.693-.011-16.283-.027-16.3,9.642,0,1.308.412,7.825,8.795,7.841a9.55,9.55,0,0,0,8.2-4.553,16.206,16.206,0,0,0,.418,3.774l.032.145h4.287l-.168-.286c-.394-1.1-.824-1.766-.809-9.531" transform="translate(28.175 25.358)"/>
      </g>
      <g id="Group_7843" data-name="Group 7843" transform="translate(140.731 0)">
        <path id="Path_7649" data-name="Path 7649" class="cls-3" d="M-1.766,0A2.513,2.513,0,0,0-4.335,2.507,2.567,2.567,0,0,0-1.779,5.026,2.585,2.585,0,0,0,.857,2.515,2.549,2.549,0,0,0-1.766,0" transform="translate(4.335 0)"/>
      </g>
      <g id="Group_7844" data-name="Group 7844" transform="translate(24.642 2.387)">
        <path id="Path_7650" data-name="Path 7650" class="cls-3" d="M-.97-15.538,10.7-11.664a19.744,19.744,0,0,0,1.978-8.6A19.831,19.831,0,0,0,1.427-38.13l-3.751,19.6A2.6,2.6,0,0,0-.97-15.538" transform="translate(2.38 38.13)"/>
      </g>
      <g id="Group_7845" data-name="Group 7845" transform="translate(27.499 1.938)">
        <path id="Path_7651" data-name="Path 7651" class="cls-3" d="M0,0,.188.082,0,0"/>
      </g>
      <g id="Group_7846" data-name="Group 7846" transform="translate(0.885 14.35)">
        <path id="Path_7652" data-name="Path 7652" class="cls-3" d="M0-.024C0-.036.006-.048.009-.06.006-.048,0-.036,0-.024" transform="translate(0 0.06)"/>
      </g>
      <g id="Group_7847" data-name="Group 7847" transform="translate(0 15.891)">
        <path id="Path_7653" data-name="Path 7653" class="cls-3" d="M-11.2-2.649-26.995-6.5a19.843,19.843,0,0,0-.5,4.364A19.841,19.841,0,0,0-8.7,17.668L-8.706.455a3.393,3.393,0,0,0-2.5-3.1" transform="translate(27.492 6.5)"/>
      </g>
      <g id="Group_7848" data-name="Group 7848" transform="translate(0.943 0.406)">
        <path id="Path_7654" data-name="Path 7654" class="cls-3" d="M-14.811-9.065l4.616-11.8a19.768,19.768,0,0,0-7.248-1.384,19.857,19.857,0,0,0-18.9,13.809L-18.5-6.695a3.852,3.852,0,0,0,3.693-2.37" transform="translate(36.347 22.245)"/>
      </g>
      <g id="Group_7849" data-name="Group 7849" transform="translate(37.229 29.534)">
        <path id="Path_7655" data-name="Path 7655" class="cls-3" d="M0-.213c.056-.1.11-.206.164-.309C.11-.419.057-.315,0-.213" transform="translate(0 0.522)"/>
      </g>
      <g id="Group_7850" data-name="Group 7850" transform="translate(20.492 27.672)">
        <path id="Path_7656" data-name="Path 7656" class="cls-3" d="M-3.994-1.588A2.156,2.156,0,0,1-4.34,1.437,2.162,2.162,0,0,1-7.335.865a2.153,2.153,0,0,1,.354-3.024,2.149,2.149,0,0,1,2.987.571m-5.021.308L-9.8,8.511A19.818,19.818,0,0,0,6.724-1.376L-5.839-3.844A2.669,2.669,0,0,0-9.015-1.281" transform="translate(9.801 3.897)"/>
      </g>
      <g id="Group_7851" data-name="Group 7851" transform="translate(0.894 14.214)">
        <path id="Path_7657" data-name="Path 7657" class="cls-3" d="M-.025,0C-.04.044-.048.091-.062.136-.048.09-.027.047-.013,0Z" transform="translate(0.062)"/>
      </g>
      <g id="Group_7852" data-name="Group 7852" transform="translate(37.017 29.843)">
        <path id="Path_7658" data-name="Path 7658" class="cls-3" d="M-.016-.244C.051-.359.107-.481.172-.6c-.066.12-.144.232-.212.35Z" transform="translate(0.04 0.598)"/>
      </g>
      <g id="Group_7853" data-name="Group 7853" transform="translate(0.479 14.385)">
        <path id="Path_7659" data-name="Path 7659" class="cls-3" d="M0-1.033l.018,0c.114-.508.235-1.014.388-1.506-.156.491-.3.994-.405,1.5" transform="translate(0 2.535)"/>
      </g>
      <g id="Group_7854" data-name="Group 7854" transform="translate(18.795 40.059)">
        <path id="Path_7660" data-name="Path 7660" class="cls-3" d="M0,0V.027C.353.053.7.06,1.053.06c.217,0,.429,0,.642-.012l0-.027c-.216.007-.427.033-.645.033C.7.053.351.018,0,0"/>
      </g>
      <g id="Group_7855" data-name="Group 7855" transform="translate(27.094 1.767)">
        <path id="Path_7661" data-name="Path 7661" class="cls-3" d="M-.007,0-.016.024c.133.052.273.093.4.148C.256.116.128.052-.007,0" transform="translate(0.016)"/>
      </g>
      <g id="Group_7856" data-name="Group 7856" transform="translate(27.687 2.02)">
        <path id="Path_7662" data-name="Path 7662" class="cls-3" d="M-.528-.23C-.779-.347-1.039-.453-1.3-.564c.26.112.508.245.761.367Z" transform="translate(1.296 0.564)"/>
      </g>
      <g id="Group_7857" data-name="Group 7857" transform="translate(37.393 28.854)">
        <path id="Path_7663" data-name="Path 7663" class="cls-3" d="M-.245-.007-.274-.016c-.11.227-.21.459-.328.68.119-.223.248-.441.357-.671" transform="translate(0.602 0.016)"/>
      </g>
      <g id="Group_7858" data-name="Group 7858" transform="translate(192.992 10.936)">
        <path id="Path_7664" data-name="Path 7664" class="cls-3" d="M-1.944-2.211h.8c.518,0,.849-.1.849-.637,0-.469-.421-.609-.849-.609h-.8Zm-.668-1.768h1.579c.939,0,1.4.377,1.4,1.157A1.042,1.042,0,0,1-.685-1.688L.476.127H-.233L-1.376-1.688h-.568V.127h-.668ZM-1.259,1.06A2.859,2.859,0,0,0,1.569-1.924,2.858,2.858,0,0,0-1.259-4.9,2.854,2.854,0,0,0-4.1-1.924,2.855,2.855,0,0,0-1.259,1.06m-.007-6.487a3.511,3.511,0,0,1,3.5,3.5,3.509,3.509,0,0,1-3.5,3.509,3.5,3.5,0,0,1-3.5-3.509,3.506,3.506,0,0,1,3.5-3.5" transform="translate(4.77 5.427)"/>
      </g>
    </g>
  </g>
</svg>
