<svg xmlns="http://www.w3.org/2000/svg" viewBox="6212 -5430.367 367.762 568">
  <defs>
    <style>
      .cls-1 {
        fill: rgba(255,255,255,0);
        stroke: #fff;
      }

      .cls-2, .cls-3, .cls-4, .cls-5 {
        fill: #fff;
      }

      .cls-2 {
        font-size: 36px;
        font-family: Sentinel-Medium, Sentinel;
        font-weight: 500;
      }

      .cls-3 {
        font-size: 22px;
      }

      .cls-3, .cls-5 {
        font-family: ProximaNova-Light, Proxima Nova;
        font-weight: 300;
      }

      .cls-5 {
        font-size: 20px;
      }

      .cls-6 {
        stroke: none;
      }

      .cls-7 {
        fill: none;
      }
    </style>
  </defs>
  <g id="Group_8154" data-name="Group 8154" transform="translate(6205 -6024.367)">
    <g id="Rectangle_56" data-name="Rectangle 56" class="cls-1" transform="translate(47 594)">
      <rect class="cls-6" width="282" height="568"/>
      <rect class="cls-7" x="0.5" y="0.5" width="281" height="567"/>
    </g>
    <text id="_3_100_Maritz_Employees" data-name="3,100 Maritz Employees" class="cls-2" transform="translate(47 691)"><tspan x="40.975" y="35">3,100 Maritz </tspan><tspan x="54.025" y="75">Employees</tspan></text>
    <g id="Group_7704" data-name="Group 7704" transform="translate(0 49)">
      <text id="_645_Employees_" data-name="645 Employees
" class="cls-2" transform="translate(7 837)"><tspan x="63.731" y="35">645 Employees</tspan></text>
      <text id="giving_their_all" data-name="giving their all" class="cls-3" transform="translate(85 885)"><tspan x="37.341" y="17">giving their all</tspan></text>
    </g>
    <g id="Group_7705" data-name="Group 7705" transform="translate(0 178)">
      <text id="_2_203_Hours_" data-name="2,203 Hours
" class="cls-2" transform="translate(7 837)"><tspan x="86.519" y="35">2,203 Hours</tspan></text>
      <text id="of_uplifting_hard_work" data-name="of uplifting hard work" class="cls-3" transform="translate(85 885)"><tspan x="3.164" y="17">of uplifting hard work</tspan></text>
    </g>
    <g id="Group_3083" data-name="Group 3083" transform="translate(79.117 624.222)">
      <path id="Path_2313" data-name="Path 2313" class="cls-4" d="M235.142,24.349a1.1,1.1,0,0,1,.732-.382h4.741a1.036,1.036,0,0,1,.668.382l.827.955.827.955,1.273,1.464,1.241-1.432.827-.986.827-.955a1.1,1.1,0,0,1,.732-.382h4.741a1.036,1.036,0,0,1,.668.382l.827.955.827.986,1.464,1.686,1.464-1.686.827-.955.827-.955a1.1,1.1,0,0,1,.732-.382h4.741a1.036,1.036,0,0,1,.668.382l.827.955.827.955,1.273,1.464,1.241-1.432.827-.986.827-.955a1.1,1.1,0,0,1,.732-.382h4.741a1.036,1.036,0,0,1,.668.382l.827.955.827.986,1.018,1.177,1.05-1.209.827-.955.827-.955a1.1,1.1,0,0,1,.732-.382h4.741a1.036,1.036,0,0,1,.668.382l.827.955.827.955,1.273,1.464,1.241-1.432.827-.986.827-.955a1.1,1.1,0,0,1,.732-.382H300.4a1.036,1.036,0,0,1,.668.382l.827.955.1.1c.191-1.05.35-2.1.445-3.15a22.586,22.586,0,0,0-.255-6.491,19.184,19.184,0,0,0-2.514-6.4,18.925,18.925,0,0,0-4.518-5.027A19.449,19.449,0,0,0,283.09.2c-.318,0-.668,0-.986.032a19.5,19.5,0,0,0-12.568,5.441,18.064,18.064,0,0,0-1.5,1.623h0a18.059,18.059,0,0,0-1.5-1.623,18.657,18.657,0,0,0-5.7-3.818A19.737,19.737,0,0,0,253.978.232C253.659.2,253.309.2,252.991.2a19.377,19.377,0,0,0-6.045.955,18.929,18.929,0,0,0-6.013,3.213A20.017,20.017,0,0,0,236.415,9.4a19.453,19.453,0,0,0-2.514,6.4,22.532,22.532,0,0,0-.255,6.491c.1,1.05.255,2.1.445,3.15l.1-.1ZM298.171,19a2.2,2.2,0,1,1-2.2,2.2A2.2,2.2,0,0,1,298.171,19Zm-11.995,0a2.2,2.2,0,1,1-2.2,2.2A2.2,2.2,0,0,1,286.176,19Zm-11.549,0a2.2,2.2,0,1,1-2.2,2.2A2.2,2.2,0,0,1,274.627,19Zm-11.995,0a2.2,2.2,0,1,1-2.2,2.2A2.2,2.2,0,0,1,262.632,19Zm-12.409,0a2.2,2.2,0,1,1-2.2,2.2A2.2,2.2,0,0,1,250.223,19Zm-11.995,0a2.2,2.2,0,1,1-2.2,2.2A2.2,2.2,0,0,1,238.228,19Z" transform="translate(-159.198)"/>
      <path id="Path_2314" data-name="Path 2314" class="cls-4" d="M310.8,95.449V92.681h-2.323s2.132-9.418,2.1-9.481l-.764.891-.827.986-.827.954a1.045,1.045,0,0,1-1.05.35,1.02,1.02,0,0,1-.954-.35l-.827-.954-.827-.954-.732-.859c0,.064-.032.127-.032.191v5h0v6.936a1.053,1.053,0,0,1-1.018,1.05.981.981,0,0,1-.954-1.05V89.5h-1.145v5.886a1.053,1.053,0,0,1-1.018,1.05.981.981,0,0,1-.955-1.05V88.959h0v-5.5a.472.472,0,0,0-.032-.223l-.764.891-.827.955-.827.954-.191.191h0a.932.932,0,0,1-1.336-.159l-.827-.955-.827-.986-.732-.859c0,.064,2.132,9.45,2.132,9.45h-2.323v2.768A1.019,1.019,0,0,1,291.1,96.5a.924.924,0,0,1-.891-1.018v-2.8h-.955v2.768a1.019,1.019,0,0,1-.986,1.018.924.924,0,0,1-.891-1.018V92.681h-2.45s2.132-9.418,2.1-9.481l-.764.891-.827.986-.827.954a1.045,1.045,0,0,1-1.05.35,1.02,1.02,0,0,1-.954-.35l-.827-.954-.827-.954-.732-.859c0,.064-.032.127-.032.191v5h0v6.936a1.053,1.053,0,0,1-1.018,1.05.981.981,0,0,1-.954-1.05V89.5h-1.145v5.886a1.053,1.053,0,0,1-1.018,1.05.981.981,0,0,1-.954-1.05V88.959h0v-5.5a.472.472,0,0,0-.032-.223l-.764.891-.827.955-.827.954a2.766,2.766,0,0,1-2.386.032l-.827-.955-.827-.986-.732-.859c0,.064,2.132,9.45,2.132,9.45h-2.323v2.768A1.019,1.019,0,0,1,266.7,96.5a.924.924,0,0,1-.891-1.018v-2.8h-.954v2.768a1.019,1.019,0,0,1-.986,1.018.924.924,0,0,1-.891-1.018V92.681h-2.323s2.132-9.418,2.1-9.481l-.764.891-.827.986-.827.954a1.045,1.045,0,0,1-1.05.35,1.021,1.021,0,0,1-.955-.35l-.827-.954-.827-.954-.732-.859c0,.064-.032.127-.032.191v5h0v6.936a1.118,1.118,0,0,1-.414.859c.509.732,1.05,1.5,1.623,2.227,1.018,1.3,2.1,2.609,3.277,3.85,1.082,1.145,2.227,2.323,3.436,3.436,1.082,1.018,2.259,2.036,3.5,3.023,1.082.891,2.227,1.782,3.4,2.609,1.05.764,2.132,1.5,3.182,2.164.986.636,1.909,1.209,2.832,1.718.859.477,1.654.923,2.418,1.273a16.63,16.63,0,0,0,1.973.859,5.656,5.656,0,0,0,2.132.445h.191a5.656,5.656,0,0,0,2.132-.445,16.634,16.634,0,0,0,1.973-.859c.764-.382,1.559-.8,2.418-1.273.923-.541,1.877-1.082,2.832-1.718,1.05-.7,2.132-1.4,3.182-2.164,1.177-.827,2.291-1.718,3.4-2.609,1.209-.986,2.386-2,3.5-3.023,1.209-1.145,2.386-2.291,3.436-3.436,1.177-1.273,2.259-2.545,3.277-3.85.573-.764,1.145-1.527,1.654-2.291A.747.747,0,0,1,310.8,95.449Z" transform="translate(-174.179 -56.592)"/>
      <g id="Group_3081" data-name="Group 3081" transform="translate(0.044 18.972)">
        <path id="Path_2315" data-name="Path 2315" class="cls-4" d="M240.4,96.1v1.686h0v6.427a.981.981,0,0,0,.954,1.05,1.032,1.032,0,0,0,1.018-1.05v-3.627c-.382-.764-.764-1.527-1.114-2.291Q240.782,97.2,240.4,96.1Z" transform="translate(-163.927 -84.36)"/>
        <path id="Path_2316" data-name="Path 2316" class="cls-4" d="M229.271,80.259,227.584,82.2a1,1,0,0,0,.1,1.4.932.932,0,0,0,1.336-.159l.827-.954.7-.8c-.191-.764-.382-1.527-.509-2.291Z" transform="translate(-155.024 -72.973)"/>
        <path id="Path_2317" data-name="Path 2317" class="cls-4" d="M250.1,116.5v1.623a.981.981,0,0,0,.954,1.05,1,1,0,0,0,.6-.223c-.477-.7-.923-1.368-1.336-2.068A2.373,2.373,0,0,0,250.1,116.5Z" transform="translate(-170.54 -98.269)"/>
        <circle id="Ellipse_26" data-name="Ellipse 26" class="cls-4" cx="2.195" cy="2.195" r="2.195" transform="translate(4.472)"/>
        <circle id="Ellipse_27" data-name="Ellipse 27" class="cls-4" cx="2.195" cy="2.195" r="2.195" transform="translate(16.467 0.032)"/>
        <path id="Path_2318" data-name="Path 2318" class="cls-4" d="M13,96.1v1.686h0v6.427a.981.981,0,0,0,.955,1.05,1.032,1.032,0,0,0,1.018-1.05v-3.627c-.382-.764-.764-1.527-1.114-2.291Z" transform="translate(-8.878 -84.36)"/>
        <path id="Path_2319" data-name="Path 2319" class="cls-4" d="M1.971,80.259.284,82.2a1,1,0,0,0,.1,1.4.932.932,0,0,0,1.336-.159l.827-.954.7-.8c-.191-.764-.382-1.527-.509-2.291Z" transform="translate(-0.044 -72.973)"/>
        <path id="Path_2320" data-name="Path 2320" class="cls-4" d="M22.8,116.5v1.623a.981.981,0,0,0,.955,1.05,1,1,0,0,0,.6-.223c-.477-.7-.923-1.368-1.336-2.068C22.959,116.755,22.864,116.627,22.8,116.5Z" transform="translate(-15.56 -98.269)"/>
        <path id="Path_2321" data-name="Path 2321" class="cls-4" d="M14.954,89.69V82.754h0V77.727a.4.4,0,0,1,.032-.191l.732.859.827.954.827.955a.975.975,0,0,0,.955.35,1,1,0,0,0,1.05-.35l.827-.955.827-.986.764-.891c.064.1-2.068,9.481-2.068,9.481h2.323v2.768a.942.942,0,0,0,.891,1.018,1,1,0,0,0,.986-1.018V86.954h.955v2.768a.942.942,0,0,0,.891,1.018,1,1,0,0,0,.986-1.018V86.954h2.323s-2.132-9.386-2.132-9.45l.732.859.827.986.827.955a.919.919,0,0,0,1.209.255c-.064-.032-.1-.064-.159-.1a1,1,0,0,1-.1-1.4l.223-.255-1.464-1.686-.827-.986-.827-.954a1.117,1.117,0,0,0-.668-.382H22.049a1.265,1.265,0,0,0-.732.382l-.827.954-.827.986-1.241,1.432L17.15,77.091l-.827-.954-.827-.954a1.117,1.117,0,0,0-.668-.382H10.054a1.265,1.265,0,0,0-.732.382l-.827.954-.1.1c.159.764.318,1.527.509,2.291l.159-.191.764-.891a.881.881,0,0,1,.032.286v3.85c.255.732.573,1.464.891,2.2.35.764.7,1.527,1.114,2.291V83.772h1.145v4.3c.064.127.159.255.223.382.414.7.859,1.368,1.336,2.068A1.13,1.13,0,0,0,14.954,89.69Z" transform="translate(-5.741 -69.837)"/>
        <circle id="Ellipse_28" data-name="Ellipse 28" class="cls-4" cx="2.195" cy="2.195" r="2.195" transform="translate(28.876)"/>
        <circle id="Ellipse_29" data-name="Ellipse 29" class="cls-4" cx="2.195" cy="2.195" r="2.195" transform="translate(40.871 0.032)"/>
        <path id="Path_2322" data-name="Path 2322" class="cls-4" d="M100.281,76.236l-.827-.954a1.117,1.117,0,0,0-.668-.382H94.045a1.265,1.265,0,0,0-.732.382l-.827.954-.827.986-1.241,1.432-1.273-1.464-.827-.954-.827-.954a1.117,1.117,0,0,0-.668-.382H82.05a1.265,1.265,0,0,0-.732.382l-.827.954-.827.954L78.2,78.877l.223.255a1,1,0,0,1-.1,1.4c-.032.032-.1.064-.127.1a.924.924,0,0,0,1.177-.286l.827-.954.827-.954.764-.891a.472.472,0,0,1,.032.223V83.3h0v6.427a.981.981,0,0,0,.955,1.05,1.032,1.032,0,0,0,1.018-1.05V83.84h1.145v5.918a.981.981,0,0,0,.954,1.05,1.032,1.032,0,0,0,1.018-1.05V82.822h0V77.8a.4.4,0,0,1,.032-.191l.732.859.827.954.827.954a.975.975,0,0,0,.954.35,1,1,0,0,0,1.05-.35l.827-.954.827-.986.764-.891c.032.064-2.1,9.481-2.1,9.481h2.323V89.79a.942.942,0,0,0,.891,1.018,1,1,0,0,0,.986-1.018V87.022h.955V89.79a.942.942,0,0,0,.891,1.018,1,1,0,0,0,.986-1.018V87.022h2.323s-2.132-9.386-2.132-9.45l.732.859.827.986.827.954a.906.906,0,0,0,1.336.159h0a.91.91,0,0,1-1.145,0,1,1,0,0,1-.1-1.4L102,78.4l-1.018-1.177Z" transform="translate(-53.333 -69.905)"/>
        <path id="Path_2323" data-name="Path 2323" class="cls-4" d="M77.43,87.755l-.223-.255-.223.255a1,1,0,0,0,.1,1.4c.064.032.1.064.159.1.032-.032.1-.064.127-.1A1.029,1.029,0,0,0,77.43,87.755Z" transform="translate(-52.34 -78.496)"/>
        <circle id="Ellipse_30" data-name="Ellipse 30" class="cls-4" cx="2.195" cy="2.195" r="2.195" transform="translate(52.42)"/>
        <circle id="Ellipse_31" data-name="Ellipse 31" class="cls-4" cx="2.195" cy="2.195" r="2.195" transform="translate(64.415 0.032)"/>
        <path id="Path_2324" data-name="Path 2324" class="cls-4" d="M223.227,82.3l-1.686-1.941-.732-.859c-.159.764-.318,1.527-.509,2.291l.7.8.827.954a.906.906,0,0,0,1.336.159A.97.97,0,0,0,223.227,82.3Z" transform="translate(-150.222 -73.041)"/>
        <path id="Path_2325" data-name="Path 2325" class="cls-4" d="M209.5,97.863h.414v2.768a.942.942,0,0,0,.891,1.018,1,1,0,0,0,.986-1.018V97.863h2.323s-.986-4.263-1.591-7.063a38.56,38.56,0,0,1-1.464,3.882A24.435,24.435,0,0,1,209.5,97.863Z" transform="translate(-142.858 -80.746)"/>
        <path id="Path_2326" data-name="Path 2326" class="cls-4" d="M202.8,118.409a.8.8,0,0,0,.636.286,1,1,0,0,0,.986-1.018V115.8c-.127.191-.223.414-.35.6C203.659,117.073,203.245,117.741,202.8,118.409Z" transform="translate(-138.29 -97.792)"/>
        <path id="Path_2327" data-name="Path 2327" class="cls-4" d="M175.167,76.236l-.827-.954a1.117,1.117,0,0,0-.668-.382h-4.741a1.265,1.265,0,0,0-.732.382l-.827.954-.827.986L165.3,78.654l-1.273-1.464-.827-.954-.827-.954a1.117,1.117,0,0,0-.668-.382h-4.772a1.265,1.265,0,0,0-.732.382l-.827.954-.827.954L153.5,78.4l.668.764a1.029,1.029,0,0,1-.064,1.4,1.08,1.08,0,0,0,.191-.191l.827-.954.827-.954.764-.891a.472.472,0,0,1,.032.223v5.536h0v6.427a.981.981,0,0,0,.954,1.05,1.032,1.032,0,0,0,1.018-1.05V83.84h1.145v5.918a.981.981,0,0,0,.954,1.05,1.032,1.032,0,0,0,1.018-1.05V82.822h0V77.8a.4.4,0,0,1,.032-.191l.732.859.827.954.827.954a.975.975,0,0,0,.954.35,1,1,0,0,0,1.05-.35l.827-.954.827-.986.764-.891c.032.064-2.1,9.481-2.1,9.481H168.9V89.79a1.134,1.134,0,0,0,.255.732c.445-.668.891-1.336,1.273-1.973.127-.191.223-.414.35-.6v-.923h.509c.573-1.05,1.114-2.132,1.591-3.213a35.866,35.866,0,0,0,1.464-3.882c-.286-1.336-.509-2.354-.509-2.354l.732.859.159.191c.191-.764.382-1.527.509-2.291Z" transform="translate(-104.675 -69.905)"/>
        <path id="Path_2328" data-name="Path 2328" class="cls-4" d="M150.98,87.964a.91.91,0,0,0,1.145,0,.97.97,0,0,0,.064-1.4l-.668-.764-.636.732A1.037,1.037,0,0,0,150.98,87.964Z" transform="translate(-102.728 -77.337)"/>
      </g>
      <g id="Group_3082" data-name="Group 3082" transform="translate(136.873 18.972)">
        <path id="Path_2329" data-name="Path 2329" class="cls-4" d="M450.627,82.3l-1.686-1.941-.732-.859c-.159.764-.318,1.527-.509,2.291l.7.8.827.954a.906.906,0,0,0,1.336.159A1.029,1.029,0,0,0,450.627,82.3Z" transform="translate(-442.1 -73.041)"/>
        <path id="Path_2330" data-name="Path 2330" class="cls-4" d="M436.8,97.863h.414v2.768a.942.942,0,0,0,.891,1.018,1,1,0,0,0,.986-1.018V97.863h2.323s-.986-4.263-1.591-7.063a38.56,38.56,0,0,1-1.464,3.882A24.435,24.435,0,0,1,436.8,97.863Z" transform="translate(-434.668 -80.746)"/>
        <path id="Path_2331" data-name="Path 2331" class="cls-4" d="M430.1,118.409a.8.8,0,0,0,.636.286,1,1,0,0,0,.986-1.018V115.8c-.127.191-.223.414-.35.6C430.991,117.073,430.545,117.741,430.1,118.409Z" transform="translate(-430.1 -97.792)"/>
        <path id="Path_2332" data-name="Path 2332" class="cls-4" d="M671.1,83.4c0,.032.223,1.018.509,2.354.127-.414.254-.827.35-1.241,0-.032,0-.032.032-.064l-.159-.191Z" transform="translate(-594.422 -75.7)"/>
        <circle id="Ellipse_32" data-name="Ellipse 32" class="cls-4" cx="2.195" cy="2.195" r="2.195" transform="translate(11.995)"/>
        <circle id="Ellipse_33" data-name="Ellipse 33" class="cls-4" cx="2.195" cy="2.195" r="2.195" transform="translate(23.99 0.032)"/>
        <path id="Path_2333" data-name="Path 2333" class="cls-4" d="M466.7,96.1v1.686h0v6.427a.981.981,0,0,0,.955,1.05,1.032,1.032,0,0,0,1.018-1.05v-3.627c-.382-.764-.764-1.527-1.114-2.291Q467.082,97.2,466.7,96.1Z" transform="translate(-455.055 -84.36)"/>
        <path id="Path_2334" data-name="Path 2334" class="cls-4" d="M455.571,80.259,453.884,82.2a1,1,0,0,0,.1,1.4.932.932,0,0,0,1.336-.159l.827-.954.7-.8c-.191-.764-.382-1.527-.509-2.291Z" transform="translate(-446.153 -72.973)"/>
        <path id="Path_2335" data-name="Path 2335" class="cls-4" d="M476.5,116.5v1.623a.981.981,0,0,0,.954,1.05,1,1,0,0,0,.6-.223c-.477-.7-.923-1.368-1.336-2.068A2.374,2.374,0,0,1,476.5,116.5Z" transform="translate(-461.737 -98.269)"/>
        <path id="Path_2336" data-name="Path 2336" class="cls-4" d="M468.654,89.69V82.754h0V77.727a.4.4,0,0,1,.032-.191l.732.859.827.954.827.955a.975.975,0,0,0,.955.35,1,1,0,0,0,1.05-.35l.827-.955.827-.986.764-.891c.032.064-2.1,9.481-2.1,9.481h2.323v2.768a.942.942,0,0,0,.891,1.018,1,1,0,0,0,.986-1.018V86.954h.954v2.768a.942.942,0,0,0,.891,1.018,1,1,0,0,0,.986-1.018V86.954h2.323s-2.132-9.386-2.132-9.45l.732.859.827.986L483,80.3a.919.919,0,0,0,1.209.255c-.064-.032-.1-.064-.159-.1a1,1,0,0,1-.1-1.4l.223-.255-1.464-1.686-.827-.986-.827-.954a1.117,1.117,0,0,0-.668-.382h-4.741a1.265,1.265,0,0,0-.732.382l-.827.954-.827.986-1.241,1.432-1.273-1.464-.827-.954-.827-.954a1.117,1.117,0,0,0-.668-.382h-4.677a1.265,1.265,0,0,0-.732.382l-.827.954-.1.1c.159.764.318,1.527.509,2.291l.159-.191.764-.891a.472.472,0,0,1,.032.223v3.85c.255.732.573,1.464.891,2.2.35.764.7,1.527,1.114,2.291V83.772h1.145v4.3c.064.127.159.255.223.382.414.7.859,1.368,1.336,2.068A1.262,1.262,0,0,0,468.654,89.69Z" transform="translate(-451.919 -69.837)"/>
        <circle id="Ellipse_34" data-name="Ellipse 34" class="cls-4" cx="2.195" cy="2.195" r="2.195" transform="translate(36.366)"/>
        <circle id="Ellipse_35" data-name="Ellipse 35" class="cls-4" cx="2.195" cy="2.195" r="2.195" transform="translate(48.361 0.032)"/>
        <path id="Path_2337" data-name="Path 2337" class="cls-4" d="M553.981,76.236l-.827-.954a1.117,1.117,0,0,0-.668-.382h-4.773a1.265,1.265,0,0,0-.732.382l-.827.954-.827.986-1.241,1.432-1.273-1.464-.827-.954-.827-.954a1.117,1.117,0,0,0-.668-.382H535.75a1.265,1.265,0,0,0-.732.382l-.827.954-.827.954L531.9,78.877l.223.255a1,1,0,0,1-.1,1.4c-.032.032-.1.064-.127.1a.924.924,0,0,0,1.177-.286l.827-.954.827-.954.764-.891a.472.472,0,0,1,.032.223V83.3h0v6.427a.981.981,0,0,0,.954,1.05,1.032,1.032,0,0,0,1.018-1.05V83.84h1.145v5.918a.981.981,0,0,0,.954,1.05,1.032,1.032,0,0,0,1.018-1.05V82.822h0V77.8a.4.4,0,0,1,.032-.191l.732.859.827.954.827.954a.975.975,0,0,0,.954.35,1,1,0,0,0,1.05-.35l.827-.954.827-.986.764-.891c.032.064-2.1,9.481-2.1,9.481h2.323V89.79a.942.942,0,0,0,.891,1.018,1,1,0,0,0,.986-1.018V87.022h.955V89.79a.942.942,0,0,0,.891,1.018,1,1,0,0,0,.986-1.018V87.022h2.323s-2.132-9.386-2.132-9.45l.732.859.827.986.827.954a.906.906,0,0,0,1.336.159h0a.91.91,0,0,1-1.145,0,1,1,0,0,1-.1-1.4l.636-.732-1.018-1.177Z" transform="translate(-499.511 -69.905)"/>
        <path id="Path_2338" data-name="Path 2338" class="cls-4" d="M531.03,87.755l-.223-.255-.223.255a1,1,0,0,0,.1,1.4c.064.032.1.064.159.1.032-.032.1-.064.127-.1A.97.97,0,0,0,531.03,87.755Z" transform="translate(-498.45 -78.496)"/>
        <circle id="Ellipse_36" data-name="Ellipse 36" class="cls-4" cx="2.195" cy="2.195" r="2.195" transform="translate(59.911)"/>
        <circle id="Ellipse_37" data-name="Ellipse 37" class="cls-4" cx="2.195" cy="2.195" r="2.195" transform="translate(71.906 0.032)"/>
        <path id="Path_2339" data-name="Path 2339" class="cls-4" d="M676.927,82.3l-1.686-1.941-.732-.859c-.159.764-.318,1.527-.509,2.291l.7.8.827.954a.906.906,0,0,0,1.336.159A1.029,1.029,0,0,0,676.927,82.3Z" transform="translate(-596.399 -73.041)"/>
        <path id="Path_2340" data-name="Path 2340" class="cls-4" d="M663.2,97.863h.414v2.768a.942.942,0,0,0,.891,1.018,1,1,0,0,0,.986-1.018V97.863h2.323s-.986-4.263-1.591-7.063a38.538,38.538,0,0,1-1.464,3.882C664.314,95.732,663.773,96.813,663.2,97.863Z" transform="translate(-589.035 -80.746)"/>
        <path id="Path_2341" data-name="Path 2341" class="cls-4" d="M656.5,118.409a.8.8,0,0,0,.636.286,1,1,0,0,0,.986-1.018V115.8c-.127.191-.223.414-.35.6C657.359,117.073,656.945,117.741,656.5,118.409Z" transform="translate(-584.467 -97.792)"/>
        <path id="Path_2342" data-name="Path 2342" class="cls-4" d="M628.867,76.236l-.827-.954a1.117,1.117,0,0,0-.668-.382H622.6a1.265,1.265,0,0,0-.732.382l-.827.954-.827.986-1.241,1.432L617.7,77.191l-.827-.954-.827-.954a1.117,1.117,0,0,0-.668-.382h-4.741a1.265,1.265,0,0,0-.732.382l-.827.954-.827.954L607.2,78.4l.668.764a1.029,1.029,0,0,1-.064,1.4,1.082,1.082,0,0,0,.191-.191l.827-.954.827-.954.764-.891a.472.472,0,0,1,.032.223v5.536h0v6.427a.981.981,0,0,0,.955,1.05,1.032,1.032,0,0,0,1.018-1.05V83.84h1.145v5.918a.981.981,0,0,0,.955,1.05,1.032,1.032,0,0,0,1.018-1.05V82.822h0V77.8a.4.4,0,0,1,.032-.191l.732.859.827.954.827.954a.975.975,0,0,0,.954.35,1,1,0,0,0,1.05-.35l.827-.954.827-.986.764-.891c.032.064-2.1,9.481-2.1,9.481H622.6V89.79a1.135,1.135,0,0,0,.255.732c.445-.668.891-1.336,1.273-1.973.127-.191.223-.414.35-.6v-.923h.509c.573-1.05,1.114-2.132,1.591-3.213a35.882,35.882,0,0,0,1.464-3.882c-.286-1.336-.509-2.354-.509-2.354l.732.859.159.191c.191-.764.382-1.527.509-2.291Z" transform="translate(-550.853 -69.905)"/>
        <path id="Path_2343" data-name="Path 2343" class="cls-4" d="M604.68,87.964a.91.91,0,0,0,1.145,0,.97.97,0,0,0,.064-1.4l-.668-.764-.636.732A1.037,1.037,0,0,0,604.68,87.964Z" transform="translate(-548.905 -77.337)"/>
      </g>
    </g>
    <text id="empowered_to_serve_our_communities" data-name="empowered to serve our communities" class="cls-5" transform="translate(33 783.367)"><tspan x="48.2" y="16">empowered to serve our </tspan><tspan x="100.48" y="40">communities</tspan></text>
  </g>
</svg>
