<svg xmlns="http://www.w3.org/2000/svg" viewBox="1338 -2639.367 282 432.7">
  <defs>
    <style>
      .cls-1 {
        fill: rgba(255,255,255,0);
        stroke: #fff;
      }

      .cls-2, .cls-3, .cls-4 {
        fill: #fff;
      }

      .cls-3 {
        font-size: 36px;
        font-family: Sentinel-Medium, Sentinel;
        font-weight: 500;
      }

      .cls-4 {
        font-size: 22px;
        font-family: ProximaNova-Light, Proxima Nova;
        font-weight: 300;
      }
    </style>
  </defs>
  <g id="Group_8154" data-name="Group 8154" transform="translate(1289 -6024)">
    <path id="Path_3815" data-name="Path 3815" class="cls-1" d="M.5.5h281V432.2H.5Z" transform="translate(49 3384.633)"/>
    <g id="Group_8153" data-name="Group 8153">
      <g id="Group_4262" data-name="Group 4262" transform="translate(117 3411.073)">
        <g id="Group_4258" data-name="Group 4258">
          <g id="Group_4253" data-name="Group 4253">
            <path id="Path_3764" data-name="Path 3764" class="cls-2" d="M37.8,41.6A2.545,2.545,0,0,1,39,40.5a1.38,1.38,0,0,0,.4.3.667.667,0,1,0-.5-.8v.1a3.115,3.115,0,0,0-1.6,1.4,2.733,2.733,0,1,0,2.4,3.3A2.541,2.541,0,0,0,37.8,41.6Zm.3,2.8a.667.667,0,1,1,.8-.5A.638.638,0,0,1,38.1,44.4Z"/>
            <path id="Path_3765" data-name="Path 3765" class="cls-2" d="M38.4,43.3c-.3-.1-.5.1-.6.4s.1.5.4.6.5-.1.6-.4A.441.441,0,0,0,38.4,43.3Zm0,.8c-.1,0-.1-.1-.1-.2s.1-.1.2-.1.1.1.1.2A.349.349,0,0,1,38.4,44.1Z"/>
            <path id="Path_3766" data-name="Path 3766" class="cls-2" d="M40.6,41a.657.657,0,0,0-.8.5v.1a2.994,2.994,0,0,0-.8.4l.3.3.6-.3a1.38,1.38,0,0,0,.4.3.657.657,0,0,0,.8-.5A.618.618,0,0,0,40.6,41Z"/>
            <path id="Path_3767" data-name="Path 3767" class="cls-2" d="M28.8,39.7a8.406,8.406,0,0,0,3.7,2.7c.4.1.7.2.9,0h0a1.222,1.222,0,0,0,.3-.9,8.91,8.91,0,0,0-1.5-4.4c-1.3-1.7-2.9-2-3.6-1.4l-.1.1h-.1C27.8,36.4,27.6,38,28.8,39.7ZM28.7,36h0l.1-.1a1.434,1.434,0,0,1,1.3-.1A3.382,3.382,0,0,1,32,37.3a8.587,8.587,0,0,1,1.5,4.2h0c0,.2,0,.5-.1.6h0c-.1.1-.3,0-.5,0h-.1a8.2,8.2,0,0,1-3.5-2.6,5.145,5.145,0,0,1-.9-2.2A1.165,1.165,0,0,1,28.7,36Z"/>
            <path id="Path_3768" data-name="Path 3768" class="cls-2" d="M31.5,35.7h0l.2-.1a1.453,1.453,0,0,1,1.2.3,3.812,3.812,0,0,1,1.4,2,8.031,8.031,0,0,1,.4,2.7l.3.3a11,11,0,0,0-.4-3.1c-.7-2-2.1-2.7-3-2.4h-.2c-.1,0-.2.1-.3.2.1.1.2.1.3.2C31.4,35.7,31.4,35.7,31.5,35.7Z"/>
            <path id="Path_3769" data-name="Path 3769" class="cls-2" d="M34.2,43.7a2.7,2.7,0,0,1,1-1.7A4.894,4.894,0,0,0,34,40.7c0,.2,0,.3.1.4l.3.3h0a14.191,14.191,0,0,0-.5,2.2,21.589,21.589,0,0,0-.3,3.5,6.89,6.89,0,0,1-.8.3,19.1,19.1,0,0,1,.2-4.1c0-.2.1-.3.1-.5h-.4c-.1,0-.2-.1-.4-.1-.1,0-.1,0-.2-.1,0,.2-.1.3-.1.5a16.437,16.437,0,0,0-.2,4.4H31a14.358,14.358,0,0,1,.2-4.6c0-.2.1-.4.1-.7l-.9-.6a3.6,3.6,0,0,0-.2,1.1,26.157,26.157,0,0,0-.1,4.8c-.3-.1-.5-.2-.8-.3a18.127,18.127,0,0,1,.2-4.6c.1-.5.2-1,.3-1.4a6.034,6.034,0,0,1-.8-.8,12.911,12.911,0,0,0-.5,2.1,19.1,19.1,0,0,0-.2,4.1,6.47,6.47,0,0,1-.8-.9,18.287,18.287,0,0,1,.2-3.3c.1-.5.2-.9.3-1.3a4.7,4.7,0,0,1,.9-.6c-.1-.1-.1-.2-.2-.2a4.29,4.29,0,0,0-2.1,2.3H23.7l1.5.6,1.1.5A4.557,4.557,0,0,0,30.2,48a4.837,4.837,0,0,0,4.7-1.5A4.521,4.521,0,0,1,34.2,43.7Z"/>
          </g>
          <g id="Group_4254" data-name="Group 4254">
            <path id="Path_3770" data-name="Path 3770" class="cls-2" d="M94.4,63.4a1.366,1.366,0,0,0,2.5-1.1,1.38,1.38,0,0,0-1.7-.8,1.8,1.8,0,0,0-.9-.6v-.1c-.1-.2-.3-.2-.5-.1s-.2.3-.1.5.3.2.5.1c.1,0,.1-.1.2-.2a1.235,1.235,0,0,1,.8.4A1.558,1.558,0,0,0,94.4,63.4Zm.4-.6a.381.381,0,1,1,.5.2A.365.365,0,0,1,94.8,62.8Z"/>
            <path id="Path_3771" data-name="Path 3771" class="cls-2" d="M94.9,62.8c.1.1.2.2.3.1s.2-.2.1-.3-.2-.2-.3-.1A.192.192,0,0,0,94.9,62.8Zm.1,0h0l.1-.1c0,.1,0,.2-.1.1C95.1,62.9,95,62.9,95,62.8Z"/>
            <path id="Path_3772" data-name="Path 3772" class="cls-2" d="M93.6,61.6a.44.44,0,0,1,.5.1v.1c.1,0,.3.1.4.1,0,.1-.1.1-.1.2-.1,0-.2-.1-.3-.1a.215.215,0,0,1-.2.2.44.44,0,0,1-.5-.1C93.4,61.8,93.5,61.6,93.6,61.6Z"/>
            <path id="Path_3773" data-name="Path 3773" class="cls-2" d="M99.3,57.6h0c-.5-.2-1.3.1-1.8,1.1a5.133,5.133,0,0,0-.3,2.4.52.52,0,0,0,.2.4h0c.1.1.3,0,.5-.1a4.722,4.722,0,0,0,1.6-1.8C100,58.6,99.7,57.8,99.3,57.6Zm.3.7a1.721,1.721,0,0,1-.2,1.2,3.632,3.632,0,0,1-1.5,1.7h-.1c-.1,0-.2.1-.2,0h0c-.1,0-.1-.2-.1-.3h0a5.016,5.016,0,0,1,.3-2.3,2.723,2.723,0,0,1,.8-1c.2-.1.5-.2.6-.1h0A2.994,2.994,0,0,1,99.6,58.3Z"/>
            <path id="Path_3774" data-name="Path 3774" class="cls-2" d="M97.7,57.8h0a.908.908,0,0,0-.7.3,2.195,2.195,0,0,0-.5,1.2,3.211,3.211,0,0,0,.1,1.4c0,.1-.1.1-.1.2a4.329,4.329,0,0,1-.1-1.6c.1-1.1.8-1.6,1.3-1.6h.2c0,.1-.1.1-.2.1Z"/>
            <path id="Path_3775" data-name="Path 3775" class="cls-2" d="M97.2,62.2a1.779,1.779,0,0,0-.7-.8,2.177,2.177,0,0,1,.5-.8v.2c0,.1-.1.1-.1.2h0a3.7,3.7,0,0,1,.5,1.1,12.091,12.091,0,0,1,.5,1.8c.1,0,.3.1.4.1a6.637,6.637,0,0,0-.6-2,.349.349,0,0,0-.1-.2c.1,0,.1,0,.2-.1.1,0,.1-.1.2-.1a.1.1,0,0,0,.1-.1.349.349,0,0,0,.1.2,9.017,9.017,0,0,1,.6,2.2.6.6,0,0,0,.4-.1,8.648,8.648,0,0,0-.6-2.3c0-.1-.1-.2-.1-.3.1-.1.3-.2.4-.4.1.2.2.3.2.5a11.2,11.2,0,0,1,.6,2.3c.1-.1.3-.1.4-.2a11.2,11.2,0,0,0-.6-2.3c-.1-.2-.2-.5-.3-.7.1-.2.2-.3.3-.5a9.292,9.292,0,0,1,.5,1,8.929,8.929,0,0,1,.6,2,2.186,2.186,0,0,1,.3-.5,10.927,10.927,0,0,0-.5-1.7l-.3-.6a1.69,1.69,0,0,0-.5-.2l.1-.1a2.122,2.122,0,0,1,1.3,1l.6-.1.9-.2-.7.5-.5.4a2.509,2.509,0,0,1-4,2.3A3.812,3.812,0,0,0,97.2,62.2Z"/>
          </g>
          <g id="Group_4255" data-name="Group 4255">
            <path id="Path_3776" data-name="Path 3776" class="cls-2" d="M95.3,46.3a2.062,2.062,0,1,0,3.8-1.6,2.059,2.059,0,0,0-2.5-1.2,1.839,1.839,0,0,0-1.4-.8v-.1a.515.515,0,1,0-.2.7c.1-.1.2-.2.2-.3a2.384,2.384,0,0,1,1.1.6A2.245,2.245,0,0,0,95.3,46.3Zm.6-.8a.539.539,0,1,1,.7.3A.517.517,0,0,1,95.9,45.5Z"/>
            <path id="Path_3777" data-name="Path 3777" class="cls-2" d="M95.9,45.5a.381.381,0,1,0,.2-.5C95.9,45.1,95.9,45.3,95.9,45.5Zm.2,0c0-.1,0-.1.1-.1s.1,0,.1.1,0,.1-.1.1A.1.1,0,0,1,96.1,45.5Z"/>
            <path id="Path_3778" data-name="Path 3778" class="cls-2" d="M94.2,43.7a.663.663,0,0,1,.7.2V44a1.421,1.421,0,0,1,.6.2c-.1.1-.1.2-.2.2a.749.749,0,0,0-.5-.1c0,.1-.1.2-.2.3a.663.663,0,0,1-.7-.2A.517.517,0,0,1,94.2,43.7Z"/>
            <path id="Path_3779" data-name="Path 3779" class="cls-2" d="M102.3,37.9h0c-.1,0-.1,0-.1-.1-.6-.3-1.8.2-2.4,1.6a6,6,0,0,0-.4,3.4.6.6,0,0,0,.3.6h0c.2.1.4,0,.7-.1a5.935,5.935,0,0,0,2.3-2.6C103.3,39.4,102.9,38.2,102.3,37.9Zm.4,1.1a3.1,3.1,0,0,1-.3,1.8,6.1,6.1,0,0,1-2.2,2.5h0a.1.1,0,0,0-.1.1h0a.367.367,0,0,1-.3.1h0a.758.758,0,0,1-.2-.4h0a5.675,5.675,0,0,1,.4-3.3,3.325,3.325,0,0,1,1.2-1.4,1,1,0,0,1,.9-.1h0C102.5,38.2,102.7,38.6,102.7,39Z"/>
            <path id="Path_3780" data-name="Path 3780" class="cls-2" d="M100.1,38.3H100a1.222,1.222,0,0,0-.9.4,2.938,2.938,0,0,0-.7,1.7,6.56,6.56,0,0,0,.1,2c-.1.1-.1.2-.2.2a6,6,0,0,1-.2-2.3c.2-1.6,1.1-2.4,1.8-2.3h.2c.1,0,.2,0,.2.1s-.1.1-.2.2Z"/>
            <path id="Path_3781" data-name="Path 3781" class="cls-2" d="M99.3,44.6a2.168,2.168,0,0,0-1-1.1,2.589,2.589,0,0,1,.7-1.1v.3c-.1.1-.1.2-.2.3h0a10.092,10.092,0,0,1,.7,1.5,12.547,12.547,0,0,1,.7,2.6,1.268,1.268,0,0,0,.6.1,11.136,11.136,0,0,0-.8-3c0-.1-.1-.2-.1-.3a.367.367,0,0,0,.3-.1.349.349,0,0,0,.2-.1c.1,0,.1-.1.2-.1.1.1.1.2.2.4a22.268,22.268,0,0,1,.9,3.2c.2,0,.4-.1.6-.1a10.731,10.731,0,0,0-.9-3.4c-.1-.2-.1-.3-.2-.5l.6-.6c.1.2.2.5.3.7a14.269,14.269,0,0,1,.9,3.4,2.186,2.186,0,0,0,.5-.3,13.234,13.234,0,0,0-.8-3.3,4.671,4.671,0,0,0-.5-1c.2-.2.3-.5.5-.7.2.5.5.9.7,1.4a11.136,11.136,0,0,1,.8,3,5.582,5.582,0,0,0,.5-.8,21.718,21.718,0,0,0-.7-2.4c-.1-.3-.3-.6-.4-.9a6.89,6.89,0,0,0-.8-.3c0-.1.1-.1.1-.2a3.022,3.022,0,0,1,1.9,1.4l.9-.2,1.2-.3-1,.7-.7.5a3.724,3.724,0,0,1-5.9,3.4A3.03,3.03,0,0,0,99.3,44.6Z"/>
          </g>
          <g id="Group_4256" data-name="Group 4256">
            <path id="Path_3782" data-name="Path 3782" class="cls-2" d="M37.2,85.6a1.314,1.314,0,0,1,.3-1.2c.1,0,.2.1.4,0a.474.474,0,1,0-.6-.3v.1a2.129,2.129,0,0,0-.3,1.6,2.038,2.038,0,1,0,2.9.9A2.091,2.091,0,0,0,37.2,85.6Zm1.5,1.6a.539.539,0,1,1,.3-.7A.779.779,0,0,1,38.7,87.2Z"/>
            <path id="Path_3783" data-name="Path 3783" class="cls-2" d="M38.4,86.3a.381.381,0,1,0,.5.2C38.8,86.3,38.6,86.3,38.4,86.3Zm.3.5c-.1,0-.1,0-.1-.1s0-.1.1-.1.1,0,.1.1A.1.1,0,0,1,38.7,86.8Z"/>
            <path id="Path_3784" data-name="Path 3784" class="cls-2" d="M38.7,84a.446.446,0,0,0-.3.6v.1l-.3.6h.3a.52.52,0,0,1,.2-.4c.1,0,.2.1.4,0a.474.474,0,1,0-.3-.9Z"/>
            <path id="Path_3785" data-name="Path 3785" class="cls-2" d="M30.9,88.4a5.942,5.942,0,0,0,3.5,0c.3-.1.5-.2.5-.4h0c.1-.2,0-.4-.2-.6a6.738,6.738,0,0,0-2.8-2c-1.5-.5-2.6,0-2.8.7v.2C28.8,86.8,29.4,87.9,30.9,88.4Zm-1.7-2.2h0v-.1a.877.877,0,0,1,.7-.6,2.281,2.281,0,0,1,1.8.1,6.454,6.454,0,0,1,2.7,1.9h0a.758.758,0,0,1,.2.4h0c0,.1-.2.2-.3.2h-.1a6.114,6.114,0,0,1-3.3,0,2.679,2.679,0,0,1-1.5-1A1.02,1.02,0,0,1,29.2,86.2Z"/>
            <path id="Path_3786" data-name="Path 3786" class="cls-2" d="M30.7,84.8h0a1.05,1.05,0,0,1,.9-.5,2.934,2.934,0,0,1,1.7.6,6.73,6.73,0,0,1,1.4,1.5H35a6.479,6.479,0,0,0-1.6-1.7c-1.3-.9-2.5-.7-2.9-.2v.2c0,.1-.1.1-.1.2a.367.367,0,0,1,.3-.1Z"/>
            <path id="Path_3787" data-name="Path 3787" class="cls-2" d="M36,88.4a1.962,1.962,0,0,1-.1-1.5,2.768,2.768,0,0,0-1.3-.3l.2.2h.3a11.111,11.111,0,0,0,.7,1.6,17.611,17.611,0,0,0,1.4,2.3,2.186,2.186,0,0,1-.3.5,16.678,16.678,0,0,1-1.7-2.6c-.1-.1-.1-.2-.2-.3-.1.1-.2.1-.3.2-.1,0-.2.1-.3.1s-.1,0-.2.1c.1.1.1.2.2.4a11.227,11.227,0,0,0,1.8,2.8c-.1.1-.3.2-.5.4a12.13,12.13,0,0,1-1.9-2.9c-.1-.2-.1-.3-.2-.5-.3,0-.5.1-.8.1.1.2.2.5.3.7A12.13,12.13,0,0,0,35,92.6c-.2.1-.4.1-.6.2a12.13,12.13,0,0,1-1.9-2.9,4.179,4.179,0,0,1-.4-1c-.3,0-.6-.1-.9-.1l.6,1.5a16.374,16.374,0,0,0,1.6,2.6,2.92,2.92,0,0,1-.9-.2,11.609,11.609,0,0,1-1.3-2.2,3.552,3.552,0,0,1-.4-.9c.1-.3.2-.5.3-.8-.1,0-.2,0-.2-.1a2.678,2.678,0,0,0-.2,2.3l-.7.6-1,.7,1.2-.3.9-.2a3.451,3.451,0,0,0,4.3.9,3.73,3.73,0,0,0,2.2-3A2.107,2.107,0,0,1,36,88.4Z"/>
          </g>
          <g id="Group_4257" data-name="Group 4257">
            <path id="Path_3788" data-name="Path 3788" class="cls-2" d="M88.3,63.5A1.686,1.686,0,0,0,90,61.6l-.5-3.5a2.459,2.459,0,0,0-2.3-1.9H40a2.439,2.439,0,0,0-2.3,1.9l-.5,3.5a1.736,1.736,0,0,0,1.7,1.9Z"/>
            <path id="Path_3789" data-name="Path 3789" class="cls-2" d="M86.4,52.9a1.229,1.229,0,0,0,1.2-1.8l-1.8-3.8A3.512,3.512,0,0,0,83,45.6H44.4a3.669,3.669,0,0,0-2.8,1.7l-1.8,3.8A1.2,1.2,0,0,0,41,52.9Z"/>
            <path id="Path_3790" data-name="Path 3790" class="cls-2" d="M80.7,42.2c1,0,1.3-.6.6-1.4L75.5,36A8.785,8.785,0,0,0,72,35H55.5A7.559,7.559,0,0,0,52,36.1l-5.8,4.8c-.7.7-.5,1.4.6,1.4H80.7Z"/>
            <path id="Path_3791" data-name="Path 3791" class="cls-2" d="M87.7,74.2a2.331,2.331,0,0,0,2.2-1.9l.4-3.4A1.756,1.756,0,0,0,88.5,67H39a1.817,1.817,0,0,0-1.8,1.9l.4,3.4a2.441,2.441,0,0,0,2.2,1.9Z"/>
            <path id="Path_3792" data-name="Path 3792" class="cls-2" d="M72.1,94.2h0V87.5a5.763,5.763,0,0,0-5.7-5.7H60.7A5.763,5.763,0,0,0,55,87.5v6.8A1.824,1.824,0,0,0,54,96v2.3a1.967,1.967,0,0,0,1.9,1.9H71.6a1.967,1.967,0,0,0,1.9-1.9V96A1.921,1.921,0,0,0,72.1,94.2Zm-16.7,0Zm2.5-.1V87.5a2.8,2.8,0,0,1,2.8-2.8h5.7a2.8,2.8,0,0,1,2.8,2.8v6.6Z"/>
            <path id="Path_3793" data-name="Path 3793" class="cls-2" d="M86.8,77.6H40.7a1.229,1.229,0,0,0-1.2,1.8l1.6,3.7a3.493,3.493,0,0,0,2.7,1.7H54.7a6.513,6.513,0,0,1,6-3.9h5.7a6.513,6.513,0,0,1,6,3.9H83.8a3.341,3.341,0,0,0,2.7-1.7l1.6-3.7A1.278,1.278,0,0,0,86.8,77.6Z"/>
            <path id="Path_3794" data-name="Path 3794" class="cls-2" d="M54.1,93.9V88.3H46c-1,0-1.3.6-.5,1.3a55.382,55.382,0,0,0,7.7,5.7A2.845,2.845,0,0,1,54.1,93.9Z"/>
            <path id="Path_3795" data-name="Path 3795" class="cls-2" d="M81.5,88.3H73v5.3a2.742,2.742,0,0,1,1.3,1.7A66.511,66.511,0,0,0,82,89.6C82.8,88.8,82.6,88.3,81.5,88.3Z"/>
          </g>
        </g>
        <g id="Group_4259" data-name="Group 4259">
          <path id="Path_3796" data-name="Path 3796" class="cls-2" d="M27.8,12.1a4.173,4.173,0,0,1,2.4-2.3,1.555,1.555,0,0,0,.8.6,1.2,1.2,0,0,0,1.5-1A1.275,1.275,0,1,0,30,8.9v.2a5.512,5.512,0,0,0-3,3,5.325,5.325,0,0,0-5.5,4.6,5.362,5.362,0,1,0,6.3-4.6Zm.8,5.5a1.414,1.414,0,1,1,1.6-1.2A1.321,1.321,0,0,1,28.6,17.6Z"/>
          <path id="Path_3797" data-name="Path 3797" class="cls-2" d="M29.2,15.4a1.061,1.061,0,1,0,.9,1.2C30.1,16,29.7,15.4,29.2,15.4Zm0,1.6c-.2,0-.3-.2-.2-.3,0-.2.2-.3.3-.2.2,0,.3.2.2.3C29.5,16.9,29.4,17,29.2,17Z"/>
          <path id="Path_3798" data-name="Path 3798" class="cls-2" d="M33.3,10.7a1.2,1.2,0,0,0-1.5,1v.2a5.968,5.968,0,0,0-1.5.9c.2.2.4.3.6.5a4.129,4.129,0,0,1,1.1-.7,1.555,1.555,0,0,0,.8.6,1.2,1.2,0,0,0,1.5-1A1.272,1.272,0,0,0,33.3,10.7Z"/>
          <path id="Path_3799" data-name="Path 3799" class="cls-2" d="M9.8,9a16.263,16.263,0,0,0,7.6,5.1c.7.2,1.4.3,1.8-.1h0c.4-.3.5-.9.4-1.7,0-2.3-1.5-6.1-3.4-8.5C13.7.5,10.5,0,9,1.1l-.1.1-.1.1C7.4,2.5,7.2,5.7,9.8,9ZM9.1,1.8h0l.1-.1.1-.1a3.254,3.254,0,0,1,2.6-.3,7.4,7.4,0,0,1,4,2.8,15.981,15.981,0,0,1,3.3,8.2v.1c0,.3.1.9-.2,1.2h-.1c-.2.2-.6.1-.9,0h0c-.1,0-.2-.1-.3-.1h-.1a15.737,15.737,0,0,1-7.2-4.9A7.236,7.236,0,0,1,8.3,4.3,3.562,3.562,0,0,1,9.1,1.8Z"/>
          <path id="Path_3800" data-name="Path 3800" class="cls-2" d="M14.7.8h.2L15,.7a2.936,2.936,0,0,1,2.5.4,7.87,7.87,0,0,1,3,3.8,16.059,16.059,0,0,1,1,5.3c.2.2.4.3.6.5a16.834,16.834,0,0,0-1.1-6C19.5.8,16.5-.6,14.8.1c-.1,0-.1.1-.2.1h-.2l-.6.3.6.3A.187.187,0,0,0,14.7.8Z"/>
          <path id="Path_3801" data-name="Path 3801" class="cls-2" d="M20.9,16.5a6.046,6.046,0,0,1,1.9-3.6,9.892,9.892,0,0,0-2.5-2.5,2.769,2.769,0,0,1,.1.9,2.651,2.651,0,0,0,.6.5h0a31.167,31.167,0,0,0-.9,4.4,33.926,33.926,0,0,0-.2,7.1,10.092,10.092,0,0,1-1.5.7,31.48,31.48,0,0,1,.1-8.1c0-.3.1-.6.1-1h-.8a1.854,1.854,0,0,1-.7-.2,4.331,4.331,0,0,0-.5-.1c-.1.3-.1.7-.2,1a37.169,37.169,0,0,0-.1,8.8,7.569,7.569,0,0,1-1.5.1,35.261,35.261,0,0,1-.1-9.2c.1-.5.1-.9.2-1.3-.6-.3-1.2-.6-1.9-1a15.17,15.17,0,0,0-.3,2.1,36.178,36.178,0,0,0,0,9.3,7.494,7.494,0,0,1-1.6-.5,34.617,34.617,0,0,1,0-9.1,29.311,29.311,0,0,1,.5-2.9c-.6-.5-1.2-1-1.7-1.5-.3,1.3-.6,2.7-.8,4.1A31.48,31.48,0,0,0,9,22.6a9.118,9.118,0,0,1-1.7-1.7,38.078,38.078,0,0,1,.2-6.7A25.578,25.578,0,0,1,8,11.5a8.32,8.32,0,0,1,1.8-1.3c-.1-.2-.3-.3-.4-.5a8.084,8.084,0,0,0-3.9,4.8l-2.3.1L0,15l3.1,1.1,2.2.8c.1,4,3.5,7.5,8.2,8.2a9.391,9.391,0,0,0,9.1-3.5A5.766,5.766,0,0,1,20.9,16.5Z"/>
        </g>
        <g id="Group_4260" data-name="Group 4260">
          <path id="Path_3802" data-name="Path 3802" class="cls-2" d="M117.1,78.2a4.938,4.938,0,1,0,9.5-2.7,4.94,4.94,0,0,0-5.5-3.5,5.424,5.424,0,0,0-3-2.4c0-.1,0-.1-.1-.2a1.17,1.17,0,1,0-.7,1.5,1.344,1.344,0,0,0,.7-.6,3.8,3.8,0,0,1,2.4,1.9A4.993,4.993,0,0,0,117.1,78.2Zm1.6-1.7a1.237,1.237,0,1,1,1.5.9A1.31,1.31,0,0,1,118.7,76.5Z"/>
          <path id="Path_3803" data-name="Path 3803" class="cls-2" d="M118.8,76.5a.886.886,0,1,0,.6-1.1A.945.945,0,0,0,118.8,76.5Zm.5.1c0-.1,0-.3.2-.3.1,0,.3,0,.3.2,0,.1,0,.3-.2.3C119.4,76.9,119.3,76.8,119.3,76.6Z"/>
          <path id="Path_3804" data-name="Path 3804" class="cls-2" d="M115.2,71.5a1.189,1.189,0,0,1,1.5.7c0,.1,0,.1.1.2a5.91,5.91,0,0,1,1.4.6l-.5.5a3.7,3.7,0,0,0-1.1-.5,1.057,1.057,0,0,1-.7.6,1.189,1.189,0,0,1-1.5-.7A1.352,1.352,0,0,1,115.2,71.5Z"/>
          <path id="Path_3805" data-name="Path 3805" class="cls-2" d="M136.4,60.4a.1.1,0,0,1-.1-.1l-.1-.1c-1.4-.9-4.3-.1-6.3,3.1a15.1,15.1,0,0,0-2.1,8.1,1.637,1.637,0,0,0,.6,1.5h0a1.556,1.556,0,0,0,1.6-.1,14.939,14.939,0,0,0,6.4-5.5C138.4,64.2,137.8,61.3,136.4,60.4Zm.7,2.7a7.41,7.41,0,0,1-1.2,4.1,14.243,14.243,0,0,1-6,5.2h-.1a.349.349,0,0,0-.2.1h0a1.185,1.185,0,0,1-.8.1h-.1c-.3-.2-.3-.7-.3-1.1v-.1a13.726,13.726,0,0,1,2.1-7.8,7.773,7.773,0,0,1,3.3-3,3.025,3.025,0,0,1,2.3,0l.1.1h.2A4.559,4.559,0,0,1,137.1,63.1Z"/>
          <path id="Path_3806" data-name="Path 3806" class="cls-2" d="M131,60.6h-.2l-.1-.1a2.618,2.618,0,0,0-2.2.7,7.93,7.93,0,0,0-2.3,3.8,13.391,13.391,0,0,0-.3,4.9c-.2.2-.3.4-.5.5a15.015,15.015,0,0,1,.3-5.6c1-3.7,3.5-5.3,5.1-4.9.1,0,.1,0,.1.1h.2a.764.764,0,0,1,.5.2,1.756,1.756,0,0,0-.5.4Z"/>
          <path id="Path_3807" data-name="Path 3807" class="cls-2" d="M127.1,75.4a5.5,5.5,0,0,0-2.1-3,9.579,9.579,0,0,1,2-2.5v.8a2.651,2.651,0,0,0-.5.6h0c.5,1.3.9,2.6,1.3,3.9a29.3,29.3,0,0,1,1,6.4,7.838,7.838,0,0,0,1.4.5,26.732,26.732,0,0,0-1-7.3,2.92,2.92,0,0,1-.2-.9,2.485,2.485,0,0,0,.8-.1c.2-.1.4-.1.6-.2a.758.758,0,0,0,.4-.2,2.92,2.92,0,0,1,.2.9,31.879,31.879,0,0,1,1,8,6.6,6.6,0,0,0,1.4-.1,27.559,27.559,0,0,0-1-8.4l-.3-1.2a8.347,8.347,0,0,0,1.6-1.2,10.549,10.549,0,0,1,.5,1.9,31.072,31.072,0,0,1,1,8.4c.5-.2,1-.4,1.4-.6a26.313,26.313,0,0,0-1-8.2,18.285,18.285,0,0,0-.8-2.5,10.7,10.7,0,0,0,1.4-1.6c.4,1.2.8,2.4,1.2,3.7a31.98,31.98,0,0,1,1,7.3,11.511,11.511,0,0,0,1.4-1.7,31.091,31.091,0,0,0-.9-6,21.717,21.717,0,0,0-.7-2.4,7.677,7.677,0,0,0-1.8-1c.1-.2.2-.3.3-.5a7.288,7.288,0,0,1,4,3.9l2.1-.1,3-.2-2.7,1.4-2,1c.3,3.6-2.4,7.2-6.5,8.4a8.877,8.877,0,0,1-8.7-2.1A5.308,5.308,0,0,0,127.1,75.4Z"/>
        </g>
        <g id="Group_4261" data-name="Group 4261">
          <path id="Path_3808" data-name="Path 3808" class="cls-2" d="M76,19.2a3.482,3.482,0,1,0,2.8-4.4,3.92,3.92,0,0,0-2.1-1.7V13c-.2-.4-.6-.7-1-.5s-.7.6-.5,1,.6.7,1,.5a1,1,0,0,0,.5-.4,3.147,3.147,0,0,1,1.7,1.3A3.517,3.517,0,0,0,76,19.2ZM77.1,18a.886.886,0,1,1,1.1.6A.945.945,0,0,1,77.1,18Z"/>
          <path id="Path_3809" data-name="Path 3809" class="cls-2" d="M77.2,18a.667.667,0,0,0,1.3-.3.749.749,0,0,0-.8-.5A.618.618,0,0,0,77.2,18Zm.3.1c0-.1,0-.2.1-.2s.2,0,.2.1,0,.2-.1.2S77.5,18.2,77.5,18.1Z"/>
          <path id="Path_3810" data-name="Path 3810" class="cls-2" d="M74.6,14.5a.747.747,0,0,1,1,.5v.2a3,3,0,0,1,1,.4,1.381,1.381,0,0,0-.3.4,2.118,2.118,0,0,0-.7-.3,1,1,0,0,1-.5.4.747.747,0,0,1-1-.5A.9.9,0,0,1,74.6,14.5Z"/>
          <path id="Path_3811" data-name="Path 3811" class="cls-2" d="M89.6,6.7h0a.31.31,0,0,0-.2-.1c-1-.6-3-.1-4.4,2.2a11.583,11.583,0,0,0-1.5,5.7,1.246,1.246,0,0,0,.4,1.1h0a1.11,1.11,0,0,0,1.1-.1,11.337,11.337,0,0,0,4.5-3.8C90.9,9.3,90.5,7.3,89.6,6.7Zm.5,1.8a5.733,5.733,0,0,1-.9,2.9A10.235,10.235,0,0,1,85,15.1h-.1c-.1,0-.1.1-.2.1h0a.637.637,0,0,1-.6,0h0c-.2-.1-.2-.5-.2-.7h0A11.2,11.2,0,0,1,85.3,9a5.054,5.054,0,0,1,2.3-2.1,2.191,2.191,0,0,1,1.6,0l.1.1h.1C89.8,7.2,90,7.8,90.1,8.5Z"/>
          <path id="Path_3812" data-name="Path 3812" class="cls-2" d="M85.7,6.8h-.2a1.941,1.941,0,0,0-1.5.5A5.146,5.146,0,0,0,82.4,10a10.187,10.187,0,0,0-.2,3.5,1.381,1.381,0,0,0-.3.4,10.169,10.169,0,0,1,.2-3.9c.7-2.6,2.4-3.7,3.6-3.4h.2a.758.758,0,0,1,.4.2l-.3.3C85.8,6.8,85.8,6.8,85.7,6.8Z"/>
          <path id="Path_3813" data-name="Path 3813" class="cls-2" d="M83,17.2a3.592,3.592,0,0,0-1.5-2.1,4.887,4.887,0,0,1,1.4-1.8v.6l-.4.4h0c.3.9.6,1.8.9,2.8a23.376,23.376,0,0,1,.7,4.5c.3.1.7.3,1,.4a17.923,17.923,0,0,0-.7-5.1c-.1-.2-.1-.4-.2-.6a.9.9,0,0,0,.5-.1.758.758,0,0,0,.4-.2c.1,0,.2-.1.3-.1.1.2.1.4.2.6a22.028,22.028,0,0,1,.7,5.6h1a20.247,20.247,0,0,0-.7-5.9,3.091,3.091,0,0,1-.2-.8,7.632,7.632,0,0,0,1.1-.8c.1.4.3.9.4,1.3a24.356,24.356,0,0,1,.7,5.9c.3-.1.7-.3,1-.4a24.143,24.143,0,0,0-.7-5.8c-.2-.6-.3-1.2-.5-1.8a9.958,9.958,0,0,0,1-1.1,19.753,19.753,0,0,1,.8,2.6,23.143,23.143,0,0,1,.7,5.1,10.592,10.592,0,0,0,1-1.2,20.477,20.477,0,0,0-.7-4.2,10.927,10.927,0,0,0-.5-1.7,5.388,5.388,0,0,0-1.3-.7c.1-.1.2-.2.2-.3A4.959,4.959,0,0,1,92.4,15l1.5-.1,2.1-.1-1.9,1-1.4.7a5.909,5.909,0,0,1-4.6,5.9A6.248,6.248,0,0,1,82,20.9,3.748,3.748,0,0,0,83,17.2Z"/>
        </g>
        <path id="Path_3814" data-name="Path 3814" class="cls-2" d="M77.7,91.8a1.941,1.941,0,0,0-1.6.5h0a2.178,2.178,0,0,0-.7.9c-.5.4-1.7.2-1.7.2.2-3.3-1.6-4.2-3.2-4.2-1.4,0-3.5,2.7-4.3,5.2a3.408,3.408,0,0,0-2.7-2.8c-1.6-.3-2.6,2.2-2.6,2.3-.1.3-1.3,1.5-2.2.7a1.942,1.942,0,0,0-2.5.2c-.5.6-.8.4-1.5.3a1.574,1.574,0,0,0-1.2-.4c-2.2-.2.3,3.7,1.1,5.3s4.4,2.7,4.4,2.7c.8.6,2.9,4.1,2.8,5.4-.1,2-.2,4-1.7,5.6-1.3,1.3-1.9,5.2-1.1,7.4.9,2.4,2.9,3.4,4.8,1.4a6.843,6.843,0,0,0,1.6-5.9c-.3-1.4-.9-2.6-1.2-3.9-.5-2.1.3-6.9,1.8-8,.9-.4,1.2.2,1.8,1.5h0c.3.6,0,1,0,1.4-.1.8-1.8,3.8-1.9,4.8a3.591,3.591,0,0,0,2.5,4c2.1.6,3.3-1.3,3.5-3.2a7.831,7.831,0,0,0-1-3.7,5,5,0,0,1-1.1-2,5.462,5.462,0,0,1,.9-2.8,10.08,10.08,0,0,0,5.5-2.7h0v-.1h0C79.5,99.6,82.5,92.2,77.7,91.8ZM63.8,119.1c-.1.6-.2,2.8-1.5,2.7-.5,0-.9-.7-.8-1.3h0v-.1c.1-.6.6-.9.9-1.2,1-1.8.7-2.7.7-2.7A4.312,4.312,0,0,1,63.8,119.1Zm6.6-6.5c0,.4,0,2-1.1,2a.817.817,0,0,1-.8-.9h0v-.1c.1-.4.5-.6.7-.9.7-1.3.4-1.9.4-1.9A2.9,2.9,0,0,1,70.4,112.6Z"/>
      </g>
      <text id="_8_Colonies" data-name="8 Colonies" class="cls-3" transform="translate(81 3556.633)"><tspan x="26.815" y="35">8 Colonies</tspan></text>
      <text id="Each_colony_can_have_up_to_60_000_bees._That_s_up_to_480_000_bees_" data-name="Each colony can have up to 60,000 bees. 

That’s up to 
480,000 bees! " class="cls-4" transform="translate(87 3610.633)"><tspan x="25.307" y="17">Each colony can </tspan><tspan x="14.549" y="47">have up to 60,000 </tspan><tspan x="76.787" y="77">bees. </tspan><tspan x="103" y="107"></tspan><tspan x="47.758" y="137">That’s up to </tspan><tspan x="32.941" y="167">480,000 bees! </tspan></text>
    </g>
  </g>
</svg>
