<svg xmlns="http://www.w3.org/2000/svg" viewBox="1379 -4817.719 195 314.719">
  <defs>
    <style>
      .cls-1, .cls-2 {
        fill: #fff;
      }

      .cls-1 {
        font-size: 22px;
        font-family: ProximaNova-Light, Proxima Nova;
        font-weight: 300;
      }
    </style>
  </defs>
  <g id="Group_8150" data-name="Group 8150" transform="translate(1289 -6024)">
    <text id="Electronic_recycling_Green_Vendor_Fair_Electric_car_chargers_Ride_sharing_Preserved_wetlands_Beehives_MO_DIRT" data-name="Electronic recycling
Green Vendor Fair 
Electric car chargers 
Ride sharing
Preserved wetlands
Beehives
MO DIRT" class="cls-1" transform="translate(90 1300)"><tspan x="5.1" y="17">Electronic recycling</tspan><tspan x="9.863" y="47">Green Vendor Fair </tspan><tspan x="0.986" y="77">Electric car chargers </tspan><tspan x="38.474" y="107">Ride sharing</tspan><tspan x="3.538" y="137">Preserved wetlands</tspan><tspan x="53.401" y="167">Beehives</tspan><tspan x="54.864" y="197">MO DIRT</tspan></text>
    <path id="Path_3763" data-name="Path 3763" class="cls-2" d="M12.2,59.378a5.219,5.219,0,0,0,3.953,5.113v2.82a3.815,3.815,0,0,0,3.584,3.716h7.169c1.9,0,3.189-1.818,3.189-3.716v-2.82a5.241,5.241,0,0,0,3.953-5.113V52.051H12.176v7.327Zm11.86,9.488a.585.585,0,0,1-.58.58H17.79a.585.585,0,0,1-.58-.58v-.158a.585.585,0,0,1,.58-.58h5.693a.585.585,0,0,1,.58.58v.158Zm0-2.108a.585.585,0,0,1-.58.58H17.79a.585.585,0,0,1-.58-.58V66.6a.585.585,0,0,1,.58-.58h5.693a.585.585,0,0,1,.58.58v.158Zm-.791-6.483a2.058,2.058,0,0,1-2.056,2.056H16.129a2.058,2.058,0,0,1-2.056-2.056v-.343a2.058,2.058,0,0,1,2.056-2.056h5.087a2.058,2.058,0,0,1,2.056,2.056Zm.079,14.364a3.089,3.089,0,0,0,2.767-2.293H20.583A3.061,3.061,0,0,0,23.351,74.638Zm4.823-47.228c.791,1.5,5.772,3.848,7.379-4.059-8.46-4.849-8.223,2.636-8.223,2.636s.422-2.24,5.983-1.16c-4.375-.264-5.9,1.581-6.536,3.215a7.232,7.232,0,0,1-.316,2.451A27.126,27.126,0,0,1,28.174,27.409ZM7.3,18.9C5.113,39.717,19.266,37.872,22.428,34.789c3.373,5.745.553,15.945.553,15.945h2.767s4.243-22.375-14.074-26.408c14.6,1.766,13.889,7.538,13.889,7.538S32,13.52,7.3,18.9ZM23.219,0A23.26,23.26,0,0,0,0,23.245a22.816,22.816,0,0,0,2.082,9.62,19.875,19.875,0,0,0,4.032,5.324c2.978,3.084,6.378,6.747,6.378,12.545h1.555c0-6.589-3.769-10.463-6.826-13.626a19.711,19.711,0,0,1-3.742-4.849,21.7,21.7,0,1,1,41.457-9.04,17.014,17.014,0,0,1-5.693,13.257c-2.978,2.451-6.668,5.535-6.8,13.757L34,50.259c.132-7.511,3.215-10.094,6.22-12.6a19.438,19.438,0,0,0,4.48-5.535,18.2,18.2,0,0,0,1.792-8.934A23.294,23.294,0,0,0,23.219,0Z" transform="translate(167 1206.281)"/>
  </g>
</svg>
