<svg xmlns="http://www.w3.org/2000/svg" viewBox="8710 -3204.733 282 251">
  <defs>
    <style>
      .cls-1 {
        fill: rgba(255,255,255,0);
        stroke: #fff;
      }

      .cls-2, .cls-3, .cls-4 {
        fill: #fff;
      }

      .cls-2 {
        font-size: 36px;
        font-family: Sentinel-Medium, Sentinel;
        font-weight: 500;
      }

      .cls-3 {
        font-size: 22px;
        font-family: ProximaNova-Light, Proxima Nova;
        font-weight: 300;
      }

      .cls-5 {
        stroke: none;
      }

      .cls-6 {
        fill: none;
      }
    </style>
  </defs>
  <g id="Group_8162" data-name="Group 8162" transform="translate(8663 -6024.367)">
    <g id="Rectangle_62" data-name="Rectangle 62" class="cls-1" transform="translate(47 2819.633)">
      <rect class="cls-5" width="282" height="251"/>
      <rect class="cls-6" x="0.5" y="0.5" width="281" height="250"/>
    </g>
    <g id="Group_3112" data-name="Group 3112" transform="translate(1 2100.633)">
      <text id="_65_" data-name="65%" class="cls-2" transform="translate(78 837)"><tspan x="75.235" y="35">65%</tspan></text>
      <text id="improved_their_glucose_levels" data-name="improved their glucose levels" class="cls-3" transform="translate(85 885)"><tspan x="34.228" y="17">improved their </tspan><tspan x="35.064" y="47">glucose levels</tspan></text>
    </g>
    <g id="Group_3115" data-name="Group 3115" transform="translate(151.873 2843.361)">
      <path id="Path_2387" data-name="Path 2387" class="cls-4" d="M302.879,462.681a1.326,1.326,0,0,0-.477-.081,1.374,1.374,0,0,0-1.278.883l-4.893,13.132a1.362,1.362,0,0,0,.035,1.046,1.318,1.318,0,0,0,.767.709l13.132,4.893a1.388,1.388,0,0,0,1.755-.8l4.893-13.132a1.359,1.359,0,0,0-.8-1.755Z" transform="translate(-261.616 -408.879)"/>
      <path id="Path_2388" data-name="Path 2388" class="cls-4" d="M42.405,144.911a1.392,1.392,0,0,0,1.848.546l12.319-6.682a1.357,1.357,0,0,0,.662-.813,1.335,1.335,0,0,0-.1-1.034l-6.682-12.319a1.36,1.36,0,0,0-1.2-.709,1.421,1.421,0,0,0-.651.163l-12.319,6.682a1.36,1.36,0,0,0-.546,1.848Z" transform="translate(-31.323 -109.541)"/>
      <path id="Path_2389" data-name="Path 2389" class="cls-4" d="M7.352,424.11c5.183,0,12.1-3.219,16.456-7.647,4.881-4.974,5.8-10.773,2.464-15.538a17.357,17.357,0,0,0-2.987-3.033,10.687,10.687,0,0,0-6.252-2.092c-3.3,0-6.6,1.592-9.564,4.6A27.747,27.747,0,0,0,.763,412.256c-1.174,4.428-.709,8.088,1.278,10.041A7.228,7.228,0,0,0,7.352,424.11ZM2.53,411.64a22.646,22.646,0,0,1,5.485-9.681,15.683,15.683,0,0,1,2.278-1.929,12.4,12.4,0,0,1,2.336-1.267,9.877,9.877,0,0,1,2.638-.662.327.327,0,0,1,.36.291.334.334,0,0,1-.291.36,9.015,9.015,0,0,0-2.464.616,11.408,11.408,0,0,0-2.208,1.2,15.045,15.045,0,0,0-2.173,1.848,22.116,22.116,0,0,0-5.323,9.39,12.946,12.946,0,0,0-.442,4.718.325.325,0,0,1-.291.36H2.4a.336.336,0,0,1-.325-.291A12.974,12.974,0,0,1,2.53,411.64Z" transform="translate(0 -349.842)"/>
      <path id="Path_2390" data-name="Path 2390" class="cls-4" d="M262.1,3.877A4,4,0,0,0,260.8.96C259.163-.656,255.677-.47,252.667,2.6L214.2,46.887a16.246,16.246,0,0,1,1.743,1.72L259.326,9.048C261.15,7.317,262.115,5.515,262.1,3.877Z" transform="translate(-189.195 0)"/>
      <path id="Path_2391" data-name="Path 2391" class="cls-4" d="M449.78,280.569a1.361,1.361,0,0,0-1.1-.569,1.428,1.428,0,0,0-.8.256l-11.366,8.193a1.349,1.349,0,0,0-.546.883,1.309,1.309,0,0,0,.244,1.011l8.193,11.366a1.4,1.4,0,0,0,1.906.314l11.366-8.193a1.349,1.349,0,0,0,.546-.883,1.308,1.308,0,0,0-.244-1.011Z" transform="translate(-385.169 -247.5)"/>
    </g>
  </g>
</svg>
