<svg xmlns="http://www.w3.org/2000/svg" viewBox="8710 -3557.733 282 267">
  <defs>
    <style>
      .cls-1 {
        fill: rgba(255,255,255,0);
        stroke: #fff;
      }

      .cls-2, .cls-3, .cls-4 {
        fill: #fff;
      }

      .cls-2 {
        font-size: 36px;
        font-family: Sentinel-Medium, Sentinel;
        font-weight: 500;
      }

      .cls-3 {
        font-size: 22px;
        font-family: ProximaNova-Light, Proxima Nova;
        font-weight: 300;
      }

      .cls-4 {
        fill-rule: evenodd;
      }

      .cls-5 {
        stroke: none;
      }

      .cls-6 {
        fill: none;
      }
    </style>
  </defs>
  <g id="Group_8161" data-name="Group 8161" transform="translate(8663 -6024.367)">
    <g id="Rectangle_60" data-name="Rectangle 60" class="cls-1" transform="translate(47 2466.633)">
      <rect class="cls-5" width="282" height="267"/>
      <rect class="cls-6" x="0.5" y="0.5" width="281" height="266"/>
    </g>
    <g id="Group_3112" data-name="Group 3112" transform="translate(0 1754.633)">
      <text id="_73_" data-name="73%" class="cls-2" transform="translate(78 837)"><tspan x="75.595" y="35">73%</tspan></text>
      <text id="improved_their_blood_pressure" data-name="improved their blood pressure" class="cls-3" transform="translate(85 885)"><tspan x="3.901" y="17">improved their blood </tspan><tspan x="61.244" y="47">pressure</tspan></text>
    </g>
    <g id="Group_3114" data-name="Group 3114" transform="translate(152.52 2495.746)">
      <path id="Path_2381" data-name="Path 2381" class="cls-4" d="M17.186,74.62C4.635,76.995-5.726,56.18,3.617,47.422c-.863-1.789-1.6-2,.123-2.837C-3.1,31.233.9,25.158,14.688,20.934,1.8,1.723,25.82-7.652,34.824,7.736,43.767-7.528,67.357,1.6,55.33,20.348c17.33,4.965,18.348,12.026,10.207,27.136A16.737,16.737,0,1,1,63.687,46c7.586-14.061,6.167-19.18-9.744-23.621-.185.247-.339.463-.524.709.247-.493-4.965.216-5.643-.062-1.264-.493-2.714-3.485-4.533-1.48-1.48,1.634-1.048,1.6-2.9,1.511-2.5-.123-2.683-.062-3.053,2.868L35.626,11.436c-.247-2.189-1.233-.987-1.233-.987-.216.37-2.467,12.427-2.991,14.894-.8-1.418-.894-1.974-2.159-1.881-2.96.185-2.991-2.189-4.286-1.418-3.855,2.313-1.418,1.326-7.987,1.418-.586,0-.308.154-.8-.493-.524.154-1.079.308-1.6.493C2.477,27.317-.021,32.158,5.838,43.568,7.6,42.7,7.256,43.259,8.181,45.11c12.581-2.436,22.973,18.471,13.568,27.2.216.432.74,1.172.154,1.48l-3.67,1.789c-.617.308-.863-.555-1.048-.956ZM63.78,63.241a26.375,26.375,0,0,1,2.652,1.172,13.11,13.11,0,0,0-1.542-12.18,28.657,28.657,0,0,1-2.405,1.819.5.5,0,0,1-.586-.8,29.165,29.165,0,0,1,2.436-1.758,13.033,13.033,0,0,0-11.44-4.749,25.753,25.753,0,0,1,.4,3.022.5.5,0,0,1-.987.123,22.9,22.9,0,0,1-.278-3.022,12.887,12.887,0,0,0-3.207.987L56.04,58.369a2.4,2.4,0,0,1-1.85,3.916,2.337,2.337,0,0,1-2.344-2l-3.67-12.088a13.246,13.246,0,0,0-5.951,6.291c.278.031,2.344.987,2.744,1.172a.5.5,0,0,1-.4.925,25.359,25.359,0,0,1-2.714-1.2,13.35,13.35,0,0,0-.771,4.471A13.084,13.084,0,0,0,43.551,67.5c.555-.493,1.665-1.233,2.313-1.727a.5.5,0,0,1,.586.8c-.74.524-1.573,1.2-2.313,1.7a13.124,13.124,0,0,0,11.224,4.625l-.308-2.837a.5.5,0,0,1,.987-.123l.308,2.806a13.186,13.186,0,0,0,9.683-7.37A27.381,27.381,0,0,1,63.348,64.2a.526.526,0,0,1,.432-.956ZM52.648,24.048c-1.418.093-3.3,0-4.132,0-2.467,0-2.189-1.264-4.04-2.189-1.665,1.3-.894,2.405-4.225,2.22a7.584,7.584,0,0,0-1.449,0c-.463.894-.648,5.736-.925,6.907-.123.555-1.11,1.018-1.264-.37L34.732,14.273c-.247,1.2-2.313,12.211-2.652,12.7-1.048,1.573-1.974-2.59-2.806-2.529-2.128.123-2.313-.216-3.916-1.449-3.793,2.313-2.344,1.418-8.017,1.449,4.564,5.52,11.009,11.039,17.484,16.559,6.6-5.643,13.229-11.317,17.824-16.96ZM5.1,53.559C1.829,53.4,1.8,60,5.1,60.189,8.4,60.343,8.4,53.713,5.1,53.559Z" transform="translate(0 0)"/>
    </g>
  </g>
</svg>
