<svg xmlns="http://www.w3.org/2000/svg" viewBox="8710 -2881.733 282 251">
  <defs>
    <style>
      .cls-1 {
        fill: rgba(255,255,255,0);
        stroke: #fff;
      }

      .cls-2, .cls-3, .cls-4 {
        fill: #fff;
      }

      .cls-2 {
        font-size: 36px;
        font-family: Sentinel-Medium, Sentinel;
        font-weight: 500;
      }

      .cls-3 {
        font-size: 22px;
        font-family: ProximaNova-Light, Proxima Nova;
        font-weight: 300;
      }

      .cls-4 {
        fill-rule: evenodd;
      }

      .cls-5 {
        stroke: none;
      }

      .cls-6 {
        fill: none;
      }
    </style>
  </defs>
  <g id="Group_8163" data-name="Group 8163" transform="translate(8663 -6024.367)">
    <g id="Rectangle_63" data-name="Rectangle 63" class="cls-1" transform="translate(47 3142.633)">
      <rect class="cls-5" width="282" height="251"/>
      <rect class="cls-6" x="0.5" y="0.5" width="281" height="250"/>
    </g>
    <g id="Group_3113" data-name="Group 3113" transform="translate(0 2423.633)">
      <text id="_39_" data-name="39%" class="cls-2" transform="translate(78 837)"><tspan x="75.037" y="35">39%</tspan></text>
      <text id="improved_their_smoking_habits" data-name="improved their 
smoking habits" class="cls-3" transform="translate(78 885)"><tspan x="40.728" y="17">improved their </tspan><tspan x="38.143" y="47">smoking habits</tspan></text>
    </g>
    <path id="Path_2392" data-name="Path 2392" class="cls-4" d="M28.518,31.006c-.732,1.709-3.418,3.906-6.348,4.883-1.221,3.662-1.953,6.836-3.906,9.033a19.152,19.152,0,0,0,.488-3.418,7.2,7.2,0,0,0-3.662-1.221c.244-1.221.977-1.953.977-2.93a22.641,22.641,0,0,0,6.348-7.08c1.465-.488,4.395-2.686,5.615-3.662,0,1.465.488,2.93.488,4.395ZM84.67,0A61.3,61.3,0,0,1,95.9,26.123L73.2,25.879c-4.395,1.709-8.057,3.906-17.578,13.428-4.395,4.395-7.324,3.174-11.963,5.127-9.033,3.662-22.949,11.719-27.1,20.752-2.2,0-3.662-1.709-4.883-3.418a16.9,16.9,0,0,0,2.2-8.3A55.409,55.409,0,0,1,31.447,34.912c-2.2-4.395-1.953-14.649-.977-18.311a15.7,15.7,0,0,0-2.686,7.813c-2.2,1.465-4.15,3.418-6.348,3.906A37.515,37.515,0,0,1,14.6,35.645c-1.221,4.883-1.709,9.033-3.174,11.719,1.709,8.057,1.221,14.16-4.639,15.137-.488-1.953-3.418-10.01-4.15-13.672.488-4.639,1.221-8.789.977-13.428a11.058,11.058,0,0,1,.732-3.906C7.521,24.414,13.381,16.6,18.02,8.3c4.15-6.592,6.1-6.1,13.184-6.348C55.129,1.953,70.022.977,84.67,0ZM14.357,66.407a4.526,4.526,0,0,0-.488,1.709c-1.221,1.709-2.441,2.2-1.465,5.371a7.291,7.291,0,0,1,1.465-3.418,33.35,33.35,0,0,1,.977,5.615A18.563,18.563,0,0,1,14.6,79.1a24.871,24.871,0,0,1-8.545-.488A19.135,19.135,0,0,1,7.277,75.2a6.193,6.193,0,0,0,2.93.488c0-.244-2.93-1.221-3.418-1.709a26.352,26.352,0,0,1-.732-4.639c.244-1.465.244-2.93.488-4.639l4.395-.488,3.418,2.2Zm.732,18.8V83.741h1.465c.244.244.244.732.488.977a3.283,3.283,0,0,0-1.953.488ZM2.639,81.788a4.286,4.286,0,0,0,1.221-.977,5.107,5.107,0,0,1,1.465.977c-.244.732-.732,1.709-.977,2.441-.244,0-.488-.244-.732-.244,0-.732-.244-1.221-.244-1.953a2.459,2.459,0,0,0-.732-.244ZM.93,82.032c.244-.244.488-.244.732-.488.244.244.488.488.732.488-.244.488-.244.977-.488,1.465-.244,0-.244,0-.488-.244a2.2,2.2,0,0,0-.244-1.221Zm5.859.244c.488-.244,1.465-.244,1.953-.488.244.488.732.732.977,1.221-.488.732-.977,1.709-1.465,2.441-.244-.244-.488-.244-.732-.488,0-.732.244-1.465.244-2.2.244,0-.732-.244-.977-.488Zm10.5,1.465-.732-.977.732-.488.977.488-.977.977Zm-1.953-1.709a4.286,4.286,0,0,1-1.221-.977,4.286,4.286,0,0,0-1.221.977c.244.732.488,1.709.732,2.686.244,0,.488-.244.732-.488,0-.732.244-1.221.244-1.953a1.205,1.205,0,0,0,.732-.244ZM9.963,85.694V84.229c.488,0,1.221-.244,1.709-.244.244.244,0,.977.244,1.221a7.548,7.548,0,0,0-1.953.488Zm5.371-5.615.977.732H14.357l-.732-.732Zm-2.686-.244-.488.732.244,2.2-.732.488-1.465-2.441.244-.244,2.2-.732Zm-2.93.244v1.465L8.01,81.055l.244-.977ZM7.277,79.59,6.545,81.3l-1.709-.977.488-.488,1.953-.244Zm7.568-37.842a6.338,6.338,0,0,1,2.441.977,37.219,37.219,0,0,1-.732,4.639c-.977,1.465-1.709,2.93-2.686,4.639-.244-.977-.244-3.174-.488-3.906a59.508,59.508,0,0,0,1.465-6.348Zm-13.672,8.3c.732,7.568.977,9.522,1.465,12.94.244.244,2.2-.488,2.2-1.221A82.227,82.227,0,0,0,1.174,50.049Zm1.953-18.8C2.394,32.959,1.174,44.922.93,48.1.2,41.26-.535,34.18.685,30.762,1.418,27.1,4.836,21.729,8.5,16.6c3.174-4.639,6.592-11.231,11.719-12.7C16.066,5.371,4.836,26.856,3.127,31.25Z" transform="translate(138.968 3167.939)"/>
  </g>
</svg>
