<svg xmlns="http://www.w3.org/2000/svg" viewBox="8710 -4405.733 282 387">
  <defs>
    <style>
      .cls-1 {
        fill: rgba(255,255,255,0);
        stroke: #fff;
      }

      .cls-2, .cls-3, .cls-4 {
        fill: #fff;
      }

      .cls-3 {
        font-size: 36px;
        font-family: Sentinel-Medium, Sentinel;
        font-weight: 500;
      }

      .cls-4 {
        font-size: 22px;
        font-family: ProximaNova-Light, Proxima Nova;
        font-weight: 300;
      }
    </style>
  </defs>
  <g id="Group_8165" data-name="Group 8165" transform="translate(8663 -6024.367)">
    <path id="Path_7942" data-name="Path 7942" class="cls-1" d="M.5.5h281v386H.5Z" transform="translate(47 1618.633)"/>
    <g id="Group_8164" data-name="Group 8164">
      <g id="heart_2_" transform="translate(166.981 1637)">
        <path id="Path_4632" data-name="Path 4632" class="cls-2" d="M9.8,18.7c2.4,0,4.6.2,6.3,2a8.262,8.262,0,0,1,2.1,6.2c-.1.7-.3,1.3-.4,2.1a4.253,4.253,0,0,1-.2,1.1,8.776,8.776,0,0,1,2.1-1.2A17.149,17.149,0,0,1,28,27a12.611,12.611,0,0,1,2.8.5,26.376,26.376,0,0,1-2.3-4.4,30.673,30.673,0,0,0-2.8-4.2c-.9-1.2-1.9-2.4-2.9-3.5a14.29,14.29,0,0,0-2-1.4,28.989,28.989,0,0,0-5.2-1.8,23.223,23.223,0,0,0-6.4-1.1.735.735,0,0,0-.6.2c-.1.1-.1.3-.2.4a20.121,20.121,0,0,0-.1,6C8.5,18.7,9,18.7,9.8,18.7Z"/>
        <path id="Path_4633" data-name="Path 4633" class="cls-2" d="M20.7,12.3a20.452,20.452,0,0,1,3.1,2,18.073,18.073,0,0,1,2.8,3.3,33.747,33.747,0,0,1,2.8,3.8c.8,1.3,1,2.8,1.7,4.1s1.4,2.5,2.1,3.8c.1.2.2.3.3.5a14.919,14.919,0,0,1,.2-2.1,19.177,19.177,0,0,1,1.5-4.8c.4-.8.8-1.5,1.2-2.3a2.177,2.177,0,0,1,.5-.8,18.074,18.074,0,0,0-.8-5.1,12.537,12.537,0,0,0-.9-2.5c-.6-1.1-3.7-3.3-3.2-4.6a3.915,3.915,0,0,1,.8-1,20.017,20.017,0,0,0,2.7-3.1C34.2,2.4,33,1.2,31.8,0,30.5,1.7,29.2,3.4,28,5c-1,1.3-1.8-2.9-2.3-3.2-.7-.4-2.7,0-3.5,0a17.086,17.086,0,0,0,1.4,2.6c.2.4.8,2.1-.4,1.6-.4-1-.8-2-1.1-3-.1-.2-.1-.3-.3-.4-.1,0-.2-.1-.3-.1-.5,0-1-.1-1.5-.1.2.7,1,2.2.6,2.9s-2.2-.1-3.1-.1c-1.7.1-2.8,3.5-3,5A15.753,15.753,0,0,1,20.7,12.3Z"/>
        <path id="Path_4634" data-name="Path 4634" class="cls-2" d="M37.5,19.6c-.1.3-.1.6-.2.9-.1-.1-.2-.1-.2-.2-.1.4-.1.9-.2,1.3a21.718,21.718,0,0,1-.7,2.4,27.7,27.7,0,0,0-1.1,4.8,7.421,7.421,0,0,0,.5,3.9,7.033,7.033,0,0,0,2,2.2c1.7,1.3,3.7,2.2,5.2,3.7a10.185,10.185,0,0,1,2.1,3c.1-.4.2-.8.3-1.3.9-4.1-.4-7.7-1.2-11.7a6.453,6.453,0,0,0-1.2-2.8c.1-3.7.5-7.3.6-11,.1-3-2.1-3.3-4.6-3.5-1.1-.1-1.2.1-1.2,1.2-.1,1.8.1,3.6,0,5.4A4.581,4.581,0,0,1,37.5,19.6Z"/>
        <path id="Path_4635" data-name="Path 4635" class="cls-2" d="M43.4,40.7a16.554,16.554,0,0,0-3-2.2L38,37a19.665,19.665,0,0,0-2.2-1.4,1.063,1.063,0,0,0,.1,1.2,1.845,1.845,0,0,1,.5,1.2,3.708,3.708,0,0,1-.4,1.4c-.5.8-.7,1.1-.2,2.1a2.966,2.966,0,0,1,.2,1.6,12.588,12.588,0,0,1-.4,2.7,5.1,5.1,0,0,1-1.2,2c-.2.2-.5.4-.7.6A8.981,8.981,0,0,0,35.5,44a4.022,4.022,0,0,0-.3-2.4,2.279,2.279,0,0,1-.3-1.1c0-1.2,1.2-2,.4-3.2a2.126,2.126,0,0,1-.2-2.4h0c-.5-.6-.7-.4-1.1.1s-.6,1.2-1,1.7a5.734,5.734,0,0,0-1,1.9c-.5,1.3,0,2.7-.5,4a10.986,10.986,0,0,1-.9,1.4,7.973,7.973,0,0,1-.8,1.6c-.1.1-.3.1-.2-.1.2-.5.2-1.1.4-1.6a9.993,9.993,0,0,1,.8-1.4,4.711,4.711,0,0,0,.4-1.7c0-.1.1-.6-.1-.7-.1-.1-.5.2-.6.3-.3.1-.5.1-.8.2a5.782,5.782,0,0,0-2.3,1.8h0A7.351,7.351,0,0,1,29,40.5c.6-.4,1.5-.3,2-.8.4-.3.4-.7.5-1.2a13.018,13.018,0,0,1,.8-1.7l.6-1.2c.3-.5.5-1,.8-1.5a4.875,4.875,0,0,0,.4-1.1c0-.1-.2-.8-.3-.8s-.1,0-.2.1a2.664,2.664,0,0,1-1,.6,5.067,5.067,0,0,1-1.3.2,3.81,3.81,0,0,0-1,.3c-.6.5-.1,1.3.1,1.9.4,1.4-.3,2.2-1.2,3.2h-.1a4.17,4.17,0,0,0,.6-2.7,9.465,9.465,0,0,1-.5-1.8,1.268,1.268,0,0,1,.1-.6c-.2-.2-.4-.5-.8-.3a4.811,4.811,0,0,0-1.1.9,1.8,1.8,0,0,1-.9.4h-.9a.52.52,0,0,1-.4-.2s.5-.1.6-.1h.5a1.623,1.623,0,0,0,.9-.5,8.7,8.7,0,0,1,1.1-.9,1.7,1.7,0,0,1,1,0,.749.749,0,0,0,.5-.1c.2,0,.4-.1.6-.1a9,9,0,0,1,1.6-.3,2.112,2.112,0,0,0,1-.4c.2-.2.2-.5.3-.8a10.93,10.93,0,0,0-.8-1.5c-.1-.1-.2-.3-.3-.4a9.87,9.87,0,0,0-5.9-.9,17.738,17.738,0,0,0-8.5,3.5,7.607,7.607,0,0,1-1.9,1.2,4.179,4.179,0,0,1-1,.4,3.552,3.552,0,0,0-.9.4,2.186,2.186,0,0,0-.3.5,1.672,1.672,0,0,0-.1,1.2A16.569,16.569,0,0,0,15,39.1a12.814,12.814,0,0,1,1.1,3.3,9.005,9.005,0,0,0,.3,1.6,2.562,2.562,0,0,0,1.4,1.3,5.063,5.063,0,0,1,2.1,2,11.764,11.764,0,0,1,.7,2c0,.1.9.2,1,.2l.9.3a17.377,17.377,0,0,1,1.9,1,7.972,7.972,0,0,0-1.5-.3,4.477,4.477,0,0,0-2-.4c0,.1,0,.2.1.2a7.323,7.323,0,0,0,1.7,2.6,8.725,8.725,0,0,1,2,2.3c0,.1,0,.1-.1.1a9.444,9.444,0,0,1-4.4-4.2,31.9,31.9,0,0,0-1.1-3.3,4.365,4.365,0,0,0-1.9-1.7,9.662,9.662,0,0,1,.1,2.4c0,1.4-.2,2.8-.1,4.2a14.919,14.919,0,0,1,.2,2.1v1c.5.6,1.3,1.1,1.8,1.7.2.3.3.6.5.9a5.025,5.025,0,0,0-1.2-.8,4.44,4.44,0,0,1-1.1-.8.1.1,0,0,0-.1-.1v.1a7.486,7.486,0,0,0,1,4.2c.1.1-.1.2-.1.1a7.845,7.845,0,0,1-1.6-3.6,14.769,14.769,0,0,1-.1-2.1,11.271,11.271,0,0,0-.3-1.8,6.278,6.278,0,0,1-1.1,1.2,3.672,3.672,0,0,0-.9,2,10.039,10.039,0,0,0-.4,2.4,15.17,15.17,0,0,1-.3-2.1,4.383,4.383,0,0,1,.6-2.3A15.371,15.371,0,0,1,16,53.1a19.656,19.656,0,0,1,0-4.2,21.359,21.359,0,0,1,.1-3.6A3.963,3.963,0,0,1,14.9,43a14.039,14.039,0,0,0-1.3-3.4c-.3-.5-.6-1.1-.9-1.6a2.01,2.01,0,0,1-.4.8,6.561,6.561,0,0,0-.8,3.6,19.626,19.626,0,0,0,.9,4.2,5.619,5.619,0,0,1-.2,3.4,3.328,3.328,0,0,1-.6,1,5.171,5.171,0,0,0,.6,1.3,5.3,5.3,0,0,1,.3,2.8,6.753,6.753,0,0,1-.2,1.4,3.329,3.329,0,0,0,.1,1.4,2.324,2.324,0,0,1-.1,2c0,.1-.1,0-.1-.1.2-1-.3-2-.3-2.9a28.1,28.1,0,0,0-.1-2.9c-.1-.7-.4-1.6-.6-2.4v.1a5.092,5.092,0,0,0-.6,2.1,3.81,3.81,0,0,1-1.1,2.6c-.9,1.1-.3,2.4-.2,3.7,0,.1-.1.1-.2,0-.4-1-1-1.9-.8-3.1.2-1,1.1-1.6,1.2-2.6a6,6,0,0,1,.7-3.2c.7-1.3,1.3-2.3,1.1-3.8-.2-1.3-.8-2.5-1-3.8h0l-.2.2c-.8.6-1.8,1-2.1,2-.5,1.2.2,2.5,0,3.7A2.966,2.966,0,0,1,7.3,51c-.2.2-.3.4-.5.5.2.3-.3.5-.3.6.2-.5.5-1,.7-1.5a4.438,4.438,0,0,0,.2-2.3c-.1-.4-.1-.8-.2-1.3,0,.1-.1.1-.2.2a4.62,4.62,0,0,1-.7.7c-.2.1-.7.5-.5.1.1-.3.5-.6.7-.9s.4-.7.6-1a5.951,5.951,0,0,1,1.7-2.2c.3-.2.7-.4,1-.6s.5-.5.8-.7a7.15,7.15,0,0,1,.3-2.5A12.806,12.806,0,0,1,12,37.7a3.552,3.552,0,0,0,.4-.9,1.268,1.268,0,0,1-.1-.6,8.083,8.083,0,0,1-.1-1.6c0-.2.1-.5.1-.7-.7.1-1.5.1-2.2.2a11.174,11.174,0,0,0-4.4.9,6.453,6.453,0,0,0-3.1,3c-.1.2-.1.4-.2.6a17.983,17.983,0,0,0-.6,2.2A74.988,74.988,0,0,0,.4,50.3C.3,51.7.2,53.2.1,54.7a21.371,21.371,0,0,0,.3,6.2c.5,1.9,1.8,2.8,3.7,3.3a18.492,18.492,0,0,0,6.2.7,44.177,44.177,0,0,0,11.4-1.6c3.5-.9,6.5-3,9.7-4.6A30.058,30.058,0,0,0,38,54.1a20.311,20.311,0,0,0,4.4-6.4,47.662,47.662,0,0,0,2.2-5.2A8.012,8.012,0,0,0,43.4,40.7Z"/>
        <path id="Path_4636" data-name="Path 4636" class="cls-2" d="M10.8,32.6a12.9,12.9,0,0,0,4-.7A10.406,10.406,0,0,0,16,26.5c-.1-1.3-.5-5.2-2.4-5.3a2.389,2.389,0,0,0-1.4.5,23.554,23.554,0,0,0-4.7,4.2,16.228,16.228,0,0,0-4,8.2c-.1.4-.1.7-.2,1.1C5.5,33.4,8.2,32.9,10.8,32.6Z"/>
      </g>
      <g id="Group_4936" data-name="Group 4936" transform="translate(3 1012.633)">
        <text id="_68_" data-name="68%" class="cls-3" transform="translate(78 837)"><tspan x="75.127" y="35">68%</tspan></text>
        <text id="improved_their_triglycerides" data-name="improved their triglycerides" class="cls-4" transform="translate(85 885)"><tspan x="34.228" y="17">improved their </tspan><tspan x="45.14" y="47">triglycerides</tspan></text>
      </g>
      <g id="Group_7812" data-name="Group 7812" transform="translate(3 884.633)">
        <text id="_65_" data-name="65%" class="cls-3" transform="translate(78 837)"><tspan x="75.235" y="35">65%</tspan></text>
        <text id="improved_their_LDL_cholesterol" data-name="improved their LDL cholesterol" class="cls-4" transform="translate(85 885)"><tspan x="12.679" y="17">improved their LDL </tspan><tspan x="50.321" y="47">cholesterol</tspan></text>
      </g>
    </g>
  </g>
</svg>
