<svg xmlns="http://www.w3.org/2000/svg" viewBox="11163 -3046.367 282 267">
  <defs>
    <style>
      .cls-1 {
        fill: rgba(255,255,255,0);
        stroke: #fff;
      }

      .cls-2, .cls-3, .cls-4 {
        fill: #fff;
      }

      .cls-2 {
        font-size: 36px;
        font-family: Sentinel-Medium, Sentinel;
        font-weight: 500;
      }

      .cls-3 {
        font-size: 22px;
        font-family: ProximaNova-Light, Proxima Nova;
        font-weight: 300;
      }
    </style>
  </defs>
  <g id="Group_8156" data-name="Group 8156" transform="translate(11121 -6021)">
    <path id="Path_2567" data-name="Path 2567" class="cls-1" d="M.5.5h281v266H.5Z" transform="translate(42 2974.633)"/>
    <g id="Group_3197" data-name="Group 3197" transform="translate(-4 2262.633)">
      <text id="_4" data-name="4" class="cls-2" transform="translate(78 837)"><tspan x="99.193" y="35">4</tspan></text>
      <text id="Inspirational_keynote_speakers" data-name="Inspirational keynote  speakers" class="cls-3" transform="translate(85 885)"><tspan x="4.858" y="17" xml:space="preserve">Inspirational keynote  </tspan><tspan x="59.627" y="47">speakers</tspan></text>
    </g>
    <g id="Group_3202" data-name="Group 3202" transform="translate(141.016 3005.339)">
      <rect id="Rectangle_67" data-name="Rectangle 67" class="cls-4" width="15.005" height="2.792" transform="translate(-0.015 82.401) rotate(-45)"/>
      <path id="Path_2576" data-name="Path 2576" class="cls-4" d="M47.2,283.229l7,6.979,12.029-7.718L54.939,271.2Z" transform="translate(-37.523 -215.532)"/>
      <path id="Path_2577" data-name="Path 2577" class="cls-4" d="M44.6,337.693l3.428,3.428,1.437,1.437,1.293-1.273L45.893,336.4Z" transform="translate(-35.457 -267.348)"/>
      <rect id="Rectangle_68" data-name="Rectangle 68" class="cls-4" width="2.545" height="2.545" transform="translate(76.245 15.046)"/>
      <path id="Path_2578" data-name="Path 2578" class="cls-4" d="M374.045,88.7H371.5v2.361l.185.185h2.361Z" transform="translate(-295.255 -70.493)"/>
      <rect id="Rectangle_69" data-name="Rectangle 69" class="cls-4" width="2.545" height="2.545" transform="translate(79.406 11.885)"/>
      <rect id="Rectangle_70" data-name="Rectangle 70" class="cls-4" width="2.545" height="2.545" transform="translate(79.406 8.724)"/>
      <rect id="Rectangle_71" data-name="Rectangle 71" class="cls-4" width="2.545" height="2.545" transform="translate(63.621 18.207)"/>
      <rect id="Rectangle_72" data-name="Rectangle 72" class="cls-4" width="2.545" height="2.545" transform="translate(76.245 8.724)"/>
      <path id="Path_2579" data-name="Path 2579" class="cls-4" d="M340.7,108h2.2l-2.2-2.2Z" transform="translate(-270.778 -84.083)"/>
      <rect id="Rectangle_73" data-name="Rectangle 73" class="cls-4" width="2.545" height="2.545" transform="translate(60.46 18.207)"/>
      <rect id="Rectangle_74" data-name="Rectangle 74" class="cls-4" width="2.545" height="2.545" transform="translate(66.782 21.348)"/>
      <rect id="Rectangle_75" data-name="Rectangle 75" class="cls-4" width="2.545" height="2.545" transform="translate(63.621 21.348)"/>
      <rect id="Rectangle_76" data-name="Rectangle 76" class="cls-4" width="2.545" height="2.545" transform="translate(73.083 2.402)"/>
      <path id="Path_2580" data-name="Path 2580" class="cls-4" d="M297.145,14.266V11.7H294.6v2.381l.164.185Z" transform="translate(-234.14 -9.298)"/>
      <path id="Path_2581" data-name="Path 2581" class="cls-4" d="M300.165,27.1H298.4l1.765,1.765Z" transform="translate(-237.16 -21.537)"/>
      <rect id="Rectangle_77" data-name="Rectangle 77" class="cls-4" width="2.545" height="2.545" transform="translate(73.083 8.724)"/>
      <path id="Path_2582" data-name="Path 2582" class="cls-4" d="M279.2,46.4h2.2l-2.2-2.2Z" transform="translate(-221.902 -35.127)"/>
      <rect id="Rectangle_78" data-name="Rectangle 78" class="cls-4" width="2.545" height="2.545" transform="translate(57.298 11.885)"/>
      <rect id="Rectangle_79" data-name="Rectangle 79" class="cls-4" width="2.545" height="2.545" transform="translate(54.137 8.724)"/>
      <rect id="Rectangle_80" data-name="Rectangle 80" class="cls-4" width="2.545" height="2.545" transform="translate(60.46 15.046)"/>
      <path id="Path_2583" data-name="Path 2583" class="cls-4" d="M312.545,29.645V27.1H310v2.381l.164.164Z" transform="translate(-246.379 -21.537)"/>
      <rect id="Rectangle_81" data-name="Rectangle 81" class="cls-4" width="2.545" height="2.545" transform="translate(73.083 5.563)"/>
      <rect id="Rectangle_82" data-name="Rectangle 82" class="cls-4" width="2.545" height="2.545" transform="translate(66.782 5.563)"/>
      <rect id="Rectangle_83" data-name="Rectangle 83" class="cls-4" width="2.545" height="2.545" transform="translate(69.922 2.402)"/>
      <path id="Path_2584" data-name="Path 2584" class="cls-4" d="M327.576,92.6,325.4,90.4v2.2Z" transform="translate(-258.618 -71.844)"/>
      <path id="Path_2585" data-name="Path 2585" class="cls-4" d="M330.965,57.9H329.2l1.765,1.765Z" transform="translate(-261.638 -46.015)"/>
      <path id="Path_2586" data-name="Path 2586" class="cls-4" d="M346.365,75.065V73.3H344.6Z" transform="translate(-273.877 -58.254)"/>
      <rect id="Rectangle_84" data-name="Rectangle 84" class="cls-4" width="2.545" height="2.545" transform="translate(57.298 15.046)"/>
      <path id="Path_2587" data-name="Path 2587" class="cls-4" d="M310,77.2h2.2L310,75Z" transform="translate(-246.379 -59.605)"/>
      <path id="Path_2588" data-name="Path 2588" class="cls-4" d="M386.9,106.381l.185.185h2.361V104H386.9Z" transform="translate(-307.494 -82.652)"/>
      <path id="Path_2589" data-name="Path 2589" class="cls-4" d="M374.045,13.363a17.546,17.546,0,0,0-2.237-1.663H371.5v2.545h2.545Z" transform="translate(-295.255 -9.298)"/>
      <path id="Path_2590" data-name="Path 2590" class="cls-4" d="M386.9,27.1v2.545h2.545v-.287a15.561,15.561,0,0,0-1.663-2.258Z" transform="translate(-307.494 -21.537)"/>
      <path id="Path_2591" data-name="Path 2591" class="cls-4" d="M377.065,104H375.3l1.765,1.786Z" transform="translate(-298.275 -82.652)"/>
      <rect id="Rectangle_85" data-name="Rectangle 85" class="cls-4" width="2.545" height="2.545" transform="translate(69.922 8.724)"/>
      <path id="Path_2592" data-name="Path 2592" class="cls-4" d="M327.945,42.5H325.4v2.381l.164.164h2.381Z" transform="translate(-258.618 -33.776)"/>
      <rect id="Rectangle_86" data-name="Rectangle 86" class="cls-4" width="2.545" height="2.545" transform="translate(69.922 5.563)"/>
      <path id="Path_2593" data-name="Path 2593" class="cls-4" d="M294.6,59.6v2.2h2.2Z" transform="translate(-234.14 -47.366)"/>
      <path id="Path_2594" data-name="Path 2594" class="cls-4" d="M315.565,42.5H313.8l1.765,1.765Z" transform="translate(-249.399 -33.776)"/>
      <path id="Path_2595" data-name="Path 2595" class="cls-4" d="M358.666,73.3H356.1v2.361l.185.185h2.381Z" transform="translate(-283.017 -58.254)"/>
      <path id="Path_2596" data-name="Path 2596" class="cls-4" d="M361.765,88.7H360l1.765,1.765Z" transform="translate(-286.116 -70.493)"/>
      <path id="Path_2597" data-name="Path 2597" class="cls-4" d="M343.266,60.445V57.9H340.7v2.361l.185.185Z" transform="translate(-270.778 -46.015)"/>
      <rect id="Rectangle_87" data-name="Rectangle 87" class="cls-4" width="2.545" height="2.545" transform="translate(73.083 11.885)"/>
      <rect id="Rectangle_88" data-name="Rectangle 88" class="cls-4" width="2.545" height="2.545" transform="translate(76.245 11.885)"/>
      <path id="Path_2598" data-name="Path 2598" class="cls-4" d="M264.518,32.3c-.246.328-.493.677-.718,1.047V33.8H266Z" transform="translate(-209.663 -25.67)"/>
      <path id="Path_2599" data-name="Path 2599" class="cls-4" d="M283.414,121.535V119.4H281.3Z" transform="translate(-223.57 -94.891)"/>
      <path id="Path_2600" data-name="Path 2600" class="cls-4" d="M298.814,134.8H296.7l2.114,2.135Z" transform="translate(-235.809 -107.13)"/>
      <path id="Path_2601" data-name="Path 2601" class="cls-4" d="M268.014,106.135V104H265.9Z" transform="translate(-211.332 -82.652)"/>
      <rect id="Rectangle_89" data-name="Rectangle 89" class="cls-4" width="2.545" height="2.545" transform="translate(66.782 27.67)"/>
      <rect id="Rectangle_90" data-name="Rectangle 90" class="cls-4" width="2.545" height="2.545" transform="translate(63.621 27.67)"/>
      <path id="Path_2602" data-name="Path 2602" class="cls-4" d="M256.588,42.5a16.368,16.368,0,0,0-1.088,2.545h1.088Z" transform="translate(-203.066 -33.776)"/>
      <rect id="Rectangle_91" data-name="Rectangle 91" class="cls-4" width="2.545" height="2.545" transform="translate(69.922 27.67)"/>
      <path id="Path_2603" data-name="Path 2603" class="cls-4" d="M286.911,11.7h-.39a7.2,7.2,0,0,0-.821.554l1.211,1.211Z" transform="translate(-227.067 -9.298)"/>
      <rect id="Rectangle_92" data-name="Rectangle 92" class="cls-4" width="2.545" height="2.545" transform="translate(54.137 18.207)"/>
      <rect id="Rectangle_93" data-name="Rectangle 93" class="cls-4" width="2.545" height="2.545" transform="translate(54.137 15.046)"/>
      <rect id="Rectangle_94" data-name="Rectangle 94" class="cls-4" width="2.545" height="2.545" transform="translate(54.137 11.885)"/>
      <path id="Path_2604" data-name="Path 2604" class="cls-4" d="M253.886,57.9h-1.273a18.031,18.031,0,0,0-.513,2.545h1.765V57.9Z" transform="translate(-200.364 -46.015)"/>
      <path id="Path_2605" data-name="Path 2605" class="cls-4" d="M253.548,75.845V73.3h-1.827a17.556,17.556,0,0,0,0,2.545Z" transform="translate(-200.026 -58.254)"/>
      <path id="Path_2606" data-name="Path 2606" class="cls-4" d="M252.221,88.844a.609.609,0,0,0,.205.39l1.56,1.56V88.7H252.2A.35.35,0,0,0,252.221,88.844Z" transform="translate(-200.444 -70.493)"/>
      <path id="Path_2607" data-name="Path 2607" class="cls-4" d="M325.4,152.127a17.551,17.551,0,0,0,2.545,0V150.3H325.4Z" transform="translate(-258.618 -119.448)"/>
      <path id="Path_2608" data-name="Path 2608" class="cls-4" d="M327.945.062Q327.237,0,326.529,0c-.369,0-.759.021-1.129.041V1.786h2.545Z" transform="translate(-258.618)"/>
      <path id="Path_2609" data-name="Path 2609" class="cls-4" d="M340.7,151.986a15.112,15.112,0,0,0,2.545-.513V150.2H340.7Z" transform="translate(-270.778 -119.369)"/>
      <path id="Path_2610" data-name="Path 2610" class="cls-4" d="M312.1,150.2l1.56,1.56a.723.723,0,0,0,.39.205c.062,0,.1.021.164.021V150.2Z" transform="translate(-248.048 -119.369)"/>
      <path id="Path_2611" data-name="Path 2611" class="cls-4" d="M371.5,138.8h.452a11.535,11.535,0,0,0,1.026-.718L371.5,136.6Z" transform="translate(-295.255 -108.561)"/>
      <path id="Path_2612" data-name="Path 2612" class="cls-4" d="M387.064,22.744l-.144-.144H386.9v.328h.328C387.167,22.867,387.126,22.805,387.064,22.744Z" transform="translate(-307.494 -17.961)"/>
      <path id="Path_2613" data-name="Path 2613" class="cls-4" d="M356.1,151.288a16.366,16.366,0,0,0,2.545-1.088H356.1Z" transform="translate(-283.017 -119.369)"/>
      <path id="Path_2614" data-name="Path 2614" class="cls-4" d="M404.024,73.3H402.3v2.545h1.724A17.556,17.556,0,0,0,404.024,73.3Z" transform="translate(-319.733 -58.254)"/>
      <rect id="Rectangle_95" data-name="Rectangle 95" class="cls-4" width="2.545" height="2.545" transform="translate(57.298 18.207)"/>
      <rect id="Rectangle_96" data-name="Rectangle 96" class="cls-4" width="2.545" height="2.545" transform="translate(73.083 27.67)"/>
      <path id="Path_2615" data-name="Path 2615" class="cls-4" d="M356.1,123.4h2.2l-2.2-2.2Z" transform="translate(-283.017 -96.322)"/>
      <path id="Path_2616" data-name="Path 2616" class="cls-4" d="M392.011,120.632c.185-.267.369-.554.554-.842v-.39H390.8Z" transform="translate(-310.594 -94.891)"/>
      <path id="Path_2617" data-name="Path 2617" class="cls-4" d="M297.463,3.8A15.214,15.214,0,0,0,295,4.826h2.463Z" transform="translate(-234.458 -3.02)"/>
      <rect id="Rectangle_97" data-name="Rectangle 97" class="cls-4" width="2.545" height="2.545" transform="translate(63.621 24.509)"/>
      <rect id="Rectangle_98" data-name="Rectangle 98" class="cls-4" width="2.545" height="2.545" transform="translate(57.298 21.348)"/>
      <rect id="Rectangle_99" data-name="Rectangle 99" class="cls-4" width="2.545" height="2.545" transform="translate(60.46 21.348)"/>
      <path id="Path_2618" data-name="Path 2618" class="cls-4" d="M402.3,106.543a16.561,16.561,0,0,0,1.006-2.443H402.3Z" transform="translate(-319.733 -82.732)"/>
      <rect id="Rectangle_100" data-name="Rectangle 100" class="cls-4" width="2.545" height="2.545" transform="translate(60.46 24.509)"/>
      <rect id="Rectangle_101" data-name="Rectangle 101" class="cls-4" width="2.545" height="2.545" transform="translate(66.782 24.509)"/>
      <rect id="Rectangle_102" data-name="Rectangle 102" class="cls-4" width="2.545" height="2.545" transform="translate(69.922 24.509)"/>
      <path id="Path_2619" data-name="Path 2619" class="cls-4" d="M343.345,1.013A17.465,17.465,0,0,0,340.8.5V2.183h2.545Z" transform="translate(-270.857 -0.397)"/>
      <rect id="Rectangle_103" data-name="Rectangle 103" class="cls-4" width="2.545" height="2.545" transform="translate(66.782 2.402)"/>
      <path id="Path_2620" data-name="Path 2620" class="cls-4" d="M358.581,4.906A16.234,16.234,0,0,0,356.2,3.9V4.906Z" transform="translate(-283.096 -3.099)"/>
      <path id="Path_2621" data-name="Path 2621" class="cls-4" d="M312.545.5A17.43,17.43,0,0,0,310,.993V2.2h2.545Z" transform="translate(-246.379 -0.397)"/>
      <rect id="Rectangle_104" data-name="Rectangle 104" class="cls-4" width="2.545" height="2.545" transform="translate(63.621 2.402)"/>
      <path id="Path_2622" data-name="Path 2622" class="cls-4" d="M403.285,45.761A16.876,16.876,0,0,0,402.3,43.4v2.361Z" transform="translate(-319.733 -34.491)"/>
      <rect id="Rectangle_105" data-name="Rectangle 105" class="cls-4" width="2.545" height="2.545" transform="translate(79.406 18.207)"/>
      <rect id="Rectangle_106" data-name="Rectangle 106" class="cls-4" width="2.545" height="2.545" transform="translate(76.245 5.563)"/>
      <rect id="Rectangle_107" data-name="Rectangle 107" class="cls-4" width="2.545" height="2.545" transform="translate(79.406 15.046)"/>
      <path id="Path_2623" data-name="Path 2623" class="cls-4" d="M402.3,91.245h1.191a17.976,17.976,0,0,0,.493-2.545H402.3Z" transform="translate(-319.733 -70.493)"/>
      <path id="Path_2624" data-name="Path 2624" class="cls-4" d="M403.37,57.9H402.2v2.545h1.663A13.6,13.6,0,0,0,403.37,57.9Z" transform="translate(-319.654 -46.015)"/>
      <path id="Path_2625" data-name="Path 2625" class="cls-4" d="M270.412,14.1c-.965-.965-4.085,2.176-3.12,3.12l23.339,23.339c.78.78,3.9-2.34,3.12-3.12Z" transform="translate(-212.292 -11.058)"/>
      <path id="Path_2626" data-name="Path 2626" class="cls-4" d="M89.4,130.3l11.454,11.454,33.6-31.324,1.4-1.293L122.017,95.3Zm33.417-16.36-8.888,8.888a1.772,1.772,0,0,1-2.484,0l-3.1-3.1a1.772,1.772,0,0,1,0-2.484l8.888-8.888a1.772,1.772,0,0,1,2.484,0l3.1,3.1A1.772,1.772,0,0,1,122.817,113.938Z" transform="translate(-71.061 -75.738)"/>
      <rect id="Rectangle_108" data-name="Rectangle 108" class="cls-4" width="6.117" height="5.378" transform="translate(37.788 42.792) rotate(-45)"/>
      <rect id="Rectangle_109" data-name="Rectangle 109" class="cls-4" width="6.117" height="5.378" transform="translate(42.919 37.66) rotate(-45)"/>
    </g>
  </g>
</svg>
