<svg xmlns="http://www.w3.org/2000/svg" viewBox="11163 -3354.367 282 267">
  <defs>
    <style>
      .cls-1 {
        fill: rgba(255,255,255,0);
        stroke: #fff;
      }

      .cls-2, .cls-3, .cls-4 {
        fill: #fff;
      }

      .cls-2 {
        font-size: 36px;
        font-family: Sentinel-Medium, Sentinel;
        font-weight: 500;
      }

      .cls-3 {
        font-size: 22px;
        font-family: ProximaNova-Light, Proxima Nova;
        font-weight: 300;
      }
    </style>
  </defs>
  <g id="Group_8155" data-name="Group 8155" transform="translate(11121 -6021)">
    <path id="Path_2566" data-name="Path 2566" class="cls-1" d="M.5.5h281v266H.5Z" transform="translate(42 2666.633)"/>
    <g id="Group_3200" data-name="Group 3200" transform="translate(-4 1954.633)">
      <text id="_25" data-name="25" class="cls-2" transform="translate(78 837)"><tspan x="89.599" y="35">25</tspan></text>
      <text id="Solution_Innovators" data-name="Solution
Innovators" class="cls-3" transform="translate(85 885)"><tspan x="64.434" y="17">Solution</tspan><tspan x="53.522" y="47">Innovators</tspan></text>
    </g>
    <path id="Path_2568" data-name="Path 2568" class="cls-4" d="M65.5,84.328a5.155,5.155,0,0,1-3.812,1.684H38.232L52.1,61.925,48.381,59.7l4.654-4.934L47.89,50.232a73.767,73.767,0,0,1,7.834,1.754,11.788,11.788,0,0,1,8.559,9.565c.865,5.519,1.964,13.049,2.526,18.825A5.105,5.105,0,0,1,65.5,84.328ZM18.471,59.7l-4.654-4.934,5.145-4.537a73.766,73.766,0,0,0-7.834,1.754,11.788,11.788,0,0,0-8.559,9.565C1.7,67.046.581,74.6.02,80.376a5.141,5.141,0,0,0,5.121,5.659H28.574L14.729,61.925Zm32.155,2.6L36.992,86.012H33.929A131.9,131.9,0,0,0,43.681,58.44a40.3,40.3,0,0,1-4.35,6.735l-.514.631-1.66-3.274c-.4.959-1.193,2.619-2.175,3.087L37.3,75.652c-1.1,2.83-2.385,5.846-3.859,9-1.473-3.157-2.759-6.174-3.859-9L31.894,65.62c-.982-.468-1.777-2.128-2.175-3.087l-1.66,3.274-.538-.631a37.657,37.657,0,0,1-4.35-6.735,130.539,130.539,0,0,0,9.752,27.571H29.86L16.2,62.3l3.976-2.362-4.817-5.1,5.5-4.864,3.438-.865a19.037,19.037,0,0,0,1.333-4.817c-2.315-3.2-4.256-6.267-5.145-10.056a1.811,1.811,0,0,1-.935.257H18.354a1.8,1.8,0,0,1-1.8-1.8v-.561a1.79,1.79,0,0,1-1.52-1.777V18.264C15.01,6.548,21.839,0,33.414,0s18.4,6.548,18.4,18.264V30.378a1.808,1.808,0,0,1-1.52,1.777v.561a1.8,1.8,0,0,1-1.8,1.8H47.305a1.811,1.811,0,0,1-.935-.257c-.912,3.788-2.853,6.852-5.145,10.056a19.31,19.31,0,0,0,1.333,4.817L46,50l5.5,4.864-4.817,5.1ZM39,4.7a24.491,24.491,0,0,1,6.525,3.134A2.684,2.684,0,0,1,46.6,9.378a40.207,40.207,0,0,1,1.052,10.547h.865a1.81,1.81,0,0,1,1.731,1.31v-2.97c0-5.332-1.473-9.471-4.35-12.324a15.039,15.039,0,0,0-6.244-3.508v.094c-.094.561-.187,1.146-.281,1.707A.771.771,0,0,1,39,4.7ZM19.2,19.948A40.207,40.207,0,0,1,20.248,9.4a2.684,2.684,0,0,1,1.076-1.543,24.124,24.124,0,0,1,6.525-3.134.659.659,0,0,1-.351-.468c-.094-.561-.187-1.146-.281-1.707V2.455a14.894,14.894,0,0,0-6.244,3.508c-2.9,2.83-4.35,6.969-4.35,12.3v2.993a1.81,1.81,0,0,1,1.731-1.31Zm2.2,13.423c.818,3.812,2.689,6.782,4.817,9.869l.4.538a10.7,10.7,0,0,0,3.742,3.648h.023a11.73,11.73,0,0,0,3.04.257,12.9,12.9,0,0,0,3.04-.257h.023a10.92,10.92,0,0,0,3.742-3.648l.4-.538c2.1-3.087,4-6.057,4.817-9.869a2.645,2.645,0,0,0,1.894-2.549V23.1a2.659,2.659,0,0,0-2.1-2.6c-.468-3.2-1.263-5.566-2.432-5.846-2.97-.7-4.7.772-9.378.748-4.654.023-6.408-1.427-9.378-.748-1.169.281-1.964,2.643-2.432,5.846a2.679,2.679,0,0,0-2.1,2.6v7.717A2.7,2.7,0,0,0,21.394,33.371Zm9.167,25.093-6.08-8.3-2.572.655c.444,5.379,4.49,11.108,5.94,13Zm10.944-8.98a15.763,15.763,0,0,1-1.193-4.022c-1.123,1.4-2.5,2.783-3.788,3.087h0a15.56,15.56,0,0,1-3.11.234,15.56,15.56,0,0,1-3.11-.234h0c-1.286-.327-2.666-1.684-3.788-3.087a17.893,17.893,0,0,1-1.193,4.022l6.384,8.723c.514-.047,1.076-.094,1.707-.094a12.507,12.507,0,0,1,1.707.094Zm3.414,1.333-2.572-.655-6.08,8.3,2.713,5.379C40.43,61.925,44.476,56.219,44.92,50.817ZM43.049,28.6h-.468V29h.468a.191.191,0,0,0,.187-.21C43.26,28.671,43.166,28.6,43.049,28.6Zm3.461-5.5v7.717a1.876,1.876,0,0,1-1.871,1.871H22.166A1.876,1.876,0,0,1,20.3,30.822V23.1a1.876,1.876,0,0,1,1.871-1.871h22.5A1.871,1.871,0,0,1,46.51,23.1Zm-.8,0a1.048,1.048,0,0,0-1.052-1.052h-22.5A1.048,1.048,0,0,0,21.114,23.1v7.717a1.048,1.048,0,0,0,1.052,1.052h22.5a1.048,1.048,0,0,0,1.052-1.052Zm-.514,0v7.717a.529.529,0,0,1-.538.538h-22.5a.529.529,0,0,1-.538-.538V23.1a.529.529,0,0,1,.538-.538h22.5A.578.578,0,0,1,45.2,23.1Zm-20.673,1.66a.935.935,0,1,0-.935.935A.938.938,0,0,0,24.528,24.765Zm19.5,5.519-.491-.912a.623.623,0,0,0,.421-.608.684.684,0,0,0-.748-.678H41.389l-.444,1.473h-.023l-.444-1.473h-.748l.772,2.2h.818l.561-1.59v1.59h.7v-.8h.257l.4.8Z" transform="translate(150.004 2684.871)"/>
  </g>
</svg>
