<svg xmlns="http://www.w3.org/2000/svg" viewBox="11177 -4858 269 245.287">
  <defs>
    <style>
      .cls-1, .cls-2 {
        fill: #fff;
      }

      .cls-1 {
        font-size: 22px;
        font-family: ProximaNova-Light, Proxima Nova;
        font-weight: 300;
      }
    </style>
  </defs>
  <g id="Group_8155" data-name="Group 8155" transform="translate(11121 -6021)">
    <text id="This_year_Maritz_professionals_mentored_14_start-ups._" data-name="This year, Maritz professionals mentored 
14 start-ups. " class="cls-1" transform="translate(56 1247)"><tspan x="58.556" y="17">This year, Maritz </tspan><tspan x="22.487" y="43">professionals mentored </tspan><tspan x="79.027" y="69">14 start-ups. </tspan></text>
    <g id="Group_3187" data-name="Group 3187" transform="translate(166 1354)">
      <path id="Path_2555" data-name="Path 2555" class="cls-2" d="M131.512,172.856a3.413,3.413,0,0,0-2.448-.729,14.293,14.293,0,0,0-2.3.234c-.88.193-1.788.234-2.682.371a12.262,12.262,0,0,0-1.747.344,10.557,10.557,0,0,1-5.845,0,12.263,12.263,0,0,0-1.747-.344c-.894-.138-1.8-.179-2.682-.371a16.259,16.259,0,0,0-2.3-.234,3.477,3.477,0,0,0-2.448.729,1.394,1.394,0,0,0-.633,1.224c.028.454.1.908.151,1.348.014.083.11.165.165.261.316-.083.605-.151.922-.234a2.331,2.331,0,0,1,.234.316c.22.454.44.908.646,1.375.261.578.5,1.169.8,1.719a2.5,2.5,0,0,0,1.8,1.307,10.067,10.067,0,0,0,3.686.055,3.053,3.053,0,0,0,2.476-2.036,10.563,10.563,0,0,0,.468-2.132c.027-.179.027-.358.055-.523a1.344,1.344,0,0,1,2.572,0,3.37,3.37,0,0,1,.055.523,12.26,12.26,0,0,0,.468,2.132,3.072,3.072,0,0,0,2.489,2.036,10.067,10.067,0,0,0,3.686-.055,2.41,2.41,0,0,0,1.8-1.307c.3-.55.536-1.142.8-1.719.206-.454.426-.922.646-1.375a3.693,3.693,0,0,1,.234-.316c.316.083.605.151.922.234.069-.1.165-.165.165-.261a11.228,11.228,0,0,0,.151-1.348A1.2,1.2,0,0,0,131.512,172.856Zm-14.648,3.81a4,4,0,0,1-.935,1.994,3.419,3.419,0,0,1-2.462.55,3.976,3.976,0,0,1-2.379-.811c-.509-.426-3.108-4.112-1.774-4.388a12.951,12.951,0,0,1,2.531-.261,13.767,13.767,0,0,1,3.824.5A1.75,1.75,0,0,1,116.864,176.666Zm10.893,1.747a4.208,4.208,0,0,1-2.393.812,3.419,3.419,0,0,1-2.462-.55,4.122,4.122,0,0,1-.935-1.994,1.757,1.757,0,0,1,1.21-2.421,13.768,13.768,0,0,1,3.824-.5,14.228,14.228,0,0,1,2.531.261C130.866,174.286,128.28,177.972,127.758,178.412Z" transform="translate(-97.567 -154.577)"/>
      <path id="Path_2556" data-name="Path 2556" class="cls-2" d="M178.621,267.179a2.282,2.282,0,0,1-.523-.248c-.165-.11-.33-.248-.481-.371a3.325,3.325,0,0,0-1.224-.756,1.179,1.179,0,0,0-.784.041.816.816,0,0,0-.358.358h0a.788.788,0,0,0-.358-.344,1.1,1.1,0,0,0-.784-.041,3.327,3.327,0,0,0-1.224.757c-.041.041-.083.069-.124.11a2.716,2.716,0,0,1-.88.523,3.351,3.351,0,0,1-.481.124,12.108,12.108,0,0,1,1.678,1.334.7.7,0,0,1,.11.1,4.7,4.7,0,0,0,1.238.743,3.437,3.437,0,0,0,.619.165.909.909,0,0,0,.193.014h.041c.069,0,.124-.014.193-.014a2.585,2.585,0,0,0,.619-.165,4.36,4.36,0,0,0,1.238-.743c.193-.151.385-.316.564-.481a7.212,7.212,0,0,1,1.21-.949C178.923,267.275,178.7,267.206,178.621,267.179Z" transform="translate(-153.382 -235.338)"/>
      <path id="Path_2557" data-name="Path 2557" class="cls-2" d="M80.837,81.1a6.061,6.061,0,0,1-1.032-3.273,4.566,4.566,0,0,1,.083-.605c.248-.481.5-.949.7-1.4a16.328,16.328,0,0,0,1.21-3.631,18.415,18.415,0,0,0-.22-7.8,29.475,29.475,0,0,0-3.108-7.7c-.688-1.224-1.43-2.407-2.214-3.576A14.527,14.527,0,0,0,74.414,50.5a12.389,12.389,0,0,0-5.942-4.443A22.711,22.711,0,0,0,66,45.233a21.515,21.515,0,0,0-3.549-.633,21.776,21.776,0,0,0-3.549.633c-3.411.922-7.028,2.792-8.94,5.887-.481.633-.894,1.389-1.293,1.994-.784,1.169-1.527,2.352-2.214,3.576a29.008,29.008,0,0,0-3.108,7.7,17.987,17.987,0,0,0-.22,7.8,16.565,16.565,0,0,0,1.21,3.631c.206.454.468.922.7,1.4a4.275,4.275,0,0,1,.083.605A6.135,6.135,0,0,1,44.086,81.1c-.564,1.018-1.128,2.022-1.609,3.067A22.512,22.512,0,0,0,40.4,90.456c0,.014.014.014.014,0a18.561,18.561,0,0,1,3.521-6.341c.8-1,1.774-2.049,2.531-3.2-.028.055-.041.11-.069.179-.1.124-.179.261-.275.371a30.006,30.006,0,0,0-2.957,4.36c-.069.083-.138.179-.206.261a8.255,8.255,0,0,0-1.375,3.191,13.264,13.264,0,0,0-.248,2.9q-.041.516-.041,1.032a6.012,6.012,0,0,1,.674-.646c1.733-1.4,4.291-1.774,6.561-2.2a29.748,29.748,0,0,0,3.672-.88,7.527,7.527,0,0,0,3.328-2.063,7.382,7.382,0,0,0,1.719-4.979c0-.358,0-.715-.027-1.073-.014-.206-.028-.4-.041-.591A14.366,14.366,0,0,1,56,79.7a19.682,19.682,0,0,1-3.961-6.011,28.841,28.841,0,0,1-1.32-3.7,4.068,4.068,0,0,1-2.1-2.71c-.138-.756.151-1.9,1.2-1.513-.22-1.4-.371-2.82-.454-4.236a6.938,6.938,0,0,0,3.04.935,7.734,7.734,0,0,0,1.692-.028l.3.041c.275.028.55.041.825.055a12.43,12.43,0,0,0,6.918-1.816c.055-.028.1-.069.151-.1a10.633,10.633,0,0,0,2.778-3.3c-.1.385-.22.77-.344,1.142a6.163,6.163,0,0,1-2.434,3.521,1.025,1.025,0,0,1-.165.1V62.1a.841.841,0,0,0,.165-.069,6.666,6.666,0,0,0,3-2.971,10.494,10.494,0,0,0,.853-1.981A8.864,8.864,0,0,0,68.376,59.4a11.6,11.6,0,0,0,2.379,1.362c1.582.688,3.411,1.059,4.47.261-.083,1.582-.248,3.163-.481,4.731,1.045-.385,1.32.756,1.2,1.513a4.1,4.1,0,0,1-2.1,2.71,26.9,26.9,0,0,1-1.32,3.7,19.356,19.356,0,0,1-3.961,6.011c-.371.371-.77.729-1.169,1.059-.014.206-.041.426-.055.646v.138c-.014.248-.014.509-.014.756A7.5,7.5,0,0,0,69.036,87.4a7.652,7.652,0,0,0,3.328,2.063,30.357,30.357,0,0,0,3.672.88c2.269.44,4.828.8,6.561,2.2a5.37,5.37,0,0,1,1.073,1.169,14.4,14.4,0,0,0-.041-1.54,12.47,12.47,0,0,0-.248-2.9,8.468,8.468,0,0,0-1.375-3.191c-.069-.1-.138-.179-.206-.261a30.009,30.009,0,0,0-2.957-4.36c-.1-.124-.179-.248-.275-.371-.028-.055-.041-.11-.069-.179.743,1.142,1.733,2.187,2.531,3.2a18.562,18.562,0,0,1,3.521,6.341c0,.014.014,0,.014,0a22.513,22.513,0,0,0-2.077-6.286C81.965,83.125,81.387,82.121,80.837,81.1Z" transform="translate(-40.4 -44.6)"/>
      <path id="Path_2558" data-name="Path 2558" class="cls-2" d="M108.176,377.9c-2.2,1.073-4.291,2.421-6.519,3.425a36.546,36.546,0,0,1-8.074,2.558,36.057,36.057,0,0,1-8.074-2.558c-2.214-.99-4.319-2.352-6.519-3.425-.825.151-1.678.316-2.489.536.743,1.21,1.458,2.434,2.1,3.7a28.839,28.839,0,0,1,1.678,4.209h26.6a29.471,29.471,0,0,1,1.678-4.209c.633-1.265,1.362-2.49,2.1-3.7C109.854,378.216,109,378.051,108.176,377.9Z" transform="translate(-71.535 -332.058)"/>
    </g>
    <g id="Group_3188" data-name="Group 3188" transform="translate(162 1163)">
      <path id="Path_2559" data-name="Path 2559" class="cls-2" d="M2589.444,171.083c-.724-.065-1.46-.09-2.2-.09a32.247,32.247,0,0,0-4.742.31c-.8.116-1.589.245-2.377.413a7.808,7.808,0,0,1-1.886.258,8.611,8.611,0,0,1-1.887-.258c-.788-.168-1.576-.31-2.377-.413a32.477,32.477,0,0,0-4.742-.31c-.736,0-1.46.026-2.2.09H2567v.065c.039.336.077.685.116,1.021.026.258.064.53.1.788h0v.026l.078.039a2.152,2.152,0,0,1,.827,1.047,5.993,5.993,0,0,0,.685,1.305,4.628,4.628,0,0,0,2.042,1.46,10.186,10.186,0,0,0,3.166.543,3.823,3.823,0,0,0,1.486-.078,1.768,1.768,0,0,0,.917-.788,9.254,9.254,0,0,0,.607-1.37c.245-.556.529-1.072,1.188-1.15.659.078.93.594,1.189,1.15a12.958,12.958,0,0,0,.607,1.37,1.828,1.828,0,0,0,.917.788,4.1,4.1,0,0,0,1.486.078,10.118,10.118,0,0,0,3.166-.543,4.625,4.625,0,0,0,2.042-1.46,6.281,6.281,0,0,0,.685-1.305,2.28,2.28,0,0,1,.827-1.047l.078-.039v-.026h0c.039-.258.065-.53.1-.788.039-.336.077-.685.116-1.021a.114.114,0,0,1,.013-.065Zm-12.87,3.463a4.552,4.552,0,0,1-.62,1.744,2.05,2.05,0,0,1-1.783.465,8.91,8.91,0,0,1-3.812-.724,3.136,3.136,0,0,1-1.5-1.731,6.1,6.1,0,0,1-.284-1.163c-.026-.194-.052-.388-.077-.594-.026-.271-.1-.53.181-.685a1.075,1.075,0,0,1,.607-.078c.4.026.788.065,1.188.1.8.065,1.589.129,2.391.207s1.6.155,2.39.258c.7.09,1.473.3,1.473,1.15A4.645,4.645,0,0,1,2576.574,174.546Zm11.422-1.99c-.025.194-.039.388-.077.594a5.873,5.873,0,0,1-.284,1.163,3.232,3.232,0,0,1-1.5,1.731,9.109,9.109,0,0,1-3.812.724,2.09,2.09,0,0,1-1.783-.465,4.552,4.552,0,0,1-.62-1.744,4.643,4.643,0,0,1-.155-1.021c0-.853.775-1.06,1.473-1.15.8-.1,1.6-.194,2.39-.258s1.589-.142,2.391-.207c.388-.039.788-.078,1.188-.1a1.219,1.219,0,0,1,.607.078C2588.1,172.026,2588.022,172.3,2588,172.556Z" transform="translate(-2552.296 -148.898)"/>
      <path id="Path_2560" data-name="Path 2560" class="cls-2" d="M2505.091,375.862a5.865,5.865,0,0,0-.595-1.964c-.09-.181-.194-.362-.3-.543a9.116,9.116,0,0,0-.53-.775,10.567,10.567,0,0,0-4.328-3.2c-.3-.116-.582-.22-.879-.31a15.7,15.7,0,0,0-3.01-.581l-.31-.039h-.065c-.1-.013-.207-.013-.31-.026h-.065c-.1,0-.194-.013-.3-.013H2493.4a11.82,11.82,0,0,1-3.915-.207.564.564,0,0,0-.077.09c-2.106,3.76-6.2,6.344-10.247,7.985h0c-4.057-1.654-8.153-4.225-10.259-7.985a.549.549,0,0,1-.077-.09c-.013,0-.026,0-.026.013-.052.013-.1.039-.155.052-.026,0-.039.013-.065.013l-.155.039c-.026,0-.052.013-.077.013-.052.013-.091.013-.142.026-.026,0-.064.013-.091.013s-.078.013-.116.013-.077.013-.116.013a.164.164,0,0,0-.078.013,19.68,19.68,0,0,1-2.894,0H2463.9a2.2,2.2,0,0,0-.3.013h-.065a2.513,2.513,0,0,0-.31.026h-.065l-.31.039a15.7,15.7,0,0,0-3.01.581c-.142.039-.284.09-.439.142h-.013c-.142.052-.284.1-.439.168a10.458,10.458,0,0,0-1.215.581.013.013,0,0,0-.013.013l-.271.155c-.013.013-.026.013-.039.026-.077.052-.168.1-.245.155a.1.1,0,0,1-.052.026l-.232.155c-.013.013-.039.026-.052.039-.078.052-.142.1-.22.155-.026.013-.039.026-.065.039-.064.052-.142.1-.207.155-.025.013-.039.039-.064.052l-.194.155c-.026.013-.039.039-.065.052-.064.052-.129.116-.193.168-.026.013-.039.039-.065.052a2.476,2.476,0,0,0-.194.181l-.052.052a2.466,2.466,0,0,1-.194.181l-.052.052c-.065.065-.129.142-.194.207-.013.013-.026.026-.026.039q-.233.252-.426.5c-.091.116-.168.233-.246.349a.283.283,0,0,1-.051.065c-.078.116-.155.233-.233.362-.1.181-.207.362-.3.543-.013.013-.013.026-.026.039-.039.077-.065.142-.1.22-.013.039-.025.065-.039.1a.658.658,0,0,0-.065.168l-.039.116c-.013.052-.039.1-.052.155l-.039.116c-.013.052-.039.1-.052.155a.37.37,0,0,0-.026.116c-.013.052-.026.116-.039.168s-.013.078-.026.116c-.013.065-.026.129-.039.181,0,.026-.013.065-.013.09-.013.091-.026.194-.039.284h0a7.822,7.822,0,0,0,4.561,1.447h42.769a7.915,7.915,0,0,0,4.561-1.447Z" transform="translate(-2453.2 -320.625)"/>
      <path id="Path_2561" data-name="Path 2561" class="cls-2" d="M2541.991,14.652v.013c0,.181.013.349.013.53v.026c.039.814.09,1.615.116,2.377,0,.207.013.413.013.62s.013.413.013.62q.02.62.039,1.24.019.31.039.62c.039.62.1,1.24.194,1.848A4.106,4.106,0,0,0,2543.5,24.9a1.018,1.018,0,0,1,.827-.194c.052.258.1.5.181.762a6.945,6.945,0,0,0,.62,1.538c.09.155.181.31.284.452.026.039.116.065.142,0v-.013a5.153,5.153,0,0,0,.336-2.029c0-.426-.013-.853-.013-1.279,0-1.266.013-2.52,0-3.786a14,14,0,0,1,.155-3.45,3.717,3.717,0,0,1,1.822-2.184,19.3,19.3,0,0,1,2.778-1.512,5.3,5.3,0,0,1,1.409-.375,2.715,2.715,0,0,0,.426.142,10.27,10.27,0,0,0,1.589.711,15.649,15.649,0,0,0,1.525.413,3.821,3.821,0,0,0,.659.078.356.356,0,0,0,.116.013,6.273,6.273,0,0,0,1.473.09,6.656,6.656,0,0,0,3.566-1.305,5.016,5.016,0,0,1,.7.245,17.517,17.517,0,0,1,2.778,1.512,3.679,3.679,0,0,1,1.822,2.184,13.407,13.407,0,0,1,.155,3.45c-.013,1.266,0,2.52,0,3.786,0,.426-.013.853-.013,1.279a5.2,5.2,0,0,0,.335,2.029v.013c.026.065.1.039.143,0a5.271,5.271,0,0,0,.284-.452,6.582,6.582,0,0,0,.621-1.538c.064-.258.129-.5.181-.762a1,1,0,0,1,.827.194,4.148,4.148,0,0,0,1.085-2.352,17.591,17.591,0,0,0,.194-1.848c.039-.62.051-1.24.078-1.861,0-.207.013-.413.013-.62s.013-.413.013-.62c.026-.762.077-1.563.116-2.377v-.026c.013-.181.013-.349.013-.53v-.013c0-.181.013-.362.013-.543v-.284a9.933,9.933,0,0,0-.775-4.186c-.078-.155-.155-.323-.246-.478-.039-.078-.09-.142-.129-.22a12.394,12.394,0,0,0-5.814-4.367,5.714,5.714,0,0,0-.465-1.085,7.03,7.03,0,0,0-1.731-2.029,6.384,6.384,0,0,0-2.287-1.111c-.013,0-.026.013-.013.026a7,7,0,0,1,2.391,2.261c-.039-.026-.064-.052-.1-.078-.336-.258-4.432-2.507-4.38-2.571a5.491,5.491,0,0,1-2.339,1.809c-.168.09-.349.168-.517.245.4-.362.789-.736,1.15-1.124.077-.078-.026-.22-.117-.155-1.46.93-2.894,1.9-4.393,2.778-.4.233-.814.465-1.214.7-2.623.917-5.349,2.52-6.719,4.7-.039.065-.09.142-.129.22-.09.155-.168.31-.246.478a9.437,9.437,0,0,0-.762,3.6v.052c0,.168-.013.349-.013.517v.284A1.709,1.709,0,0,1,2541.991,14.652Z" transform="translate(-2530.439 0)"/>
      <path id="Path_2562" data-name="Path 2562" class="cls-2" d="M2595.924,239.57c-.09.155-.207.22-.284.375-.478.956-.491,1.938-1.176,2.83a11.471,11.471,0,0,1-2.119,2,8.492,8.492,0,0,1-1.163.749v-.155a4.026,4.026,0,0,0-1.047-2.726c-.865-.659-2.3-.62-3.321-.633h-1.447c-1.034.013-2.455-.026-3.321.633a3.963,3.963,0,0,0-1.047,2.726v.155a6.394,6.394,0,0,1-1.163-.749,12.384,12.384,0,0,1-2.119-2c-.685-.9-.7-1.874-1.176-2.83-.078-.142-.194-.22-.284-.375a.063.063,0,0,0-.116.013,3.105,3.105,0,0,1-.142.362v.026c.078.323.142.659.22.982,0,.013,0,.026.013.026l.078.31c.013.039.013.065.026.1.025.078.039.168.064.246a.382.382,0,0,1,.026.129c.013.078.039.142.052.22.013.039.026.09.039.129.013.065.039.142.052.207s.026.09.039.142.039.129.051.207c.013.052.026.1.039.142a1.136,1.136,0,0,0,.065.194c.013.052.026.1.039.142.026.065.039.129.064.194a.469.469,0,0,0,.052.142c.026.065.039.129.065.194s.039.09.052.142l.077.194c.013.052.039.09.052.142s.052.129.077.207c.013.039.039.09.052.129.026.078.064.142.09.22a.259.259,0,0,0,.052.1c.052.1.1.22.155.323a10.83,10.83,0,0,0,1.693,2.416c.039.052.091.1.129.155.091.1.181.194.259.3a13.545,13.545,0,0,0,1.873,2.067,4.854,4.854,0,0,0,2.765.917c.194.013.4.013.594.026.4.013.8,0,1.2.013h0c.4,0,.8,0,1.2-.013.194,0,.4-.013.595-.026a4.731,4.731,0,0,0,2.765-.917,13.545,13.545,0,0,0,1.873-2.067c.091-.1.168-.207.259-.3.039-.052.09-.1.129-.155a10.967,10.967,0,0,0,1.693-2.416v-.013a3.3,3.3,0,0,0,.142-.31.467.467,0,0,1,.052-.116c.026-.078.065-.142.091-.22.013-.039.039-.09.052-.129l.078-.194c.013-.052.039-.09.052-.142l.078-.194c.013-.052.039-.09.052-.142s.039-.129.065-.194a.469.469,0,0,1,.052-.142c.026-.065.039-.129.065-.194s.026-.1.039-.142a1.1,1.1,0,0,0,.052-.194c.013-.052.025-.1.039-.142.013-.065.039-.129.052-.194s.026-.1.039-.142c.013-.065.039-.142.052-.207s.026-.09.039-.142c.013-.078.039-.142.052-.22a.468.468,0,0,0,.026-.129,1.415,1.415,0,0,0,.052-.246c.013-.039.013-.065.026-.1a2.643,2.643,0,0,0,.064-.31.047.047,0,0,1,.013-.039l.232-1.008h0a3.115,3.115,0,0,1-.142-.362C2596.04,239.531,2595.963,239.519,2595.924,239.57Zm-13.231,4.2c.814-.452,2.158-.181,3.036-.142.116,0,.232.013.362.026h0c.116-.013.232-.013.362-.026.892-.039,2.223-.31,3.037.142.736.4,1.111,2.3.956,3.385a1.558,1.558,0,0,1-.181.569c-.452.737-1.835.892-2.61,1.06a8.386,8.386,0,0,1-.995.129c-.194.013-.375.013-.569.013h0c-.194,0-.375,0-.568-.013a6.354,6.354,0,0,1-1-.129c-.775-.168-2.158-.323-2.61-1.06a1.553,1.553,0,0,1-.181-.569C2581.569,246.057,2581.956,244.17,2582.693,243.77Z" transform="translate(-2560.133 -208.586)"/>
    </g>
  </g>
</svg>
