<svg xmlns="http://www.w3.org/2000/svg" viewBox="-1116 -857 224.146 282"><defs><style>.a,.d{fill:#ffcd36;}.a,.e{font-size:36px;font-family:Sentinel-Medium, Sentinel;}.a,.d,.e{font-weight:500;}.b,.c,.e{fill:#fff;}.c,.d{font-size:16px;}.c{font-family:ProximaNova-Light, Proxima Nova;font-weight:300;}.d{font-family:ProximaNova-Medium, Proxima Nova;}</style></defs><g transform="translate(-1184 -6026.864)"><text class="a" transform="translate(184 5169.864)"><tspan x="6.283" y="35">86.8%</tspan></text><path class="b" d="M38.24,42.657h0l-.116-1.279a1.474,1.474,0,0,0-.116-.7L24.292,9.88V9.763L20.457,1.046A1.968,1.968,0,0,0,18.829,0,1.968,1.968,0,0,0,17.2,1.046L13.483,9.763V9.88L.232,40.913a1.474,1.474,0,0,0-.116.7v1.162L0,42.889.465,150.868l38.24.93ZM14.761,15.342c1.046,2.325,2.441,3.836,4.184,3.836,1.627,0,3.138-1.511,4.184-3.836,4.184,9.3,9.88,21.968,11.391,25.338-1.627,1.627-5.114,5.23-6.509,6.625H27.9v-.232l-8.717-10-8.717,10v.232C9.066,45.911,5.579,42.424,3.836,40.8,5.579,36.729,10.926,24.409,14.761,15.342Z" transform="translate(212 5225.813)"/><path class="b" d="M12.72,164.72l13.948-.116a12.1,12.1,0,0,0,12.088-12.2l-.116-16.97L.4,134.5l.116,18.016A12.129,12.129,0,0,0,12.72,164.72Z" transform="translate(212.065 5247.644)"/><path class="b" d="M38.24,42.657h0l-.116-1.279a1.474,1.474,0,0,0-.116-.7L24.292,9.88V9.763L20.457,1.046A1.968,1.968,0,0,0,18.829,0,1.968,1.968,0,0,0,17.2,1.046L13.483,9.763V9.88L.232,40.913a1.474,1.474,0,0,0-.116.7v1.162L0,42.889l.465,87.057,38.24.93ZM14.761,15.342c1.046,2.325,2.441,3.836,4.184,3.836,1.627,0,3.138-1.511,4.184-3.836,4.184,9.3,9.88,21.968,11.391,25.338-1.627,1.627-5.114,5.23-6.509,6.625H27.9v-.232l-8.717-10-8.717,10v.232C9.066,45.911,5.579,42.424,3.836,40.8,5.579,36.729,10.926,24.409,14.761,15.342Z" transform="translate(107.278 5246.735)"/><path class="b" d="M12.72,146.72l13.948-.116a12.1,12.1,0,0,0,12.088-12.2l-.116-16.97L.4,116.5l.116,18.016A12.129,12.129,0,0,0,12.72,146.72Z" transform="translate(107.343 5265.644)"/><text class="c" transform="translate(96 5421.864)"><tspan x="14.664" y="13">2013</tspan></text><text class="d" transform="translate(203 5421.864)"><tspan x="13.72" y="13">2016</tspan></text><text class="e" transform="translate(68 5185.864)"><tspan x="21.259" y="35">81%</tspan></text></g></svg>