<svg xmlns="http://www.w3.org/2000/svg" xmlns:xlink="http://www.w3.org/1999/xlink" viewBox="-1151 32 310 280"><defs><style>.a{fill:none;}.b{clip-path:url(#a);}.c,.d{fill:#fff;}.d{font-size:36px;font-family:Sentinel-Medium, Sentinel;font-weight:500;}.e{clip-path:url(#b);}</style><clipPath id="a"><path class="a" d="M0-623.121H142v158.255H0Z" transform="translate(0 623.121)"/></clipPath><clipPath id="b"><path class="a" d="M0-51.213H200V-8.5H0Z" transform="translate(0 51.213)"/></clipPath></defs><g transform="translate(-1184 -6026.864)"><g transform="translate(117 6058.864)"><g class="b"><g transform="translate(71.424 27.907)"><path class="c" d="M-10.67-5.334a1.816,1.816,0,0,1-1.816,1.816A1.816,1.816,0,0,1-14.3-5.334,1.816,1.816,0,0,1-12.487-7.15,1.816,1.816,0,0,1-10.67-5.334" transform="translate(14.303 7.15)"/></g><g transform="translate(91.145 23.913)"><path class="c" d="M-14-7a2.383,2.383,0,0,1-2.383,2.383A2.383,2.383,0,0,1-18.764-7a2.383,2.383,0,0,1,2.383-2.383A2.382,2.382,0,0,1-14-7" transform="translate(18.764 9.381)"/></g><g transform="translate(73.312 10.846)"><path class="c" d="M-14-7a2.383,2.383,0,0,1-2.383,2.383A2.383,2.383,0,0,1-18.766-7,2.383,2.383,0,0,1-16.383-9.38,2.382,2.382,0,0,1-14-7" transform="translate(18.766 9.38)"/></g><g transform="translate(83.241 28.656)"><path class="c" d="M-6.27-3.135A1.068,1.068,0,0,1-7.337-2.067,1.067,1.067,0,0,1-8.4-3.135,1.067,1.067,0,0,1-7.337-4.2,1.067,1.067,0,0,1-6.27-3.135" transform="translate(8.404 4.202)"/></g><g transform="translate(81.776 33.315)"><path class="c" d="M-8.609-4.305A1.465,1.465,0,0,1-10.075-2.84,1.465,1.465,0,0,1-11.54-4.305a1.465,1.465,0,0,1,1.465-1.466A1.465,1.465,0,0,1-8.609-4.305" transform="translate(11.54 5.771)"/></g><g transform="translate(91.545 33.275)"><path class="c" d="M-7.721-3.86A1.314,1.314,0,0,1-9.035-2.546,1.314,1.314,0,0,1-10.349-3.86,1.314,1.314,0,0,1-9.035-5.174,1.314,1.314,0,0,1-7.721-3.86" transform="translate(10.349 5.174)"/></g><g transform="translate(77.331 37.335)"><path class="c" d="M-7.721-3.86A1.314,1.314,0,0,1-9.035-2.546,1.314,1.314,0,0,1-10.349-3.86,1.314,1.314,0,0,1-9.035-5.174,1.314,1.314,0,0,1-7.721-3.86" transform="translate(10.349 5.174)"/></g><g transform="translate(48.226 33.275)"><path class="c" d="M-8.849-4.425a1.506,1.506,0,0,1-1.506,1.506,1.506,1.506,0,0,1-1.506-1.506,1.507,1.507,0,0,1,1.506-1.507A1.506,1.506,0,0,1-8.849-4.425" transform="translate(11.862 5.932)"/></g><g transform="translate(61.474 33.707)"><path class="c" d="M-11.842-5.921a2.016,2.016,0,0,1-2.016,2.016,2.016,2.016,0,0,1-2.015-2.016,2.015,2.015,0,0,1,2.015-2.016,2.015,2.015,0,0,1,2.016,2.016" transform="translate(15.874 7.937)"/></g><g transform="translate(49.918 20.339)"><path class="c" d="M-17.617-8.808a3,3,0,0,1-3,3,3,3,0,0,1-3-3,3,3,0,0,1,3-3,3,3,0,0,1,3,3" transform="translate(23.614 11.807)"/></g><g transform="translate(55.729 29.723)"><path class="c" d="M-10.877-5.439a1.852,1.852,0,0,1-1.852,1.851A1.851,1.851,0,0,1-14.58-5.439,1.851,1.851,0,0,1-12.729-7.29a1.852,1.852,0,0,1,1.852,1.851" transform="translate(14.58 7.29)"/></g><g transform="translate(62.115 23.337)"><path class="c" d="M-10.878-5.439A1.852,1.852,0,0,1-12.73-3.587a1.852,1.852,0,0,1-1.851-1.851A1.852,1.852,0,0,1-12.73-7.29a1.852,1.852,0,0,1,1.852,1.851" transform="translate(14.581 7.29)"/></g><g transform="translate(61.042 11.593)"><path class="c" d="M-17.183-8.592a2.925,2.925,0,0,1-2.925,2.925,2.925,2.925,0,0,1-2.924-2.925,2.925,2.925,0,0,1,2.924-2.925,2.925,2.925,0,0,1,2.925,2.925" transform="translate(23.033 11.517)"/></g><g transform="translate(71.277 0)"><path class="c" d="M-21.175-10.588a3.6,3.6,0,0,1-3.6,3.6,3.6,3.6,0,0,1-3.6-3.6,3.6,3.6,0,0,1,3.6-3.6,3.6,3.6,0,0,1,3.6,3.6" transform="translate(28.384 14.192)"/></g><g transform="translate(74.846 19.163)"><path class="c" d="M-18.992-9.495a3.232,3.232,0,0,1-3.233,3.233,3.233,3.233,0,0,1-3.233-3.233,3.233,3.233,0,0,1,3.233-3.232,3.232,3.232,0,0,1,3.233,3.232" transform="translate(25.457 12.727)"/></g><g transform="translate(84.832 20.68)"><path class="c" d="M-10.081-5.041A1.716,1.716,0,0,1-11.8-3.325a1.716,1.716,0,0,1-1.716-1.716A1.716,1.716,0,0,1-11.8-6.757a1.716,1.716,0,0,1,1.716,1.716" transform="translate(13.513 6.757)"/></g><g transform="translate(0 35.827)"><path class="c" d="M-162.838-112.115s-23.409,18-29.612,8.033c0,0-1.67,21.227,4.771,24.356a2.848,2.848,0,0,0,1.9,0c4.319-1.138,13.166-9.336,22.942-32.389m-43.186,71.472c6.339-2.6,7.058-10.036,8.879-15.814,1.644-5.214,3.1-10.481,4.606-15.74a23.8,23.8,0,0,0,1.156-5.079,7.1,7.1,0,0,0-.869-3.346,27.555,27.555,0,0,1-2.258-7.243,56.1,56.1,0,0,1-.637-10.968,113.276,113.276,0,0,1,3.656-23.821,195.421,195.421,0,0,1,6.021-19.531c.991-2.721,2.012-5.442,3.167-8.1l30.149,9.386c-.556,2.842-1.259,5.662-1.989,8.465a195.182,195.182,0,0,1-6.13,19.5,113.131,113.131,0,0,1-10.511,21.687,56.156,56.156,0,0,1-6.748,8.67A27.652,27.652,0,0,1-183.5-77.9a7.093,7.093,0,0,0-2.613,2.262,23.912,23.912,0,0,0-1.933,4.837c-1.748,5.181-3.536,10.347-5.142,15.573-1.779,5.79-5.408,12.32-1.664,18.059,1.632,2.5,8.422,6.271,9.288,7.475,0,0,.417.444.337.7-.941,3.022-13.286-1.4-17.363-2.669-4.641-1.45-15.152-4.424-15.673-7.618-.068-.414.418-.682.666-.794.8-.357,8.872.541,11.577-.57" transform="translate(218.273 150.283)"/></g><g transform="translate(72.74 35.723)"><path class="c" d="M-120.784-113.345s-4.648.2-9.464,6.128-15.571,2.65-18.336-.848c0,0,14.6,28.736,23.093,25.689,7.68-2.757,6.712-18.219,4.707-30.969m15.494,70.652c2.8,1.031,11.391-.069,12.217.265a.617.617,0,0,1,.42.727c-.5,3.219-11.585,6.63-16.075,8.123-4.192,1.394-16.867,6.215-17.87,3.214-.084-.254.341-.714.341-.714.88-1.232,7.839-5.221,9.494-7.782,3.8-5.873-.014-12.31-1.911-18.062-1.712-5.194-3.61-10.319-5.469-15.462a23.061,23.061,0,0,0-2.045-4.791,7.064,7.064,0,0,0-2.718-2.188,27.622,27.622,0,0,1-6.207-4.511,55.013,55.013,0,0,1-7.051-8.487,109.768,109.768,0,0,1-11.069-21.429,188.988,188.988,0,0,1-6.528-19.367c-.782-2.789-1.537-5.6-2.141-8.429l30.978-10.343c1.22,2.628,2.3,5.326,3.352,8.025a189.033,189.033,0,0,1,6.417,19.4,109.792,109.792,0,0,1,4.025,23.78,54.977,54.977,0,0,1-.538,11.021,27.552,27.552,0,0,1-2.249,7.335,7.065,7.065,0,0,0-.86,3.382,23.016,23.016,0,0,0,1.247,5.058c1.6,5.228,3.166,10.466,4.917,15.645,1.939,5.738,2.761,13.175,9.323,15.588" transform="translate(161.903 151.932)"/></g></g></g><text class="d" transform="translate(33 6284.864)"><tspan x="48.242" y="35">Collaborative</tspan></text><g transform="translate(173 6241.864)"><g class="e" transform="translate(-83 0)"><g transform="translate(0 0)"><path class="c" d="M-.3-5.086A18.809,18.809,0,0,0,7.876-3.054c3.386,0,5.175-1.4,5.175-3.531,0-2.031-1.548-3.192-5.466-4.6-5.417-1.886-8.948-4.884-8.948-9.624,0-5.562,4.643-9.819,12.334-9.819a19.972,19.972,0,0,1,8.319,1.645L17.646-23.03a15.509,15.509,0,0,0-6.82-1.548c-3.192,0-4.74,1.451-4.74,3.144,0,2.08,1.838,3,6.046,4.595,5.756,2.128,8.464,5.127,8.464,9.721,0,5.466-4.208,10.11-13.156,10.11A21.347,21.347,0,0,1-1.8,1.009Z" transform="translate(1.798 30.624)"/></g><g transform="translate(24.909 0.533)"><path class="c" d="M-1.743-1.233H-10.5V-7.424H14.556v6.191h-8.9V25.175h-7.4Z" transform="translate(10.498 7.424)"/></g><g transform="translate(52.914 0.532)"><path class="c" d="M-3.862-3.747h-12V3.991h13.4v6.046h-20.8v-32.6h20.12v6.046H-15.858v6.772h12Z" transform="translate(23.257 22.562)"/></g><g transform="translate(78.017 0.533)"><path class="c" d="M-5.634-4.007c-.145-3.917-.29-8.658-.29-13.4H-6.07C-7.085-13.244-8.44-8.6-9.7-4.781L-13.664,7.94h-5.755L-22.9-4.684c-1.063-3.821-2.176-8.464-2.95-12.72h-.1c-.193,4.4-.339,9.431-.581,13.494l-.58,12.382h-6.82l2.079-32.6h9.82l3.191,10.883c1.016,3.772,2.032,7.835,2.758,11.656h.144c.919-3.773,2.031-8.077,3.1-11.705l3.483-10.834H.266l1.79,32.6H-5.151Z" transform="translate(33.929 24.127)"/></g><g transform="translate(119.226 9.383)"><path class="c" d="M-.491-2.909A11.259,11.259,0,0,0-.3-1.071a7.846,7.846,0,0,0,7.642,5.9c5.32,0,8.368-4.3,8.368-10.5,0-5.223-2.9-9.964-8.174-9.964A8.108,8.108,0,0,0-.153-9.439,9.467,9.467,0,0,0-.491-7.455ZM-2.765-9.584c0-2.9-.1-5.224-.193-7.4H-.781l.193,4.4h.1A9.084,9.084,0,0,1,8.07-17.516c5.948,0,9.964,4.934,9.964,11.753,0,8.319-4.934,12.527-10.545,12.527A8.775,8.775,0,0,1-.394,2.46h-.1V15.809H-2.765Z" transform="translate(2.958 17.516)"/></g><g transform="translate(144.087 9.384)"><path class="c" d="M-2.822-2.254C-7.9-2.4-14.576-1.625-14.576,3.937A4.439,4.439,0,0,0-9.932,8.774,6.989,6.989,0,0,0-3.064,4.13a5.028,5.028,0,0,0,.242-1.4ZM-.549,4.662A41.668,41.668,0,0,0-.21,10.176H-2.29l-.339-3.337h-.144a8.707,8.707,0,0,1-7.4,3.869c-4.643,0-6.82-3.288-6.82-6.384,0-5.37,4.74-8.61,14.172-8.513V-4.77c0-2.321-.435-6.917-5.949-6.867a9.88,9.88,0,0,0-5.8,1.741l-.726-1.693A12.56,12.56,0,0,1-8.53-13.572c6.723,0,7.981,5.03,7.981,9.189Z" transform="translate(16.994 13.572)"/></g><g transform="translate(166.142 9.383)"><path class="c" d="M-3.573-4.527A14.91,14.91,0,0,1-10.345-2.98c-6.723,0-11.173-4.884-11.173-11.9,0-7.352,5.031-12.382,12-12.382a12.036,12.036,0,0,1,6.094,1.451l-.823,1.886a11.257,11.257,0,0,0-5.513-1.354c-6.239,0-9.431,4.788-9.431,10.254,0,6.046,3.821,10.012,9.189,10.012A13.677,13.677,0,0,0-4.2-6.317Z" transform="translate(21.518 27.26)"/></g><g transform="translate(187.134 4.789)"><path class="c" d="M-1.242,0V5.126H5.384V6.965H-1.242v15.09c0,2.95.92,4.837,3.387,4.837A8.33,8.33,0,0,0,4.8,26.5l.291,1.79a8.11,8.11,0,0,1-3.242.58,4.846,4.846,0,0,1-3.966-1.692c-1.063-1.209-1.45-3.145-1.45-5.515V6.965H-7.481V5.126h3.918V.871Z" transform="translate(7.481)"/></g></g></g></g></svg>