<svg xmlns="http://www.w3.org/2000/svg" xmlns:xlink="http://www.w3.org/1999/xlink" viewBox="3795 -1707.366 282 674">
  <defs>
    <style>
      .cls-1 {
        fill: rgba(255,255,255,0);
        stroke: #fff;
      }

      .cls-2, .cls-3, .cls-5, .cls-6 {
        fill: #fff;
      }

      .cls-2 {
        font-size: 20px;
      }

      .cls-2, .cls-6 {
        font-family: ProximaNova-Light, Proxima Nova;
        font-weight: 300;
      }

      .cls-3 {
        font-size: 36px;
        font-family: Sentinel-Medium, Sentinel;
        font-weight: 500;
      }

      .cls-4 {
        fill: url(#radial-gradient);
      }

      .cls-6 {
        font-size: 30px;
      }

      .cls-7 {
        stroke: none;
      }

      .cls-8 {
        fill: none;
      }
    </style>
    <radialGradient id="radial-gradient" cx="419.63" cy="-217.812" r="24.442" gradientUnits="userSpaceOnUse">
      <stop offset="0" stop-color="#a6a6a6"/>
      <stop offset="1" stop-color="#231f20"/>
    </radialGradient>
  </defs>
  <g id="Group_8153" data-name="Group 8153" transform="translate(3747 -6026.864)">
    <g id="Rectangle_537" data-name="Rectangle 537" class="cls-1" transform="translate(48 4319.498)">
      <rect class="cls-7" width="282" height="674"/>
      <rect class="cls-8" x="0.5" y="0.5" width="281" height="673"/>
    </g>
    <text id="_From_the_International_Labor_Organization" data-name="* From the International Labor Organization" class="cls-2" transform="translate(66 4901)"><tspan x="22.69" y="16">* From the International </tspan><tspan x="40.58" y="40">Labor Organization</tspan></text>
    <g id="Group_4241" data-name="Group 4241" transform="translate(1 3819.498)">
      <text id="_21_million_victims_" data-name="21  million victims*" class="cls-3" transform="translate(65 837)"><tspan x="39.973" y="35" xml:space="preserve">21  million </tspan><tspan x="55.867" y="71">victims*</tspan></text>
    </g>
    <g id="Group_4246" data-name="Group 4246" transform="translate(1 3928.498)">
      <text id="_150_billion_industry_worldwide_" data-name="$150 billion industry worldwide*" class="cls-3" transform="translate(65 837)"><tspan x="29.137" y="35">$150 billion </tspan><tspan x="55.453" y="71">industry </tspan><tspan x="30.757" y="107">worldwide*</tspan></text>
    </g>
    <g id="Group_4245" data-name="Group 4245" transform="translate(148.983 4319.498)">
      <path id="Path_3743" data-name="Path 3743" class="cls-4" d="M77.973,63.7,10.5,78.272l-.2-.2L77.973,63.5Z" transform="translate(10.261 63.262)"/>
      <g id="Group_4244" data-name="Group 4244">
        <path id="Path_3744" data-name="Path 3744" class="cls-5" d="M19.37,22.757l1.8-.4C16.176,16.369,10.187,8.185,4.4,0L3.2,1s5.789,8.185,11.778,16.17C16.575,19.164,17.972,21.16,19.37,22.757Z" transform="translate(3.188)"/>
        <path id="Path_3745" data-name="Path 3745" class="cls-5" d="M23.191.4l-1.6-.2c-.8,6.588-2,13.574-3.194,19.364l1.8-.4C21.394,12.377,22.392,4.991,23.191.4Z" transform="translate(18.331 0.199)"/>
        <path id="Path_3746" data-name="Path 3746" class="cls-5" d="M20.089,14.2c-.6,1.6-1,2.795-1.6,2.994-.6,0-1.6-1-3.194-2.4l-.4.4h0c-.2.2-.2.4-.4.4l-.2.2V16c2.4,2.4,3.394,2.795,3.992,2.795h.4c.8-.2,1.6-1.6,2.4-3.394A1.265,1.265,0,0,0,20.089,14.2Z" transform="translate(14.246 14.147)"/>
        <path id="Path_3747" data-name="Path 3747" class="cls-5" d="M26.385,45.2c0-.4-.2-1,0-1.4,0-.2,0-.4.2-.4-.2.2-.4.4-.4.6a.733.733,0,0,0-.2.6v1.6a.2.2,0,0,1-.2.2l-.2.2h-1a.733.733,0,0,1-.2.6c-.2.2-.4.2-.4.4v.2a.429.429,0,0,1-.4.4.733.733,0,0,0-.6.2c-.2.2-.2.4-.4.6a1.256,1.256,0,0,1-1.2,0,7.379,7.379,0,0,1-2.2-1l-.2-.2c-.2,0-.2,0-.4.2,0,.2,0,.4.2.4,0,.2,0,.4.2.4l.4.4.4.4c.2.2.6.2.8.4.4.2.4.6.4,1a.529.529,0,0,0,.6.6,1.993,1.993,0,0,1,.8,1,16.651,16.651,0,0,0,1.6,2.4h0l.2.2a.2.2,0,0,0,.2.2l.4.4.6.6h0c0,.2,0,.2.2.4s.4.2.6.4c0,0,.8.4.6.4v-.2a4.4,4.4,0,0,0,.2-1.6c0-.8.2-1.4.2-2.2,0-.6.2-3.194.2-3.793v-1.4a5.906,5.906,0,0,0-.4-2C26.385,46.195,26.385,45.8,26.385,45.2Z" transform="translate(18.53 43.237)"/>
        <path id="Path_3748" data-name="Path 3748" class="cls-5" d="M21.2,52.4a.2.2,0,0,0-.2.2c-.2.2-.4.2-.8,0a.7.7,0,0,1-.4-.2V54a4.3,4.3,0,0,1,0,1.6c0,.4-.2.6-.2,1l-.2.6.6-.6a2.756,2.756,0,0,1,.8-.6l.2-.2a21.214,21.214,0,0,0,2.2-1.8,2.471,2.471,0,0,1,.6-.4,11.852,11.852,0,0,1-1.6-.8C22,52.8,21.6,52.4,21.2,52.4Z" transform="translate(19.327 52.203)"/>
        <path id="Path_3749" data-name="Path 3749" class="cls-5" d="M67.673,22.474,46.912,8.7l-8.584,1.8a56.955,56.955,0,0,1-2.795,9.981,8.092,8.092,0,0,1,1,1.8,4.19,4.19,0,0,1-8.185,1.8,5.234,5.234,0,0,1,.4-2.994h0v-.2l.2-.2c.2-.2.2-.4.4-.4h0l.4-.4h0a2.973,2.973,0,0,1,1.8-.8,4.39,4.39,0,0,1,2.795.4c.6-2,1.4-5.19,2.2-8.783l-6.588,1.4-3.992,1.2-4.192,1-8.584,1.8L0,37.047l20.761,96.02L54.5,125.88l33.737-7.186Zm13.774,79.65c-.6.2-1,.6-1.6.8-.2,0-.2.2-.4.2a6.887,6.887,0,0,0-1.8,1.6,6.187,6.187,0,0,1-2.6,1.2h-1q-.3,0-.6-.6c0-.2-.2-.6-.2-.8a1.2,1.2,0,0,0-.2-.8c-.2.2-.4.4-.6.4-.4,0-1,0-1.2-.2s-.4-.2-.4-.4a4.364,4.364,0,0,1-.6-1,5.427,5.427,0,0,0-1.8,0,6.791,6.791,0,0,0-2,.2,17.2,17.2,0,0,1-8.384-1.2c-.4-.2-1.4-.6-1.8-.8a1.323,1.323,0,0,0-1.4.4,5.381,5.381,0,0,0-1.4,1.6c-.2.2-3.793,6.188-5.39,7.985v.8a38.465,38.465,0,0,1-.2,4.791.733.733,0,0,1-.2.6.618.618,0,0,1-.4.2c-.2,0-.2,0-.4.2a4.364,4.364,0,0,0-1,.6c-1.4.6-2.6,1.2-3.992,1.8-.2,0-.4.2-.6.2l-.6.6a2.756,2.756,0,0,0-.6.8,4.431,4.431,0,0,1-2.2,1c-.4.2-1,.2-1.6.4a2.532,2.532,0,0,1-1.2.2c-.6,0-2.6.4-2.994.4h-1c-.2,0-.6-.2-.8-.2a4.3,4.3,0,0,1-2.2-.4c-.2,0-.2-.2-.4-.2h-.4c-.2,0-.6-.2-.8-.2-.2-.2-.6,0-.8,0-.4,0-.6-.2-1-.2a1.1,1.1,0,0,1-1-.6l-.2-.2v-.2a33.853,33.853,0,0,0-.8-4.392,21.546,21.546,0,0,1-.6-3.793c0-.8-.2-1.4-.2-2.2a1.5,1.5,0,0,0-.2-1V97.333c0-.8.2-1.6.2-2.2v-.8a7.093,7.093,0,0,0,.4-2c.2-.6.2-1.2.4-1.8.4-1.4,1-2.795,1.4-4.192a11.923,11.923,0,0,1,1.2-2.2,18.408,18.408,0,0,0,1-1.6l-.2-.2a2.885,2.885,0,0,1-.4-1.4,2.532,2.532,0,0,1,.2-1.2,4.364,4.364,0,0,1,.6-1c.2-.2.2-.4.4-.8.2-.6.2-1.2.4-1.8a23.35,23.35,0,0,1,1-3.992,8.129,8.129,0,0,1,2.4-3.394c.2-.2.4-.2.6-.4a5.527,5.527,0,0,1,1.8-.2h.6a4.363,4.363,0,0,1,1-.6c.6-.4,1-.8,1.6-1.2a13.755,13.755,0,0,1,1.6-.6,9,9,0,0,1,2.2-.6,6.791,6.791,0,0,1,2,.2,8.235,8.235,0,0,1,3.394,2.994c.2.2.2.4.4.6,0-.2,0-.2.2-.4,0-.2.2,0,.4,0s.2.2.2.4.2.2.4.2a1.993,1.993,0,0,1,1,.8c.4.4.6.8,1,1.2.2.2,0,.4.2.6h0c.2,0,.2.2.2.4a.733.733,0,0,1-.2.6v.8c0,.4-.2.8-.2,1.2v1.2a.429.429,0,0,1-.4.4c0,.2-.2.2-.2.4a2.837,2.837,0,0,0-.4,1.2c-.2.8-.6,1.4-.8,2.2,0,.4-.2.8-.2,1.2v2.2c0,.8.2,1.6.2,2.4a30.993,30.993,0,0,0,.8,4.192c.2.6.2,1.2.4,1.8a7.093,7.093,0,0,1,.4,2h0c.2-.2.6-.2.8-.4a1.705,1.705,0,0,1,1.4,0c.2,0,.4.2.6.2h.6a3.4,3.4,0,0,1,1.4.2l1.2.6h.2c.4.2.8.2,1.2.4a15.13,15.13,0,0,0,3.194,1.2h.2a41.792,41.792,0,0,0,7.186,1.6c.8,0,1.6.2,2.2.2a8.189,8.189,0,0,0,2.2-.2,33.146,33.146,0,0,1,4.392-.6c.2,0,.4,0,.4-.2a.7.7,0,0,0,.4-.2c.8-.6,2.4-1.8,2.994-.4.4.8-1,2.4-.4,2.2a5.623,5.623,0,0,1,2.2-.8,1.694,1.694,0,0,1,1.6,1.4,3.991,3.991,0,0,1-.4,2.6C82.844,101.326,82.046,101.725,81.447,102.124Z" transform="translate(0 8.667)"/>
        <path id="Path_3750" data-name="Path 3750" class="cls-5" d="M17.114,42.394a1.273,1.273,0,0,1,0-1.2c0-.2.2-.6.2-.8a1.2,1.2,0,0,0,.2-.8v-.4h-.6l-.2.2a2.785,2.785,0,0,0,0,2.2,11.683,11.683,0,0,1,.4,2.6,8.646,8.646,0,0,0,.2,1v.6a.2.2,0,0,1,.2-.2c.2-.2.2-.6.4-1a2.532,2.532,0,0,0-.2-1.2A1.824,1.824,0,0,1,17.114,42.394Z" transform="translate(16.423 39.053)"/>
      </g>
    </g>
    <text id="Human_Trafficking_is_a_global_problem_on_a_massive_scale." data-name="Human Trafficking is a global problem on a massive scale." class="cls-6" transform="translate(66 4480)"><tspan x="7.08" y="24">Human Trafficking </tspan><tspan x="57.405" y="60">is a global </tspan><tspan x="36.765" y="96">problem on a </tspan><tspan x="29.79" y="132">massive scale.</tspan></text>
  </g>
</svg>
