<svg xmlns="http://www.w3.org/2000/svg" xmlns:xlink="http://www.w3.org/1999/xlink" viewBox="6212 -4493.625 367.762 676.259">
  <defs>
    <style>
      .cls-1, .cls-6 {
        fill: none;
      }

      .cls-2, .cls-3, .cls-4, .cls-7 {
        fill: #fff;
      }

      .cls-2 {
        font-size: 36px;
        font-family: Sentinel-Medium, Sentinel;
        font-weight: 500;
      }

      .cls-3 {
        font-size: 22px;
      }

      .cls-3, .cls-4 {
        font-family: ProximaNova-Light, Proxima Nova;
        font-weight: 300;
      }

      .cls-4 {
        font-size: 30px;
      }

      .cls-5 {
        clip-path: url(#clip-path);
      }

      .cls-6 {
        stroke: #fff;
      }
    </style>
    <clipPath id="clip-path">
      <path id="Path_7515" data-name="Path 7515" class="cls-1" d="M0-99.858H180v80.227H0Z" transform="translate(0 99.858)"/>
    </clipPath>
  </defs>
  <g id="Group_8156" data-name="Group 8156" transform="translate(6205 -6024.367)">
    <g id="Group_7216" data-name="Group 7216" transform="translate(0 1047)">
      <text id="_500_Employees_" data-name="500 Employees
" class="cls-2" transform="translate(7 837)"><tspan x="63.443" y="35">500 Employees</tspan></text>
      <text id="giving_their_all" data-name="giving their all" class="cls-3" transform="translate(85 885)"><tspan x="37.341" y="17">giving their all</tspan></text>
    </g>
    <g id="Group_7703" data-name="Group 7703" transform="translate(0 1176)">
      <text id="_1_700_Hours_" data-name="1,700 Hours
" class="cls-2" transform="translate(7 837)"><tspan x="89.651" y="35">1,700 Hours</tspan></text>
      <text id="of_uplifting_hard_work" data-name="of uplifting hard work" class="cls-3" transform="translate(85 885)"><tspan x="3.164" y="17">of uplifting hard work</tspan></text>
    </g>
    <g id="Group_3080" data-name="Group 3080" transform="translate(0 1295)">
      <text id="_43_Projects" data-name="43 Projects" class="cls-2" transform="translate(78 837)"><tspan x="20.749" y="35">43 Projects</tspan></text>
      <text id="that_really_matter" data-name="that really matter" class="cls-3" transform="translate(85 885)"><tspan x="23.943" y="17">that really matter</tspan></text>
    </g>
    <text id="United_Way_Season" data-name="United Way Season" class="cls-4" transform="translate(24 1642.367)"><tspan x="36.915" y="24">United Way Season</tspan></text>
    <text id="Like_REALLY_love_them_and_what_they_do._" data-name="Like, REALLY love them, and what they do. " class="cls-3" transform="translate(33 1800.367)"><tspan x="21.042" y="17">Like, REALLY love them, and </tspan><tspan x="91.332" y="47">what they do. </tspan></text>
    <text id="We_LOVE_United_Way._" data-name="We LOVE 
United Way. " class="cls-2" transform="translate(33 1675.367)"><tspan x="77.427" y="35">We LOVE </tspan><tspan x="58.833" y="73">United Way. </tspan></text>
    <g id="Group_7702" data-name="Group 7702" transform="translate(82 1530.741)">
      <g id="Group_7701" data-name="Group 7701" class="cls-5" transform="translate(0 0)">
        <g id="Group_7683" data-name="Group 7683" transform="translate(107.288)">
          <path id="Path_7497" data-name="Path 7497" class="cls-6" d="M0-19.631V-99.858" transform="translate(0 99.858)"/>
        </g>
        <g id="Group_7684" data-name="Group 7684" transform="translate(127.89 21.493)">
          <path id="Path_7498" data-name="Path 7498" class="cls-7" d="M-.376-5.957c.333-.153,1.081-.488,1.417-.655.384-.189.333-.359.216-.676A15.52,15.52,0,0,1,.5-12.14,15.754,15.754,0,0,1,16.237-27.883,15.762,15.762,0,0,1,31.963-12.14a15.752,15.752,0,0,1-1.3,6.274.388.388,0,0,0,.155.514c.25.109,1.207.536,1.485.648s.458.045.6-.251a18.077,18.077,0,0,0,1.481-7.186A18.174,18.174,0,0,0,16.237-30.3,18.172,18.172,0,0,0-1.914-12.14,17.907,17.907,0,0,0-.936-6.269c.092.285.24.458.56.312" transform="translate(1.914 30.304)"/>
        </g>
        <g id="Group_7685" data-name="Group 7685" transform="translate(122.817 16.419)">
          <path id="Path_7499" data-name="Path 7499" class="cls-7" d="M-.49-7.721C-.1-7.9,1.186-8.495,1.525-8.664a.415.415,0,0,0,.219-.589A19.877,19.877,0,0,1,.574-16.031,20.181,20.181,0,0,1,20.742-36.2,20.181,20.181,0,0,1,40.888-16.031a20.035,20.035,0,0,1-1.665,8.02.372.372,0,0,0,.17.557c.325.133,1.772.784,2.043.9.287.119.464.071.6-.262a22.731,22.731,0,0,0,1.915-9.217A23.254,23.254,0,0,0,20.742-39.275,23.256,23.256,0,0,0-2.49-16.031,23.124,23.124,0,0,0-1.056-7.992c.055.152.178.452.566.272" transform="translate(2.49 39.275)"/>
        </g>
        <g id="Group_7686" data-name="Group 7686" transform="translate(115.876 9.462)">
          <path id="Path_7500" data-name="Path 7500" class="cls-7" d="M-.653-10.13c.449-.219,3.189-1.482,3.664-1.694s.272-.59.2-.784a25.064,25.064,0,0,1-1.562-8.726,25.217,25.217,0,0,1,25.189-25.2,25.218,25.218,0,0,1,25.177,25.2,25.122,25.122,0,0,1-2.029,9.911.515.515,0,0,0,.28.755c.448.194,3.1,1.366,3.466,1.514.358.178.63.139.874-.4A30.085,30.085,0,0,0,56.99-21.333a30.214,30.214,0,0,0-30.15-30.2,30.215,30.215,0,0,0-30.164,30.2A30.153,30.153,0,0,0-1.307-10.48c.079.187.206.558.653.35" transform="translate(3.324 51.529)"/>
        </g>
        <g id="Group_7687" data-name="Group 7687" transform="translate(142.825 26.633)">
          <path id="Path_7501" data-name="Path 7501" class="cls-7" d="M-.789-1.584A3.237,3.237,0,0,0,2.444-4.812,3.24,3.24,0,0,0-.789-8.055,3.22,3.22,0,0,0-4.016-4.812,3.217,3.217,0,0,0-.789-1.584" transform="translate(4.016 8.055)"/>
        </g>
        <g id="Group_7688" data-name="Group 7688" transform="translate(135.423 29.228)">
          <path id="Path_7502" data-name="Path 7502" class="cls-7" d="M-2.89-5.092A1.145,1.145,0,0,0-1.751-6.236v-7.091A4.887,4.887,0,0,1-.461-16.05l6.677-6.67a1.143,1.143,0,0,0,0-1.627L5-25.564a1.136,1.136,0,0,0-1.62,0l-6.027,6.042a1.732,1.732,0,0,1-1.427.632,1.7,1.7,0,0,1-1.421-.632l-6.038-6.042a1.134,1.134,0,0,0-1.619,0l-1.213,1.217a1.154,1.154,0,0,0,0,1.627l6.675,6.67A4.836,4.836,0,0,1-6.4-13.327v7.091A1.146,1.146,0,0,0-5.259-5.092Z" transform="translate(14.701 25.904)"/>
        </g>
        <g id="Group_7689" data-name="Group 7689" transform="translate(120.147 48.197)">
          <path id="Path_7503" data-name="Path 7503" class="cls-7" d="M-11.781-1.064c-1.134.415-3.24,2.5-4.2,3.344l-.256.047c.336-.378,1.791-2.221,2.173-2.855,1.15-1.9-1.02-3.706-3.411-2.332a38.593,38.593,0,0,0-3.146,2.68l-.237.054a32.32,32.32,0,0,0,2.045-2.654c1.039-1.551-1.151-3.01-3.034-1.877A37.081,37.081,0,0,0-25.394-1.89l-.194.049c.309-.294,1.05-1.175,1.338-1.49,1.114-1.241-.482-2.683-2.16-1.816-1.605.827-3.938,3.137-6.468,4.765,1.177.64,3.251.728,6.536,2.131S-22,6.433-24.136,9.018c-1.989,2.393-5.008,1.58-7.613.776-3.021-.94-4.085-1.925-7.727-3.189-2.374-.826-3.344-.806-3.3-1.5.046-.774,2.09-.309,4.011.39,5.331,1.927,12.412,6.321,14.147,1.591,1.373-3.733-4.769-5.344-7.113-5.794-3.28-.627-5.535-3.028-8.376-4.558-4.279-2.314-7.579-2.371-10.025-1.926-2.632.473-6.386,2.624-8.661,3.984-1.574.93-1.462,2.351.084,4.555A30.112,30.112,0,0,0-34.036,16.188,30.165,30.165,0,0,0-8.4,1.886c1.175-1.89-.68-3.915-3.38-2.95" transform="translate(59.926 5.411)"/>
        </g>
        <g id="Group_7690" data-name="Group 7690" transform="translate(172.244 71.607)">
          <path id="Path_7504" data-name="Path 7504" class="cls-7" d="M-.435-.152V2.868H-1.1V-.152H-2.211V-.771H.68v.619ZM4.877,2.868V.01L4.8.023,3.725,2.868H3.292L2.2.023l-.053,0V2.868h-.67V-.771H2.489l1.028,2.7,1.024-2.7h1V2.868Z" transform="translate(2.211 0.771)"/>
        </g>
        <g id="Group_7691" data-name="Group 7691" transform="translate(81.823 47.805)">
          <path id="Path_7505" data-name="Path 7505" class="cls-7" d="M0-6.242c0,.864,3.1,1.806,4.719,1.806a5.194,5.194,0,0,0,5.06-3.483c1.233-3.03,6.333-20.5,6.333-20.5l.571,0c1.146-.206,1.559-.9,1.559-2.648,0-.622-.08-.678-.595-.678h-4.18c-.41.014-.444.075-.574.473L9.41-17.8S5.826-31.278,5.826-31.275c-.114-.4-.167-.462-.569-.476H1.052c-.509,0-.6.056-.6.678,0,1.759.423,2.454,1.582,2.648l.584,0S5.966-16.7,7.734-11.781c0,0-.262.946-.262.956C6.909-9,5.929-8.143,4.391-8.143c-.365,0-2.429-.315-2.429-.315C.8-8.554.488-8.066.345-7.633A7.764,7.764,0,0,0,0-6.242" transform="translate(0 31.751)"/>
        </g>
        <g id="Group_7692" data-name="Group 7692" transform="translate(39.407 41.261)">
          <path id="Path_7506" data-name="Path 7506" class="cls-7" d="M-6.887,0h-4.994c-.439,0-.451.036-.525.478l-2.808,17.457L-18.614.563C-18.691.1-18.766,0-19.3,0h-2.284c-.843,0-.873.125-.979.591l-3.546,17.344L-28.774.478C-28.832.036-28.855,0-29.289,0h-5.125c-.533,0-.619.049-.619.7,0,1.921.459,2.624,1.826,2.777l.514.024,3.909,21.476c.125.5.19.6.655.6h3.383c.539,0,.558-.033.652-.6l3.365-16.7,2.846,16.7c.095.558.106.591.656.591h3.453c.457,0,.527-.1.652-.6L-8.7,3.486l.5-.01C-6.834,3.322-6.382,2.612-6.382.7c0-.608-.085-.672-.505-.7" transform="translate(35.033 0)"/>
        </g>
        <g id="Group_7693" data-name="Group 7693" transform="translate(66.76 47.155)">
          <path id="Path_7507" data-name="Path 7507" class="cls-7" d="M-2.29-3.772A4.03,4.03,0,0,1-5.109-2.209,2.6,2.6,0,0,1-7.6-5C-7.6-8.509-3.43-8.309-2.29-8.23Zm4.444.9a12.215,12.215,0,0,1-.393-3.407v-6.758c0-4.255-1.847-6.149-6.048-6.149-2.921,0-6.014,1.263-6.014,2.058a7.246,7.246,0,0,0,.32,1.277c.084.259.281.841,1.523.744.508-.039,2.653-.448,3.556-.448,2.376,0,2.611,1.385,2.611,3.023v1.343c-2.97,0-9.36.028-9.36,6.467,0,3.626,2.009,5.874,5.253,5.874a5.541,5.541,0,0,0,4.42-2.16l.279-.314.092.488c.149.787.3,1.33.908,1.33h4.3c.547,0,.609-.04.609-.671,0-1.92-.468-2.6-2.061-2.7" transform="translate(11.65 19.19)"/>
        </g>
        <g id="Group_7694" data-name="Group 7694" transform="translate(42.839 16.168)">
          <path id="Path_7508" data-name="Path 7508" class="cls-7" d="M-1.825-3.828l-.453,0V-19.059c0-.373-.022-.414-.372-.414H-8.674c-.52,0-.592.041-.592.661,0,2.077.551,2.709,2.332,2.709H-6.5v12.27l-.458,0c-1.784,0-2.327.642-2.327,2.713,0,.618.082.668.6.668h8.6c.5,0,.6-.051.6-.668,0-2.047-.584-2.713-2.343-2.713" transform="translate(9.284 19.473)"/>
        </g>
        <g id="Group_7695" data-name="Group 7695" transform="translate(45.129 8.943)">
          <path id="Path_7509" data-name="Path 7509" class="cls-7" d="M-.626,0A2.619,2.619,0,0,0-3.185,2.729,2.664,2.664,0,0,0-.626,5.481a2.648,2.648,0,0,0,2.52-2.752A2.632,2.632,0,0,0-.626,0" transform="translate(3.185)"/>
        </g>
        <g id="Group_7696" data-name="Group 7696" transform="translate(0 10.28)">
          <path id="Path_7510" data-name="Path 7510" class="cls-7" d="M-4.7-.853h.117c1.818,0,2.4-.679,2.4-2.8,0-.633-.081-.687-.616-.687h-8.285c-.476,0-.548.075-.591.362l-.022.325c0,2.11.578,2.785,2.368,2.8H-9.2v12.5c0,2.385,0,5.643-3.84,5.643-3.55,0-3.834-2.56-3.834-5.643V-.853h.117c1.788-.013,2.367-.688,2.367-2.8,0,0-.027-.392-.027-.4-.044-.222-.129-.29-.586-.29h-8.278c-.53,0-.615.054-.615.687,0,2.143.552,2.8,2.409,2.8h.108v12.5c0,6.725,2.5,9.6,8.339,9.6s8.343-2.873,8.343-9.6Z" transform="translate(23.897 4.337)"/>
        </g>
        <g id="Group_7697" data-name="Group 7697" transform="translate(22.23 15.494)">
          <path id="Path_7511" data-name="Path 7511" class="cls-7" d="M-3.96-3.993V-14.266c0-4.171-1.373-6.046-4.442-6.046-2.736,0-4.256,1.6-5.436,2.814-.086-.435-.183-.787-.183-.787-.189-.838-.337-1.352-.877-1.352h-4.657c-.518,0-.587.041-.587.661,0,1.966.484,2.668,2.145,2.7a10.708,10.708,0,0,1,.38,3.459v8.822c-1.75.01-2.292.653-2.292,2.713,0,.618.087.668.6.668h5.54c.339,0,.356-.053.356-.415l0-13.779a4.678,4.678,0,0,1,3.138-1.666c2.1,0,2.1,2.393,2.1,3.419V-1.027c0,.362.01.415.361.415h5.53c.5,0,.591-.051.591-.668,0-2.024-.565-2.694-2.271-2.713" transform="translate(20.143 20.312)"/>
        </g>
        <g id="Group_7698" data-name="Group 7698" transform="translate(53.241 10.28)">
          <path id="Path_7512" data-name="Path 7512" class="cls-7" d="M-1.813-6.259c2.462,0,4.453-.647,4.453-1.167,0-.093-.142-.818-.234-1.177-.339-1.431-.467-1.96-3.079-1.635a.95.95,0,0,1-.825-.239c-.513-.509-.513-1.633-.513-2.532V-22.58H.33c1.8,0,2.34-.632,2.34-2.709,0-.62-.08-.661-.6-.661H-2.012V-31.3c0-.508-.043-.531-.236-.533s-1.043.112-1.477.172a3.019,3.019,0,0,0-2.5,3.288v2.427H-8.632c-.518,0-.591.041-.591.661,0,2.077.545,2.709,2.325,2.709h.672v8.91c0,3.643,0,7.411,4.413,7.411" transform="translate(9.223 31.838)"/>
        </g>
        <g id="Group_7699" data-name="Group 7699" transform="translate(66.653 15.494)">
          <path id="Path_7513" data-name="Path 7513" class="cls-7" d="M-1.067-1.961l.03-.337c.116-1.287.385-4.31,3.081-4.31,2.63,0,2.647,3.081,2.647,4.647ZM9.035.551c0-6.976-2.323-10.528-6.9-10.528C-2.389-9.977-5.426-5.8-5.426.4c0,8.246,4.211,9.987,7.742,9.987,2.851,0,6.163-1.329,6.163-2.175a7.865,7.865,0,0,0-.335-1.351c-.135-.422-.376-.852-1.579-.791-.923.047-2.418.479-3.791.479C.142,6.551-1.2,4.9-1.21,1.394H8.355c.559,0,.68-.138.68-.843" transform="translate(5.426 9.977)"/>
        </g>
        <g id="Group_7700" data-name="Group 7700" transform="translate(83.197 9.033)">
          <path id="Path_7514" data-name="Path 7514" class="cls-7" d="M-1.785-5.673c-2.564,0-3.074-2.347-3.074-6.427,0-4.318.533-6.651,3.286-6.651a4.734,4.734,0,0,1,2.809.826V-7.118A3.6,3.6,0,0,1-1.785-5.673m7.628-.406a10.388,10.388,0,0,1-.378-3.4V-28.443c0-.366-.03-.415-.376-.415H-.467c-.518,0-.607.049-.607.664,0,2.007.535,2.667,2.2,2.7l.107,0v4.372L.895-21.35A5.16,5.16,0,0,0-2.455-22.4c-4.33,0-6.626,3.8-6.626,10.965,0,6.06,2.09,9.4,5.9,9.4a7.319,7.319,0,0,0,4.995-2.2l.239.822c.181.643.2.716.727.716H7.655c.512,0,.6-.051.6-.668,0-2.042-.54-2.714-2.413-2.714" transform="translate(9.081 28.858)"/>
        </g>
      </g>
    </g>
  </g>
</svg>
