<svg xmlns="http://www.w3.org/2000/svg" viewBox="-226.903 1642.313 100 232.567"><defs><style>.a,.b{fill:#fff;}.b{font-size:35px;font-family:ProximaNova-Light, Proxima Nova;font-weight:300;}</style></defs><g transform="translate(-547 -6027)"><g transform="translate(348.518 7669.313)"><path class="a" d="M42.114,46.978h0l-.128-1.408a1.624,1.624,0,0,0-.128-.768l-15.1-33.922v-.128l-4.224-9.6A2.168,2.168,0,0,0,20.737,0a2.168,2.168,0,0,0-1.792,1.152l-4.1,9.6v.128L.256,45.058a1.624,1.624,0,0,0-.128.768v1.28L0,47.234l.512,95.877,42.114,1.024ZM16.257,16.9c1.152,2.56,2.688,4.224,4.608,4.224,1.792,0,3.456-1.664,4.608-4.224C30.082,27.137,36.354,41.09,38.018,44.8c-1.792,1.792-5.632,5.76-7.168,7.3h-.128v-.256l-9.6-11.009-9.6,11.009V52.1c-1.536-1.536-5.376-5.376-7.3-7.168C6.144,40.45,12.033,26.881,16.257,16.9Z" transform="translate(0 0)"/><path class="a" d="M13.969,149.782l15.361-.128a13.33,13.33,0,0,0,13.313-13.441l-.128-18.689L.4,116.5l.128,19.841A13.358,13.358,0,0,0,13.969,149.782Z" transform="translate(0.112 32.628)"/></g><text class="b" transform="translate(320.097 7866.88)"><tspan x="14.265" y="28">2013</tspan></text></g></svg>