<svg xmlns="http://www.w3.org/2000/svg" xmlns:xlink="http://www.w3.org/1999/xlink" viewBox="361 3614 193.083 45.193"><defs><style>.a{fill:none;}.b{fill:#fff;}.c{clip-path:url(#a);}</style><clipPath id="a"><path class="a" d="M0-45.193H193.083V0H0Z" transform="translate(0 45.193)"/></clipPath></defs><g transform="translate(361 3613.999)"><path class="b" d="M0,0V14.857H-14.856V29.713H0V44.57H14.856V29.713H29.713V14.857H14.856V0Z" transform="translate(14.856 0.031)"/><g class="c"><path class="b" d="M0,0,2.287-7.4,4.516,0ZM6.6,6.961h6.1c-.186-.49-7.055-18.92-7.145-19.158H-.927c-.09.236-7.127,18.662-7.317,19.158h6.093c.077-.242.908-2.867.908-2.867H5.7s.824,2.629.9,2.867" transform="translate(67.672 12.197)"/><path class="b" d="M0,0A4.422,4.422,0,0,1,.081.85V8.432H5.29V.93A3.083,3.083,0,0,1,5.583-.531,1.866,1.866,0,0,1,7.439-1.537c2.142,0,2.066,1.758,2.066,2.6V8.432h5.2c0-.364,0-9.069,0-9.069l0-.013a5.139,5.139,0,0,0-1.273-3.955,5.314,5.314,0,0,0-3.77-1.35c-3.339,0-4.271,1.769-4.531,2.363l-.158.362L4.8-3.582A3.783,3.783,0,0,0,2.168-5.639,7.047,7.047,0,0,0,.084-5.955c-2.892,0-3.626,1.375-4.069,2.094l-.378.613V-5.6H-9.327V8.432h5.209V.789l.007-.094a2.191,2.191,0,0,1,.59-1.607A2.053,2.053,0,0,1-1.98-1.537,1.906,1.906,0,0,1,0,0" transform="translate(91.206 10.727)"/><path class="b" d="M0,0A2.289,2.289,0,0,1,2.3-2.127,2.072,2.072,0,0,1,4.348-.545a1.9,1.9,0,0,1,.066.365l.041.424H-.056ZM5.2,4a2.9,2.9,0,0,1-2.715,1.93,2.518,2.518,0,0,1-1.814-.7A2.68,2.68,0,0,1-.064,3.215L-.073,3H9.746C9.693.9,9.609-1.346,7.668-3.266A8.091,8.091,0,0,0,2.16-5.486,7.2,7.2,0,0,0-5.379,2.049,7.64,7.64,0,0,0-3.5,7.211,7.557,7.557,0,0,0,2.186,9.693,8.569,8.569,0,0,0,9.459,5.766L5.2,4" transform="translate(113.387 10.014)"/><path class="b" d="M0,0H-4.992V14.143H.188V7.5c.026-.887.092-3.238,3.55-3.238.318,0,.83.017,1.143.037V-.217A5.972,5.972,0,0,0,.313,1.441L0,1.721Z" transform="translate(130.138 5.016)"/><path class="b" d="M136.9-40.088h5.57v14H136.9Zm0-5.082h5.57v3.7H136.9Z" transform="translate(0 45.193)"/><path class="b" d="M0,0A6.925,6.925,0,0,0,1.354-2C1.077-2.152-2.328-4.02-2.67-4.209c-.289.924-.971,2.457-2.654,2.457-1.186,0-2.6-.592-2.6-3.416,0-2.457,1.047-3.982,2.736-3.982,1.208,0,2.067.728,2.507,2.236.357-.2,3.73-2.106,4.027-2.275A7.627,7.627,0,0,0,.239-10.6a8.113,8.113,0,0,0-5.7-2.293,7.678,7.678,0,0,0-5.668,2.211A7.738,7.738,0,0,0-13.08-5.33c0,4.549,2.864,7.672,7.293,7.672A7.887,7.887,0,0,0,0,0" transform="translate(157.516 17.338)"/><path class="b" d="M0,0H0l0,0c.442-.148.878-.25,1.3-.348,0,0,.137-.035.146-.035C2-.541,2.526-.727,3.038-.9l.313-.108v.264A3.482,3.482,0,0,1,3.063.867,3.138,3.138,0,0,1,.315,2.5C-.834,2.5-1.26,1.873-1.26,1.381-1.26,1.164-1.169.467,0,0M-1.177,5.918a7.169,7.169,0,0,0,4.5-1.357l.324-.225V5.615H8.613a2.621,2.621,0,0,1-.327-1.566V-3.785a4.762,4.762,0,0,0-.8-3.076C6.531-8.094,4.618-8.9,1.8-8.9A10.691,10.691,0,0,0-3.15-7.861,4.479,4.479,0,0,0-5.58-4.234c.414-.012,4.587-.121,4.854-.125C-.5-5.479.035-5.846,1.29-5.846c1.689,0,2.056.713,2.086,1.783l.005.149-.142.037a18.06,18.06,0,0,1-3.01.6c-2.347.31-3.9.511-5.149,1.789A3.915,3.915,0,0,0-6.059,1.389c0,2.1,1.285,4.529,4.882,4.529" transform="translate(166.436 13.545)"/><path class="b" d="M0,0V7.693H5.209V-1.191c0-.756,0-2.961-1.353-4.284A5.032,5.032,0,0,0,.268-6.725c-2.94,0-3.836,1.426-4.32,2.112l-.368.519V-6.369H-9.328V7.693h5.207V.191c0-.617.026-2.494,2.109-2.494S0-.627,0,0" transform="translate(186.924 11.465)"/><path class="b" d="M0,0H-2.711V-4.662H-.027c.94,0,3.143.014,3.143,2.326C3.116.021.852,0,0,0M4.77,2.867,5.1,2.732A5.572,5.572,0,0,0,7.377,1.359,5.285,5.285,0,0,0,8.786-2.432C8.786-4.363,7.948-6.9,5.6-7.9A13.367,13.367,0,0,0,.949-8.486H-8.4V10.682h5.693V3.746h2.09S3.1,10.492,3.208,10.682H9.485l-4.6-7.627Z" transform="translate(67.832 33.912)"/><path class="b" d="M0,0A2.282,2.282,0,0,1,2.13,1.756a5.627,5.627,0,0,1,.225,1.822,4.2,4.2,0,0,1-.787,2.9,2.231,2.231,0,0,1-1.543.677A2.11,2.11,0,0,1-1.521,6.5a4.119,4.119,0,0,1-.838-2.895,7.709,7.709,0,0,1,.165-1.7V1.9l0,0A2.278,2.278,0,0,1,0,0M-7.486,3.309C-7.486,7.871-5.081,11-1.358,11a5.648,5.648,0,0,0,2.049-.34,2.9,2.9,0,0,0,1.364-.976l.331-.381v1.345H7.43V-8.486H2.222V-2.18l-.37-.332A4.45,4.45,0,0,0-1.547-3.8C-4.5-3.8-7.486-1.471-7.486,3.309" transform="translate(101.575 33.941)"/><path class="b" d="M0,0A2.29,2.29,0,0,1,2.3-2.121,2.076,2.076,0,0,1,4.354-.541a1.969,1.969,0,0,1,.06.361l.043.426H-.052ZM5.2,4A2.9,2.9,0,0,1,2.487,5.928a2.528,2.528,0,0,1-1.815-.7,2.653,2.653,0,0,1-.73-2.006L-.067,3H9.747C9.7.9,9.614-1.342,7.67-3.262A8.084,8.084,0,0,0,2.162-5.486,7.2,7.2,0,0,0-5.376,2.051,7.643,7.643,0,0,0-3.5,7.213a7.562,7.562,0,0,0,5.69,2.48A8.572,8.572,0,0,0,9.462,5.77C9.08,5.611,5.478,4.113,5.2,4" transform="translate(82.882 35.471)"/><path class="b" d="M0,0A7.512,7.512,0,0,1-.93-3.93,6.176,6.176,0,0,1,.564-8.377,3.784,3.784,0,0,1,3.271-9.463c2.584,0,3.647,2.16,4.128,3.281.323-.162,4.474-2.232,4.789-2.388a10.441,10.441,0,0,0-1.625-2.321,10.4,10.4,0,0,0-7.535-3.074,9.259,9.259,0,0,0-7.247,3.233A11.31,11.31,0,0,0-6.706-3.58a10.759,10.759,0,0,0,2.352,6.9A9.386,9.386,0,0,0,3.028,6.48a10.287,10.287,0,0,0,7.3-2.8A11.5,11.5,0,0,0,12.22.895C11.9.744,7.689-1.3,7.354-1.459,6.432,1.07,4.618,1.789,3.3,1.789A3.649,3.649,0,0,1,0,0" transform="translate(123.082 38.713)"/><path class="b" d="M0,0C-2.429,0-2.794-2.445-2.794-3.9c0-1.4.36-3.76,2.76-3.823A2.42,2.42,0,0,1,1.8-7.086a4.247,4.247,0,0,1,.967,3.125C2.764-.688,1.26,0,0,0M5.888-9.453A8.278,8.278,0,0,0,.134-11.467a8.319,8.319,0,0,0-6.059,2.2A7.729,7.729,0,0,0-7.974-3.74,7.693,7.693,0,0,0-6.146,1.422,7.9,7.9,0,0,0-.164,3.711,8.707,8.707,0,0,0,5.888,1.617,7.353,7.353,0,0,0,8.021-3.824,8.165,8.165,0,0,0,5.888-9.453" transform="translate(155.543 41.424)"/><path class="b" d="M0,0A15.915,15.915,0,0,0-3.724-1.041l-.109-.027C-5.68-1.523-6.12-1.619-6.12-2.2c0-.348.18-.922,1.385-.922A7.317,7.317,0,0,1-.991-1.736c.188-.168,2.51-2.289,2.8-2.549a8.855,8.855,0,0,0-3.5-1.735,13.83,13.83,0,0,0-3.127-.375A6.8,6.8,0,0,0-9.65-4.773,4.676,4.676,0,0,0-11-1.559c0,2.852,2.433,3.637,3.743,4.018a23.62,23.62,0,0,0,2.9.643c.546.08,1.571.212,1.571,1.035,0,.728-.83,1.054-1.652,1.054a6.05,6.05,0,0,1-2.3-.472A6.821,6.821,0,0,1-8.915,3.248c-.229.209-2.6,2.391-2.877,2.643A11.116,11.116,0,0,0-4.386,8.768C.091,8.768,2.1,6.23,2.1,3.566A3.932,3.932,0,0,0,0,0" transform="translate(176.253 36.365)"/><path class="b" d="M0,0A15.859,15.859,0,0,0-3.726-1.041l-.107-.027C-5.68-1.523-6.122-1.619-6.122-2.2c0-.348.184-.922,1.389-.922A7.331,7.331,0,0,1-.99-1.736C-.8-1.9,1.52-4.025,1.81-4.285A8.883,8.883,0,0,0-1.69-6.02a13.86,13.86,0,0,0-3.129-.375,6.8,6.8,0,0,0-4.83,1.622A4.672,4.672,0,0,0-11-1.559c0,2.852,2.435,3.637,3.74,4.018a23.625,23.625,0,0,0,2.9.643c.548.08,1.569.212,1.569,1.035,0,.728-.828,1.054-1.651,1.054a6.066,6.066,0,0,1-2.3-.472A6.849,6.849,0,0,1-8.915,3.248c-.23.209-2.6,2.391-2.877,2.643A11.106,11.106,0,0,0-4.386,8.768c4.478,0,6.48-2.538,6.48-5.2A3.931,3.931,0,0,0,0,0" transform="translate(190.989 36.365)"/><path class="b" d="M0,0H-4.989V14.146H.191V7.5c.026-.887.093-3.242,3.548-3.242.32,0,.83.019,1.143.041V-.219A5.982,5.982,0,0,0,.315,1.443L0,1.723Z" transform="translate(141.692 30.473)"/></g></g></svg>