<svg xmlns="http://www.w3.org/2000/svg" xmlns:xlink="http://www.w3.org/1999/xlink" viewBox="-307 2755.737 960 440.263"><defs><style>.a,.c{fill:none;}.b,.d,.f{fill:#fff;}.c,.f{stroke:#fff;}.d{font-size:60px;font-family:Sentinel-Medium, Sentinel;font-weight:500;}.e{font-size:36px;}.f{stroke-miterlimit:10;stroke-width:0.342px;}.g{clip-path:url(#a);}.h{stroke:none;}</style><clipPath id="a"><path class="a" d="M0-437.712H167.969v92.831H0Z" transform="translate(0 437.712)"/></clipPath></defs><g transform="translate(-547 -6027)"><path class="b" d="M285.7,86.026H237.942V52.773H165.649a26.414,26.414,0,0,0-7.715-8.8h80.008L142.811,0,50.227,43.978h77.462a25.587,25.587,0,0,0-7.715,8.8H42.666V86.026H0v14.428H285.7Zm-142.889-1.7a19.327,19.327,0,1,1,19.366-19.288A19.3,19.3,0,0,1,142.811,84.329Z" transform="translate(577 8782.737)"/><path class="b" d="M184.49,82.088,172.3,90.112l16.048-6.867L186.419,62.8Z" transform="translate(533.636 8766.391)"/><rect class="b" width="960" height="18" transform="translate(240 8867)"/><rect class="b" width="960" height="18" transform="translate(240 9205)"/><g class="c" transform="translate(240 8909)"><rect class="h" width="220" height="272"/><rect class="a" x="0.5" y="0.5" width="219" height="271"/></g><text class="d" transform="translate(240 9008)"><tspan x="79.31" y="58">16 </tspan><tspan class="e"><tspan x="58.718" y="98">school </tspan><tspan x="43.508" y="138">districts </tspan></tspan></text><g transform="translate(170 5722.136)"><g transform="translate(149.827 3214.005)"><path class="b" d="M158.293,55.891a2.062,2.062,0,0,0,2,2.157h5.355a2.062,2.062,0,0,0,2-2.157V51.059h-9.352Zm34.769,0a2.062,2.062,0,0,0,2,2.157h5.355a2.062,2.062,0,0,0,2-2.157V51.059h-9.352Zm-30.653-18.9c0-2.718,1.4-6.514,2.718-7.766a9.518,9.518,0,0,1,4.156-2.287h-2.158l-4.036,1.035a.61.61,0,0,1-.559.475.569.569,0,0,1-.56-.6.718.718,0,0,1,.2-.475.647.647,0,0,0-.08.259.462.462,0,0,0,.44.475.479.479,0,0,0,.44-.388l9.591-2.5L179.793,25v-.173l-7.114.216h0l-5.036.173v.173l4.116-.129L164.447,26.9c-3.6-.043-6.234-.259-6.234-2.243V17.839c0-4.487,3.8-3.495,8.393-3.84a249.982,249.982,0,0,1,27.855,0c4.636.345,8.393-.647,8.393,3.84v6.816c0,2.373-2.558,2.373-6.075,2.287l-7.473-1.683,4.116.129v-.173l-5.036-.173h0l-7.114-.216V25l7.234.216,9.591,2.5a.479.479,0,0,0,.44.388.462.462,0,0,0,.44-.475.647.647,0,0,0-.08-.259.64.64,0,0,1,.2.475.569.569,0,0,1-.559.6.61.61,0,0,1-.56-.475l-4.036-1.035H192.3a9.78,9.78,0,0,1,4.156,2.287c1.319,1.251,2.718,5.048,2.718,7.766a8.077,8.077,0,0,1,5.6,2.8V11.239c0-4.789-3.916-6.816-8.033-8.672-7.593-3.408-25.3-3.538-32.451,0-4.036,1.985-8.033,3.883-8.033,8.672V40.662C156.854,39.583,158.492,37.426,162.409,36.994Zm3.237-32.012.2-.086c2.917-1.424,8.273-2.287,14.347-2.287,6.115,0,11.909.906,15.107,2.33,3.877,1.726,5.955,3.063,6.314,5.35.12.863-2.318.777-2.318.777H161.33s-1.918-.086-1.878-.69C159.811,8,162.089,6.752,165.646,4.983Zm26.017,34.73c0,.043,0,.043-.04.086h0C191.663,39.756,191.663,39.756,191.663,39.712Zm-.04-6.126h0a.647.647,0,0,1,.08.259A.647.647,0,0,1,191.623,33.586Zm.12,3.71h-23.3v1.337h23.3Zm-21.861,3.8H190.3a2.192,2.192,0,0,0,1.359-1.337H168.523A2.1,2.1,0,0,0,169.882,41.093Zm19.942-8.8H170.362a2.58,2.58,0,0,0-1.8,1.337h23.02A2.327,2.327,0,0,0,189.825,32.292Zm1.918,2.5h-23.3v1.337h23.3Zm13.228,9.621h-49c-.44,0-.8.475-.8,1.122V48.3c0,.6.36,1.122.8,1.122h49c.44,0,.839-.475.839-1.122V45.537C205.81,44.889,205.451,44.415,204.971,44.415Zm-47.118-4.746a.7.7,0,0,0-.679.733v2.675a.73.73,0,0,0,.679.733h7.993a.7.7,0,0,0,.679-.733V40.4a.73.73,0,0,0-.679-.733Zm2.917,3.193a.418.418,0,0,1-.4.431h-2.318a.417.417,0,0,1-.4-.431v-2.2a.418.418,0,0,1,.4-.431h2.318a.417.417,0,0,1,.4.431Zm4.356,0a.418.418,0,0,1-.4.431H161.49a.417.417,0,0,1-.4-.431v-2.2a.418.418,0,0,1,.4-.431h3.237a.417.417,0,0,1,.4.431Zm30.053-3.193a.7.7,0,0,0-.679.733v2.675a.73.73,0,0,0,.679.733h7.993a.7.7,0,0,0,.679-.733V40.4a.73.73,0,0,0-.679-.733Zm4.716,3.193a.418.418,0,0,1-.4.431h-3.2a.417.417,0,0,1-.4-.431v-2.2a.418.418,0,0,1,.4-.431h3.237a.417.417,0,0,1,.4.431v2.2Zm3.437-2.2v2.2a.418.418,0,0,1-.4.431h-2.318a.417.417,0,0,1-.4-.431v-2.2a.418.418,0,0,1,.4-.431h2.318A.418.418,0,0,1,203.333,40.662Zm6.634-25.2h-2.278a1.209,1.209,0,0,0-1.159,1.251v8.93a1.209,1.209,0,0,0,1.159,1.251h2.278a1.209,1.209,0,0,0,1.159-1.251v-8.93A1.182,1.182,0,0,0,209.967,15.466Zm-56.63,0h-2.278a1.209,1.209,0,0,0-1.159,1.251v8.93a1.209,1.209,0,0,0,1.159,1.251h2.278a1.209,1.209,0,0,0,1.159-1.251v-8.93A1.182,1.182,0,0,0,153.337,15.466Zm16.305-6.9c0-.69-.6-.992-1.2-1.294a7.6,7.6,0,0,0-4.8,0c-.6.3-1.2.561-1.2,1.294v1.726H169.6V8.564Zm28.894,0c0-.69-.6-.992-1.2-1.294a7.6,7.6,0,0,0-4.8,0c-.6.3-1.2.561-1.2,1.294v1.726H198.5V8.564Z" transform="translate(-149.9 0.038)"/></g><path class="f" d="M12.989,34.4a6.683,6.683,0,0,0-6.394-6.9A6.683,6.683,0,0,0,.2,34.4a6.969,6.969,0,0,0,.719,3.149h0V37.6c.04.129.12.216.16.345L6.554,48.553,12.029,37.94a1.335,1.335,0,0,0,.16-.345l.04-.043h0A7,7,0,0,0,12.989,34.4ZM6.594,39.45a5.061,5.061,0,0,1-.04-10.1A4.879,4.879,0,0,1,11.23,34.4,4.8,4.8,0,0,1,6.594,39.45Z" transform="translate(89.8 3198.385)"/><path class="f" d="M49.089,33.7a6.683,6.683,0,0,0-6.394-6.9A6.683,6.683,0,0,0,36.3,33.7a6.969,6.969,0,0,0,.719,3.149h0l.04.043c.04.129.12.216.16.345l5.475,10.613L48.169,37.24a1.335,1.335,0,0,0,.16-.345l.04-.043h0A7.535,7.535,0,0,0,49.089,33.7ZM42.694,38.75A4.879,4.879,0,0,1,38.018,33.7a4.878,4.878,0,0,1,4.676-5.048A4.825,4.825,0,0,1,47.37,33.7,4.852,4.852,0,0,1,42.694,38.75Z" transform="translate(68.127 3198.783)"/><path class="f" d="M84.289,34.4a6.413,6.413,0,1,0-12.789,0,6.969,6.969,0,0,0,.719,3.149h0l.04.043c.04.129.12.216.16.345l5.475,10.613L83.369,37.94a1.335,1.335,0,0,0,.16-.345l.04-.043h0A6.969,6.969,0,0,0,84.289,34.4ZM77.894,39.45A4.879,4.879,0,0,1,73.218,34.4a4.69,4.69,0,1,1,9.352,0A4.827,4.827,0,0,1,77.894,39.45Z" transform="translate(46.995 3198.385)"/><path class="f" d="M120.489,33.7a6.413,6.413,0,1,0-12.789,0,6.969,6.969,0,0,0,.719,3.149h0l.04.043c.04.129.12.216.16.345l5.475,10.613,5.475-10.613a1.335,1.335,0,0,0,.16-.345l.04-.043h0A7.535,7.535,0,0,0,120.489,33.7Zm-6.394,5.048a4.879,4.879,0,0,1-4.676-5.048,4.69,4.69,0,1,1,9.352,0A4.878,4.878,0,0,1,114.094,38.75Z" transform="translate(25.262 3198.783)"/><path class="f" d="M12.989,87.3a6.683,6.683,0,0,0-6.394-6.9A6.683,6.683,0,0,0,.2,87.3a6.969,6.969,0,0,0,.719,3.149h0l.04.043c.04.129.12.216.16.345l5.475,10.613L12.069,90.84a1.335,1.335,0,0,0,.16-.345l.04-.043h0A7.535,7.535,0,0,0,12.989,87.3ZM6.594,92.35a5.062,5.062,0,0,1,0-10.1,5.062,5.062,0,0,1,0,10.1Z" transform="translate(89.8 3168.308)"/><path class="f" d="M49.089,86.6a6.683,6.683,0,0,0-6.394-6.9A6.683,6.683,0,0,0,36.3,86.6a6.969,6.969,0,0,0,.719,3.149h0l.04.043c.04.129.12.216.16.345l5.475,10.613L48.169,90.14a1.335,1.335,0,0,0,.16-.345l.04-.043h0A7.535,7.535,0,0,0,49.089,86.6ZM42.694,91.65A5.062,5.062,0,1,1,47.37,86.6,4.879,4.879,0,0,1,42.694,91.65Z" transform="translate(68.127 3168.706)"/><path class="f" d="M84.289,87.3a6.413,6.413,0,1,0-12.789,0,6.969,6.969,0,0,0,.719,3.149h0l.04.043c.04.129.12.216.16.345l5.475,10.613L83.369,90.84a1.335,1.335,0,0,0,.16-.345l.04-.043h0A6.969,6.969,0,0,0,84.289,87.3ZM77.894,92.35A5.062,5.062,0,1,1,82.57,87.3,4.879,4.879,0,0,1,77.894,92.35Z" transform="translate(46.995 3168.308)"/><path class="f" d="M120.489,86.6a6.413,6.413,0,1,0-12.789,0,6.969,6.969,0,0,0,.719,3.149h0l.04.043c.04.129.12.216.16.345l5.475,10.613,5.475-10.613a1.335,1.335,0,0,0,.16-.345l.04-.043h0A7.535,7.535,0,0,0,120.489,86.6Zm-6.394,5.048A5.062,5.062,0,1,1,118.77,86.6,4.879,4.879,0,0,1,114.094,91.65Z" transform="translate(25.262 3168.706)"/><path class="f" d="M323.889,34.4a6.413,6.413,0,1,0-12.789,0,6.969,6.969,0,0,0,.719,3.149h0l.04.043c.04.129.12.216.16.345l5.475,10.613,5.475-10.613a1.333,1.333,0,0,0,.16-.345l.04-.043h0A6.969,6.969,0,0,0,323.889,34.4Zm-6.394,5.048a4.879,4.879,0,0,1-4.676-5.048,4.69,4.69,0,1,1,9.352,0A4.827,4.827,0,0,1,317.494,39.45Z" transform="translate(-96.85 3198.385)"/><path class="f" d="M360.089,33.7a6.413,6.413,0,1,0-12.789,0,6.97,6.97,0,0,0,.719,3.149h0l.04.043c.04.129.12.216.16.345l5.475,10.613,5.475-10.613a1.336,1.336,0,0,0,.16-.345l.04-.043h0A7.534,7.534,0,0,0,360.089,33.7Zm-6.394,5.048a4.879,4.879,0,0,1-4.676-5.048,4.69,4.69,0,1,1,9.352,0A4.878,4.878,0,0,1,353.694,38.75Z" transform="translate(-118.583 3198.783)"/><path class="f" d="M395.289,34.4a6.413,6.413,0,1,0-12.789,0,6.969,6.969,0,0,0,.719,3.149h0l.04.043c.04.129.12.216.16.345l5.475,10.613,5.475-10.613a1.336,1.336,0,0,0,.16-.345l.04-.043h0A6.968,6.968,0,0,0,395.289,34.4Zm-6.394,5.048a4.879,4.879,0,0,1-4.676-5.048,4.69,4.69,0,1,1,9.352,0A4.827,4.827,0,0,1,388.894,39.45Z" transform="translate(-139.716 3198.385)"/><path class="f" d="M431.389,33.7a6.413,6.413,0,1,0-12.789,0,6.969,6.969,0,0,0,.719,3.149h0l.04.043c.04.129.12.216.16.345l5.475,10.613,5.515-10.613a1.335,1.335,0,0,0,.16-.345l.04-.043h0A7.509,7.509,0,0,0,431.389,33.7Zm-6.394,5.048a4.879,4.879,0,0,1-4.676-5.048,4.69,4.69,0,1,1,9.352,0A4.827,4.827,0,0,1,424.994,38.75Z" transform="translate(-161.389 3198.783)"/><path class="f" d="M323.889,87.3a6.413,6.413,0,1,0-12.789,0,6.969,6.969,0,0,0,.719,3.149h0l.04.043c.04.129.12.216.16.345l5.475,10.613,5.475-10.613a1.333,1.333,0,0,0,.16-.345l.04-.043h0A6.969,6.969,0,0,0,323.889,87.3Zm-6.394,5.048A5.062,5.062,0,1,1,322.17,87.3,4.879,4.879,0,0,1,317.494,92.35Z" transform="translate(-96.85 3168.308)"/><path class="f" d="M360.089,86.6a6.413,6.413,0,1,0-12.789,0,6.97,6.97,0,0,0,.719,3.149h0l.04.043c.04.129.12.216.16.345l5.475,10.613,5.475-10.613a1.336,1.336,0,0,0,.16-.345l.04-.043h0A7.534,7.534,0,0,0,360.089,86.6Zm-6.394,5.048A5.062,5.062,0,1,1,358.37,86.6,4.879,4.879,0,0,1,353.694,91.65Z" transform="translate(-118.583 3168.706)"/><path class="f" d="M395.289,87.3a6.413,6.413,0,1,0-12.789,0,6.969,6.969,0,0,0,.719,3.149h0l.04.043c.04.129.12.216.16.345l5.475,10.613,5.475-10.613a1.336,1.336,0,0,0,.16-.345l.04-.043h0A6.969,6.969,0,0,0,395.289,87.3Zm-6.394,5.048A5.062,5.062,0,1,1,393.57,87.3,4.879,4.879,0,0,1,388.894,92.35Z" transform="translate(-139.716 3168.308)"/><path class="f" d="M431.389,86.6a6.413,6.413,0,1,0-12.789,0,6.969,6.969,0,0,0,.719,3.149h0l.04.043c.04.129.12.216.16.345l5.475,10.613,5.475-10.613a1.333,1.333,0,0,0,.16-.345l.04-.043h0A6.969,6.969,0,0,0,431.389,86.6Zm-6.394,5.048A5.062,5.062,0,1,1,429.67,86.6,4.827,4.827,0,0,1,424.994,91.65Z" transform="translate(-161.389 3168.706)"/></g><g class="c" transform="translate(733 8909)"><rect class="h" width="220" height="272"/><rect class="a" x="0.5" y="0.5" width="219" height="271"/></g><text class="d" transform="translate(733 9028)"><tspan x="63.5" y="58">170</tspan><tspan class="e"><tspan x="42.626" y="98">teachers</tspan></tspan></text><g transform="translate(648.469 5186.329)"><rect class="b" width="133.668" height="3.63" transform="translate(128.449 3831.617)"/><g transform="translate(126.531 3756.671)"><path class="b" d="M1.392,84.178a49.212,49.212,0,0,1,1.691,6.436c.248,1.073.454,2.187.7,3.259.289,1.073.66,2.145,1.031,3.177.371,1.073.784,2.1,1.155,3.135a17.187,17.187,0,0,0,1.361,2.764c0,.041.041.041.083.041a.04.04,0,0,0,.041.041h0a1.738,1.738,0,0,0-.413,1.815,9.261,9.261,0,0,0,1.485,2.1l.825,1.155c.165.248.289.5.454.743a16.388,16.388,0,0,0,.825,1.444,17.436,17.436,0,0,1,.784,3.218,36.237,36.237,0,0,1,.536,4.249,18.477,18.477,0,0,1-.165,4c-.041.165-.041.371-.083.536H28.5c-.124-.578-.289-1.155-.413-1.733a4.064,4.064,0,0,0,.7.083,10.871,10.871,0,0,0,1.155.083,7.631,7.631,0,0,0,1.691-.083,2.175,2.175,0,0,0,.619-.206h.083c.7-.536.206-1.9,0-2.558-.165-.5-.289-.99-.454-1.485a12.884,12.884,0,0,0-.743-1.98c.289-.33.124-.784,0-1.2-.289-.743-.536-1.444-.825-2.187-.289-.825-.619-1.65-.949-2.434a14.166,14.166,0,0,0-.784-1.815,3.454,3.454,0,0,0-1.32-1.238,3.794,3.794,0,0,0-1.155-.578c-.165-.5-.33-.99-.536-1.485a3.7,3.7,0,0,0,.66-1.609,9.636,9.636,0,0,0,.165-1.073c.041-.536.165-1.031.248-1.568a.248.248,0,0,1,.041-.165c.041,0,.041-.083,0-.083a2.9,2.9,0,0,0-.371-1.939,5.9,5.9,0,0,0-.784-.99,9.359,9.359,0,0,1-.743-1.031v-.083a.248.248,0,0,0-.041-.165l.041-.041c0-.041.165-.124.206-.165a.993.993,0,0,0,.248-.33,1.134,1.134,0,0,0,.083-.825c0-.041-.083-.083-.124,0a5.334,5.334,0,0,1-.289.866.5.5,0,0,1-.206.206,3.206,3.206,0,0,1-.083-.66A3.257,3.257,0,0,0,24.5,93.3a4.8,4.8,0,0,0-.165-.743,11.833,11.833,0,0,0-.825-1.609,3,3,0,0,0-1.114-1.155,4.815,4.815,0,0,0-1.609-.619,3.625,3.625,0,0,0-1.733.248.04.04,0,0,0-.041.041,2.023,2.023,0,0,0-1.815.124,6.671,6.671,0,0,0-1.857,1.155,9.521,9.521,0,0,0-2.64,4.579,15.865,15.865,0,0,0-.454,4.827,15.055,15.055,0,0,0,.289,3.837c-.289-.413-.578-.825-.825-1.238-.578-.949-1.2-1.856-1.774-2.805V99.9l-.124-.248h0a44.168,44.168,0,0,1-2.847-5.982c-.825-2.022-1.815-3.961-2.475-6.023-.165-.5-.289-.99-.413-1.485a1.639,1.639,0,0,1,.124-1.32,7.421,7.421,0,0,0,.99-1.98A5.022,5.022,0,0,0,5.229,81.5c-.041-.536.041-1.073,0-1.609-.041-.206-.083-.454-.33-.5-.206-.041-.248.289-.289.413-.124.66.041,1.65-.454,2.187-.5.5-.7-.743-.743-1.031-.041-.454-.041-.949-.083-1.4a8.138,8.138,0,0,0-.248-1.98c-.041-.083-.248-.743-.413-.536v.041c0,.041-.041.083-.041.124A.5.5,0,0,0,2.423,77c-.041,0-.083,0-.083.041-.206.206-.454.371-.536.66H1.763a3.389,3.389,0,0,0-.536,1.9,10.81,10.81,0,0,0-.041,1.155,1.988,1.988,0,0,0,0,.5,8.729,8.729,0,0,1-.5-.825c-.124-.289-.165-.619-.289-.908-.041-.041-.083-.083-.124-.041-.5.33-.041,1.238.083,1.691C.608,82.157,1.021,83.147,1.392,84.178Zm26.115,31.313c.041.165.124.33.165.454a3.494,3.494,0,0,1,.165.7c.041.248-.083.33-.33.289-.041-.5-.041-.99-.041-1.526Zm-1.98-11.923c.165.413.289.866.454,1.279h-.206c-.041-.083-.083-.206-.124-.289l-.33-.784C25.4,103.692,25.485,103.651,25.526,103.569Zm-12.954-.743c-.041-.413-.083-.866-.124-1.32a.372.372,0,0,0,.041.206c.124.866.248,1.774.454,2.64-.041-.041-.041-.083-.083-.124C12.737,103.734,12.655,103.28,12.572,102.826Z" transform="translate(-0.052 -45.249)"/><path class="b" d="M6.8,77.2Z" transform="translate(-4.016 -45.367)"/><path class="b" d="M4.5,78.6Z" transform="translate(-2.665 -46.189)"/><path class="b" d="M84.741,133.549c-.041.784-.165,1.526.5,2.063a3.361,3.361,0,0,0,1.774.578l1.114.124a2.157,2.157,0,0,0,1.031-.083c.041.5.083.99.083,1.485h13.284c-.041-.289-.083-.619-.124-.908-.041-.5-.083-.949-.083-1.444a.765.765,0,0,1,.289.083,2.723,2.723,0,0,0,.578.041,9.691,9.691,0,0,0,1.073.041,2.874,2.874,0,0,0,1.444-.206.057.057,0,0,0,.083,0,.609.609,0,0,0,.33-.619c.041-.5.083-.949.083-1.444,0-.536,0-1.073-.041-1.609a5.125,5.125,0,0,0-.165-1.361,1.465,1.465,0,0,1,.371-.165,18.95,18.95,0,0,0-.784-4.043,8.7,8.7,0,0,0-1.031-3.012,7.626,7.626,0,0,0-2.269-2.022,5.316,5.316,0,0,0-1.361-.7A6.893,6.893,0,0,0,99.3,120.1c-.743-.124-.99-.5-.7-1.238a.362.362,0,0,0,.289-.248.817.817,0,0,0,.866.124c.165-.083.413-.206.413-.371a1.109,1.109,0,0,0,.743-.33h0c.041.041.124.041.165.083.371.124.66-.124.949-.371s.908-.825.536-1.155a1.341,1.341,0,0,0,.289-.7.442.442,0,0,0-.083-.248,1.245,1.245,0,0,0,.083-1.485c.743-.124,1.238-1.526.66-1.774a.8.8,0,0,0-.413-.866c.619-.578-.083-2.022-.784-1.774-.041,0-.041,0-.083-.041.041-.041.083-.041.083-.083.206-.33,0-.619-.206-.908-.041-.041-.083-.124-.165-.165a1.142,1.142,0,0,0,.041-.371,1.333,1.333,0,0,0-.536-.99,1.074,1.074,0,0,0-.619-.165c.124-.041.165-.165.165-.371a.746.746,0,0,0-.578-.66.7.7,0,0,0-.619-.866c0-.454-.454-.66-.908-.578a.834.834,0,0,0-1.073-.7c-.165.041-.784.33-.7.578h0a.152.152,0,0,1-.124-.041c-.041-.041-.083-.083-.124-.083h0c.083-.413-.578-.825-.908-.99a1.674,1.674,0,0,0-2.022.7c-.248-.248-.784-.083-1.073.165-.206-.33-1.114.083-1.238.536a.04.04,0,0,0-.041-.041,1.251,1.251,0,0,0-1.485.248A1.315,1.315,0,0,0,89.9,106.2c-.5-.083-1.2.5-.99.99a1.267,1.267,0,0,0-.536.33,1.89,1.89,0,0,1-.536.33c-.165.083-.248.248-.371.371a1.362,1.362,0,0,0,0,1.65c-.289.083-.454.413-.536.784a4.484,4.484,0,0,0-.041.743c.041.33.289.5.165.866a.466.466,0,0,0-.041.33c.041.206.165.371.124.578a1.843,1.843,0,0,0-.124,1.155,2.048,2.048,0,0,0,.7.866.721.721,0,0,0,.619.165,1.716,1.716,0,0,0,0,1.114c.083.206.206.5.413.578-.041.083,0,.206,0,.289.083.371.413.454.7.619.289.124,0,.5,0,.743a.72.72,0,0,0,.165.5.913.913,0,0,0,.908.206.462.462,0,0,0,.289.33c.289.083.908.165,1.114.454.206.33-.041.5-.33.578-.825.206-1.609.041-2.434.206a4.676,4.676,0,0,0-2.187.908,2.656,2.656,0,0,0-.619,1.031c-.083.289-.165.536-.248.825a4.866,4.866,0,0,0-.165.825c-.124.619-.289,1.238-.454,1.815-.33,1.32-.578,2.6-.784,3.919,0,.041.083.165.165.165a.152.152,0,0,1,.124.041c-.083.5-.083,1.031-.124,1.526C84.824,132.353,84.783,132.931,84.741,133.549Zm17.492-2.1v-.578c0-.083-.041-.165,0-.248.041,0,.124-.041.165-.041.083,0,.083,0,.124.124a1.2,1.2,0,0,0,.083.371c.041.165.083.33.124.536s-.083.165-.248.165h-.206A.8.8,0,0,1,102.234,131.445Zm.536-16.337h0l-.124.248-.083.083a.04.04,0,0,1-.041-.041ZM91.961,104.423c.083-.083.165-.124.248-.206C92.126,104.3,92.043,104.34,91.961,104.423Zm-3.548,26.816h0a10.312,10.312,0,0,1,.206,1.2c-.124-.083-.33-.041-.371-.206a3.385,3.385,0,0,1-.083-.908A.349.349,0,0,0,88.413,131.239Z" transform="translate(-49.778 -60.626)"/><path class="b" d="M135.8,168.7Z" transform="translate(-79.796 -99.118)"/><path class="b" d="M136.1,169.1Z" transform="translate(-79.972 -99.353)"/><path class="b" d="M110,51.263h.041c.206-2.022.289-3.961.413-5.982.165-3.672.248-7.467-.949-10.974-.784-2.31-1.609-4.332-2.187-6.725-.371-1.526-.949-5.57-2.558-7.137a3.843,3.843,0,0,0-2.6-1.774,13.061,13.061,0,0,0-3.3-.908h-.33c-.206-.413-.536-.866-.619-1.114a3.814,3.814,0,0,1-.413-1.485c.083-.866.413-.206.908-.083a2.772,2.772,0,0,0,1.155-.124c1.609-.5,2.434-3.135,1.526-4.538-.454-.743-1.155-.578-1.733-1.073a4.837,4.837,0,0,0,1.444-2.97c.33-3.383-3.259-5.611-6.147-6.23a6.447,6.447,0,0,0-5.2,1.4c-.825.7-1.939,1.4-2.31,2.475-.248.66.083.908.206,1.485.083.33-.041.66.083.99.083.33.248.619.33.99.124.7-.413,1.526-1.031.66a2.292,2.292,0,0,0,.66.578,7.192,7.192,0,0,1-.949,1.568c-.33.371-.5.206-.289.7.124.33.578.454.825.7.5.536.041.248.124.825.041.371.454.578.825.7-.413.248-.371.5-.33.866.041.124.248.206.248.371.041.206-.165.5-.083.66.206.7,1.526.578,2.187.536.949-.041,1.98-.908,2.682.124a3.258,3.258,0,0,1,.413,1.98c-.536.083-1.073.206-1.609.289a6.63,6.63,0,0,0-4.579,2.475c-2.269,2.31-4.208,4.827-6.353,7.261-.536.578-1.114,1.155-1.691,1.691a.724.724,0,0,1-.206.165l-.825.619h-.041c-.124.041-.248.041-.33.083l-2.187.371c-1.155.165-2.352.248-3.465.454-1.733.33-3.424.619-5.157.866-.866.124-1.733.248-2.558.413q-1.238.309-2.475.5h0c-.041-.041-.083,0-.124.041-.083.248.083.578.124.825.041.124.041.248.083.371a4.977,4.977,0,0,1-2.063.083,3.3,3.3,0,0,0-1.279-.124c-.5.041-1.031.124-1.526.206a10.11,10.11,0,0,1-1.568.165,1.805,1.805,0,0,0-1.031.33,17.872,17.872,0,0,1-2.558,1.485h-.041a420.649,420.649,0,0,0-.083.083v.041h.041l.041.041a3.712,3.712,0,0,0,2.764-.578,1.869,1.869,0,0,1,.908-.33c.289,0,.578.041.866.041a12.729,12.729,0,0,0,1.774,0h0a1.221,1.221,0,0,0,.413.083c.248.041.536.248.165.371a10.654,10.654,0,0,1-1.2.124c-.5.041-.99.124-1.444.206a2.365,2.365,0,0,0-.578.165,3.233,3.233,0,0,0-.619.413c-.083.041-.083.206.041.206a14.405,14.405,0,0,0,2.31.041,5.808,5.808,0,0,1,1.2.041c.33.041.66.083,1.031.124a4.555,4.555,0,0,0,3.177-.784,1.8,1.8,0,0,0,.413.784v.041a.152.152,0,0,0,.124.041v.041h.041a3.038,3.038,0,0,0,1.361-.041c.908-.165,1.9-.165,2.805-.248.949-.083,1.9-.248,2.847-.413.908-.124,1.815-.083,2.682-.248.99-.206,2.022-.289,3.012-.413.413-.041.866-.124,1.279-.206a8.823,8.823,0,0,0,1.114-.248,5.26,5.26,0,0,0,1.114-.454c.041-.041.041-.041.041-.083l.041-.041a18.671,18.671,0,0,0,2.269-1.774,14.305,14.305,0,0,0,1.2-1.031c.371-.371.7-.743,1.073-1.114.99-.825,1.9-1.857,2.888-2.64-.743,1.2.124,2.434.866,3.342A12.974,12.974,0,0,1,89.7,34.719a9.449,9.449,0,0,1,.578,4C90.157,41.9,88.919,44.868,88.465,48c-.5,3.135-.206,6.353-.413,9.489-.248,3.507.124,7.137.124,10.685,0,1.9-.289,3.507-.248,5.858,0,.413,10.19.784,11.015.825,2.558.124,4.992.413,7.385-.66.619-.248-.124-5.858-.206-6.56a37.809,37.809,0,0,1-.248-6.106,71.542,71.542,0,0,0,.33-10.726,18.023,18.023,0,0,0-2.393-8.334,14.233,14.233,0,0,1-1.526-9.7c.206-.908.454-1.815.7-2.723C104.307,32.615,106,35.049,106,37.9c0,2.1.124,4.249.124,6.353,0,2.145.536,4.332.413,6.436a5.164,5.164,0,0,0,.949.289.523.523,0,0,0-.041.248c-.165.7-.371,1.444-.5,2.187a7.149,7.149,0,0,0-.124,1.32c0,.619-.083,1.774.578,2.063.619-1.031.041-2.434.536-3.507h.289c.041,0,.041,2.269,0,2.517-.248,1.031-.908,1.9-1.073,2.97.371.041.66-.248.866-.619l-.248.743c1.65-.124,2.434-3.135,2.682-4.414A6.865,6.865,0,0,0,110,51.263ZM51.5,36.452Zm9.9-3.259h0a.152.152,0,0,1,.124-.041Zm42.617-13.408Z" transform="translate(-30.275 -0.039)"/><path class="b" d="M152.958,174.641l.248-3.878.289,3.878h5.528c.124-2.1.413-5.363-.784-6.065-2.352-1.361-5.033-2.929-7.88-2.352A4.48,4.48,0,0,0,147.1,169.9l.165,4.7h5.693Z" transform="translate(-86.434 -97.591)"/><path class="b" d="M195.9,105.765a2.9,2.9,0,0,0-1.444,1.815c-.784,1.98-1.568,4-2.228,6.023-.7,2.1-1.361,4.249-1.857,6.436-.124.536-.248,1.114-.371,1.65h4.744c.371-1.114.743-2.187,1.073-3.342.206-.743.454-1.444.66-2.187.124-.5.289-1.031.413-1.526.041.124.041.248.083.371.248,1.238.454,2.475.66,3.713.165.99.33,1.98.536,2.97H213.1c-.083-.371-.124-.743-.206-1.114-.165-.743-.289-1.485-.413-2.228-.206-1.609-.371-3.218-.578-4.868-.165-1.526-.454-3.012-.578-4.538-.041-.743-.124-1.485-.206-2.228-.041-.371-.041-.743-.083-1.155,0-.248-.041-.454-.041-.66a8.7,8.7,0,0,1,1.485-1.774,21.965,21.965,0,0,0,1.568-1.857,21.176,21.176,0,0,0,2.764-4.291A32.825,32.825,0,0,0,219.663,86.7h0c.083-.33.124-.619.206-.949a3.415,3.415,0,0,0,.206-1.32c.041,0,.041-.083,0-.083h-.041c0-.041-.041-.041-.041-.083h0l-.041.041c-.124-.041-.206-.041-.33-.083a13.411,13.411,0,0,1,.454-1.733,10.165,10.165,0,0,0,.33-1.9,4.632,4.632,0,0,0-.124-1.691,2.443,2.443,0,0,0-.536-1.2h0c.041.041.041.083.083.124-.041-.041-.083-.083-.124-.083a2.768,2.768,0,0,0-.784-1.444c-.165-.289-.371-.5-.619-.206h0a.04.04,0,0,0-.041.041,6.4,6.4,0,0,1,.165.866,1.427,1.427,0,0,0-.289-.5.077.077,0,0,0-.124,0,.515.515,0,0,0-.206.5c0,.33.083.7.083,1.073a8.926,8.926,0,0,1,0,1.485c-.041.454-.165.866-.248,1.32a1.236,1.236,0,0,1-.619-.866,1.8,1.8,0,0,0-.371-.743c-.083-.083-.33-.124-.413,0a.7.7,0,0,0-.041.578,4.358,4.358,0,0,0,.248.784,5.571,5.571,0,0,1,.248,1.444,2.177,2.177,0,0,0,.165,1.031,3.606,3.606,0,0,0,.33.413c.124.165,0,.5-.083.7h-.165a.125.125,0,0,0-.206.124,1.817,1.817,0,0,1-.083.66l-.124.743c-.124.5-.248.99-.413,1.485-.33,1.031-.7,2.063-1.114,3.053a26.124,26.124,0,0,1-1.485,2.805c-.248.454-.5.866-.743,1.32-.124.206-.248.413-.33.578a3.408,3.408,0,0,1-.289.536h-.041a1.377,1.377,0,0,0-.536-.454.887.887,0,0,0,.413-.619c0-.536-.536-.7-.99-.7a3.184,3.184,0,0,0-.619.083,2.031,2.031,0,0,0,.248-.7,1.4,1.4,0,0,0-.619-1.4c-.536-.248-.949.289-1.114.743a.908.908,0,0,0-.041.33c-.124-.371-.248-.743-.413-1.114a5.1,5.1,0,0,0-1.857-2.31,4.771,4.771,0,0,0-2.847-.908,3.786,3.786,0,0,0-2.558,1.238h0c-.578-.536-1.568-.206-2.187.041a4.225,4.225,0,0,0-1.815,1.691,8.979,8.979,0,0,0-.908,2.352,8.338,8.338,0,0,0-.248,1.4c0,.124-.041.248-.041.371-.206-.578-.578-1.073-1.073-.949a.846.846,0,0,0-.536,1.073.978.978,0,0,0,.371.619.907.907,0,0,0-.578.083c-.454.206-.784.908-.371,1.32a.863.863,0,0,0,.248.165H194c0-.041,0-.041-.041-.041a.372.372,0,0,0-.206.041h0a1.147,1.147,0,0,0-.784.66,3.978,3.978,0,0,0-.7,1.526,5.1,5.1,0,0,0,.33,3.218c0,.041.083,0,.083-.041a7.043,7.043,0,0,1-.289-2.929,4.385,4.385,0,0,1,1.031-2.1,1.447,1.447,0,0,0-.248.578,7.092,7.092,0,0,0-.413,1.609c-.124,1.031-.041,2.888,1.2,3.3.041,0,.041,0,.083-.041.041,0,.041-.041.041-.083a2.82,2.82,0,0,1-.289-1.65,1.609,1.609,0,0,0,.371,1.2c.206.165.454.124.5-.165a3.964,3.964,0,0,1,.124-1.4c0,.083.041.165.041.248,0,.041.041.041.041,0a.7.7,0,0,0,0-.413h0a2.333,2.333,0,0,1-.206,1.815c-.041.083.083.165.124.124a2.566,2.566,0,0,0,.866-1.32c.206.371-.206.99-.454,1.279a.091.091,0,0,0,.124.124,1.247,1.247,0,0,0,.743-.7.761.761,0,0,1-.206.5.1.1,0,0,0,.083.165,1.73,1.73,0,0,0,.66-.165.128.128,0,0,0,.041-.083c.66-.371.5-1.361.289-2.063a8.246,8.246,0,0,0,.413.866,1.24,1.24,0,0,1-.083,1.526c-.041.041,0,.083.041.041.825-.413.33-1.361.041-1.98-.289-.578-.536-1.2-.784-1.774a1.672,1.672,0,0,0-.206-.371c0-.083-.124-.949-.124-1.526a4.418,4.418,0,0,0,.371,1.114,5.922,5.922,0,0,0,3.8,3.259v.041c-.041.083.041.124.041.165v.454a2.253,2.253,0,0,1-.248.743c-.165-.041-.371-.083-.536-.124-.041,0-.083.041-.041.083h.041c-.206,0-.248.33-.33.454a1.29,1.29,0,0,1-.206.413c-.083.124-.206.124-.33.206l-.041.041c-.041,0-.041.041-.041.083h0a7.31,7.31,0,0,1-1.279.619A6.836,6.836,0,0,0,195.9,105.765Zm22.732-21.535h0Zm-9.984,14.852a2.353,2.353,0,0,0-.041.536,2.73,2.73,0,0,0,.124.949c-.083.083-.124.206-.206.289C208.029,100.237,208.441,99.7,208.648,99.081Zm-2.269,2.6a7.213,7.213,0,0,0,1.774-1.939,1,1,0,0,0,.248,1.238,7.952,7.952,0,0,1-1.114,1.238,1.824,1.824,0,0,1-.949.619c-.248.041-.371-.248-.578-.33,0-.083-.083-.083-.165-.041s-.124.124-.206.165l-.124-.248-.124-.248A2.354,2.354,0,0,0,206.379,101.68Z" transform="translate(-111.636 -44.64)"/><path class="b" d="M254.449,140.605a3.618,3.618,0,0,0,1.155,0c.7-.083,1.361-.206,2.022-.33A26.466,26.466,0,0,0,262,139.038a.04.04,0,0,0,.041-.041.144.144,0,0,0,.083-.041c.041,0,.124-.041.165-.041.083.66.165,1.361.289,2.022.083.413.124.825.206,1.238H278.5c-.083-.413-.124-.784-.206-1.2a4.793,4.793,0,0,0-.165-.743h3.218c.041.041.083,0,.083-.041-.165-.536-.413-1.073-.578-1.568a9.231,9.231,0,0,0-.578-1.485h-.041a1.276,1.276,0,0,0,.289-1.238.079.079,0,0,0-.124-.041A14.042,14.042,0,0,0,279.243,134c-.454-.7-.908-1.444-1.32-2.187-.371-.7-.784-1.444-1.2-2.1a1.862,1.862,0,0,0-.825-.866h-.165a5.07,5.07,0,0,0-1.114-.083,9.8,9.8,0,0,1-1.526-.248c-.454-.083-.908-.083-1.361-.165-.206-.041-.371-.083-.536-.124,0-.041-.041-.041-.082-.041-.165-.041-.371-.124-.536-.165v-.041a5.388,5.388,0,0,0-.454-.5,1.5,1.5,0,0,1-.289-.7c-.041-.165-.124-.33-.165-.536,0-.041-.082-.371-.082-.5h0c.041.083.165.206.248.33h0c0,.124.124.5.248.248,0-.041,0-.041-.041-.041-.124,0-.041-.743-.041-1.114v-.083a.144.144,0,0,0,.041.083.908.908,0,0,1,.041.33h0v-.165c.041.124.124.248.165.371a2.246,2.246,0,0,0,.454.743c.206.124.206-.165.206-.248h0a.248.248,0,0,1,.041-.165l.454-.949c.041-.041.041-.083.083-.083a6.953,6.953,0,0,1-.5,1.155.093.093,0,0,0,.165.083,1.447,1.447,0,0,0,.206-.33l.619-.619c-.165.371-.5.66-.66,1.073h0v.041c-.041.083.124.165.165.083.124-.289.413-.413.619-.619l.124-.124a.079.079,0,0,0,.124.041,11.436,11.436,0,0,0,1.155-4.167,12.519,12.519,0,0,0-.33-4.291c.165.5.289.949.413,1.444a8.932,8.932,0,0,1,.165,3.135c-.165,1.031-.7,1.939-.949,2.929,0,.041.041.083.083.041a8.914,8.914,0,0,0,1.073-2.929,8.738,8.738,0,0,0-.082-2.929,15.02,15.02,0,0,0-.908-2.929,12.463,12.463,0,0,0-.743-1.485c-.124-.206-.248-.371-.33-.536-.165-.33-.33-.66-.536-.99a3.5,3.5,0,0,0-3.053-1.568c0-.041-.041-.041-.083-.041-.083,0-.536.124-.289-.041a.613.613,0,0,1,.371-.083.083.083,0,1,0,0-.165h-.784c.124-.124.289-.248.165-.371-.206-.206-.66.206-.908.289,0-.083.041-.124.041-.206a.089.089,0,0,0-.083-.083c-.124,0-.413.041-.454.248v.124a1.673,1.673,0,0,0-.371-.206,3.649,3.649,0,0,0-.949,0c-.124,0-.124.124-.041.165.206.083.371.165.536.248.041.041.083.041.124.083-.536-.041-1.114.454-1.526.7a7.632,7.632,0,0,0-1.65,1.4,10.218,10.218,0,0,0-2.022,3.713h0v.083a2.326,2.326,0,0,1-.165.5c-.041.165-.082.33-.124.536-.124.5-.289.99-.371,1.485a7.984,7.984,0,0,0,1.939,6.395c.041.041.124,0,.083-.041a9.17,9.17,0,0,1-1.815-4.084,7.127,7.127,0,0,1,0-2.475v-.041c0,.248-.041.5-.041.784a12.538,12.538,0,0,0,.206,2.475,7.533,7.533,0,0,0,2.517,3.919c.041.041.083,0,.124-.041V126.7a.04.04,0,0,0-.041-.041,2.663,2.663,0,0,1-.165-.784v-.33a2.294,2.294,0,0,0,.371.7c.206.371.536.908,1.031.949a.089.089,0,0,0,.083-.083,2.406,2.406,0,0,0-.33-.743,4.163,4.163,0,0,1-.289-.619c.083.124.165.206.206.289.206.206.454.413.66.619.248.248.536.7.949.66a.062.062,0,1,0,0-.124c-.041,0-.083-.041-.124-.041a4,4,0,0,0-.041-.7,1.531,1.531,0,0,0-.083-.371l-.041-.289v-.083a2.807,2.807,0,0,1,.454,1.279.089.089,0,0,0,.083.083v.454a1.456,1.456,0,0,1-.124.578h0c-.248.536-.825.5-1.32.578-.578.124-1.114.206-1.691.33a5.656,5.656,0,0,0-1.444.33,3.257,3.257,0,0,0-1.031.784c-.825.825-1.691,1.65-2.475,2.517a21.023,21.023,0,0,0-2.1,2.558c-.041.041,0,.083.041.124v.124a7.355,7.355,0,0,0-1.031,1.485,11.058,11.058,0,0,0-.784,1.733C253.5,139.368,253.458,140.4,254.449,140.605Zm16.131-12.583.041.041-.041-.041Zm-7.962-1.733v0Zm-4.414,5.858c-.083.083-.165.206-.248.289l-.825.866C257.5,132.932,257.832,132.519,258.2,132.148Zm-2.64,3.3h0l-.083.124C255.521,135.531,255.562,135.49,255.562,135.448Z" transform="translate(-148.938 -65.082)"/></g></g><g class="c" transform="translate(980 8909)"><rect class="h" width="220" height="272"/><rect class="a" x="0.5" y="0.5" width="219" height="271"/></g><text class="d" transform="translate(980 9028)"><tspan x="38.81" y="58">7,000</tspan><tspan class="e"><tspan x="41.762" y="98">students</tspan></tspan></text><g class="c" transform="translate(487 8909)"><rect class="h" width="220" height="272"/><rect class="a" x="0.5" y="0.5" width="219" height="271"/></g><g transform="translate(402.064 5428.734)"><path class="b" d="M53.04,16.58l.223.223a20.188,20.188,0,0,1,2.225-1.891c.723-.445,2.114.445,3.95.334,4.562,0,5.229-3.115,5.619-5.675A39.671,39.671,0,0,1,65.5,4.452a9.408,9.408,0,0,1,.723-2.225c.056-.668.5-1,.445-1.947-.668.167-1.892-1-4.784.5a12.666,12.666,0,0,0-5.674,6.175,10.175,10.175,0,0,0-1,4.562c-.612-.056-1.224-.111-1.892-.111A11.349,11.349,0,0,0,51.2,5.4c-.111-.111-2.17-.223-2.559.278-.389.556,1.057,1.057,2,2.949A27.16,27.16,0,0,1,53.04,16.58Zm.334-4.284a17.281,17.281,0,0,1,1.78.223,17.578,17.578,0,0,0,.111,1.947c-.612.556-1.28,1.168-1.947,1.78A21.4,21.4,0,0,0,53.373,12.3Zm11.516,2.058c-.779,1.113-2.058,1.892-4.395,1.892h-.334c-1.113,1.113-4.339,1.78-8.067,1.558-4.562-.223-8.178-1.669-8.067-3.227.111-1.391,3.227-2.392,7.177-2.392-.111-.278-.167-.556-.278-.834C40.578,11.74,32.4,16.8,32.4,27.317A19.813,19.813,0,0,0,45.14,45.842c2.225.834,4.617.389,7.065.389,2.392,0,4.673.5,6.843-.278A19.807,19.807,0,0,0,72.066,27.317C72.066,21.2,69.284,16.914,64.889,14.355ZM43.86,27.873c-2.448,3.783-6.286,5.563-8.623,4.061s-2.281-5.786.167-9.569S41.691,16.8,44.027,18.3,46.308,24.09,43.86,27.873Z" transform="translate(143.524 3507.403)"/><path class="b" d="M4.981,96.266c-2.337-1.28-3.449-9.513,0-10.793L26.956,97.434l47.009-6.62L71.907,89.7l1.168-.167V87.587L27.623,93.874S10.6,84.861,6.372,82.525c-2.225-1.224-3.338-9.235,0-10.459L27.679,83.693,73.13,77.3,49.654,64.5,4.2,70.9h0C.141,72.289,1.476,81.69,4.2,83.137c.334.167.779.445,1.224.668L2.7,84.194C-1.473,85.64-.082,95.32,2.7,96.822c5.229,2.837,24.311,13.241,24.311,13.241l47.009-6.62v-2s-46.954,6.509-47.009,6.509S9.376,98.658,4.981,96.266Z" transform="translate(157.87 3478.787)"/></g><text class="d" transform="translate(487 9028)"><tspan x="76.55" y="58">32</tspan><tspan class="e"><tspan x="50.762" y="98">schools</tspan></tspan></text><g transform="translate(1005.904 8928.881)"><g class="g"><g transform="translate(65.485 0)"><path class="b" d="M-40.5-132.135l-.051.051c-.051,0-.051.051-.051.1a9.073,9.073,0,0,1-1.584.767,8.463,8.463,0,0,0-1.905.451,3.593,3.593,0,0,0-1.789,2.248c-.971,2.453-1.942,4.955-2.76,7.461-.867,2.6-1.686,5.264-2.3,7.973-.154.664-.307,1.38-.46,2.044h5.877c.46-1.38.92-2.709,1.329-4.14.255-.921.562-1.789.818-2.709.154-.619.358-1.277.512-1.891.051.154.051.308.1.46.307,1.534.562,3.066.818,4.6.2,1.226.409,2.453.664,3.679h18.5c-.1-.46-.154-.92-.255-1.38-.2-.921-.358-1.84-.512-2.76-.255-1.993-.46-3.987-.716-6.031-.2-1.891-.562-3.732-.716-5.622-.051-.921-.154-1.84-.255-2.76-.051-.46-.051-.92-.1-1.431,0-.307-.051-.562-.051-.818a10.777,10.777,0,0,1,1.84-2.2,27.154,27.154,0,0,0,1.942-2.3,26.227,26.227,0,0,0,3.424-5.316,40.668,40.668,0,0,0,3.532-12.729c.1-.409.154-.767.255-1.176a4.229,4.229,0,0,0,.255-1.635c.051,0,.051-.1,0-.1h-.051c0-.051-.051-.051-.051-.1l-.051.051c-.154-.051-.255-.051-.409-.1a16.616,16.616,0,0,1,.562-2.147,12.6,12.6,0,0,0,.409-2.354,5.746,5.746,0,0,0-.154-2.095,3.027,3.027,0,0,0-.664-1.487c.051.051.051.1.1.154-.051-.051-.1-.1-.154-.1a3.431,3.431,0,0,0-.971-1.789c-.2-.358-.46-.619-.767-.255a.05.05,0,0,0-.051.048v0a7.9,7.9,0,0,1,.2,1.073,1.767,1.767,0,0,0-.358-.619.1.1,0,0,0-.133-.02.091.091,0,0,0-.02.02.638.638,0,0,0-.255.619c0,.409.1.867.1,1.329a11.054,11.054,0,0,1,0,1.84c-.051.563-.2,1.073-.307,1.635a1.532,1.532,0,0,1-.767-1.073,2.231,2.231,0,0,0-.46-.92c-.1-.1-.409-.154-.512,0a.867.867,0,0,0-.051.716,5.416,5.416,0,0,0,.307.971,6.909,6.909,0,0,1,.307,1.789,2.694,2.694,0,0,0,.2,1.277,4.474,4.474,0,0,0,.409.512c.154.2,0,.619-.1.867h-.2a.155.155,0,0,0-.219.007.155.155,0,0,0-.036.146,2.259,2.259,0,0,1-.1.818l-.154.92c-.154.619-.307,1.226-.512,1.84-.409,1.277-.867,2.556-1.38,3.782a32.4,32.4,0,0,1-1.84,3.475c-.307.563-.619,1.073-.92,1.635-.154.255-.307.512-.409.716a4.218,4.218,0,0,1-.358.664l-4.24,6.253c-.1.1-.154.255-.255.358l-.154.155a9.868,9.868,0,0,1-1.38,1.534,2.261,2.261,0,0,1-1.176.767c-.307.051-.46-.307-.716-.409,0-.1-.1-.1-.2-.051s-.607.61-.709.66" transform="translate(51.398 167.701)"/></g><g transform="translate(8.234 38.69)"><path class="b" d="M-9.5-41.925h0l-.1.154c.049-.05.1-.1.1-.152ZM-6.227-47c-.1.112-.2.277-.307.388l-1.022,1.164c.457-.5.868-1.052,1.324-1.551ZM9.105-52.542l.051.055ZM2.762-53.21a2.1,2.1,0,0,1-.154.776c-.307.72-1.022.672-1.635.777-.716.166-1.38.277-2.095.443a6.558,6.558,0,0,0-1.789.443,4.088,4.088,0,0,0-1.277,1.054C-5.21-48.608-6.283-47.5-7.254-46.334a27.874,27.874,0,0,0-2.6,3.437c-.051.055,0,.112.051.167v.166a9.938,9.938,0,0,0-1.277,2,15.485,15.485,0,0,0-.971,2.329c0,.943-.053,2.33,1.175,2.605a4.136,4.136,0,0,0,1.431,0c.867-.112,1.686-.277,2.5-.443A30.824,30.824,0,0,0-1.524-37.74a.051.051,0,0,0,.051-.052v0a.176.176,0,0,0,.1-.055c.051,0,.154-.055.2-.055.1.887.2,1.829.358,2.717.1.555.154,1.109.255,1.663h19.47c-.1-.555-.154-1.053-.255-1.612a6.942,6.942,0,0,0-.2-1h3.986c.051.055.1,0,.1-.055-.2-.72-.512-1.442-.716-2.107a13.074,13.074,0,0,0-.716-2h-.051a1.822,1.822,0,0,0,.358-1.663.1.1,0,0,0-.121-.073.091.091,0,0,0-.033.018,19.134,19.134,0,0,0-1.431-2.5c-.562-.94-1.125-1.94-1.635-2.938-.46-.941-.971-1.94-1.486-2.822a2.429,2.429,0,0,0-1.022-1.164h-.2a5.8,5.8,0,0,0-1.38-.111,11.236,11.236,0,0,1-1.89-.333c-.562-.112-1.125-.112-1.686-.222-.255-.055-.46-.112-.664-.167,0-.055-.051-.055-.1-.055-.2-.055-.46-.167-.664-.222V-52.6" transform="translate(12.054 53.21)"/></g><g transform="translate(71.001 13.371)"><path class="b" d="M-74.788-80.1h-.2a6.284,6.284,0,0,0-1.38-.1,12.124,12.124,0,0,1-1.89-.307c-.562-.1-1.125-.1-1.686-.2-.255-.051-.46-.1-.664-.154,0-.051-.051-.051-.1-.051-.2-.051-.46-.154-.664-.2v-.051a6.651,6.651,0,0,0-.562-.619,1.86,1.86,0,0,1-.358-.867c-.051-.2-.154-.409-.2-.664l-.1-.619,1.381.87.965.051c.154-.358.512-.512.767-.767l.154-.154.819-1.075a11.043,11.043,0,0,0,1.329-3.629,10.82,10.82,0,0,0-.1-3.629A18.592,18.592,0,0,0-78.416-95.9a15.416,15.416,0,0,0-.92-1.84c-.154-.255-.307-.46-.409-.664-.2-.409-.409-.818-.664-1.226a4.337,4.337,0,0,0-3.782-1.943,6.442,6.442,0,0,0-1.025-.082l-2.351.034c-.664-.051-1.38.562-1.89.867A9.463,9.463,0,0,0-91.5-99.023a12.658,12.658,0,0,0-2.5,4.6v.1a2.894,2.894,0,0,1-.2.619c-.051.2-.1.409-.154.664-.154.619-.358,1.226-.46,1.84a9.891,9.891,0,0,0,2.4,7.922c.051.051.154,0,.1-.051a11.362,11.362,0,0,1-2.248-5.059,8.83,8.83,0,0,1,0-3.066V-91.5c0,.307-.051.619-.051.971a15.514,15.514,0,0,0,.255,3.066,9.332,9.332,0,0,0,3.118,4.855l1.635.463.409-.665c.307.307.664.867,1.176.818a.077.077,0,0,0,.077-.077.077.077,0,0,0-.077-.077c-.051,0-.1-.051-.154-.051a4.962,4.962,0,0,0-.051-.867,1.9,1.9,0,0,0-.1-.46l-.051-.358v-.1a3.478,3.478,0,0,1,.562,1.585.11.11,0,0,0,.1.1v.562a1.8,1.8,0,0,1-.154.716,4.41,4.41,0,0,1-1.662,1.557" transform="translate(94.918 101.659)"/></g><path class="b" d="M15.461-125.585h1.914v-33.8H15.461Z" transform="translate(-12.182 218.415)"/><path class="b" d="M221.625-125.585h1.913v-33.8h-1.913Z" transform="translate(-174.622 218.415)"/><path class="b" d="M70.406-133.67H96.639V-134.9H70.406Z" transform="translate(-55.474 199.12)"/><path class="b" d="M329.641-133.67h27.327V-134.9H329.641Z" transform="translate(-259.73 199.12)"/><path class="b" d="M52.194-171.62H0v-4.509H52.194Z" transform="translate(0 231.606)"/><path class="b" d="M563.268-125.588h-1.913v-33.8h1.913Z" transform="translate(-442.302 218.419)"/><path class="b" d="M767.52-125.588h1.913v-33.8H767.52Z" transform="translate(-604.743 218.419)"/><path class="b" d="M601.3-116.981h26.233v-1.229H601.3Z" transform="translate(-473.776 185.97)"/><path class="b" d="M598.089-171.62H545.9v-4.509h52.194Z" transform="translate(-430.121 231.606)"/><path class="b" d="M290.324-125.588H288.41v-33.8h1.914Z" transform="translate(-227.244 218.419)"/><path class="b" d="M494.57-125.588h1.914v-33.8H494.57Z" transform="translate(-389.681 218.419)"/><path class="b" d="M325.144-171.62H272.95v-4.509h52.194Z" transform="translate(-215.062 231.606)"/><g transform="translate(124.545 14.698)"><path class="b" d="M-99.766-140.6a3.72,3.72,0,0,0-.057-1.953,2.119,2.119,0,0,0-.165-.8c-.009-.011-.329-.389-.338-.252-.056.789-.5,2.574.561,3m-19.311,3.237a18.145,18.145,0,0,0,.237-3.971c-.039-.357.025-.649-.3-.861-.426.532-.319,1.927-.419,2.61a14.11,14.11,0,0,1-.633,2.619l-6.431,1.457c.045-1.14.431-2.232.554-3.363a28.062,28.062,0,0,1,.695-4.128c.786-2.995,1.683-5.926,2.425-8.9a9.6,9.6,0,0,1,3.093-5.149,5.725,5.725,0,0,1,2.2-1.211c.419-.135,4-1.714,4.036-.665,1.323.106.993-2.252.839-3.01-.1-.509-.673-3-1.261-3.01-.24.417-.936.791-1.322.31-.293-.366-.21-.993-.538-1.429a2.159,2.159,0,0,1-.532-1.589c0-.821.16-.915.942-.962-.18,0-.616-.994-.643-1.158s.064-.407.037-.608c-.038-.279-.19-.534-.218-.819a12.246,12.246,0,0,0,.03-1.313c-.14-.628-1.221-1.525-.519-2.242.246.424.136,1.639.9,1.068.621-.465.6-1.069.644-1.792.441-.245.42.285.692.35.311.074.508-.229.731-.412a5.354,5.354,0,0,0,1.224-1.219c-.353-.311-.677.074-.843.367-.108-.428.353-.735.673-.843.215-.072.49.021.691-.052a2.648,2.648,0,0,0,.57-.384,2.421,2.421,0,0,1,1.229-.358,4.356,4.356,0,0,0,.635-.055,4.234,4.234,0,0,0,.69-.264c.5-.176.738.061,1.162.151s.874,0,1.328.074a.836.836,0,0,0,.522,0c.2-.059.468-.36.682-.319.252.049.613.64.741.85.276.451.859,1.591,1.541,1.463.137-.787-.16-1.017-.717-1.468.888-.2.911.8,1.363,1.27.269.283,1.451.416,1.152.936-.5.066-.15.528.1.7-.39-.111-.747-.04-.524.424.11.226.539.384.7.58a2.612,2.612,0,0,1,.676,1.9,1.069,1.069,0,0,0-.351-.361,2.267,2.267,0,0,0-.053,1.415c.44.158.112,1.7.088,2.171-1.053.523-.3,1.247-.215,2.086a2.463,2.463,0,0,1-.2,1.259c-.208.4-.719.616-.805,1.05-.383.173-.26.717-.679.909-.56.256-.763-.066-1.061-.456-.072.43-.63.915-.836,1.3-.379.7-.7,1.4-1.014,2.126a1.949,1.949,0,0,0-.32,1.272c.069.244.4.754.689.8.214.029.256-.215.477-.214s.292.117.475.211a2.852,2.852,0,0,0,1.165.369,5.108,5.108,0,0,1,2.026,1.155c1,.652,1.973,1.33,2.939,2.09a4.279,4.279,0,0,1,1.452,2.521,17.479,17.479,0,0,1,.891,4.082,19.172,19.172,0,0,0,.474,3.076c.368,1.615.659,3.29,1.167,4.867a11.138,11.138,0,0,1,.953,2.649l-5.62.787c.313.015-.571-2.11-.724-2.263a4.262,4.262,0,0,1-.863,1.372Z" transform="translate(126.62 178.441)"/></g><g transform="translate(130.837 59.462)"><path class="b" d="M-77.857-2.15a13.7,13.7,0,0,0-.043,1.7,8.96,8.96,0,0,1-.456,2.266A20.381,20.381,0,0,0-78.679,4.3a17.537,17.537,0,0,1-.256,2.157c-.169.618-.457,1.162-.677,1.773S-80.4,9.556-80.17,10.2c.18.508-.105,1.073.227,1.507a3.224,3.224,0,0,1,.673,3.459c-.4,1.115-1.293,2.239-1.246,3.452a5.171,5.171,0,0,0,.055,1.392c.137.3.5.571.686.949.366.73.514,1.546.909,2.309.444.857,1.315,1.4,1.781,2.213.339.588.7,1.97-.056,2.413a9.637,9.637,0,0,1-1.337.408,9.952,9.952,0,0,1-1.206.309,6.961,6.961,0,0,1-2.7.323c-.973-.193-.928-.962-1.211-1.666-.3-.745-1.386-1.246-1.44-2.076-.055-.856.442-1.5-.062-2.292-.285-.45-.242-.653-.077-1.2.138-.462.3-.645.094-1.077-.345-.737-.593-1.552-.924-2.341-.781-1.854-1.778-3.262-1.973-5.25-.054-.54.152-5.149-.047-5.671l-.707,1.577c-.126.5.27,3.475.221,3.975a7.748,7.748,0,0,1-.3,2.47c-.353.952-.055,2.229-.57,3.082-.086.142-.269.17-.378.323a1.376,1.376,0,0,0-.154.677c-.02.413,0,.834,0,1.241a4,4,0,0,1-.052,1.348c-.153.469-.474.773-.4,1.3a4.571,4.571,0,0,1-.048,2.3c-.288.691-.954,1.205-1.233,1.921-.348.889-.824,1.469-1.948,1.363-.989-.092-1.9-.215-2.957-.215-.861,0-2.483.244-2.244-1,.49-.192.4-1.094.67-1.528a10.367,10.367,0,0,1,.97-1.13,5.9,5.9,0,0,0,.914-1.527c.256-.58-.031-1.037.1-1.656.113-.534.016-.855.162-1.37.089-.312-.093-.475-.08-.737a6.4,6.4,0,0,0,.138-.848,13.016,13.016,0,0,0-.964-2.906,3.934,3.934,0,0,1,.2-3.353c.52-.924-.135-2.234-.416-3.318-.065-.252-.36-.374-.394-.645-.046-.363.255-.681.317-1A3.23,3.23,0,0,0-97.5,5.978a11.15,11.15,0,0,1-.527-3.6,17.492,17.492,0,0,0-.158-2.665,16.517,16.517,0,0,1-.4-2.445" transform="translate(98.814 2.729)"/></g><g transform="translate(74.51 58.513)"><path class="b" d="M-35.5-66.282a14.058,14.058,0,0,0,.192-2.12c-.029-.625-.374-.925-.549-1.462a3.458,3.458,0,0,1,.136-1.493,11.555,11.555,0,0,0-.3-3.494,3.894,3.894,0,0,0-.222,1.07,9.554,9.554,0,0,0-.193,1.362,13.63,13.63,0,0,1-.232,2.132c-.132.649-.19,1.35-.347,1.991a4.924,4.924,0,0,0-.364,2.206,4.6,4.6,0,0,1,.295,1.416c-.058.549-.391.861-.352,1.419.033.476.323.8.352,1.241.03.468-.159.975-.178,1.476-.039,1.035.282,1.88.236,2.9a8.634,8.634,0,0,0,.651,4.236,5.387,5.387,0,0,0-.166-2.579c-.465-1.608.52-2.668.519-4.215a14.879,14.879,0,0,1,.076-1.564c.049-.5-.015-1.04.043-1.552.052-.458.239-.825.309-1.285.081-.528.034-1.132.09-1.68m9.826-17.841c0,1.534-.907,2.866-.887,4.315a7.536,7.536,0,0,1-.426,2.292,10.208,10.208,0,0,0-.283,1.643,22.991,22.991,0,0,1-1.067,3.981,19,19,0,0,0-.4,2.065,32.363,32.363,0,0,1-.659,4.214c-.144.459-.168.95-.311,1.4-.057.183-.222.246-.281.483s.073.554,0,.832a8.508,8.508,0,0,0-.48,1.428,6.731,6.731,0,0,1-.11,1.355c-.066.224-.271.178-.232.455.737.144.984,1.175.869,1.831-.432.114.084.706.2,1.014.17.448.26.853.4,1.3a19.689,19.689,0,0,1,.592,2.832c.178,1.194.037,1.677-1.119,2.13a8.078,8.078,0,0,1-2.9.474c-1.4,0-2.881-.3-3.475-1.638-.386.848-1.892,1.059-2.732.931a18.349,18.349,0,0,1-3.254-.312c-2.583-.936-2.095-3.34-1.46-5.421a7.87,7.87,0,0,0,.449-2.776c-.724-.024-.955.015-1.112-.717-.076-.352-.427-1.439.167-1.467.006.032.012.066.02.1.249.063.837.379,1.116.191s.219-1.1.221-1.424A10.474,10.474,0,0,0-43-64.275c-.066-.4.094-.292-.178-.627a2.061,2.061,0,0,0-.523-.31,9.6,9.6,0,0,1,.409-2.17,4.975,4.975,0,0,0-.226-2.08,5.007,5.007,0,0,1-.253-1.655c.085-2.482-1-4.768-1.226-7.221a35.61,35.61,0,0,1,.059-4.871Z" transform="translate(45.06 84.123)"/></g><g transform="translate(15.954 18.832)"><path class="b" d="M-68.1-80.741a1.241,1.241,0,0,0-1.075-.727c-.517-.084-.988-.176-1.506-.289-.408-.088-.35-.245-.349-.612a4.41,4.41,0,0,0-.1-.933,2.149,2.149,0,0,1-.154-.734,2.848,2.848,0,0,0,.069-.726,3.619,3.619,0,0,0-.22-.969c-.135-.361-.51-.893-.261-1.281.028-.044.128-.018.161-.057.067-.078.056-.136.093-.231a.991.991,0,0,0,.064-.369c.016-.35.1-.373.312-.628a2.106,2.106,0,0,0,.374-.674c.06-.231-.011-.466.031-.7a7.628,7.628,0,0,0,.372-1.439c0-.424-.024-1.14-.618-1.078a.894.894,0,0,0,.125-.383c.275-.085.151-1.017.151-1.285a7.661,7.661,0,0,0-.382-3.327c-.034-.069-.07-.138-.109-.205a20.8,20.8,0,0,0-1.1-2A9.6,9.6,0,0,0-73.517-101a1.39,1.39,0,0,0-.961-.478,5.383,5.383,0,0,1-1.061-.214,4.835,4.835,0,0,1-.879-.186c-.258-.119-.527-.177-.778-.3-.314-.149-.433-.3-.816-.3a7.552,7.552,0,0,0-.926.122c-.317.037-.518-.044-.716.211-.09.117-.031.187-.161.3a2.574,2.574,0,0,1-.369.133,10.81,10.81,0,0,0-1.361.516c-.316.205-.274.261-.381.568-.092.269-.358.338-.591.521s-.448.386-.678.6c-.156.144-.508.381-.568.6-.04.151.065.247.032.4a3.43,3.43,0,0,1-.195.333,1.982,1.982,0,0,0-.222.822,1.7,1.7,0,0,1-.089.752,1.463,1.463,0,0,1-.552.705,4.865,4.865,0,0,0-1.4,1.421,2.729,2.729,0,0,0-.226,1.629c.032.319.154,1.043.456,1.236a2.345,2.345,0,0,1,.48-2.358c.114-.1.17-.218.374-.184.228.039.159.017.178.213a8.429,8.429,0,0,0,.039.969,6.163,6.163,0,0,1,.156.939c.015.372-.162.349-.275.6-.2.438.229,1.076.373,1.462a13.467,13.467,0,0,0,.484,1.459c.183.362.266,1.06.591,1.3.253.189.348.026.475.386.1.283.135.566.216.849a4.84,4.84,0,0,0,1.1,1.79c.343.393.891.722.89,1.273a2.129,2.129,0,0,1-.092.931,2.724,2.724,0,0,1-2.3,1.425Z" transform="translate(86.435 102.474)"/></g><g transform="translate(27.938 58.095)"><path class="b" d="M-.335-.211A3.3,3.3,0,0,1-.187.989a2.811,2.811,0,0,0-.131.829A21.06,21.06,0,0,0-.242,4.1c.11.533.367,1.075.019,1.564-.327.46.009.9.006,1.434a5.986,5.986,0,0,1-.2.785c-.035.272.144.456.177.7.141,1.044-.006,2.1.051,3.14A6.035,6.035,0,0,0-.1,12.87a4.173,4.173,0,0,1,.39,1.553c-.064.5-.393,1.115-.087,1.591.145.224.217.183.206.471a1.048,1.048,0,0,0,.177.665,4.805,4.805,0,0,1,.4,2.386,2.561,2.561,0,0,1-.2.743C.7,20.548.58,21.32.868,21.495c.2.12.471-.052.643.025.15.068.144.334.157.472a10.812,10.812,0,0,1,.026,1.458c-.024.533-.231,1.041-.233,1.582,0,.482-.051.975-.094,1.455a2.2,2.2,0,0,0,.269,1.334c.169.344.369.71.559,1.041.151.26.351.368.453.692a7.083,7.083,0,0,0,1.035,2.285,2.782,2.782,0,0,0,.994.812,4.023,4.023,0,0,0,1.562.334,7.227,7.227,0,0,0,1.81.042c.621-.092,2.1-.309,2.285-1.037a1,1,0,0,0-.069-.677c-.056-.108-.147-.158-.2-.252-.069-.122-.036-.211-.08-.327-.131-.339-.545-.661-.711-.978-.107-.206-.109-.423-.2-.629a.929.929,0,0,0-.5-.471c-.386-.224-.335-.654-.532-1.035-.16-.309-.409-.54-.591-.831-.133-.215-.477-.617-.43-.874a1.165,1.165,0,0,0,.294.043,1.281,1.281,0,0,0-.179-.725,5.63,5.63,0,0,1-.512-.856c.37-.106.571-.35.424-.751a1.776,1.776,0,0,0-.41-.686,5.007,5.007,0,0,1-.426-.313c-.318-.365-.07-.821-.15-1.238A1.044,1.044,0,0,0,5.78,20.9c-.082-.091-.124-.04-.171-.2a.961.961,0,0,1,0-.265,1.439,1.439,0,0,0,.344.042.743.743,0,0,0,.058-.343c.087-.025.1-.084.173-.132.054-.036.1-.021.155-.053a1.048,1.048,0,0,0,.347-.316A1.7,1.7,0,0,0,7,18.927c.07-.472.1-.948.123-1.428a.962.962,0,0,1,.116.017c.208-.233.116-.561.157-.839a5.466,5.466,0,0,0,.2-1.04c-.018-.364-.26-.714-.222-1.082.04-.385.195-.772.2-1.18a7.99,7.99,0,0,1-.071-.951.612.612,0,0,0,.618-.43,1.692,1.692,0,0,0,.01-1c.383,0,.243-.214.221-.474s.094-.426-.128-.61c.281-.231.805.221.933-.195a1.822,1.822,0,0,0-.02-.508c0-.2.063-.363.066-.549-.109,0-.4,0-.44-.055A3.173,3.173,0,0,0,9.3,7.158c.129-.683.46-1.329.635-2a14.941,14.941,0,0,0,.572-3.01c.018-.447.055-.885.05-1.338a1.892,1.892,0,0,1,.1-1.075" transform="translate(0.425 0.268)"/></g><g transform="translate(18.123 57.953)"><path class="b" d="M-6.363,0c.171,1.077-1.915,2.156-1.7,4.14s-.2,2.159.106,4.012-.454,2.461.106,4.486a21.558,21.558,0,0,1,.53,3.807c.171.822.716.949,1.392,2.189.693,1.27,2.309,3.059,2.183,4.963-.343,1.47.088,1.47-.213,2.2s-.6,2.419-1.252,3.152a7.138,7.138,0,0,0-1.378,2.241c-.218.648-.949,1.293-.521,1.984a3.732,3.732,0,0,0,2.549,1.165A3.893,3.893,0,0,0-1.323,33.7c.775-.78.645-1.942,1.078-2.592a3.5,3.5,0,0,0,.906-2.887A19.633,19.633,0,0,1,.444,24.59a11.6,11.6,0,0,1,.477-2.718c.3-1.12.127-1.9.647-2.156s.775-1.513.648-1.942.43-3.366.3-5.177.3-3.024.088-3.669-.516-.82-.3-1.251a4.236,4.236,0,0,0,.3-1.767C2.646,5,3.423,2.07,3.768.388" transform="translate(8.075)"/></g></g></g></g></svg>