<svg xmlns="http://www.w3.org/2000/svg" viewBox="-1138.7 848.738 285.7 100.454"><defs><style>.a{fill:#fff;}</style></defs><g transform="translate(-1184 -5137.864)"><path class="a" d="M285.7,86.026H237.942V52.773H165.649a26.414,26.414,0,0,0-7.715-8.8h80.008L142.811,0,50.227,43.978h77.462a25.587,25.587,0,0,0-7.715,8.8H42.666V86.026H0v14.428H285.7Zm-142.889-1.7a19.327,19.327,0,1,1,19.366-19.288A19.3,19.3,0,0,1,142.811,84.329Z" transform="translate(45.3 5986.602)"/><path class="a" d="M184.49,82.088,172.3,90.112l16.048-6.867L186.419,62.8Z" transform="translate(1.936 5970.255)"/></g></svg>