<svg xmlns="http://www.w3.org/2000/svg" viewBox="4625.082 -3016.078 112.766 150">
  <defs>
    <style>
      .cls-1 {
        fill: #fff;
      }
    </style>
  </defs>
  <g id="Group_5023" data-name="Group 5023" transform="translate(4625.082 -3016.078)">
    <path id="Path_4743" data-name="Path 4743" class="cls-1" d="M112.638,22.319a10.831,10.831,0,0,0-11.894-9.34C84.277,14.6,69.83,9,56.362,0,42.894,9,28.468,14.6,12,12.979A10.864,10.864,0,0,0,.085,22.319,11.324,11.324,0,0,0,0,23.787v47.4H0c0,35.915,15.106,42.255,41.638,66.468L54.255,149.17a3.143,3.143,0,0,0,4.255,0L71.128,137.66c26.511-24.213,41.638-30.553,41.638-66.468h0v-47.4Q112.734,23.053,112.638,22.319Zm-7.745,48.872a74.35,74.35,0,0,1-1.745,17.34,39.1,39.1,0,0,1-4.83,11.681c-4.447,7.17-11.234,13.043-20.638,21.17-3.553,3.085-7.6,6.574-11.851,10.468l-9.447,8.617-9.447-8.617c-4.255-3.894-8.3-7.383-11.851-10.468-9.4-8.128-16.191-14.021-20.638-21.17a39.9,39.9,0,0,1-4.83-11.681,74.351,74.351,0,0,1-1.745-17.34v-47.4a3.767,3.767,0,0,1,.021-.489,3,3,0,0,1,3.021-2.532,1.611,1.611,0,0,1,.319.021c2.128.213,4.3.319,6.4.319,12.894,0,25.617-3.872,38.745-11.787,13.106,7.915,25.83,11.787,38.723,11.787,2.128,0,4.277-.106,6.4-.319.106,0,.213-.021.319-.021a3,3,0,0,1,3.021,2.532,3.607,3.607,0,0,1,.021.489v47.4Z"/>
    <path id="Path_4744" data-name="Path 4744" class="cls-1" d="M98.243,62.8C85.179,70.353,72.5,74.034,59.5,74.034c-2.085,0-4.191-.106-6.3-.3V120.63a69.423,69.423,0,0,0,1.66,16.511,35.881,35.881,0,0,0,4.4,10.681c4.17,6.723,10.787,12.447,19.957,20.383h0c3.574,3.085,7.617,6.6,11.915,10.511l7.085,6.468,7.085-6.468c4.3-3.915,8.34-7.426,11.915-10.511,9.17-7.936,15.787-13.66,19.957-20.383a36.21,36.21,0,0,0,4.4-10.681,70.8,70.8,0,0,0,1.66-16.511V73.736c-2.085.191-4.213.3-6.3.3C123.987,74.034,111.306,70.353,98.243,62.8Zm19.234,81.191L98.243,133.885,79.008,143.992l3.681-21.4-15.553-15.17,21.511-3.128L98.264,84.8l9.617,19.489,21.511,3.128-15.553,15.17Z" transform="translate(-41.881 -49.438)"/>
  </g>
</svg>
