<svg xmlns="http://www.w3.org/2000/svg" viewBox="12063 -4226 801.461 199">
  <defs>
    <style>
      .cls-1, .cls-2 {
        fill: #fff;
      }

      .cls-1 {
        font-size: 30px;
        font-family: ProximaNova-Light, Proxima Nova;
        font-weight: 300;
      }
    </style>
  </defs>
  <g id="Group_8166" data-name="Group 8166" transform="translate(11743 -6038)">
    <text id="This_year_Maritz_professionals_mentored_14_start-ups._" data-name="This year, Maritz professionals mentored 14 start-ups. " class="cls-1" transform="translate(472 1876)"><tspan x="54.65" y="24">This year, Maritz professionals </tspan><tspan x="105.515" y="64">mentored 14 start-ups. </tspan></text>
    <g id="Group_4891" data-name="Group 4891" transform="translate(979.094 1812)">
      <path id="Path_4529" data-name="Path 4529" class="cls-2" d="M186.72,174.5a11,11,0,0,0-7.892-2.35,46.066,46.066,0,0,0-7.4.754c-2.838.621-5.764.754-8.646,1.2a39.525,39.525,0,0,0-5.631,1.108,34.032,34.032,0,0,1-18.843,0,39.53,39.53,0,0,0-5.631-1.108c-2.882-.443-5.808-.576-8.646-1.2a52.408,52.408,0,0,0-7.4-.754,11.209,11.209,0,0,0-7.892,2.35,4.494,4.494,0,0,0-2.04,3.946c.089,1.463.31,2.926.488,4.345.044.266.355.532.532.842,1.02-.266,1.951-.488,2.971-.754a7.513,7.513,0,0,1,.754,1.02c.709,1.463,1.419,2.926,2.084,4.434.842,1.862,1.6,3.769,2.572,5.542a8.071,8.071,0,0,0,5.808,4.212,32.452,32.452,0,0,0,11.883.177c3.813-.8,6.651-2.749,7.981-6.562a34.053,34.053,0,0,0,1.507-6.872c.089-.576.089-1.153.177-1.685.975-4.079,7.316-4.123,8.291,0a10.86,10.86,0,0,1,.177,1.685,39.528,39.528,0,0,0,1.507,6.872c1.33,3.813,4.212,5.764,8.025,6.562a32.452,32.452,0,0,0,11.883-.177,7.77,7.77,0,0,0,5.808-4.212c.975-1.773,1.729-3.68,2.572-5.542.665-1.463,1.374-2.971,2.084-4.434a11.92,11.92,0,0,1,.754-1.02c1.02.266,1.951.488,2.971.754.222-.31.532-.532.532-.842a36.2,36.2,0,0,0,.488-4.345C188.849,176.808,188.095,175.567,186.72,174.5ZM139.5,186.784c-.576,2.217-1.241,4.788-3.015,6.429-2,1.862-5.365,1.907-7.936,1.773a12.817,12.817,0,0,1-7.67-2.616c-1.641-1.374-10.02-13.257-5.72-14.144a41.748,41.748,0,0,1,8.158-.842,44.378,44.378,0,0,1,12.326,1.6C139.545,180.089,140.476,183.193,139.5,186.784Zm35.115,5.631a13.566,13.566,0,0,1-7.715,2.616c-2.572.133-5.941.089-7.936-1.774-1.773-1.64-2.394-4.212-3.015-6.429-.975-3.591,0-6.695,3.9-7.8a44.383,44.383,0,0,1,12.326-1.6,45.864,45.864,0,0,1,8.158.843C184.637,179.114,176.3,191,174.616,192.415Z" transform="translate(-77.295 -115.578)"/>
      <path id="Path_4530" data-name="Path 4530" class="cls-2" d="M194.677,270.342a7.359,7.359,0,0,1-1.685-.8c-.532-.355-1.064-.8-1.552-1.2a10.721,10.721,0,0,0-3.946-2.439,3.8,3.8,0,0,0-2.527.133,2.632,2.632,0,0,0-1.153,1.153h0a2.54,2.54,0,0,0-1.153-1.109,3.548,3.548,0,0,0-2.527-.133,10.726,10.726,0,0,0-3.946,2.439c-.133.133-.266.221-.4.355a8.757,8.757,0,0,1-2.838,1.685,10.8,10.8,0,0,1-1.552.4,39.034,39.034,0,0,1,5.409,4.3,2.246,2.246,0,0,1,.355.31,15.145,15.145,0,0,0,3.99,2.394,11.085,11.085,0,0,0,2,.532,2.935,2.935,0,0,0,.621.044h.133c.222,0,.4-.044.621-.044a8.339,8.339,0,0,0,2-.532,14.054,14.054,0,0,0,3.99-2.394c.621-.488,1.241-1.02,1.818-1.552a23.253,23.253,0,0,1,3.9-3.059C195.653,270.653,194.943,270.431,194.677,270.342Z" transform="translate(-113.318 -167.701)"/>
      <path id="Path_4531" data-name="Path 4531" class="cls-2" d="M170.752,162.272c-1.818-3.281-3.547-6.651-3.325-10.552a14.716,14.716,0,0,1,.266-1.951c.8-1.552,1.6-3.059,2.261-4.522a52.635,52.635,0,0,0,3.9-11.705,59.362,59.362,0,0,0-.709-25.139,95.016,95.016,0,0,0-10.02-24.829c-2.217-3.946-4.611-7.759-7.138-11.528-1.729-2.616-3.5-6.119-5.941-8.424-4.3-6.739-11.794-11.395-19.154-14.321a73.209,73.209,0,0,0-7.981-2.66,69.356,69.356,0,0,0-11.439-2.04,70.2,70.2,0,0,0-11.439,2.04c-11,2.971-22.656,9-28.819,18.976-1.552,2.04-2.882,4.478-4.168,6.429-2.527,3.769-4.921,7.582-7.138,11.528A93.509,93.509,0,0,0,49.888,108.4c-1.907,8.291-2.483,16.8-.709,25.139a53.4,53.4,0,0,0,3.9,11.705c.665,1.463,1.507,2.971,2.261,4.522a13.78,13.78,0,0,1,.266,1.951c.222,3.857-1.507,7.227-3.325,10.552-1.818,3.281-3.636,6.518-5.187,9.887-3.059,6.651-5.631,12.947-6.695,20.262,0,.044.044.044.044,0,2.084-7.537,6.562-14.365,11.35-20.44,2.572-3.237,5.72-6.606,8.158-10.331-.089.177-.133.355-.222.576-.31.4-.576.842-.887,1.2-3.458,4.567-6.917,8.956-9.533,14.055-.222.266-.443.576-.665.842a26.612,26.612,0,0,0-4.434,10.286,42.757,42.757,0,0,0-.8,9.355q-.133,1.663-.133,3.325a19.38,19.38,0,0,1,2.173-2.084c5.587-4.522,13.833-5.72,21.149-7.094a95.891,95.891,0,0,0,11.838-2.838,24.265,24.265,0,0,0,10.73-6.651c4.123-4.567,5.454-10.375,5.542-16.05,0-1.153,0-2.306-.089-3.458-.044-.665-.089-1.286-.133-1.906a46.31,46.31,0,0,1-3.813-3.458,63.446,63.446,0,0,1-12.769-19.375,92.974,92.974,0,0,1-4.256-11.927c-3.724-2.128-6.207-5.365-6.784-8.734-.443-2.439.488-6.119,3.857-4.877-.709-4.522-1.2-9.089-1.463-13.656a22.366,22.366,0,0,0,9.8,3.015,24.93,24.93,0,0,0,5.454-.089c.31.044.665.089.975.133.887.089,1.774.133,2.66.177a40.071,40.071,0,0,0,22.3-5.853c.177-.089.31-.222.488-.31,3.5-2.439,6.518-6.518,8.956-10.641-.31,1.241-.709,2.483-1.108,3.68-1.419,4.478-3.769,8.823-7.848,11.35a3.306,3.306,0,0,1-.532.31V101a2.713,2.713,0,0,0,.532-.222c4.212-1.685,7.449-5.72,9.666-9.577a33.83,33.83,0,0,0,2.749-6.385c1.685,3.059,5.232,5.941,7.227,7.493a37.384,37.384,0,0,0,7.67,4.389c5.1,2.217,11,3.414,14.41.842-.266,5.1-.8,10.2-1.552,15.252,3.37-1.241,4.256,2.439,3.857,4.877-.576,3.37-3.059,6.562-6.784,8.735a86.694,86.694,0,0,1-4.256,11.927A62.4,62.4,0,0,1,131.159,157.7c-1.2,1.2-2.483,2.35-3.769,3.414-.044.665-.133,1.374-.177,2.084v.443c-.044.8-.044,1.641-.044,2.439.044,5.853,1.33,11.794,5.542,16.494a24.667,24.667,0,0,0,10.73,6.651,97.861,97.861,0,0,0,11.838,2.838c7.316,1.419,15.562,2.572,21.149,7.094a17.309,17.309,0,0,1,3.458,3.769,46.427,46.427,0,0,0-.133-4.966,40.2,40.2,0,0,0-.8-9.355,27.3,27.3,0,0,0-4.434-10.286c-.222-.31-.443-.576-.665-.842-2.616-5.1-6.074-9.488-9.533-14.055-.31-.4-.576-.8-.887-1.2-.089-.177-.133-.355-.222-.576,2.394,3.68,5.587,7.05,8.158,10.331,4.788,6.074,9.267,12.9,11.35,20.44,0,.044.044,0,.044,0-1.064-7.316-3.636-13.612-6.7-20.262C174.388,168.789,172.526,165.553,170.752,162.272Z" transform="translate(-40.4 -44.6)"/>
      <path id="Path_4532" data-name="Path 4532" class="cls-2" d="M178.609,377.9c-7.094,3.458-13.833,7.8-21.016,11.04a117.808,117.808,0,0,1-26.026,8.247,116.233,116.233,0,0,1-26.026-8.247c-7.138-3.192-13.922-7.582-21.016-11.04-2.66.488-5.409,1.02-8.025,1.729,2.394,3.9,4.7,7.848,6.784,11.927a92.966,92.966,0,0,1,5.409,13.567h85.749a95,95,0,0,1,5.409-13.567c2.039-4.079,4.389-8.025,6.784-11.927C184.018,378.92,181.27,378.388,178.609,377.9Z" transform="translate(-60.494 -230.123)"/>
    </g>
    <g id="Group_4889" data-name="Group 4889" transform="translate(320 1831)">
      <path id="Path_4525" data-name="Path 4525" class="cls-2" d="M2638.2,171.282c-2.3-.2-4.633-.287-6.969-.287a102.3,102.3,0,0,0-15.045.984c-2.541.369-5.042.779-7.542,1.312a24.777,24.777,0,0,1-5.985.82,27.317,27.317,0,0,1-5.985-.82c-2.5-.533-5-.984-7.542-1.312A103.043,103.043,0,0,0,2574.09,171c-2.335,0-4.632.082-6.969.287H2567v.2c.122,1.066.245,2.173.369,3.239.082.82.2,1.681.326,2.5h0v.082l.247.123a6.828,6.828,0,0,1,2.624,3.32,19.045,19.045,0,0,0,2.172,4.14,14.682,14.682,0,0,0,6.477,4.632,32.325,32.325,0,0,0,10.045,1.722,12.127,12.127,0,0,0,4.714-.246,5.609,5.609,0,0,0,2.911-2.5,29.324,29.324,0,0,0,1.927-4.345c.778-1.763,1.679-3.4,3.771-3.648,2.09.246,2.951,1.886,3.772,3.648a41.24,41.24,0,0,0,1.925,4.345,5.8,5.8,0,0,0,2.911,2.5,13.019,13.019,0,0,0,4.714.246,32.1,32.1,0,0,0,10.043-1.722,14.674,14.674,0,0,0,6.477-4.632,19.921,19.921,0,0,0,2.174-4.14,7.233,7.233,0,0,1,2.622-3.32l.247-.123v-.082h0c.124-.82.206-1.681.328-2.5.122-1.066.245-2.173.369-3.239a.365.365,0,0,1,.042-.2Zm-40.83,10.986c-.369,1.681-.861,4.181-1.967,5.534-1.353,1.64-3.731,1.6-5.658,1.476-4.017-.2-8.484-.328-12.092-2.3a9.946,9.946,0,0,1-4.755-5.493,19.3,19.3,0,0,1-.9-3.69c-.082-.615-.164-1.23-.245-1.886-.084-.861-.33-1.681.573-2.173a3.414,3.414,0,0,1,1.928-.246c1.27.082,2.5.2,3.77.328,2.542.2,5.042.41,7.585.656s5.082.492,7.583.82c2.214.287,4.672.943,4.672,3.648A14.749,14.749,0,0,1,2597.375,182.268Zm36.237-6.313c-.08.615-.122,1.23-.244,1.886a18.681,18.681,0,0,1-.9,3.689,10.255,10.255,0,0,1-4.756,5.493c-3.608,1.927-8.075,2.091-12.092,2.3-1.928.082-4.305.164-5.657-1.476-1.106-1.353-1.6-3.853-1.968-5.534a14.77,14.77,0,0,1-.49-3.238c0-2.706,2.458-3.361,4.672-3.648,2.541-.328,5.083-.615,7.583-.82,2.542-.246,5.042-.451,7.584-.656,1.229-.123,2.5-.246,3.771-.328a3.865,3.865,0,0,1,1.927.246C2633.942,174.274,2633.695,175.135,2633.611,175.955Z" transform="translate(-2520.349 -100.897)"/>
      <path id="Path_4526" data-name="Path 4526" class="cls-2" d="M2617.829,392.509a18.611,18.611,0,0,0-1.887-6.231c-.285-.574-.615-1.148-.942-1.722a28.978,28.978,0,0,0-1.681-2.46,33.526,33.526,0,0,0-13.732-10.166c-.943-.369-1.845-.7-2.788-.984a49.792,49.792,0,0,0-9.551-1.845l-.984-.123h-.206c-.327-.041-.655-.041-.982-.082h-.206c-.328,0-.615-.041-.943-.041h-3.2c-4.263.164-8.771.533-12.42-.656a1.752,1.752,0,0,0-.246.287c-6.682,11.929-19.677,20.128-32.508,25.334h0c-12.871-5.247-25.866-13.4-32.549-25.334a1.73,1.73,0,0,1-.245-.287c-.041,0-.082,0-.082.041-.165.041-.328.123-.492.164-.082,0-.123.041-.206.041l-.491.123c-.082,0-.164.041-.246.041-.164.041-.287.041-.451.082-.082,0-.2.041-.287.041-.122,0-.247.041-.37.041s-.245.041-.368.041a.52.52,0,0,0-.246.041,62.425,62.425,0,0,1-9.182,0h-3.2a6.965,6.965,0,0,0-.943.041h-.205a7.961,7.961,0,0,0-.983.082h-.2l-.985.123a49.8,49.8,0,0,0-9.551,1.845c-.451.123-.9.287-1.394.451h-.041c-.45.164-.9.328-1.394.533a33.179,33.179,0,0,0-3.853,1.845.04.04,0,0,0-.041.041l-.862.492c-.041.041-.081.041-.123.082-.246.164-.532.328-.778.492a.314.314,0,0,1-.165.082l-.737.492c-.041.041-.123.082-.163.123-.247.164-.452.328-.7.492-.082.041-.123.082-.205.123-.2.164-.452.328-.657.492-.08.041-.122.123-.2.164l-.615.492c-.082.041-.124.123-.206.164-.2.164-.409.369-.613.533-.082.041-.124.123-.2.164a7.676,7.676,0,0,0-.615.574l-.165.164a7.688,7.688,0,0,1-.615.574l-.163.164c-.205.2-.41.451-.615.656-.042.041-.082.082-.082.123q-.738.8-1.353,1.6c-.287.369-.533.738-.78,1.107a.905.905,0,0,1-.162.205c-.248.369-.493.738-.739,1.148-.328.574-.657,1.148-.943,1.722-.041.041-.041.082-.081.123-.124.246-.206.451-.33.7-.04.123-.08.2-.122.328a2.086,2.086,0,0,0-.205.533c-.041.123-.083.246-.123.369-.041.164-.123.328-.165.492-.04.123-.08.246-.122.369-.04.164-.123.328-.163.492a1.179,1.179,0,0,0-.083.369c-.042.164-.082.369-.123.533-.041.123-.041.246-.082.369-.042.205-.082.41-.122.574,0,.082-.042.2-.042.287-.04.287-.082.615-.123.9h0a24.815,24.815,0,0,0,14.471,4.591h135.686a25.112,25.112,0,0,0,14.472-4.591Z" transform="translate(-2453.2 -217.264)"/>
      <path id="Path_4527" data-name="Path 4527" class="cls-2" d="M2542.188,46.486v.041c0,.574.04,1.107.04,1.681v.082c.123,2.583.287,5.124.369,7.543,0,.656.042,1.312.042,1.968s.04,1.312.04,1.968q.063,1.968.124,3.935.062.984.123,1.968c.122,1.968.326,3.935.615,5.862a13.023,13.023,0,0,0,3.442,7.461,3.229,3.229,0,0,1,2.624-.615c.165.82.329,1.6.575,2.419a22.006,22.006,0,0,0,1.968,4.878c.286.492.575.984.9,1.435.082.123.369.2.451,0v-.041a16.339,16.339,0,0,0,1.066-6.436c0-1.353-.04-2.706-.04-4.058,0-4.017.04-7.994,0-12.011-.042-3.566-.369-7.461.491-10.945.821-3.2,3.075-5.206,5.78-6.928a61.252,61.252,0,0,1,8.814-4.8,16.811,16.811,0,0,1,4.469-1.189,8.612,8.612,0,0,0,1.352.451,32.587,32.587,0,0,0,5.041,2.255,49.643,49.643,0,0,0,4.838,1.312,12.138,12.138,0,0,0,2.092.246,1.129,1.129,0,0,0,.369.041,19.9,19.9,0,0,0,4.672.287,21.114,21.114,0,0,0,11.314-4.14,15.879,15.879,0,0,1,2.214.779,55.553,55.553,0,0,1,8.813,4.8c2.706,1.722,4.96,3.689,5.781,6.928.9,3.484.532,7.379.49,10.945-.04,4.017,0,7.994,0,12.011,0,1.353-.04,2.706-.04,4.058a16.506,16.506,0,0,0,1.064,6.436v.041c.082.2.329.123.453,0a16.744,16.744,0,0,0,.9-1.435,20.9,20.9,0,0,0,1.969-4.878c.2-.82.409-1.6.573-2.419a3.19,3.19,0,0,1,2.625.615,13.165,13.165,0,0,0,3.444-7.461,56.174,56.174,0,0,0,.615-5.862c.122-1.968.162-3.935.246-5.9,0-.656.04-1.312.04-1.968s.042-1.312.042-1.968c.082-2.419.245-4.96.367-7.543v-.082c.042-.574.042-1.107.042-1.681v-.041c0-.574.04-1.148.04-1.722v-.9c-.04-4.632-.531-9.182-2.458-13.282-.247-.492-.491-1.025-.78-1.517-.122-.246-.286-.451-.41-.7-3.853-6.149-11.067-10.822-18.447-13.856a18.144,18.144,0,0,0-1.475-3.443,22.3,22.3,0,0,0-5.493-6.436,20.244,20.244,0,0,0-7.256-3.525c-.042,0-.082.041-.042.082a22.192,22.192,0,0,1,7.584,7.174c-.122-.082-.2-.164-.327-.246-1.067-.82-14.061-7.953-13.9-8.158-1.845,2.788-4.468,4.263-7.42,5.739-.533.287-1.108.533-1.64.779,1.271-1.148,2.5-2.337,3.649-3.566.244-.246-.082-.7-.371-.492-4.632,2.951-9.182,6.026-13.937,8.813-1.27.738-2.582,1.476-3.853,2.214-8.322,2.91-16.97,7.994-21.317,14.921-.122.2-.284.451-.408.7-.287.492-.533.984-.78,1.517a29.928,29.928,0,0,0-2.418,11.437v.164c0,.533-.042,1.107-.042,1.64v.9A5.43,5.43,0,0,1,2542.188,46.486Z" transform="translate(-2505.54 0)"/>
      <path id="Path_4528" data-name="Path 4528" class="cls-2" d="M2639.211,239.644c-.287.492-.656.7-.9,1.189-1.517,3.033-1.558,6.149-3.73,8.977a36.407,36.407,0,0,1-6.724,6.354,26.926,26.926,0,0,1-3.688,2.378v-.492c-.164-2.747-1.066-6.928-3.321-8.65-2.746-2.091-7.3-1.968-10.536-2.009h-4.591c-3.279.041-7.788-.082-10.535,2.009-2.3,1.722-3.157,5.9-3.32,8.65v.492a20.3,20.3,0,0,1-3.69-2.378,39.31,39.31,0,0,1-6.723-6.354c-2.173-2.869-2.213-5.944-3.73-8.977-.247-.451-.615-.7-.9-1.189a.2.2,0,0,0-.368.041,10.009,10.009,0,0,1-.452,1.148v.082c.246,1.025.452,2.091.7,3.116,0,.041,0,.082.041.082q.123.492.247.984c.041.123.041.2.083.328.08.246.122.533.2.779a1.212,1.212,0,0,1,.081.41c.042.246.124.451.164.7.041.123.083.287.124.41.042.2.123.451.164.656.041.164.082.287.123.451.041.2.122.41.163.656.042.164.083.328.125.451a3.608,3.608,0,0,0,.205.615c.04.164.081.328.123.451.082.2.122.41.2.615a1.482,1.482,0,0,0,.164.451c.082.2.124.41.2.615.041.164.124.287.164.451.083.2.164.41.246.615.042.164.122.287.164.451.082.2.164.41.246.656.042.123.123.287.165.41.082.246.2.451.286.7a.824.824,0,0,0,.164.328c.164.328.327.7.493,1.025a34.346,34.346,0,0,0,5.37,7.666c.123.164.287.328.41.492.287.328.573.615.82.943,1.885,2.255,3.607,4.714,5.943,6.559a15.4,15.4,0,0,0,8.773,2.911c.615.041,1.271.041,1.885.082,1.272.041,2.542,0,3.813.041h0c1.271,0,2.542,0,3.812-.041.615,0,1.272-.041,1.887-.082,3.116-.205,6.149-.82,8.773-2.911,2.336-1.845,4.058-4.3,5.943-6.559.287-.328.533-.656.82-.943.123-.164.287-.328.41-.492a34.768,34.768,0,0,0,5.37-7.666v-.041a10.348,10.348,0,0,0,.451-.984,1.49,1.49,0,0,1,.164-.369c.083-.246.206-.451.288-.7.04-.123.122-.287.163-.41l.247-.615c.04-.164.123-.287.163-.451l.246-.615c.041-.164.124-.287.164-.451.082-.2.123-.41.205-.615a1.481,1.481,0,0,1,.164-.451c.082-.2.124-.41.206-.615.04-.164.082-.328.122-.451a3.5,3.5,0,0,0,.165-.615c.04-.164.08-.328.122-.451.04-.205.124-.41.164-.615.042-.164.082-.328.122-.451.042-.2.124-.451.165-.656.04-.164.082-.287.122-.451.042-.246.124-.451.166-.7a1.492,1.492,0,0,0,.082-.41,4.487,4.487,0,0,0,.163-.779c.04-.123.04-.2.082-.328a8.4,8.4,0,0,0,.205-.984.151.151,0,0,1,.041-.123q.369-1.6.737-3.2h0a9.863,9.863,0,0,1-.451-1.148C2639.58,239.521,2639.334,239.48,2639.211,239.644Zm-41.977,13.323c2.582-1.435,6.846-.574,9.633-.451.37,0,.738.041,1.148.082h0c.37-.041.738-.041,1.148-.082,2.829-.123,7.052-.984,9.634.451,2.336,1.271,3.525,7.3,3.033,10.74a4.934,4.934,0,0,1-.573,1.8c-1.435,2.337-5.822,2.828-8.281,3.361a26.636,26.636,0,0,1-3.156.41c-.616.041-1.19.041-1.8.041h0c-.615,0-1.188,0-1.8-.041a20.161,20.161,0,0,1-3.157-.41c-2.459-.533-6.846-1.025-8.281-3.361a4.953,4.953,0,0,1-.573-1.8C2593.667,260.223,2594.9,254.238,2597.234,252.967Z" transform="translate(-2525.661 -141.343)"/>
    </g>
  </g>
</svg>
