<svg xmlns="http://www.w3.org/2000/svg" viewBox="-307 2882 220 272"><defs><style>.a,.g{fill:none;}.a,.e{stroke:#fff;}.b,.d,.e{fill:#fff;}.b{font-size:60px;font-family:Sentinel-Medium, Sentinel;font-weight:500;}.c{font-size:36px;}.e{stroke-miterlimit:10;stroke-width:0.342px;}.f{stroke:none;}</style></defs><g transform="translate(-547 -6027)"><g class="a" transform="translate(240 8909)"><rect class="f" width="220" height="272"/><rect class="g" x="0.5" y="0.5" width="219" height="271"/></g><text class="b" transform="translate(240 9008)"><tspan x="79.31" y="58">16 </tspan><tspan class="c"><tspan x="58.718" y="98">school </tspan><tspan x="43.508" y="138">districts </tspan></tspan></text><g transform="translate(170 5722.136)"><g transform="translate(149.827 3214.005)"><path class="d" d="M158.293,55.891a2.062,2.062,0,0,0,2,2.157h5.355a2.062,2.062,0,0,0,2-2.157V51.059h-9.352Zm34.769,0a2.062,2.062,0,0,0,2,2.157h5.355a2.062,2.062,0,0,0,2-2.157V51.059h-9.352Zm-30.653-18.9c0-2.718,1.4-6.514,2.718-7.766a9.518,9.518,0,0,1,4.156-2.287h-2.158l-4.036,1.035a.61.61,0,0,1-.559.475.569.569,0,0,1-.56-.6.718.718,0,0,1,.2-.475.647.647,0,0,0-.08.259.462.462,0,0,0,.44.475.479.479,0,0,0,.44-.388l9.591-2.5L179.793,25v-.173l-7.114.216h0l-5.036.173v.173l4.116-.129L164.447,26.9c-3.6-.043-6.234-.259-6.234-2.243V17.839c0-4.487,3.8-3.495,8.393-3.84a249.982,249.982,0,0,1,27.855,0c4.636.345,8.393-.647,8.393,3.84v6.816c0,2.373-2.558,2.373-6.075,2.287l-7.473-1.683,4.116.129v-.173l-5.036-.173h0l-7.114-.216V25l7.234.216,9.591,2.5a.479.479,0,0,0,.44.388.462.462,0,0,0,.44-.475.647.647,0,0,0-.08-.259.64.64,0,0,1,.2.475.569.569,0,0,1-.559.6.61.61,0,0,1-.56-.475l-4.036-1.035H192.3a9.78,9.78,0,0,1,4.156,2.287c1.319,1.251,2.718,5.048,2.718,7.766a8.077,8.077,0,0,1,5.6,2.8V11.239c0-4.789-3.916-6.816-8.033-8.672-7.593-3.408-25.3-3.538-32.451,0-4.036,1.985-8.033,3.883-8.033,8.672V40.662C156.854,39.583,158.492,37.426,162.409,36.994Zm3.237-32.012.2-.086c2.917-1.424,8.273-2.287,14.347-2.287,6.115,0,11.909.906,15.107,2.33,3.877,1.726,5.955,3.063,6.314,5.35.12.863-2.318.777-2.318.777H161.33s-1.918-.086-1.878-.69C159.811,8,162.089,6.752,165.646,4.983Zm26.017,34.73c0,.043,0,.043-.04.086h0C191.663,39.756,191.663,39.756,191.663,39.712Zm-.04-6.126h0a.647.647,0,0,1,.08.259A.647.647,0,0,1,191.623,33.586Zm.12,3.71h-23.3v1.337h23.3Zm-21.861,3.8H190.3a2.192,2.192,0,0,0,1.359-1.337H168.523A2.1,2.1,0,0,0,169.882,41.093Zm19.942-8.8H170.362a2.58,2.58,0,0,0-1.8,1.337h23.02A2.327,2.327,0,0,0,189.825,32.292Zm1.918,2.5h-23.3v1.337h23.3Zm13.228,9.621h-49c-.44,0-.8.475-.8,1.122V48.3c0,.6.36,1.122.8,1.122h49c.44,0,.839-.475.839-1.122V45.537C205.81,44.889,205.451,44.415,204.971,44.415Zm-47.118-4.746a.7.7,0,0,0-.679.733v2.675a.73.73,0,0,0,.679.733h7.993a.7.7,0,0,0,.679-.733V40.4a.73.73,0,0,0-.679-.733Zm2.917,3.193a.418.418,0,0,1-.4.431h-2.318a.417.417,0,0,1-.4-.431v-2.2a.418.418,0,0,1,.4-.431h2.318a.417.417,0,0,1,.4.431Zm4.356,0a.418.418,0,0,1-.4.431H161.49a.417.417,0,0,1-.4-.431v-2.2a.418.418,0,0,1,.4-.431h3.237a.417.417,0,0,1,.4.431Zm30.053-3.193a.7.7,0,0,0-.679.733v2.675a.73.73,0,0,0,.679.733h7.993a.7.7,0,0,0,.679-.733V40.4a.73.73,0,0,0-.679-.733Zm4.716,3.193a.418.418,0,0,1-.4.431h-3.2a.417.417,0,0,1-.4-.431v-2.2a.418.418,0,0,1,.4-.431h3.237a.417.417,0,0,1,.4.431v2.2Zm3.437-2.2v2.2a.418.418,0,0,1-.4.431h-2.318a.417.417,0,0,1-.4-.431v-2.2a.418.418,0,0,1,.4-.431h2.318A.418.418,0,0,1,203.333,40.662Zm6.634-25.2h-2.278a1.209,1.209,0,0,0-1.159,1.251v8.93a1.209,1.209,0,0,0,1.159,1.251h2.278a1.209,1.209,0,0,0,1.159-1.251v-8.93A1.182,1.182,0,0,0,209.967,15.466Zm-56.63,0h-2.278a1.209,1.209,0,0,0-1.159,1.251v8.93a1.209,1.209,0,0,0,1.159,1.251h2.278a1.209,1.209,0,0,0,1.159-1.251v-8.93A1.182,1.182,0,0,0,153.337,15.466Zm16.305-6.9c0-.69-.6-.992-1.2-1.294a7.6,7.6,0,0,0-4.8,0c-.6.3-1.2.561-1.2,1.294v1.726H169.6V8.564Zm28.894,0c0-.69-.6-.992-1.2-1.294a7.6,7.6,0,0,0-4.8,0c-.6.3-1.2.561-1.2,1.294v1.726H198.5V8.564Z" transform="translate(-149.9 0.038)"/></g><path class="e" d="M12.989,34.4a6.683,6.683,0,0,0-6.394-6.9A6.683,6.683,0,0,0,.2,34.4a6.969,6.969,0,0,0,.719,3.149h0V37.6c.04.129.12.216.16.345L6.554,48.553,12.029,37.94a1.335,1.335,0,0,0,.16-.345l.04-.043h0A7,7,0,0,0,12.989,34.4ZM6.594,39.45a5.061,5.061,0,0,1-.04-10.1A4.879,4.879,0,0,1,11.23,34.4,4.8,4.8,0,0,1,6.594,39.45Z" transform="translate(89.8 3198.385)"/><path class="e" d="M49.089,33.7a6.683,6.683,0,0,0-6.394-6.9A6.683,6.683,0,0,0,36.3,33.7a6.969,6.969,0,0,0,.719,3.149h0l.04.043c.04.129.12.216.16.345l5.475,10.613L48.169,37.24a1.335,1.335,0,0,0,.16-.345l.04-.043h0A7.535,7.535,0,0,0,49.089,33.7ZM42.694,38.75A4.879,4.879,0,0,1,38.018,33.7a4.878,4.878,0,0,1,4.676-5.048A4.825,4.825,0,0,1,47.37,33.7,4.852,4.852,0,0,1,42.694,38.75Z" transform="translate(68.127 3198.783)"/><path class="e" d="M84.289,34.4a6.413,6.413,0,1,0-12.789,0,6.969,6.969,0,0,0,.719,3.149h0l.04.043c.04.129.12.216.16.345l5.475,10.613L83.369,37.94a1.335,1.335,0,0,0,.16-.345l.04-.043h0A6.969,6.969,0,0,0,84.289,34.4ZM77.894,39.45A4.879,4.879,0,0,1,73.218,34.4a4.69,4.69,0,1,1,9.352,0A4.827,4.827,0,0,1,77.894,39.45Z" transform="translate(46.995 3198.385)"/><path class="e" d="M120.489,33.7a6.413,6.413,0,1,0-12.789,0,6.969,6.969,0,0,0,.719,3.149h0l.04.043c.04.129.12.216.16.345l5.475,10.613,5.475-10.613a1.335,1.335,0,0,0,.16-.345l.04-.043h0A7.535,7.535,0,0,0,120.489,33.7Zm-6.394,5.048a4.879,4.879,0,0,1-4.676-5.048,4.69,4.69,0,1,1,9.352,0A4.878,4.878,0,0,1,114.094,38.75Z" transform="translate(25.262 3198.783)"/><path class="e" d="M12.989,87.3a6.683,6.683,0,0,0-6.394-6.9A6.683,6.683,0,0,0,.2,87.3a6.969,6.969,0,0,0,.719,3.149h0l.04.043c.04.129.12.216.16.345l5.475,10.613L12.069,90.84a1.335,1.335,0,0,0,.16-.345l.04-.043h0A7.535,7.535,0,0,0,12.989,87.3ZM6.594,92.35a5.062,5.062,0,0,1,0-10.1,5.062,5.062,0,0,1,0,10.1Z" transform="translate(89.8 3168.308)"/><path class="e" d="M49.089,86.6a6.683,6.683,0,0,0-6.394-6.9A6.683,6.683,0,0,0,36.3,86.6a6.969,6.969,0,0,0,.719,3.149h0l.04.043c.04.129.12.216.16.345l5.475,10.613L48.169,90.14a1.335,1.335,0,0,0,.16-.345l.04-.043h0A7.535,7.535,0,0,0,49.089,86.6ZM42.694,91.65A5.062,5.062,0,1,1,47.37,86.6,4.879,4.879,0,0,1,42.694,91.65Z" transform="translate(68.127 3168.706)"/><path class="e" d="M84.289,87.3a6.413,6.413,0,1,0-12.789,0,6.969,6.969,0,0,0,.719,3.149h0l.04.043c.04.129.12.216.16.345l5.475,10.613L83.369,90.84a1.335,1.335,0,0,0,.16-.345l.04-.043h0A6.969,6.969,0,0,0,84.289,87.3ZM77.894,92.35A5.062,5.062,0,1,1,82.57,87.3,4.879,4.879,0,0,1,77.894,92.35Z" transform="translate(46.995 3168.308)"/><path class="e" d="M120.489,86.6a6.413,6.413,0,1,0-12.789,0,6.969,6.969,0,0,0,.719,3.149h0l.04.043c.04.129.12.216.16.345l5.475,10.613,5.475-10.613a1.335,1.335,0,0,0,.16-.345l.04-.043h0A7.535,7.535,0,0,0,120.489,86.6Zm-6.394,5.048A5.062,5.062,0,1,1,118.77,86.6,4.879,4.879,0,0,1,114.094,91.65Z" transform="translate(25.262 3168.706)"/><path class="e" d="M323.889,34.4a6.413,6.413,0,1,0-12.789,0,6.969,6.969,0,0,0,.719,3.149h0l.04.043c.04.129.12.216.16.345l5.475,10.613,5.475-10.613a1.333,1.333,0,0,0,.16-.345l.04-.043h0A6.969,6.969,0,0,0,323.889,34.4Zm-6.394,5.048a4.879,4.879,0,0,1-4.676-5.048,4.69,4.69,0,1,1,9.352,0A4.827,4.827,0,0,1,317.494,39.45Z" transform="translate(-96.85 3198.385)"/><path class="e" d="M360.089,33.7a6.413,6.413,0,1,0-12.789,0,6.97,6.97,0,0,0,.719,3.149h0l.04.043c.04.129.12.216.16.345l5.475,10.613,5.475-10.613a1.336,1.336,0,0,0,.16-.345l.04-.043h0A7.534,7.534,0,0,0,360.089,33.7Zm-6.394,5.048a4.879,4.879,0,0,1-4.676-5.048,4.69,4.69,0,1,1,9.352,0A4.878,4.878,0,0,1,353.694,38.75Z" transform="translate(-118.583 3198.783)"/><path class="e" d="M395.289,34.4a6.413,6.413,0,1,0-12.789,0,6.969,6.969,0,0,0,.719,3.149h0l.04.043c.04.129.12.216.16.345l5.475,10.613,5.475-10.613a1.336,1.336,0,0,0,.16-.345l.04-.043h0A6.968,6.968,0,0,0,395.289,34.4Zm-6.394,5.048a4.879,4.879,0,0,1-4.676-5.048,4.69,4.69,0,1,1,9.352,0A4.827,4.827,0,0,1,388.894,39.45Z" transform="translate(-139.716 3198.385)"/><path class="e" d="M431.389,33.7a6.413,6.413,0,1,0-12.789,0,6.969,6.969,0,0,0,.719,3.149h0l.04.043c.04.129.12.216.16.345l5.475,10.613,5.515-10.613a1.335,1.335,0,0,0,.16-.345l.04-.043h0A7.509,7.509,0,0,0,431.389,33.7Zm-6.394,5.048a4.879,4.879,0,0,1-4.676-5.048,4.69,4.69,0,1,1,9.352,0A4.827,4.827,0,0,1,424.994,38.75Z" transform="translate(-161.389 3198.783)"/><path class="e" d="M323.889,87.3a6.413,6.413,0,1,0-12.789,0,6.969,6.969,0,0,0,.719,3.149h0l.04.043c.04.129.12.216.16.345l5.475,10.613,5.475-10.613a1.333,1.333,0,0,0,.16-.345l.04-.043h0A6.969,6.969,0,0,0,323.889,87.3Zm-6.394,5.048A5.062,5.062,0,1,1,322.17,87.3,4.879,4.879,0,0,1,317.494,92.35Z" transform="translate(-96.85 3168.308)"/><path class="e" d="M360.089,86.6a6.413,6.413,0,1,0-12.789,0,6.97,6.97,0,0,0,.719,3.149h0l.04.043c.04.129.12.216.16.345l5.475,10.613,5.475-10.613a1.336,1.336,0,0,0,.16-.345l.04-.043h0A7.534,7.534,0,0,0,360.089,86.6Zm-6.394,5.048A5.062,5.062,0,1,1,358.37,86.6,4.879,4.879,0,0,1,353.694,91.65Z" transform="translate(-118.583 3168.706)"/><path class="e" d="M395.289,87.3a6.413,6.413,0,1,0-12.789,0,6.969,6.969,0,0,0,.719,3.149h0l.04.043c.04.129.12.216.16.345l5.475,10.613,5.475-10.613a1.336,1.336,0,0,0,.16-.345l.04-.043h0A6.969,6.969,0,0,0,395.289,87.3Zm-6.394,5.048A5.062,5.062,0,1,1,393.57,87.3,4.879,4.879,0,0,1,388.894,92.35Z" transform="translate(-139.716 3168.308)"/><path class="e" d="M431.389,86.6a6.413,6.413,0,1,0-12.789,0,6.969,6.969,0,0,0,.719,3.149h0l.04.043c.04.129.12.216.16.345l5.475,10.613,5.475-10.613a1.333,1.333,0,0,0,.16-.345l.04-.043h0A6.969,6.969,0,0,0,431.389,86.6Zm-6.394,5.048A5.062,5.062,0,1,1,429.67,86.6,4.827,4.827,0,0,1,424.994,91.65Z" transform="translate(-161.389 3168.706)"/></g></g></svg>