<svg xmlns="http://www.w3.org/2000/svg" viewBox="186 2882 220 272"><defs><style>.a,.f{fill:none;}.a{stroke:#fff;}.b,.d{fill:#fff;}.b{font-size:60px;font-family:Sentinel-Medium, Sentinel;font-weight:500;}.c{font-size:36px;}.e{stroke:none;}</style></defs><g transform="translate(-547 -6027)"><g class="a" transform="translate(733 8909)"><rect class="e" width="220" height="272"/><rect class="f" x="0.5" y="0.5" width="219" height="271"/></g><text class="b" transform="translate(733 9028)"><tspan x="63.5" y="58">170</tspan><tspan class="c"><tspan x="42.626" y="98">teachers</tspan></tspan></text><g transform="translate(648.469 5186.329)"><rect class="d" width="133.668" height="3.63" transform="translate(128.449 3831.617)"/><g transform="translate(126.531 3756.671)"><path class="d" d="M1.392,84.178a49.212,49.212,0,0,1,1.691,6.436c.248,1.073.454,2.187.7,3.259.289,1.073.66,2.145,1.031,3.177.371,1.073.784,2.1,1.155,3.135a17.187,17.187,0,0,0,1.361,2.764c0,.041.041.041.083.041a.04.04,0,0,0,.041.041h0a1.738,1.738,0,0,0-.413,1.815,9.261,9.261,0,0,0,1.485,2.1l.825,1.155c.165.248.289.5.454.743a16.388,16.388,0,0,0,.825,1.444,17.436,17.436,0,0,1,.784,3.218,36.237,36.237,0,0,1,.536,4.249,18.477,18.477,0,0,1-.165,4c-.041.165-.041.371-.083.536H28.5c-.124-.578-.289-1.155-.413-1.733a4.064,4.064,0,0,0,.7.083,10.871,10.871,0,0,0,1.155.083,7.631,7.631,0,0,0,1.691-.083,2.175,2.175,0,0,0,.619-.206h.083c.7-.536.206-1.9,0-2.558-.165-.5-.289-.99-.454-1.485a12.884,12.884,0,0,0-.743-1.98c.289-.33.124-.784,0-1.2-.289-.743-.536-1.444-.825-2.187-.289-.825-.619-1.65-.949-2.434a14.166,14.166,0,0,0-.784-1.815,3.454,3.454,0,0,0-1.32-1.238,3.794,3.794,0,0,0-1.155-.578c-.165-.5-.33-.99-.536-1.485a3.7,3.7,0,0,0,.66-1.609,9.636,9.636,0,0,0,.165-1.073c.041-.536.165-1.031.248-1.568a.248.248,0,0,1,.041-.165c.041,0,.041-.083,0-.083a2.9,2.9,0,0,0-.371-1.939,5.9,5.9,0,0,0-.784-.99,9.359,9.359,0,0,1-.743-1.031v-.083a.248.248,0,0,0-.041-.165l.041-.041c0-.041.165-.124.206-.165a.993.993,0,0,0,.248-.33,1.134,1.134,0,0,0,.083-.825c0-.041-.083-.083-.124,0a5.334,5.334,0,0,1-.289.866.5.5,0,0,1-.206.206,3.206,3.206,0,0,1-.083-.66A3.257,3.257,0,0,0,24.5,93.3a4.8,4.8,0,0,0-.165-.743,11.833,11.833,0,0,0-.825-1.609,3,3,0,0,0-1.114-1.155,4.815,4.815,0,0,0-1.609-.619,3.625,3.625,0,0,0-1.733.248.04.04,0,0,0-.041.041,2.023,2.023,0,0,0-1.815.124,6.671,6.671,0,0,0-1.857,1.155,9.521,9.521,0,0,0-2.64,4.579,15.865,15.865,0,0,0-.454,4.827,15.055,15.055,0,0,0,.289,3.837c-.289-.413-.578-.825-.825-1.238-.578-.949-1.2-1.856-1.774-2.805V99.9l-.124-.248h0a44.168,44.168,0,0,1-2.847-5.982c-.825-2.022-1.815-3.961-2.475-6.023-.165-.5-.289-.99-.413-1.485a1.639,1.639,0,0,1,.124-1.32,7.421,7.421,0,0,0,.99-1.98A5.022,5.022,0,0,0,5.229,81.5c-.041-.536.041-1.073,0-1.609-.041-.206-.083-.454-.33-.5-.206-.041-.248.289-.289.413-.124.66.041,1.65-.454,2.187-.5.5-.7-.743-.743-1.031-.041-.454-.041-.949-.083-1.4a8.138,8.138,0,0,0-.248-1.98c-.041-.083-.248-.743-.413-.536v.041c0,.041-.041.083-.041.124A.5.5,0,0,0,2.423,77c-.041,0-.083,0-.083.041-.206.206-.454.371-.536.66H1.763a3.389,3.389,0,0,0-.536,1.9,10.81,10.81,0,0,0-.041,1.155,1.988,1.988,0,0,0,0,.5,8.729,8.729,0,0,1-.5-.825c-.124-.289-.165-.619-.289-.908-.041-.041-.083-.083-.124-.041-.5.33-.041,1.238.083,1.691C.608,82.157,1.021,83.147,1.392,84.178Zm26.115,31.313c.041.165.124.33.165.454a3.494,3.494,0,0,1,.165.7c.041.248-.083.33-.33.289-.041-.5-.041-.99-.041-1.526Zm-1.98-11.923c.165.413.289.866.454,1.279h-.206c-.041-.083-.083-.206-.124-.289l-.33-.784C25.4,103.692,25.485,103.651,25.526,103.569Zm-12.954-.743c-.041-.413-.083-.866-.124-1.32a.372.372,0,0,0,.041.206c.124.866.248,1.774.454,2.64-.041-.041-.041-.083-.083-.124C12.737,103.734,12.655,103.28,12.572,102.826Z" transform="translate(-0.052 -45.249)"/><path class="d" d="M6.8,77.2Z" transform="translate(-4.016 -45.367)"/><path class="d" d="M4.5,78.6Z" transform="translate(-2.665 -46.189)"/><path class="d" d="M84.741,133.549c-.041.784-.165,1.526.5,2.063a3.361,3.361,0,0,0,1.774.578l1.114.124a2.157,2.157,0,0,0,1.031-.083c.041.5.083.99.083,1.485h13.284c-.041-.289-.083-.619-.124-.908-.041-.5-.083-.949-.083-1.444a.765.765,0,0,1,.289.083,2.723,2.723,0,0,0,.578.041,9.691,9.691,0,0,0,1.073.041,2.874,2.874,0,0,0,1.444-.206.057.057,0,0,0,.083,0,.609.609,0,0,0,.33-.619c.041-.5.083-.949.083-1.444,0-.536,0-1.073-.041-1.609a5.125,5.125,0,0,0-.165-1.361,1.465,1.465,0,0,1,.371-.165,18.95,18.95,0,0,0-.784-4.043,8.7,8.7,0,0,0-1.031-3.012,7.626,7.626,0,0,0-2.269-2.022,5.316,5.316,0,0,0-1.361-.7A6.893,6.893,0,0,0,99.3,120.1c-.743-.124-.99-.5-.7-1.238a.362.362,0,0,0,.289-.248.817.817,0,0,0,.866.124c.165-.083.413-.206.413-.371a1.109,1.109,0,0,0,.743-.33h0c.041.041.124.041.165.083.371.124.66-.124.949-.371s.908-.825.536-1.155a1.341,1.341,0,0,0,.289-.7.442.442,0,0,0-.083-.248,1.245,1.245,0,0,0,.083-1.485c.743-.124,1.238-1.526.66-1.774a.8.8,0,0,0-.413-.866c.619-.578-.083-2.022-.784-1.774-.041,0-.041,0-.083-.041.041-.041.083-.041.083-.083.206-.33,0-.619-.206-.908-.041-.041-.083-.124-.165-.165a1.142,1.142,0,0,0,.041-.371,1.333,1.333,0,0,0-.536-.99,1.074,1.074,0,0,0-.619-.165c.124-.041.165-.165.165-.371a.746.746,0,0,0-.578-.66.7.7,0,0,0-.619-.866c0-.454-.454-.66-.908-.578a.834.834,0,0,0-1.073-.7c-.165.041-.784.33-.7.578h0a.152.152,0,0,1-.124-.041c-.041-.041-.083-.083-.124-.083h0c.083-.413-.578-.825-.908-.99a1.674,1.674,0,0,0-2.022.7c-.248-.248-.784-.083-1.073.165-.206-.33-1.114.083-1.238.536a.04.04,0,0,0-.041-.041,1.251,1.251,0,0,0-1.485.248A1.315,1.315,0,0,0,89.9,106.2c-.5-.083-1.2.5-.99.99a1.267,1.267,0,0,0-.536.33,1.89,1.89,0,0,1-.536.33c-.165.083-.248.248-.371.371a1.362,1.362,0,0,0,0,1.65c-.289.083-.454.413-.536.784a4.484,4.484,0,0,0-.041.743c.041.33.289.5.165.866a.466.466,0,0,0-.041.33c.041.206.165.371.124.578a1.843,1.843,0,0,0-.124,1.155,2.048,2.048,0,0,0,.7.866.721.721,0,0,0,.619.165,1.716,1.716,0,0,0,0,1.114c.083.206.206.5.413.578-.041.083,0,.206,0,.289.083.371.413.454.7.619.289.124,0,.5,0,.743a.72.72,0,0,0,.165.5.913.913,0,0,0,.908.206.462.462,0,0,0,.289.33c.289.083.908.165,1.114.454.206.33-.041.5-.33.578-.825.206-1.609.041-2.434.206a4.676,4.676,0,0,0-2.187.908,2.656,2.656,0,0,0-.619,1.031c-.083.289-.165.536-.248.825a4.866,4.866,0,0,0-.165.825c-.124.619-.289,1.238-.454,1.815-.33,1.32-.578,2.6-.784,3.919,0,.041.083.165.165.165a.152.152,0,0,1,.124.041c-.083.5-.083,1.031-.124,1.526C84.824,132.353,84.783,132.931,84.741,133.549Zm17.492-2.1v-.578c0-.083-.041-.165,0-.248.041,0,.124-.041.165-.041.083,0,.083,0,.124.124a1.2,1.2,0,0,0,.083.371c.041.165.083.33.124.536s-.083.165-.248.165h-.206A.8.8,0,0,1,102.234,131.445Zm.536-16.337h0l-.124.248-.083.083a.04.04,0,0,1-.041-.041ZM91.961,104.423c.083-.083.165-.124.248-.206C92.126,104.3,92.043,104.34,91.961,104.423Zm-3.548,26.816h0a10.312,10.312,0,0,1,.206,1.2c-.124-.083-.33-.041-.371-.206a3.385,3.385,0,0,1-.083-.908A.349.349,0,0,0,88.413,131.239Z" transform="translate(-49.778 -60.626)"/><path class="d" d="M135.8,168.7Z" transform="translate(-79.796 -99.118)"/><path class="d" d="M136.1,169.1Z" transform="translate(-79.972 -99.353)"/><path class="d" d="M110,51.263h.041c.206-2.022.289-3.961.413-5.982.165-3.672.248-7.467-.949-10.974-.784-2.31-1.609-4.332-2.187-6.725-.371-1.526-.949-5.57-2.558-7.137a3.843,3.843,0,0,0-2.6-1.774,13.061,13.061,0,0,0-3.3-.908h-.33c-.206-.413-.536-.866-.619-1.114a3.814,3.814,0,0,1-.413-1.485c.083-.866.413-.206.908-.083a2.772,2.772,0,0,0,1.155-.124c1.609-.5,2.434-3.135,1.526-4.538-.454-.743-1.155-.578-1.733-1.073a4.837,4.837,0,0,0,1.444-2.97c.33-3.383-3.259-5.611-6.147-6.23a6.447,6.447,0,0,0-5.2,1.4c-.825.7-1.939,1.4-2.31,2.475-.248.66.083.908.206,1.485.083.33-.041.66.083.99.083.33.248.619.33.99.124.7-.413,1.526-1.031.66a2.292,2.292,0,0,0,.66.578,7.192,7.192,0,0,1-.949,1.568c-.33.371-.5.206-.289.7.124.33.578.454.825.7.5.536.041.248.124.825.041.371.454.578.825.7-.413.248-.371.5-.33.866.041.124.248.206.248.371.041.206-.165.5-.083.66.206.7,1.526.578,2.187.536.949-.041,1.98-.908,2.682.124a3.258,3.258,0,0,1,.413,1.98c-.536.083-1.073.206-1.609.289a6.63,6.63,0,0,0-4.579,2.475c-2.269,2.31-4.208,4.827-6.353,7.261-.536.578-1.114,1.155-1.691,1.691a.724.724,0,0,1-.206.165l-.825.619h-.041c-.124.041-.248.041-.33.083l-2.187.371c-1.155.165-2.352.248-3.465.454-1.733.33-3.424.619-5.157.866-.866.124-1.733.248-2.558.413q-1.238.309-2.475.5h0c-.041-.041-.083,0-.124.041-.083.248.083.578.124.825.041.124.041.248.083.371a4.977,4.977,0,0,1-2.063.083,3.3,3.3,0,0,0-1.279-.124c-.5.041-1.031.124-1.526.206a10.11,10.11,0,0,1-1.568.165,1.805,1.805,0,0,0-1.031.33,17.872,17.872,0,0,1-2.558,1.485h-.041a420.649,420.649,0,0,0-.083.083v.041h.041l.041.041a3.712,3.712,0,0,0,2.764-.578,1.869,1.869,0,0,1,.908-.33c.289,0,.578.041.866.041a12.729,12.729,0,0,0,1.774,0h0a1.221,1.221,0,0,0,.413.083c.248.041.536.248.165.371a10.654,10.654,0,0,1-1.2.124c-.5.041-.99.124-1.444.206a2.365,2.365,0,0,0-.578.165,3.233,3.233,0,0,0-.619.413c-.083.041-.083.206.041.206a14.405,14.405,0,0,0,2.31.041,5.808,5.808,0,0,1,1.2.041c.33.041.66.083,1.031.124a4.555,4.555,0,0,0,3.177-.784,1.8,1.8,0,0,0,.413.784v.041a.152.152,0,0,0,.124.041v.041h.041a3.038,3.038,0,0,0,1.361-.041c.908-.165,1.9-.165,2.805-.248.949-.083,1.9-.248,2.847-.413.908-.124,1.815-.083,2.682-.248.99-.206,2.022-.289,3.012-.413.413-.041.866-.124,1.279-.206a8.823,8.823,0,0,0,1.114-.248,5.26,5.26,0,0,0,1.114-.454c.041-.041.041-.041.041-.083l.041-.041a18.671,18.671,0,0,0,2.269-1.774,14.305,14.305,0,0,0,1.2-1.031c.371-.371.7-.743,1.073-1.114.99-.825,1.9-1.857,2.888-2.64-.743,1.2.124,2.434.866,3.342A12.974,12.974,0,0,1,89.7,34.719a9.449,9.449,0,0,1,.578,4C90.157,41.9,88.919,44.868,88.465,48c-.5,3.135-.206,6.353-.413,9.489-.248,3.507.124,7.137.124,10.685,0,1.9-.289,3.507-.248,5.858,0,.413,10.19.784,11.015.825,2.558.124,4.992.413,7.385-.66.619-.248-.124-5.858-.206-6.56a37.809,37.809,0,0,1-.248-6.106,71.542,71.542,0,0,0,.33-10.726,18.023,18.023,0,0,0-2.393-8.334,14.233,14.233,0,0,1-1.526-9.7c.206-.908.454-1.815.7-2.723C104.307,32.615,106,35.049,106,37.9c0,2.1.124,4.249.124,6.353,0,2.145.536,4.332.413,6.436a5.164,5.164,0,0,0,.949.289.523.523,0,0,0-.041.248c-.165.7-.371,1.444-.5,2.187a7.149,7.149,0,0,0-.124,1.32c0,.619-.083,1.774.578,2.063.619-1.031.041-2.434.536-3.507h.289c.041,0,.041,2.269,0,2.517-.248,1.031-.908,1.9-1.073,2.97.371.041.66-.248.866-.619l-.248.743c1.65-.124,2.434-3.135,2.682-4.414A6.865,6.865,0,0,0,110,51.263ZM51.5,36.452Zm9.9-3.259h0a.152.152,0,0,1,.124-.041Zm42.617-13.408Z" transform="translate(-30.275 -0.039)"/><path class="d" d="M152.958,174.641l.248-3.878.289,3.878h5.528c.124-2.1.413-5.363-.784-6.065-2.352-1.361-5.033-2.929-7.88-2.352A4.48,4.48,0,0,0,147.1,169.9l.165,4.7h5.693Z" transform="translate(-86.434 -97.591)"/><path class="d" d="M195.9,105.765a2.9,2.9,0,0,0-1.444,1.815c-.784,1.98-1.568,4-2.228,6.023-.7,2.1-1.361,4.249-1.857,6.436-.124.536-.248,1.114-.371,1.65h4.744c.371-1.114.743-2.187,1.073-3.342.206-.743.454-1.444.66-2.187.124-.5.289-1.031.413-1.526.041.124.041.248.083.371.248,1.238.454,2.475.66,3.713.165.99.33,1.98.536,2.97H213.1c-.083-.371-.124-.743-.206-1.114-.165-.743-.289-1.485-.413-2.228-.206-1.609-.371-3.218-.578-4.868-.165-1.526-.454-3.012-.578-4.538-.041-.743-.124-1.485-.206-2.228-.041-.371-.041-.743-.083-1.155,0-.248-.041-.454-.041-.66a8.7,8.7,0,0,1,1.485-1.774,21.965,21.965,0,0,0,1.568-1.857,21.176,21.176,0,0,0,2.764-4.291A32.825,32.825,0,0,0,219.663,86.7h0c.083-.33.124-.619.206-.949a3.415,3.415,0,0,0,.206-1.32c.041,0,.041-.083,0-.083h-.041c0-.041-.041-.041-.041-.083h0l-.041.041c-.124-.041-.206-.041-.33-.083a13.411,13.411,0,0,1,.454-1.733,10.165,10.165,0,0,0,.33-1.9,4.632,4.632,0,0,0-.124-1.691,2.443,2.443,0,0,0-.536-1.2h0c.041.041.041.083.083.124-.041-.041-.083-.083-.124-.083a2.768,2.768,0,0,0-.784-1.444c-.165-.289-.371-.5-.619-.206h0a.04.04,0,0,0-.041.041,6.4,6.4,0,0,1,.165.866,1.427,1.427,0,0,0-.289-.5.077.077,0,0,0-.124,0,.515.515,0,0,0-.206.5c0,.33.083.7.083,1.073a8.926,8.926,0,0,1,0,1.485c-.041.454-.165.866-.248,1.32a1.236,1.236,0,0,1-.619-.866,1.8,1.8,0,0,0-.371-.743c-.083-.083-.33-.124-.413,0a.7.7,0,0,0-.041.578,4.358,4.358,0,0,0,.248.784,5.571,5.571,0,0,1,.248,1.444,2.177,2.177,0,0,0,.165,1.031,3.606,3.606,0,0,0,.33.413c.124.165,0,.5-.083.7h-.165a.125.125,0,0,0-.206.124,1.817,1.817,0,0,1-.083.66l-.124.743c-.124.5-.248.99-.413,1.485-.33,1.031-.7,2.063-1.114,3.053a26.124,26.124,0,0,1-1.485,2.805c-.248.454-.5.866-.743,1.32-.124.206-.248.413-.33.578a3.408,3.408,0,0,1-.289.536h-.041a1.377,1.377,0,0,0-.536-.454.887.887,0,0,0,.413-.619c0-.536-.536-.7-.99-.7a3.184,3.184,0,0,0-.619.083,2.031,2.031,0,0,0,.248-.7,1.4,1.4,0,0,0-.619-1.4c-.536-.248-.949.289-1.114.743a.908.908,0,0,0-.041.33c-.124-.371-.248-.743-.413-1.114a5.1,5.1,0,0,0-1.857-2.31,4.771,4.771,0,0,0-2.847-.908,3.786,3.786,0,0,0-2.558,1.238h0c-.578-.536-1.568-.206-2.187.041a4.225,4.225,0,0,0-1.815,1.691,8.979,8.979,0,0,0-.908,2.352,8.338,8.338,0,0,0-.248,1.4c0,.124-.041.248-.041.371-.206-.578-.578-1.073-1.073-.949a.846.846,0,0,0-.536,1.073.978.978,0,0,0,.371.619.907.907,0,0,0-.578.083c-.454.206-.784.908-.371,1.32a.863.863,0,0,0,.248.165H194c0-.041,0-.041-.041-.041a.372.372,0,0,0-.206.041h0a1.147,1.147,0,0,0-.784.66,3.978,3.978,0,0,0-.7,1.526,5.1,5.1,0,0,0,.33,3.218c0,.041.083,0,.083-.041a7.043,7.043,0,0,1-.289-2.929,4.385,4.385,0,0,1,1.031-2.1,1.447,1.447,0,0,0-.248.578,7.092,7.092,0,0,0-.413,1.609c-.124,1.031-.041,2.888,1.2,3.3.041,0,.041,0,.083-.041.041,0,.041-.041.041-.083a2.82,2.82,0,0,1-.289-1.65,1.609,1.609,0,0,0,.371,1.2c.206.165.454.124.5-.165a3.964,3.964,0,0,1,.124-1.4c0,.083.041.165.041.248,0,.041.041.041.041,0a.7.7,0,0,0,0-.413h0a2.333,2.333,0,0,1-.206,1.815c-.041.083.083.165.124.124a2.566,2.566,0,0,0,.866-1.32c.206.371-.206.99-.454,1.279a.091.091,0,0,0,.124.124,1.247,1.247,0,0,0,.743-.7.761.761,0,0,1-.206.5.1.1,0,0,0,.083.165,1.73,1.73,0,0,0,.66-.165.128.128,0,0,0,.041-.083c.66-.371.5-1.361.289-2.063a8.246,8.246,0,0,0,.413.866,1.24,1.24,0,0,1-.083,1.526c-.041.041,0,.083.041.041.825-.413.33-1.361.041-1.98-.289-.578-.536-1.2-.784-1.774a1.672,1.672,0,0,0-.206-.371c0-.083-.124-.949-.124-1.526a4.418,4.418,0,0,0,.371,1.114,5.922,5.922,0,0,0,3.8,3.259v.041c-.041.083.041.124.041.165v.454a2.253,2.253,0,0,1-.248.743c-.165-.041-.371-.083-.536-.124-.041,0-.083.041-.041.083h.041c-.206,0-.248.33-.33.454a1.29,1.29,0,0,1-.206.413c-.083.124-.206.124-.33.206l-.041.041c-.041,0-.041.041-.041.083h0a7.31,7.31,0,0,1-1.279.619A6.836,6.836,0,0,0,195.9,105.765Zm22.732-21.535h0Zm-9.984,14.852a2.353,2.353,0,0,0-.041.536,2.73,2.73,0,0,0,.124.949c-.083.083-.124.206-.206.289C208.029,100.237,208.441,99.7,208.648,99.081Zm-2.269,2.6a7.213,7.213,0,0,0,1.774-1.939,1,1,0,0,0,.248,1.238,7.952,7.952,0,0,1-1.114,1.238,1.824,1.824,0,0,1-.949.619c-.248.041-.371-.248-.578-.33,0-.083-.083-.083-.165-.041s-.124.124-.206.165l-.124-.248-.124-.248A2.354,2.354,0,0,0,206.379,101.68Z" transform="translate(-111.636 -44.64)"/><path class="d" d="M254.449,140.605a3.618,3.618,0,0,0,1.155,0c.7-.083,1.361-.206,2.022-.33A26.466,26.466,0,0,0,262,139.038a.04.04,0,0,0,.041-.041.144.144,0,0,0,.083-.041c.041,0,.124-.041.165-.041.083.66.165,1.361.289,2.022.083.413.124.825.206,1.238H278.5c-.083-.413-.124-.784-.206-1.2a4.793,4.793,0,0,0-.165-.743h3.218c.041.041.083,0,.083-.041-.165-.536-.413-1.073-.578-1.568a9.231,9.231,0,0,0-.578-1.485h-.041a1.276,1.276,0,0,0,.289-1.238.079.079,0,0,0-.124-.041A14.042,14.042,0,0,0,279.243,134c-.454-.7-.908-1.444-1.32-2.187-.371-.7-.784-1.444-1.2-2.1a1.862,1.862,0,0,0-.825-.866h-.165a5.07,5.07,0,0,0-1.114-.083,9.8,9.8,0,0,1-1.526-.248c-.454-.083-.908-.083-1.361-.165-.206-.041-.371-.083-.536-.124,0-.041-.041-.041-.082-.041-.165-.041-.371-.124-.536-.165v-.041a5.388,5.388,0,0,0-.454-.5,1.5,1.5,0,0,1-.289-.7c-.041-.165-.124-.33-.165-.536,0-.041-.082-.371-.082-.5h0c.041.083.165.206.248.33h0c0,.124.124.5.248.248,0-.041,0-.041-.041-.041-.124,0-.041-.743-.041-1.114v-.083a.144.144,0,0,0,.041.083.908.908,0,0,1,.041.33h0v-.165c.041.124.124.248.165.371a2.246,2.246,0,0,0,.454.743c.206.124.206-.165.206-.248h0a.248.248,0,0,1,.041-.165l.454-.949c.041-.041.041-.083.083-.083a6.953,6.953,0,0,1-.5,1.155.093.093,0,0,0,.165.083,1.447,1.447,0,0,0,.206-.33l.619-.619c-.165.371-.5.66-.66,1.073h0v.041c-.041.083.124.165.165.083.124-.289.413-.413.619-.619l.124-.124a.079.079,0,0,0,.124.041,11.436,11.436,0,0,0,1.155-4.167,12.519,12.519,0,0,0-.33-4.291c.165.5.289.949.413,1.444a8.932,8.932,0,0,1,.165,3.135c-.165,1.031-.7,1.939-.949,2.929,0,.041.041.083.083.041a8.914,8.914,0,0,0,1.073-2.929,8.738,8.738,0,0,0-.082-2.929,15.02,15.02,0,0,0-.908-2.929,12.463,12.463,0,0,0-.743-1.485c-.124-.206-.248-.371-.33-.536-.165-.33-.33-.66-.536-.99a3.5,3.5,0,0,0-3.053-1.568c0-.041-.041-.041-.083-.041-.083,0-.536.124-.289-.041a.613.613,0,0,1,.371-.083.083.083,0,1,0,0-.165h-.784c.124-.124.289-.248.165-.371-.206-.206-.66.206-.908.289,0-.083.041-.124.041-.206a.089.089,0,0,0-.083-.083c-.124,0-.413.041-.454.248v.124a1.673,1.673,0,0,0-.371-.206,3.649,3.649,0,0,0-.949,0c-.124,0-.124.124-.041.165.206.083.371.165.536.248.041.041.083.041.124.083-.536-.041-1.114.454-1.526.7a7.632,7.632,0,0,0-1.65,1.4,10.218,10.218,0,0,0-2.022,3.713h0v.083a2.326,2.326,0,0,1-.165.5c-.041.165-.082.33-.124.536-.124.5-.289.99-.371,1.485a7.984,7.984,0,0,0,1.939,6.395c.041.041.124,0,.083-.041a9.17,9.17,0,0,1-1.815-4.084,7.127,7.127,0,0,1,0-2.475v-.041c0,.248-.041.5-.041.784a12.538,12.538,0,0,0,.206,2.475,7.533,7.533,0,0,0,2.517,3.919c.041.041.083,0,.124-.041V126.7a.04.04,0,0,0-.041-.041,2.663,2.663,0,0,1-.165-.784v-.33a2.294,2.294,0,0,0,.371.7c.206.371.536.908,1.031.949a.089.089,0,0,0,.083-.083,2.406,2.406,0,0,0-.33-.743,4.163,4.163,0,0,1-.289-.619c.083.124.165.206.206.289.206.206.454.413.66.619.248.248.536.7.949.66a.062.062,0,1,0,0-.124c-.041,0-.083-.041-.124-.041a4,4,0,0,0-.041-.7,1.531,1.531,0,0,0-.083-.371l-.041-.289v-.083a2.807,2.807,0,0,1,.454,1.279.089.089,0,0,0,.083.083v.454a1.456,1.456,0,0,1-.124.578h0c-.248.536-.825.5-1.32.578-.578.124-1.114.206-1.691.33a5.656,5.656,0,0,0-1.444.33,3.257,3.257,0,0,0-1.031.784c-.825.825-1.691,1.65-2.475,2.517a21.023,21.023,0,0,0-2.1,2.558c-.041.041,0,.083.041.124v.124a7.355,7.355,0,0,0-1.031,1.485,11.058,11.058,0,0,0-.784,1.733C253.5,139.368,253.458,140.4,254.449,140.605Zm16.131-12.583.041.041-.041-.041Zm-7.962-1.733v0Zm-4.414,5.858c-.083.083-.165.206-.248.289l-.825.866C257.5,132.932,257.832,132.519,258.2,132.148Zm-2.64,3.3h0l-.083.124C255.521,135.531,255.562,135.49,255.562,135.448Z" transform="translate(-148.938 -65.082)"/></g></g></g></svg>