<svg xmlns="http://www.w3.org/2000/svg" xmlns:xlink="http://www.w3.org/1999/xlink" viewBox="-276 2206.555 892 182.445"><defs><style>.a{fill:none;}.b,.d{fill:#fff;}.b{font-size:60px;font-family:Sentinel-Medium, Sentinel;font-weight:500;}.c{clip-path:url(#a);}.e{clip-path:url(#b);}</style><clipPath id="a"><path class="a" d="M0-51.213H331.891V19.66H0Z" transform="translate(0 51.213)"/></clipPath><clipPath id="b"><path class="a" d="M0-623.121H152v169.4H0Z" transform="translate(0 623.121)"/></clipPath></defs><g transform="translate(-547 -6027)"><text class="b" transform="translate(453 8340)"><tspan x="0" y="58">Collaborative</tspan></text><g transform="translate(536.936 8269)"><g class="c" transform="translate(-83 0)"><g transform="translate(0 0)"><path class="d" d="M.69,11.756a31.212,31.212,0,0,0,13.565,3.371c5.619,0,8.588-2.328,8.588-5.859,0-3.371-2.568-5.3-9.07-7.627C4.784-1.488-1.076-6.464-1.076-14.33c0-9.23,7.705-16.294,20.468-16.294A33.143,33.143,0,0,1,33.2-27.894l-2.729,9.871a25.737,25.737,0,0,0-11.317-2.568c-5.3,0-7.866,2.408-7.866,5.217,0,3.451,3.05,4.976,10.033,7.625C30.87-4.217,35.365.76,35.365,8.383c0,9.07-6.983,16.777-21.832,16.777-6.18,0-12.281-1.607-15.331-3.291Z" transform="translate(1.798 30.624)"/></g><g transform="translate(41.336 0.884)"><path class="d" d="M4.03,2.85H-10.5V-7.424H31.078V2.85H16.31V46.673H4.03Z" transform="translate(10.498 7.424)"/></g><g transform="translate(87.809 0.883)"><path class="d" d="M8.928,8.661H-10.978V21.5H11.256V31.535H-23.257v-54.1H10.132v10.033h-21.11V-1.292H8.928Z" transform="translate(23.257 22.562)"/></g><g transform="translate(129.466 0.884)"><path class="d" d="M13.025,9.262c-.241-6.5-.482-14.367-.482-22.232H12.3c-1.686,6.9-3.933,14.607-6.02,20.948L-.3,29.087H-9.85L-15.63,8.138c-1.764-6.341-3.611-14.046-4.9-21.108h-.159c-.321,7.3-.563,15.65-.965,22.393l-.962,20.548H-33.929l3.45-54.1h16.3l5.3,18.06C-7.2.192-5.515,6.934-4.311,13.275h.239C-2.547,7.014-.7-.128,1.065-6.149L6.844-24.127H22.817l2.97,54.1H13.827Z" transform="translate(33.929 24.127)"/></g><g transform="translate(197.851 15.571)"><path class="d" d="M1.136,6.724a18.684,18.684,0,0,0,.321,3.05,13.02,13.02,0,0,0,12.682,9.792c8.828,0,13.886-7.144,13.886-17.417,0-8.667-4.817-16.535-13.565-16.535A13.455,13.455,0,0,0,1.7-4.112,15.71,15.71,0,0,0,1.136-.821ZM-2.637-4.353c0-4.815-.161-8.669-.321-12.281H.654l.321,7.3h.161c2.729-5.137,7.465-8.187,14.207-8.187,9.871,0,16.535,8.187,16.535,19.5,0,13.806-8.187,20.789-17.5,20.789-5.537,0-10.433-2.488-13.082-7.144H1.136V37.785H-2.637Z" transform="translate(2.958 17.516)"/></g><g transform="translate(239.106 15.572)"><path class="d" d="M6.524,5.21c-8.428-.242-19.5,1.043-19.5,10.274,0,5.538,3.692,8.026,7.705,8.026A11.6,11.6,0,0,0,6.122,15.8a8.344,8.344,0,0,0,.4-2.326ZM10.3,16.686a69.147,69.147,0,0,0,.562,9.15H7.407L6.843,20.3H6.6A14.449,14.449,0,0,1-5.677,26.72c-7.705,0-11.317-5.457-11.317-10.594C-16.994,7.215-9.128,1.837,6.524,2V1.035c0-3.851-.722-11.478-9.873-11.4a16.4,16.4,0,0,0-9.632,2.89l-1.2-2.809A20.843,20.843,0,0,1-2.948-13.572C8.209-13.572,10.3-5.224,10.3,1.677Z" transform="translate(16.994 13.572)"/></g><g transform="translate(275.705 15.571)"><path class="d" d="M8.26,10.465A24.743,24.743,0,0,1-2.977,13.032c-11.157,0-18.541-8.105-18.541-19.744,0-12.2,8.349-20.548,19.906-20.548,4.736,0,8.588,1.366,10.113,2.408l-1.366,3.13a18.681,18.681,0,0,0-9.149-2.247c-10.353,0-15.65,7.946-15.65,17.016,0,10.033,6.341,16.615,15.249,16.615A22.7,22.7,0,0,0,7.217,7.495Z" transform="translate(21.518 27.26)"/></g><g transform="translate(310.541 7.947)"><path class="d" d="M2.872,0V8.507h11v3.051h-11V36.6c0,4.9,1.526,8.026,5.62,8.026a13.823,13.823,0,0,0,4.413-.642l.483,2.971a13.458,13.458,0,0,1-5.379.962,8.041,8.041,0,0,1-6.582-2.808C-.337,43.1-.98,39.89-.98,35.957v-24.4h-6.5V8.507h6.5V1.445Z" transform="translate(7.481)"/></g></g></g><g transform="translate(271 8233.555)"><g class="e"><g transform="translate(76.454 29.873)"><path class="d" d="M-10.415-5.206a1.944,1.944,0,0,1-1.944,1.944A1.944,1.944,0,0,1-14.3-5.206,1.944,1.944,0,0,1-12.359-7.15a1.943,1.943,0,0,1,1.944,1.944" transform="translate(14.303 7.15)"/></g><g transform="translate(97.563 25.597)"><path class="d" d="M-13.663-6.831a2.55,2.55,0,0,1-2.55,2.551,2.551,2.551,0,0,1-2.551-2.551,2.55,2.55,0,0,1,2.551-2.55,2.55,2.55,0,0,1,2.55,2.55" transform="translate(18.764 9.381)"/></g><g transform="translate(78.475 11.61)"><path class="d" d="M-13.664-6.83a2.551,2.551,0,0,1-2.551,2.551A2.551,2.551,0,0,1-18.766-6.83a2.551,2.551,0,0,1,2.551-2.55,2.55,2.55,0,0,1,2.551,2.55" transform="translate(18.766 9.38)"/></g><g transform="translate(89.103 30.674)"><path class="d" d="M-6.119-3.06A1.143,1.143,0,0,1-7.262-1.917,1.142,1.142,0,0,1-8.4-3.06,1.142,1.142,0,0,1-7.262-4.2,1.143,1.143,0,0,1-6.119-3.06" transform="translate(8.404 4.202)"/></g><g transform="translate(87.535 35.661)"><path class="d" d="M-8.4-4.2A1.569,1.569,0,0,1-9.972-2.633,1.569,1.569,0,0,1-11.54-4.2,1.569,1.569,0,0,1-9.972-5.771,1.569,1.569,0,0,1-8.4-4.2" transform="translate(11.54 5.771)"/></g><g transform="translate(97.992 35.618)"><path class="d" d="M-7.536-3.767A1.407,1.407,0,0,1-8.942-2.361a1.407,1.407,0,0,1-1.407-1.407A1.407,1.407,0,0,1-8.942-5.174,1.407,1.407,0,0,1-7.536-3.767" transform="translate(10.349 5.174)"/></g><g transform="translate(82.777 39.964)"><path class="d" d="M-7.536-3.767A1.407,1.407,0,0,1-8.943-2.361a1.407,1.407,0,0,1-1.406-1.407A1.407,1.407,0,0,1-8.943-5.174,1.407,1.407,0,0,1-7.536-3.767" transform="translate(10.349 5.174)"/></g><g transform="translate(51.623 35.618)"><path class="d" d="M-8.637-4.319A1.612,1.612,0,0,1-10.25-2.707a1.612,1.612,0,0,1-1.612-1.612A1.613,1.613,0,0,1-10.25-5.932,1.612,1.612,0,0,1-8.637-4.319" transform="translate(11.862 5.932)"/></g><g transform="translate(65.803 36.081)"><path class="d" d="M-11.559-5.779a2.158,2.158,0,0,1-2.158,2.158,2.158,2.158,0,0,1-2.157-2.158,2.157,2.157,0,0,1,2.157-2.158,2.157,2.157,0,0,1,2.158,2.158" transform="translate(15.874 7.937)"/></g><g transform="translate(53.433 21.771)"><path class="d" d="M-17.194-8.6A3.21,3.21,0,0,1-20.4-5.388,3.209,3.209,0,0,1-23.614-8.6a3.209,3.209,0,0,1,3.209-3.21A3.21,3.21,0,0,1-17.194-8.6" transform="translate(23.614 11.807)"/></g><g transform="translate(59.654 31.816)"><path class="d" d="M-10.616-5.308A1.982,1.982,0,0,1-12.6-3.326,1.981,1.981,0,0,1-14.58-5.308,1.981,1.981,0,0,1-12.6-7.29a1.982,1.982,0,0,1,1.982,1.982" transform="translate(14.58 7.29)"/></g><g transform="translate(66.49 24.98)"><path class="d" d="M-10.617-5.308A1.982,1.982,0,0,1-12.6-3.326a1.982,1.982,0,0,1-1.982-1.982A1.982,1.982,0,0,1-12.6-7.29a1.982,1.982,0,0,1,1.982,1.982" transform="translate(14.581 7.29)"/></g><g transform="translate(65.341 12.41)"><path class="d" d="M-16.771-8.386A3.131,3.131,0,0,1-19.9-5.255a3.131,3.131,0,0,1-3.13-3.131,3.131,3.131,0,0,1,3.13-3.131,3.131,3.131,0,0,1,3.131,3.131" transform="translate(23.033 11.517)"/></g><g transform="translate(76.296 0)"><path class="d" d="M-20.668-10.334a3.858,3.858,0,0,1-3.858,3.858,3.859,3.859,0,0,1-3.858-3.858,3.858,3.858,0,0,1,3.858-3.858,3.858,3.858,0,0,1,3.858,3.858" transform="translate(28.384 14.192)"/></g><g transform="translate(80.117 20.513)"><path class="d" d="M-18.536-9.267A3.46,3.46,0,0,1-22-5.807a3.461,3.461,0,0,1-3.46-3.46A3.46,3.46,0,0,1-22-12.727a3.46,3.46,0,0,1,3.46,3.46" transform="translate(25.457 12.727)"/></g><g transform="translate(90.806 22.136)"><path class="d" d="M-9.839-4.92a1.837,1.837,0,0,1-1.837,1.837A1.837,1.837,0,0,1-13.513-4.92a1.836,1.836,0,0,1,1.837-1.837A1.837,1.837,0,0,1-9.839-4.92" transform="translate(13.513 6.757)"/></g><g transform="translate(0 38.349)"><path class="d" d="M-158.934-109.427s-25.058,19.27-31.7,8.6c0,0-1.787,22.721,5.107,26.071a3.048,3.048,0,0,0,2.032,0c4.623-1.218,14.093-9.993,24.558-34.67m-46.227,76.5c6.786-2.784,7.555-10.743,9.5-16.927,1.76-5.582,3.323-11.22,4.93-16.848a25.471,25.471,0,0,0,1.237-5.436,7.6,7.6,0,0,0-.93-3.582,29.5,29.5,0,0,1-2.417-7.753,60.056,60.056,0,0,1-.682-11.741,121.256,121.256,0,0,1,3.913-25.5,209.187,209.187,0,0,1,6.445-20.906c1.061-2.913,2.154-5.825,3.39-8.668l32.272,10.047c-.6,3.042-1.348,6.061-2.129,9.061a208.936,208.936,0,0,1-6.561,20.87,121.1,121.1,0,0,1-11.251,23.214,60.111,60.111,0,0,1-7.224,9.28,29.6,29.6,0,0,1-6.393,5.011,7.592,7.592,0,0,0-2.8,2.421,25.6,25.6,0,0,0-2.069,5.177c-1.871,5.546-3.785,11.075-5.5,16.67-1.9,6.2-5.789,13.188-1.781,19.331,1.746,2.68,9.015,6.713,9.942,8,0,0,.446.475.361.75-1.007,3.234-14.222-1.494-18.586-2.857-4.967-1.552-16.219-4.736-16.777-8.154-.072-.443.447-.73.713-.85.854-.382,9.5.579,12.392-.611" transform="translate(218.273 150.283)"/></g><g transform="translate(77.862 38.238)"><path class="d" d="M-117.888-110.628s-4.975.217-10.131,6.56-16.668,2.836-19.628-.908c0,0,15.631,30.76,24.719,27.5,8.221-2.951,7.185-19.5,5.039-33.15M-101.3-35c3,1.1,12.193-.074,13.077.284a.66.66,0,0,1,.449.778c-.537,3.446-12.4,7.1-17.207,8.695-4.487,1.492-18.055,6.652-19.128,3.44-.09-.272.365-.764.365-.764.942-1.319,8.391-5.588,10.163-8.331,4.064-6.286-.015-13.177-2.045-19.334-1.833-5.56-3.864-11.046-5.854-16.551a24.685,24.685,0,0,0-2.189-5.129,7.562,7.562,0,0,0-2.909-2.342,29.567,29.567,0,0,1-6.644-4.829,58.887,58.887,0,0,1-7.547-9.084,117.5,117.5,0,0,1-11.849-22.938,202.3,202.3,0,0,1-6.988-20.731c-.837-2.985-1.645-5.989-2.292-9.023l33.16-11.072c1.305,2.813,2.464,5.7,3.589,8.59a202.35,202.35,0,0,1,6.869,20.771,117.523,117.523,0,0,1,4.308,25.454,58.849,58.849,0,0,1-.576,11.8,29.492,29.492,0,0,1-2.408,7.851,7.562,7.562,0,0,0-.921,3.621,24.637,24.637,0,0,0,1.335,5.415c1.717,5.6,3.389,11.2,5.264,16.747,2.076,6.142,2.955,14.1,9.98,16.685" transform="translate(161.903 151.932)"/></g></g></g></g></svg>