<svg xmlns="http://www.w3.org/2000/svg" xmlns:xlink="http://www.w3.org/1999/xlink" viewBox="433 2882 220 272"><defs><style>.a,.b{fill:none;}.b{stroke:#fff;}.c,.f{fill:#fff;}.c{font-size:60px;font-family:Sentinel-Medium, Sentinel;font-weight:500;}.d{font-size:36px;}.e{clip-path:url(#a);}.g{stroke:none;}</style><clipPath id="a"><path class="a" d="M0-437.712H167.969v92.831H0Z" transform="translate(0 437.712)"/></clipPath></defs><g transform="translate(-547 -6027)"><g class="b" transform="translate(980 8909)"><rect class="g" width="220" height="272"/><rect class="a" x="0.5" y="0.5" width="219" height="271"/></g><text class="c" transform="translate(980 9028)"><tspan x="38.81" y="58">7,000</tspan><tspan class="d"><tspan x="41.762" y="98">students</tspan></tspan></text><g transform="translate(1005.904 8928.881)"><g class="e"><g transform="translate(65.485 0)"><path class="f" d="M-40.5-132.135l-.051.051c-.051,0-.051.051-.051.1a9.073,9.073,0,0,1-1.584.767,8.463,8.463,0,0,0-1.905.451,3.593,3.593,0,0,0-1.789,2.248c-.971,2.453-1.942,4.955-2.76,7.461-.867,2.6-1.686,5.264-2.3,7.973-.154.664-.307,1.38-.46,2.044h5.877c.46-1.38.92-2.709,1.329-4.14.255-.921.562-1.789.818-2.709.154-.619.358-1.277.512-1.891.051.154.051.308.1.46.307,1.534.562,3.066.818,4.6.2,1.226.409,2.453.664,3.679h18.5c-.1-.46-.154-.92-.255-1.38-.2-.921-.358-1.84-.512-2.76-.255-1.993-.46-3.987-.716-6.031-.2-1.891-.562-3.732-.716-5.622-.051-.921-.154-1.84-.255-2.76-.051-.46-.051-.92-.1-1.431,0-.307-.051-.562-.051-.818a10.777,10.777,0,0,1,1.84-2.2,27.154,27.154,0,0,0,1.942-2.3,26.227,26.227,0,0,0,3.424-5.316,40.668,40.668,0,0,0,3.532-12.729c.1-.409.154-.767.255-1.176a4.229,4.229,0,0,0,.255-1.635c.051,0,.051-.1,0-.1h-.051c0-.051-.051-.051-.051-.1l-.051.051c-.154-.051-.255-.051-.409-.1a16.616,16.616,0,0,1,.562-2.147,12.6,12.6,0,0,0,.409-2.354,5.746,5.746,0,0,0-.154-2.095,3.027,3.027,0,0,0-.664-1.487c.051.051.051.1.1.154-.051-.051-.1-.1-.154-.1a3.431,3.431,0,0,0-.971-1.789c-.2-.358-.46-.619-.767-.255a.05.05,0,0,0-.051.048v0a7.9,7.9,0,0,1,.2,1.073,1.767,1.767,0,0,0-.358-.619.1.1,0,0,0-.133-.02.091.091,0,0,0-.02.02.638.638,0,0,0-.255.619c0,.409.1.867.1,1.329a11.054,11.054,0,0,1,0,1.84c-.051.563-.2,1.073-.307,1.635a1.532,1.532,0,0,1-.767-1.073,2.231,2.231,0,0,0-.46-.92c-.1-.1-.409-.154-.512,0a.867.867,0,0,0-.051.716,5.416,5.416,0,0,0,.307.971,6.909,6.909,0,0,1,.307,1.789,2.694,2.694,0,0,0,.2,1.277,4.474,4.474,0,0,0,.409.512c.154.2,0,.619-.1.867h-.2a.155.155,0,0,0-.219.007.155.155,0,0,0-.036.146,2.259,2.259,0,0,1-.1.818l-.154.92c-.154.619-.307,1.226-.512,1.84-.409,1.277-.867,2.556-1.38,3.782a32.4,32.4,0,0,1-1.84,3.475c-.307.563-.619,1.073-.92,1.635-.154.255-.307.512-.409.716a4.218,4.218,0,0,1-.358.664l-4.24,6.253c-.1.1-.154.255-.255.358l-.154.155a9.868,9.868,0,0,1-1.38,1.534,2.261,2.261,0,0,1-1.176.767c-.307.051-.46-.307-.716-.409,0-.1-.1-.1-.2-.051s-.607.61-.709.66" transform="translate(51.398 167.701)"/></g><g transform="translate(8.234 38.69)"><path class="f" d="M-9.5-41.925h0l-.1.154c.049-.05.1-.1.1-.152ZM-6.227-47c-.1.112-.2.277-.307.388l-1.022,1.164c.457-.5.868-1.052,1.324-1.551ZM9.105-52.542l.051.055ZM2.762-53.21a2.1,2.1,0,0,1-.154.776c-.307.72-1.022.672-1.635.777-.716.166-1.38.277-2.095.443a6.558,6.558,0,0,0-1.789.443,4.088,4.088,0,0,0-1.277,1.054C-5.21-48.608-6.283-47.5-7.254-46.334a27.874,27.874,0,0,0-2.6,3.437c-.051.055,0,.112.051.167v.166a9.938,9.938,0,0,0-1.277,2,15.485,15.485,0,0,0-.971,2.329c0,.943-.053,2.33,1.175,2.605a4.136,4.136,0,0,0,1.431,0c.867-.112,1.686-.277,2.5-.443A30.824,30.824,0,0,0-1.524-37.74a.051.051,0,0,0,.051-.052v0a.176.176,0,0,0,.1-.055c.051,0,.154-.055.2-.055.1.887.2,1.829.358,2.717.1.555.154,1.109.255,1.663h19.47c-.1-.555-.154-1.053-.255-1.612a6.942,6.942,0,0,0-.2-1h3.986c.051.055.1,0,.1-.055-.2-.72-.512-1.442-.716-2.107a13.074,13.074,0,0,0-.716-2h-.051a1.822,1.822,0,0,0,.358-1.663.1.1,0,0,0-.121-.073.091.091,0,0,0-.033.018,19.134,19.134,0,0,0-1.431-2.5c-.562-.94-1.125-1.94-1.635-2.938-.46-.941-.971-1.94-1.486-2.822a2.429,2.429,0,0,0-1.022-1.164h-.2a5.8,5.8,0,0,0-1.38-.111,11.236,11.236,0,0,1-1.89-.333c-.562-.112-1.125-.112-1.686-.222-.255-.055-.46-.112-.664-.167,0-.055-.051-.055-.1-.055-.2-.055-.46-.167-.664-.222V-52.6" transform="translate(12.054 53.21)"/></g><g transform="translate(71.001 13.371)"><path class="f" d="M-74.788-80.1h-.2a6.284,6.284,0,0,0-1.38-.1,12.124,12.124,0,0,1-1.89-.307c-.562-.1-1.125-.1-1.686-.2-.255-.051-.46-.1-.664-.154,0-.051-.051-.051-.1-.051-.2-.051-.46-.154-.664-.2v-.051a6.651,6.651,0,0,0-.562-.619,1.86,1.86,0,0,1-.358-.867c-.051-.2-.154-.409-.2-.664l-.1-.619,1.381.87.965.051c.154-.358.512-.512.767-.767l.154-.154.819-1.075a11.043,11.043,0,0,0,1.329-3.629,10.82,10.82,0,0,0-.1-3.629A18.592,18.592,0,0,0-78.416-95.9a15.416,15.416,0,0,0-.92-1.84c-.154-.255-.307-.46-.409-.664-.2-.409-.409-.818-.664-1.226a4.337,4.337,0,0,0-3.782-1.943,6.442,6.442,0,0,0-1.025-.082l-2.351.034c-.664-.051-1.38.562-1.89.867A9.463,9.463,0,0,0-91.5-99.023a12.658,12.658,0,0,0-2.5,4.6v.1a2.894,2.894,0,0,1-.2.619c-.051.2-.1.409-.154.664-.154.619-.358,1.226-.46,1.84a9.891,9.891,0,0,0,2.4,7.922c.051.051.154,0,.1-.051a11.362,11.362,0,0,1-2.248-5.059,8.83,8.83,0,0,1,0-3.066V-91.5c0,.307-.051.619-.051.971a15.514,15.514,0,0,0,.255,3.066,9.332,9.332,0,0,0,3.118,4.855l1.635.463.409-.665c.307.307.664.867,1.176.818a.077.077,0,0,0,.077-.077.077.077,0,0,0-.077-.077c-.051,0-.1-.051-.154-.051a4.962,4.962,0,0,0-.051-.867,1.9,1.9,0,0,0-.1-.46l-.051-.358v-.1a3.478,3.478,0,0,1,.562,1.585.11.11,0,0,0,.1.1v.562a1.8,1.8,0,0,1-.154.716,4.41,4.41,0,0,1-1.662,1.557" transform="translate(94.918 101.659)"/></g><path class="f" d="M15.461-125.585h1.914v-33.8H15.461Z" transform="translate(-12.182 218.415)"/><path class="f" d="M221.625-125.585h1.913v-33.8h-1.913Z" transform="translate(-174.622 218.415)"/><path class="f" d="M70.406-133.67H96.639V-134.9H70.406Z" transform="translate(-55.474 199.12)"/><path class="f" d="M329.641-133.67h27.327V-134.9H329.641Z" transform="translate(-259.73 199.12)"/><path class="f" d="M52.194-171.62H0v-4.509H52.194Z" transform="translate(0 231.606)"/><path class="f" d="M563.268-125.588h-1.913v-33.8h1.913Z" transform="translate(-442.302 218.419)"/><path class="f" d="M767.52-125.588h1.913v-33.8H767.52Z" transform="translate(-604.743 218.419)"/><path class="f" d="M601.3-116.981h26.233v-1.229H601.3Z" transform="translate(-473.776 185.97)"/><path class="f" d="M598.089-171.62H545.9v-4.509h52.194Z" transform="translate(-430.121 231.606)"/><path class="f" d="M290.324-125.588H288.41v-33.8h1.914Z" transform="translate(-227.244 218.419)"/><path class="f" d="M494.57-125.588h1.914v-33.8H494.57Z" transform="translate(-389.681 218.419)"/><path class="f" d="M325.144-171.62H272.95v-4.509h52.194Z" transform="translate(-215.062 231.606)"/><g transform="translate(124.545 14.698)"><path class="f" d="M-99.766-140.6a3.72,3.72,0,0,0-.057-1.953,2.119,2.119,0,0,0-.165-.8c-.009-.011-.329-.389-.338-.252-.056.789-.5,2.574.561,3m-19.311,3.237a18.145,18.145,0,0,0,.237-3.971c-.039-.357.025-.649-.3-.861-.426.532-.319,1.927-.419,2.61a14.11,14.11,0,0,1-.633,2.619l-6.431,1.457c.045-1.14.431-2.232.554-3.363a28.062,28.062,0,0,1,.695-4.128c.786-2.995,1.683-5.926,2.425-8.9a9.6,9.6,0,0,1,3.093-5.149,5.725,5.725,0,0,1,2.2-1.211c.419-.135,4-1.714,4.036-.665,1.323.106.993-2.252.839-3.01-.1-.509-.673-3-1.261-3.01-.24.417-.936.791-1.322.31-.293-.366-.21-.993-.538-1.429a2.159,2.159,0,0,1-.532-1.589c0-.821.16-.915.942-.962-.18,0-.616-.994-.643-1.158s.064-.407.037-.608c-.038-.279-.19-.534-.218-.819a12.246,12.246,0,0,0,.03-1.313c-.14-.628-1.221-1.525-.519-2.242.246.424.136,1.639.9,1.068.621-.465.6-1.069.644-1.792.441-.245.42.285.692.35.311.074.508-.229.731-.412a5.354,5.354,0,0,0,1.224-1.219c-.353-.311-.677.074-.843.367-.108-.428.353-.735.673-.843.215-.072.49.021.691-.052a2.648,2.648,0,0,0,.57-.384,2.421,2.421,0,0,1,1.229-.358,4.356,4.356,0,0,0,.635-.055,4.234,4.234,0,0,0,.69-.264c.5-.176.738.061,1.162.151s.874,0,1.328.074a.836.836,0,0,0,.522,0c.2-.059.468-.36.682-.319.252.049.613.64.741.85.276.451.859,1.591,1.541,1.463.137-.787-.16-1.017-.717-1.468.888-.2.911.8,1.363,1.27.269.283,1.451.416,1.152.936-.5.066-.15.528.1.7-.39-.111-.747-.04-.524.424.11.226.539.384.7.58a2.612,2.612,0,0,1,.676,1.9,1.069,1.069,0,0,0-.351-.361,2.267,2.267,0,0,0-.053,1.415c.44.158.112,1.7.088,2.171-1.053.523-.3,1.247-.215,2.086a2.463,2.463,0,0,1-.2,1.259c-.208.4-.719.616-.805,1.05-.383.173-.26.717-.679.909-.56.256-.763-.066-1.061-.456-.072.43-.63.915-.836,1.3-.379.7-.7,1.4-1.014,2.126a1.949,1.949,0,0,0-.32,1.272c.069.244.4.754.689.8.214.029.256-.215.477-.214s.292.117.475.211a2.852,2.852,0,0,0,1.165.369,5.108,5.108,0,0,1,2.026,1.155c1,.652,1.973,1.33,2.939,2.09a4.279,4.279,0,0,1,1.452,2.521,17.479,17.479,0,0,1,.891,4.082,19.172,19.172,0,0,0,.474,3.076c.368,1.615.659,3.29,1.167,4.867a11.138,11.138,0,0,1,.953,2.649l-5.62.787c.313.015-.571-2.11-.724-2.263a4.262,4.262,0,0,1-.863,1.372Z" transform="translate(126.62 178.441)"/></g><g transform="translate(130.837 59.462)"><path class="f" d="M-77.857-2.15a13.7,13.7,0,0,0-.043,1.7,8.96,8.96,0,0,1-.456,2.266A20.381,20.381,0,0,0-78.679,4.3a17.537,17.537,0,0,1-.256,2.157c-.169.618-.457,1.162-.677,1.773S-80.4,9.556-80.17,10.2c.18.508-.105,1.073.227,1.507a3.224,3.224,0,0,1,.673,3.459c-.4,1.115-1.293,2.239-1.246,3.452a5.171,5.171,0,0,0,.055,1.392c.137.3.5.571.686.949.366.73.514,1.546.909,2.309.444.857,1.315,1.4,1.781,2.213.339.588.7,1.97-.056,2.413a9.637,9.637,0,0,1-1.337.408,9.952,9.952,0,0,1-1.206.309,6.961,6.961,0,0,1-2.7.323c-.973-.193-.928-.962-1.211-1.666-.3-.745-1.386-1.246-1.44-2.076-.055-.856.442-1.5-.062-2.292-.285-.45-.242-.653-.077-1.2.138-.462.3-.645.094-1.077-.345-.737-.593-1.552-.924-2.341-.781-1.854-1.778-3.262-1.973-5.25-.054-.54.152-5.149-.047-5.671l-.707,1.577c-.126.5.27,3.475.221,3.975a7.748,7.748,0,0,1-.3,2.47c-.353.952-.055,2.229-.57,3.082-.086.142-.269.17-.378.323a1.376,1.376,0,0,0-.154.677c-.02.413,0,.834,0,1.241a4,4,0,0,1-.052,1.348c-.153.469-.474.773-.4,1.3a4.571,4.571,0,0,1-.048,2.3c-.288.691-.954,1.205-1.233,1.921-.348.889-.824,1.469-1.948,1.363-.989-.092-1.9-.215-2.957-.215-.861,0-2.483.244-2.244-1,.49-.192.4-1.094.67-1.528a10.367,10.367,0,0,1,.97-1.13,5.9,5.9,0,0,0,.914-1.527c.256-.58-.031-1.037.1-1.656.113-.534.016-.855.162-1.37.089-.312-.093-.475-.08-.737a6.4,6.4,0,0,0,.138-.848,13.016,13.016,0,0,0-.964-2.906,3.934,3.934,0,0,1,.2-3.353c.52-.924-.135-2.234-.416-3.318-.065-.252-.36-.374-.394-.645-.046-.363.255-.681.317-1A3.23,3.23,0,0,0-97.5,5.978a11.15,11.15,0,0,1-.527-3.6,17.492,17.492,0,0,0-.158-2.665,16.517,16.517,0,0,1-.4-2.445" transform="translate(98.814 2.729)"/></g><g transform="translate(74.51 58.513)"><path class="f" d="M-35.5-66.282a14.058,14.058,0,0,0,.192-2.12c-.029-.625-.374-.925-.549-1.462a3.458,3.458,0,0,1,.136-1.493,11.555,11.555,0,0,0-.3-3.494,3.894,3.894,0,0,0-.222,1.07,9.554,9.554,0,0,0-.193,1.362,13.63,13.63,0,0,1-.232,2.132c-.132.649-.19,1.35-.347,1.991a4.924,4.924,0,0,0-.364,2.206,4.6,4.6,0,0,1,.295,1.416c-.058.549-.391.861-.352,1.419.033.476.323.8.352,1.241.03.468-.159.975-.178,1.476-.039,1.035.282,1.88.236,2.9a8.634,8.634,0,0,0,.651,4.236,5.387,5.387,0,0,0-.166-2.579c-.465-1.608.52-2.668.519-4.215a14.879,14.879,0,0,1,.076-1.564c.049-.5-.015-1.04.043-1.552.052-.458.239-.825.309-1.285.081-.528.034-1.132.09-1.68m9.826-17.841c0,1.534-.907,2.866-.887,4.315a7.536,7.536,0,0,1-.426,2.292,10.208,10.208,0,0,0-.283,1.643,22.991,22.991,0,0,1-1.067,3.981,19,19,0,0,0-.4,2.065,32.363,32.363,0,0,1-.659,4.214c-.144.459-.168.95-.311,1.4-.057.183-.222.246-.281.483s.073.554,0,.832a8.508,8.508,0,0,0-.48,1.428,6.731,6.731,0,0,1-.11,1.355c-.066.224-.271.178-.232.455.737.144.984,1.175.869,1.831-.432.114.084.706.2,1.014.17.448.26.853.4,1.3a19.689,19.689,0,0,1,.592,2.832c.178,1.194.037,1.677-1.119,2.13a8.078,8.078,0,0,1-2.9.474c-1.4,0-2.881-.3-3.475-1.638-.386.848-1.892,1.059-2.732.931a18.349,18.349,0,0,1-3.254-.312c-2.583-.936-2.095-3.34-1.46-5.421a7.87,7.87,0,0,0,.449-2.776c-.724-.024-.955.015-1.112-.717-.076-.352-.427-1.439.167-1.467.006.032.012.066.02.1.249.063.837.379,1.116.191s.219-1.1.221-1.424A10.474,10.474,0,0,0-43-64.275c-.066-.4.094-.292-.178-.627a2.061,2.061,0,0,0-.523-.31,9.6,9.6,0,0,1,.409-2.17,4.975,4.975,0,0,0-.226-2.08,5.007,5.007,0,0,1-.253-1.655c.085-2.482-1-4.768-1.226-7.221a35.61,35.61,0,0,1,.059-4.871Z" transform="translate(45.06 84.123)"/></g><g transform="translate(15.954 18.832)"><path class="f" d="M-68.1-80.741a1.241,1.241,0,0,0-1.075-.727c-.517-.084-.988-.176-1.506-.289-.408-.088-.35-.245-.349-.612a4.41,4.41,0,0,0-.1-.933,2.149,2.149,0,0,1-.154-.734,2.848,2.848,0,0,0,.069-.726,3.619,3.619,0,0,0-.22-.969c-.135-.361-.51-.893-.261-1.281.028-.044.128-.018.161-.057.067-.078.056-.136.093-.231a.991.991,0,0,0,.064-.369c.016-.35.1-.373.312-.628a2.106,2.106,0,0,0,.374-.674c.06-.231-.011-.466.031-.7a7.628,7.628,0,0,0,.372-1.439c0-.424-.024-1.14-.618-1.078a.894.894,0,0,0,.125-.383c.275-.085.151-1.017.151-1.285a7.661,7.661,0,0,0-.382-3.327c-.034-.069-.07-.138-.109-.205a20.8,20.8,0,0,0-1.1-2A9.6,9.6,0,0,0-73.517-101a1.39,1.39,0,0,0-.961-.478,5.383,5.383,0,0,1-1.061-.214,4.835,4.835,0,0,1-.879-.186c-.258-.119-.527-.177-.778-.3-.314-.149-.433-.3-.816-.3a7.552,7.552,0,0,0-.926.122c-.317.037-.518-.044-.716.211-.09.117-.031.187-.161.3a2.574,2.574,0,0,1-.369.133,10.81,10.81,0,0,0-1.361.516c-.316.205-.274.261-.381.568-.092.269-.358.338-.591.521s-.448.386-.678.6c-.156.144-.508.381-.568.6-.04.151.065.247.032.4a3.43,3.43,0,0,1-.195.333,1.982,1.982,0,0,0-.222.822,1.7,1.7,0,0,1-.089.752,1.463,1.463,0,0,1-.552.705,4.865,4.865,0,0,0-1.4,1.421,2.729,2.729,0,0,0-.226,1.629c.032.319.154,1.043.456,1.236a2.345,2.345,0,0,1,.48-2.358c.114-.1.17-.218.374-.184.228.039.159.017.178.213a8.429,8.429,0,0,0,.039.969,6.163,6.163,0,0,1,.156.939c.015.372-.162.349-.275.6-.2.438.229,1.076.373,1.462a13.467,13.467,0,0,0,.484,1.459c.183.362.266,1.06.591,1.3.253.189.348.026.475.386.1.283.135.566.216.849a4.84,4.84,0,0,0,1.1,1.79c.343.393.891.722.89,1.273a2.129,2.129,0,0,1-.092.931,2.724,2.724,0,0,1-2.3,1.425Z" transform="translate(86.435 102.474)"/></g><g transform="translate(27.938 58.095)"><path class="f" d="M-.335-.211A3.3,3.3,0,0,1-.187.989a2.811,2.811,0,0,0-.131.829A21.06,21.06,0,0,0-.242,4.1c.11.533.367,1.075.019,1.564-.327.46.009.9.006,1.434a5.986,5.986,0,0,1-.2.785c-.035.272.144.456.177.7.141,1.044-.006,2.1.051,3.14A6.035,6.035,0,0,0-.1,12.87a4.173,4.173,0,0,1,.39,1.553c-.064.5-.393,1.115-.087,1.591.145.224.217.183.206.471a1.048,1.048,0,0,0,.177.665,4.805,4.805,0,0,1,.4,2.386,2.561,2.561,0,0,1-.2.743C.7,20.548.58,21.32.868,21.495c.2.12.471-.052.643.025.15.068.144.334.157.472a10.812,10.812,0,0,1,.026,1.458c-.024.533-.231,1.041-.233,1.582,0,.482-.051.975-.094,1.455a2.2,2.2,0,0,0,.269,1.334c.169.344.369.71.559,1.041.151.26.351.368.453.692a7.083,7.083,0,0,0,1.035,2.285,2.782,2.782,0,0,0,.994.812,4.023,4.023,0,0,0,1.562.334,7.227,7.227,0,0,0,1.81.042c.621-.092,2.1-.309,2.285-1.037a1,1,0,0,0-.069-.677c-.056-.108-.147-.158-.2-.252-.069-.122-.036-.211-.08-.327-.131-.339-.545-.661-.711-.978-.107-.206-.109-.423-.2-.629a.929.929,0,0,0-.5-.471c-.386-.224-.335-.654-.532-1.035-.16-.309-.409-.54-.591-.831-.133-.215-.477-.617-.43-.874a1.165,1.165,0,0,0,.294.043,1.281,1.281,0,0,0-.179-.725,5.63,5.63,0,0,1-.512-.856c.37-.106.571-.35.424-.751a1.776,1.776,0,0,0-.41-.686,5.007,5.007,0,0,1-.426-.313c-.318-.365-.07-.821-.15-1.238A1.044,1.044,0,0,0,5.78,20.9c-.082-.091-.124-.04-.171-.2a.961.961,0,0,1,0-.265,1.439,1.439,0,0,0,.344.042.743.743,0,0,0,.058-.343c.087-.025.1-.084.173-.132.054-.036.1-.021.155-.053a1.048,1.048,0,0,0,.347-.316A1.7,1.7,0,0,0,7,18.927c.07-.472.1-.948.123-1.428a.962.962,0,0,1,.116.017c.208-.233.116-.561.157-.839a5.466,5.466,0,0,0,.2-1.04c-.018-.364-.26-.714-.222-1.082.04-.385.195-.772.2-1.18a7.99,7.99,0,0,1-.071-.951.612.612,0,0,0,.618-.43,1.692,1.692,0,0,0,.01-1c.383,0,.243-.214.221-.474s.094-.426-.128-.61c.281-.231.805.221.933-.195a1.822,1.822,0,0,0-.02-.508c0-.2.063-.363.066-.549-.109,0-.4,0-.44-.055A3.173,3.173,0,0,0,9.3,7.158c.129-.683.46-1.329.635-2a14.941,14.941,0,0,0,.572-3.01c.018-.447.055-.885.05-1.338a1.892,1.892,0,0,1,.1-1.075" transform="translate(0.425 0.268)"/></g><g transform="translate(18.123 57.953)"><path class="f" d="M-6.363,0c.171,1.077-1.915,2.156-1.7,4.14s-.2,2.159.106,4.012-.454,2.461.106,4.486a21.558,21.558,0,0,1,.53,3.807c.171.822.716.949,1.392,2.189.693,1.27,2.309,3.059,2.183,4.963-.343,1.47.088,1.47-.213,2.2s-.6,2.419-1.252,3.152a7.138,7.138,0,0,0-1.378,2.241c-.218.648-.949,1.293-.521,1.984a3.732,3.732,0,0,0,2.549,1.165A3.893,3.893,0,0,0-1.323,33.7c.775-.78.645-1.942,1.078-2.592a3.5,3.5,0,0,0,.906-2.887A19.633,19.633,0,0,1,.444,24.59a11.6,11.6,0,0,1,.477-2.718c.3-1.12.127-1.9.647-2.156s.775-1.513.648-1.942.43-3.366.3-5.177.3-3.024.088-3.669-.516-.82-.3-1.251a4.236,4.236,0,0,0,.3-1.767C2.646,5,3.423,2.07,3.768.388" transform="translate(8.075)"/></g></g></g></g></svg>