<svg xmlns="http://www.w3.org/2000/svg" viewBox="-60 2882 220 272"><defs><style>.a,.f{fill:none;}.a{stroke:#fff;}.b,.c{fill:#fff;}.c{font-size:60px;font-family:Sentinel-Medium, Sentinel;font-weight:500;}.d{font-size:36px;}.e{stroke:none;}</style></defs><g transform="translate(-547 -6027)"><g class="a" transform="translate(487 8909)"><rect class="e" width="220" height="272"/><rect class="f" x="0.5" y="0.5" width="219" height="271"/></g><g transform="translate(402.064 5428.734)"><path class="b" d="M53.04,16.58l.223.223a20.188,20.188,0,0,1,2.225-1.891c.723-.445,2.114.445,3.95.334,4.562,0,5.229-3.115,5.619-5.675A39.671,39.671,0,0,1,65.5,4.452a9.408,9.408,0,0,1,.723-2.225c.056-.668.5-1,.445-1.947-.668.167-1.892-1-4.784.5a12.666,12.666,0,0,0-5.674,6.175,10.175,10.175,0,0,0-1,4.562c-.612-.056-1.224-.111-1.892-.111A11.349,11.349,0,0,0,51.2,5.4c-.111-.111-2.17-.223-2.559.278-.389.556,1.057,1.057,2,2.949A27.16,27.16,0,0,1,53.04,16.58Zm.334-4.284a17.281,17.281,0,0,1,1.78.223,17.578,17.578,0,0,0,.111,1.947c-.612.556-1.28,1.168-1.947,1.78A21.4,21.4,0,0,0,53.373,12.3Zm11.516,2.058c-.779,1.113-2.058,1.892-4.395,1.892h-.334c-1.113,1.113-4.339,1.78-8.067,1.558-4.562-.223-8.178-1.669-8.067-3.227.111-1.391,3.227-2.392,7.177-2.392-.111-.278-.167-.556-.278-.834C40.578,11.74,32.4,16.8,32.4,27.317A19.813,19.813,0,0,0,45.14,45.842c2.225.834,4.617.389,7.065.389,2.392,0,4.673.5,6.843-.278A19.807,19.807,0,0,0,72.066,27.317C72.066,21.2,69.284,16.914,64.889,14.355ZM43.86,27.873c-2.448,3.783-6.286,5.563-8.623,4.061s-2.281-5.786.167-9.569S41.691,16.8,44.027,18.3,46.308,24.09,43.86,27.873Z" transform="translate(143.524 3507.403)"/><path class="b" d="M4.981,96.266c-2.337-1.28-3.449-9.513,0-10.793L26.956,97.434l47.009-6.62L71.907,89.7l1.168-.167V87.587L27.623,93.874S10.6,84.861,6.372,82.525c-2.225-1.224-3.338-9.235,0-10.459L27.679,83.693,73.13,77.3,49.654,64.5,4.2,70.9h0C.141,72.289,1.476,81.69,4.2,83.137c.334.167.779.445,1.224.668L2.7,84.194C-1.473,85.64-.082,95.32,2.7,96.822c5.229,2.837,24.311,13.241,24.311,13.241l47.009-6.62v-2s-46.954,6.509-47.009,6.509S9.376,98.658,4.981,96.266Z" transform="translate(157.87 3478.787)"/></g><text class="c" transform="translate(487 9028)"><tspan x="76.55" y="58">32</tspan><tspan class="d"><tspan x="50.762" y="98">schools</tspan></tspan></text></g></svg>