<svg xmlns="http://www.w3.org/2000/svg" xmlns:xlink="http://www.w3.org/1999/xlink" viewBox="4666.626 -137.367 155.634 250">
  <defs>
    <style>
      .cls-1 {
        fill: url(#radial-gradient);
      }

      .cls-2 {
        fill: #fff;
      }
    </style>
    <radialGradient id="radial-gradient" cx="732.305" cy="-432.7" r="43.113" gradientUnits="userSpaceOnUse">
      <stop offset="0" stop-color="#a6a6a6"/>
      <stop offset="1" stop-color="#231f20"/>
    </radialGradient>
  </defs>
  <g id="Group_5027" data-name="Group 5027" transform="translate(4666.626 -137.367)">
    <path id="Path_4746" data-name="Path 4746" class="cls-1" d="M129.666,63.852,10.652,89.556,10.3,89.2,129.666,63.5Z" transform="translate(25.968 160.092)"/>
    <g id="Group_5026" data-name="Group 5026">
      <path id="Path_4747" data-name="Path 4747" class="cls-2" d="M31.721,40.141l3.169-.7C26.087,28.873,15.524,14.437,5.313,0L3.2,1.761S13.411,16.2,23.975,30.282C26.792,33.8,29.256,37.324,31.721,40.141Z" transform="translate(8.068)"/>
      <path id="Path_4748" data-name="Path 4748" class="cls-2" d="M26.851.552,24.034.2C22.625,11.82,20.513,24.144,18.4,34.355l3.169-.7C23.682,21.679,25.442,8.651,26.851.552Z" transform="translate(46.389 0.504)"/>
      <path id="Path_4749" data-name="Path 4749" class="cls-2" d="M24.511,14.2c-1.056,2.817-1.761,4.93-2.817,5.282-1.056,0-2.817-1.761-5.634-4.225l-.7.7h0c-.352.352-.352.7-.7.7l-.352.352v.352c4.225,4.225,5.986,4.93,7.042,4.93h.7c1.408-.352,2.817-2.817,4.225-5.986A2.232,2.232,0,0,0,24.511,14.2Z" transform="translate(36.052 35.8)"/>
      <path id="Path_4750" data-name="Path 4750" class="cls-2" d="M32.332,46.569c0-.7-.352-1.761,0-2.465,0-.352,0-.7.352-.7-.352.352-.7.7-.7,1.056a1.294,1.294,0,0,0-.352,1.056V48.33a.345.345,0,0,1-.352.352l-.352.352H29.163a1.294,1.294,0,0,1-.352,1.056c-.352.352-.7.352-.7.7v.352a.757.757,0,0,1-.7.7,1.294,1.294,0,0,0-1.056.352c-.352.352-.352.7-.7,1.056a2.216,2.216,0,0,1-2.113,0A13.016,13.016,0,0,1,19.656,51.5l-.352-.352c-.352,0-.352,0-.7.352,0,.352,0,.7.352.7,0,.352,0,.7.352.7l.7.7.7.7c.352.352,1.056.352,1.408.7.7.352.7,1.056.7,1.761a.934.934,0,0,0,1.056,1.056A3.515,3.515,0,0,1,25.29,59.6a29.371,29.371,0,0,0,2.817,4.225h0l.352.352a.345.345,0,0,0,.352.352l.7.7,1.056,1.056h0c0,.352,0,.352.352.7s.7.352,1.056.7c0,0,1.408.7,1.056.7v-.352a7.753,7.753,0,0,0,.352-2.817c0-1.408.352-2.465.352-3.873,0-1.056.352-5.634.352-6.69V52.2a10.417,10.417,0,0,0-.7-3.521C32.332,48.33,32.332,47.625,32.332,46.569Z" transform="translate(46.893 109.417)"/>
      <path id="Path_4751" data-name="Path 4751" class="cls-2" d="M22.569,52.4a.345.345,0,0,0-.352.352c-.352.352-.7.352-1.408,0a1.229,1.229,0,0,1-.7-.352v2.817c0,1.056.352,1.761,0,2.817,0,.7-.352,1.056-.352,1.761L19.4,60.851l1.056-1.056a4.861,4.861,0,0,1,1.408-1.056l.352-.352a37.419,37.419,0,0,0,3.873-3.169,4.358,4.358,0,0,1,1.056-.7A20.906,20.906,0,0,1,24.33,53.1C23.977,53.1,23.273,52.4,22.569,52.4Z" transform="translate(48.91 132.107)"/>
      <path id="Path_4752" data-name="Path 4752" class="cls-2" d="M119.366,33,82.746,8.7,67.606,11.869a100.461,100.461,0,0,1-4.93,17.606,14.273,14.273,0,0,1,1.761,3.169c.7,3.873-1.761,8.1-5.634,8.8s-8.1-1.761-8.8-5.634a9.232,9.232,0,0,1,.7-5.282h0v-.352l.352-.352c.352-.352.352-.7.7-.7h0l.7-.7h0c1.056-.7,1.761-1.408,3.169-1.408a7.744,7.744,0,0,1,4.93.7c1.056-3.521,2.465-9.155,3.873-15.493l-11.62,2.465L45.775,16.8,38.38,18.559,23.239,21.728,0,58.7,36.62,228.066,96.127,215.39l59.507-12.676Zm24.3,140.493c-1.056.352-1.761,1.056-2.817,1.408-.352,0-.352.352-.7.352a12.147,12.147,0,0,0-3.169,2.817,10.913,10.913,0,0,1-4.577,2.113h-1.761q-.528,0-1.056-1.056c0-.352-.352-1.056-.352-1.408a2.117,2.117,0,0,0-.352-1.408c-.352.352-.7.7-1.056.7-.7,0-1.761,0-2.113-.352s-.7-.352-.7-.7a7.7,7.7,0,0,1-1.056-1.761c-1.056-.352-2.113,0-3.169,0a11.979,11.979,0,0,0-3.521.352c-4.93.352-10.211,0-14.789-2.113-.7-.352-2.465-1.056-3.169-1.408a2.334,2.334,0,0,0-2.465.7c-1.056,1.056-1.761,1.408-2.465,2.817-.352.352-6.69,10.916-9.507,14.085v1.408a67.847,67.847,0,0,1-.352,8.451,1.294,1.294,0,0,1-.352,1.056,1.091,1.091,0,0,1-.7.352c-.352,0-.352,0-.7.352a7.7,7.7,0,0,0-1.761,1.056c-2.465,1.056-4.577,2.113-7.042,3.169-.352,0-.7.352-1.056.352l-1.056,1.056a4.861,4.861,0,0,0-1.056,1.408,7.816,7.816,0,0,1-3.873,1.761c-.7.352-1.761.352-2.817.7a4.466,4.466,0,0,1-2.113.352c-1.056,0-4.577.7-5.282.7H54.93c-.352,0-1.056-.352-1.408-.352a7.581,7.581,0,0,1-3.873-.7c-.352,0-.352-.352-.7-.352h-.7c-.352,0-1.056-.352-1.408-.352-.352-.352-1.056,0-1.408,0-.7,0-1.056-.352-1.761-.352a1.936,1.936,0,0,1-1.761-1.056l-.352-.352v-.352a59.712,59.712,0,0,0-1.408-7.746,38.006,38.006,0,0,1-1.056-6.69c0-1.408-.352-2.465-.352-3.873a2.639,2.639,0,0,0-.352-1.761V165.038c0-1.408.352-2.817.352-3.873v-1.408a12.51,12.51,0,0,0,.7-3.521c.352-1.056.352-2.113.7-3.169.7-2.465,1.761-4.93,2.465-7.394.352-1.408,1.408-2.465,2.113-3.873a32.47,32.47,0,0,0,1.761-2.817l-.352-.352a5.089,5.089,0,0,1-.7-2.465,4.466,4.466,0,0,1,.352-2.113,7.7,7.7,0,0,1,1.056-1.761c.352-.352.352-.7.7-1.408.352-1.056.352-2.113.7-3.169A41.185,41.185,0,0,1,50,120.672c1.056-2.113,2.113-4.577,4.225-5.986.352-.352.7-.352,1.056-.7a9.749,9.749,0,0,1,3.169-.352h1.056a7.7,7.7,0,0,1,1.761-1.056c1.056-.7,1.761-1.408,2.817-2.113A24.26,24.26,0,0,1,66.9,109.4c1.408-.352,2.465-1.056,3.873-1.056a11.979,11.979,0,0,1,3.521.352c2.465,1.408,4.577,2.817,5.986,5.282.352.352.352.7.7,1.056,0-.352,0-.352.352-.7,0-.352.352,0,.7,0s.352.352.352.7.352.352.7.352a3.515,3.515,0,0,1,1.761,1.408c.7.7,1.056,1.408,1.761,2.113.352.352,0,.7.352,1.056h0c.352,0,.352.352.352.7a1.294,1.294,0,0,1-.352,1.056v1.408c0,.7-.352,1.408-.352,2.113v2.113a.757.757,0,0,1-.7.7c0,.352-.352.352-.352.7a5,5,0,0,0-.7,2.113c-.352,1.408-1.056,2.465-1.408,3.873,0,.7-.352,1.408-.352,2.113v3.873c0,1.408.352,2.817.352,4.225a54.669,54.669,0,0,0,1.408,7.394c.352,1.056.352,2.113.7,3.169a12.51,12.51,0,0,1,.7,3.521h0c.352-.352,1.056-.352,1.408-.7a3.008,3.008,0,0,1,2.465,0c.352,0,.7.352,1.056.352h1.056a5.992,5.992,0,0,1,2.465.352l2.113,1.056h.352c.7.352,1.408.352,2.113.7a26.686,26.686,0,0,0,5.634,2.113h.352a73.712,73.712,0,0,0,12.676,2.817c1.408,0,2.817.352,3.873.352a14.444,14.444,0,0,0,3.873-.352c2.465-.7,5.282-.7,7.746-1.056.352,0,.7,0,.7-.352a1.229,1.229,0,0,0,.7-.352c1.408-1.056,4.225-3.169,5.282-.7.7,1.408-1.761,4.225-.7,3.873a9.919,9.919,0,0,1,3.873-1.408,2.988,2.988,0,0,1,2.817,2.465,7.039,7.039,0,0,1-.7,4.577C146.127,172.08,144.718,172.785,143.662,173.489Z" transform="translate(0 21.934)"/>
      <path id="Path_4753" data-name="Path 4753" class="cls-2" d="M17.6,44.834a2.245,2.245,0,0,1,0-2.113c0-.352.352-1.056.352-1.408A2.117,2.117,0,0,0,18.3,39.9v-.7H17.243l-.352.352c-.7,1.056-.352,2.465,0,3.873A20.607,20.607,0,0,1,17.6,48a15.25,15.25,0,0,0,.352,1.761V50.82a.345.345,0,0,1,.352-.352c.352-.352.352-1.056.7-1.761a4.466,4.466,0,0,0-.352-2.113A3.217,3.217,0,0,1,17.6,44.834Z" transform="translate(41.56 98.828)"/>
    </g>
  </g>
</svg>
