<svg xmlns="http://www.w3.org/2000/svg" xmlns:xlink="http://www.w3.org/1999/xlink" viewBox="7097 -4339.625 901 502.54">
  <defs>
    <style>
      .cls-1, .cls-8 {
        fill: none;
      }

      .cls-2, .cls-3, .cls-5, .cls-6, .cls-9 {
        fill: #fff;
      }

      .cls-2, .cls-4 {
        font-size: 24px;
      }

      .cls-2, .cls-4, .cls-5 {
        font-family: ProximaNova-Light, Proxima Nova;
        font-weight: 300;
      }

      .cls-3, .cls-5 {
        font-size: 48px;
      }

      .cls-3, .cls-6 {
        font-family: Sentinel-Medium, Sentinel;
        font-weight: 500;
      }

      .cls-6 {
        font-size: 60px;
      }

      .cls-7 {
        clip-path: url(#clip-path);
      }

      .cls-8 {
        stroke: #fff;
      }
    </style>
    <clipPath id="clip-path">
      <path id="Path_7076" data-name="Path 7076" class="cls-1" d="M0-99.858H250.127V11.625H0Z" transform="translate(0 99.858)"/>
    </clipPath>
  </defs>
  <g id="Group_8155" data-name="Group 8155" transform="translate(6827 -6021)">
    <text id="Like_REALLY_love_them_and_what_they_do._" data-name="Like, REALLY love them, and what they do. " class="cls-2" transform="translate(270 1978)"><tspan x="231.3" y="19">Like, REALLY love them, and what they do. </tspan></text>
    <g id="Group_4938" data-name="Group 4938" transform="translate(497 1227)">
      <text id="_1_700_Hours_of_uplifting_hard_work" data-name="1,700 Hours
of uplifting hard work" class="cls-3" transform="translate(138 822)"><tspan x="3.243" y="46">1,700 Hours</tspan><tspan class="cls-4"><tspan x="19.971" y="86">of uplifting hard work</tspan></tspan></text>
    </g>
    <g id="Group_7215" data-name="Group 7215" transform="translate(133 1227)">
      <text id="_500_Employees_giving_their_all_" data-name="500 Employees
giving their all " class="cls-3" transform="translate(138 822)"><tspan x="1.768" y="46">500 Employees</tspan><tspan class="cls-4"><tspan x="90.724" y="86">giving their all </tspan></tspan></text>
    </g>
    <g id="Group_4942" data-name="Group 4942" transform="translate(795 1227)">
      <text id="_43_Projects_that_really_matter" data-name="43 Projects
that really matter" class="cls-3" transform="translate(138 822)"><tspan x="0.817" y="46">43 Projects</tspan><tspan class="cls-4"><tspan x="32.749" y="86">that really matter</tspan></tspan></text>
    </g>
    <text id="United_Way_Season" data-name="United Way Season" class="cls-5" transform="translate(270 1829)"><tspan x="247.464" y="38">United Way Season</tspan></text>
    <text id="We_LOVE_United_Way._" data-name="We LOVE United Way. " class="cls-6" transform="translate(270 1875)"><tspan x="155.31" y="58">We LOVE United Way. </tspan></text>
    <g id="Group_7276" data-name="Group 7276" transform="translate(571 1681.375)">
      <g id="Group_7275" data-name="Group 7275" class="cls-7" transform="translate(0 0)">
        <g id="Group_7257" data-name="Group 7257" transform="translate(149.087)">
          <path id="Path_7058" data-name="Path 7058" class="cls-8" d="M0,11.625V-99.858" transform="translate(0 99.858)"/>
        </g>
        <g id="Group_7258" data-name="Group 7258" transform="translate(177.715 29.867)">
          <path id="Path_7059" data-name="Path 7059" class="cls-9" d="M.223,3.528c.462-.212,1.5-.678,1.969-.91.534-.262.462-.5.3-.94A21.567,21.567,0,0,1,1.442-5.063,21.892,21.892,0,0,1,23.308-26.94,21.9,21.9,0,0,1,45.161-5.063a21.889,21.889,0,0,1-1.81,8.718.539.539,0,0,0,.215.715c.347.152,1.677.745,2.063.9s.636.063.833-.348a25.12,25.12,0,0,0,2.059-9.985A25.255,25.255,0,0,0,23.308-30.3,25.252,25.252,0,0,0-1.914-5.063,24.883,24.883,0,0,0-.555,3.095c.128.4.334.636.778.433" transform="translate(1.914 30.304)"/>
        </g>
        <g id="Group_7259" data-name="Group 7259" transform="translate(170.665 22.816)">
          <path id="Path_7060" data-name="Path 7060" class="cls-9" d="M.29,4.572C.825,4.317,2.619,3.5,3.09,3.262a.576.576,0,0,0,.3-.818A27.621,27.621,0,0,1,1.768-6.975,28.044,28.044,0,0,1,29.792-35a28.043,28.043,0,0,1,28,28.029A27.84,27.84,0,0,1,55.475,4.169a.517.517,0,0,0,.236.774c.451.184,2.462,1.09,2.839,1.254.4.165.645.1.835-.364A31.587,31.587,0,0,0,62.046-6.975a32.314,32.314,0,0,0-32.253-32.3A32.316,32.316,0,0,0-2.49-6.975,32.132,32.132,0,0,0-.5,4.2c.076.211.247.627.787.377" transform="translate(2.49 39.275)"/>
        </g>
        <g id="Group_7260" data-name="Group 7260" transform="translate(161.021 13.148)">
          <path id="Path_7061" data-name="Path 7061" class="cls-9" d="M.387,6c.624-.3,4.431-2.06,5.092-2.353s.378-.819.281-1.09A34.829,34.829,0,0,1,3.59-9.569a35.041,35.041,0,0,1,35-35.023A35.042,35.042,0,0,1,73.578-9.569,34.91,34.91,0,0,1,70.758,4.2a.716.716,0,0,0,.389,1.049c.623.27,4.308,1.9,4.816,2.1.5.248.875.193,1.215-.559a41.805,41.805,0,0,0,3.31-16.367,41.986,41.986,0,0,0-41.9-41.96A41.987,41.987,0,0,0-3.324-9.569,41.9,41.9,0,0,0-.521,5.512c.109.26.286.776.908.487" transform="translate(3.324 51.529)"/>
        </g>
        <g id="Group_7261" data-name="Group 7261" transform="translate(198.468 37.008)">
          <path id="Path_7062" data-name="Path 7062" class="cls-9" d="M.468.938A4.5,4.5,0,0,0,4.961-3.548,4.5,4.5,0,0,0,.468-8.055,4.475,4.475,0,0,0-4.016-3.548,4.47,4.47,0,0,0,.468.938" transform="translate(4.016 8.055)"/>
        </g>
        <g id="Group_7262" data-name="Group 7262" transform="translate(188.184 40.615)">
          <path id="Path_7063" data-name="Path 7063" class="cls-9" d="M1.711,3.016a1.59,1.59,0,0,0,1.583-1.59V-8.428a6.79,6.79,0,0,1,1.792-3.784l9.279-9.269a1.589,1.589,0,0,0,0-2.261l-1.688-1.691a1.578,1.578,0,0,0-2.252,0l-8.375,8.4a2.407,2.407,0,0,1-1.983.879,2.368,2.368,0,0,1-1.975-.879l-8.391-8.4a1.576,1.576,0,0,0-2.25,0l-1.686,1.691a1.6,1.6,0,0,0,0,2.261l9.275,9.269A6.72,6.72,0,0,1-3.171-8.428V1.426a1.592,1.592,0,0,0,1.59,1.59Z" transform="translate(14.701 25.904)"/>
        </g>
        <g id="Group_7263" data-name="Group 7263" transform="translate(166.956 66.975)">
          <path id="Path_7064" data-name="Path 7064" class="cls-9" d="M6.977.63C5.4,1.207,2.474,4.1,1.138,5.276l-.356.066C1.248,4.817,3.27,2.257,3.8,1.376,5.4-1.27,2.385-3.774-.939-1.865-2.19-1.15-4.29,1.071-5.311,1.859l-.329.075A44.912,44.912,0,0,0-2.8-1.754c1.444-2.155-1.6-4.183-4.217-2.608A51.528,51.528,0,0,0-11.941-.519l-.269.068c.43-.409,1.459-1.632,1.859-2.07,1.547-1.725-.67-3.729-3-2.523-2.231,1.149-5.473,4.36-8.988,6.621,1.636.889,4.518,1.011,9.082,2.962s6.035,6.508,3.066,10.1c-2.764,3.325-6.96,2.195-10.579,1.078-4.2-1.306-5.676-2.675-10.738-4.431-3.3-1.148-4.647-1.12-4.587-2.081.064-1.076,2.9-.429,5.573.541,7.407,2.678,17.248,8.784,19.658,2.211,1.908-5.187-6.627-7.425-9.885-8.052-4.557-.871-7.691-4.208-11.64-6.333C-38.337-5.643-42.922-5.722-46.321-5.1-49.979-4.446-55.2-1.458-58.356.432c-2.187,1.293-2.032,3.267.116,6.33A41.844,41.844,0,0,0-23.949,24.6,41.917,41.917,0,0,0,11.673,4.729c1.633-2.627-.944-5.44-4.7-4.1" transform="translate(59.926 5.411)"/>
        </g>
        <g id="Group_7264" data-name="Group 7264" transform="translate(239.349 99.505)">
          <path id="Path_7065" data-name="Path 7065" class="cls-9" d="M.257.09v4.2H-.665V.09H-2.211V-.771H1.806V.09Zm7.381,4.2V.314l-.1.018-1.5,3.953h-.6L3.92.332l-.074,0V4.285H2.916V-.771h1.4l1.428,3.75L7.171-.771h1.4V4.285Z" transform="translate(2.211 0.771)"/>
        </g>
        <g id="Group_7265" data-name="Group 7265" transform="translate(113.701 66.43)">
          <path id="Path_7066" data-name="Path 7066" class="cls-9" d="M0,3.7c.006,1.2,4.306,2.51,6.558,2.51a7.218,7.218,0,0,0,7.031-4.84c1.714-4.21,8.8-28.49,8.8-28.49l.794-.006c1.593-.286,2.167-1.245,2.167-3.68,0-.864-.112-.942-.826-.942H18.716c-.569.019-.617.1-.8.658L13.077-12.365S8.1-31.093,8.1-31.09c-.159-.557-.232-.642-.79-.661H1.463c-.707,0-.834.078-.834.942,0,2.444.588,3.411,2.2,3.68l.812.006S8.291-10.834,10.748-4c0,0-.364,1.315-.364,1.329C9.6-.135,8.239,1.054,6.1,1.054c-.507,0-3.375-.438-3.375-.438C1.107.483.678,1.162.48,1.763A10.789,10.789,0,0,0,0,3.7" transform="translate(0 31.751)"/>
        </g>
        <g id="Group_7266" data-name="Group 7266" transform="translate(54.759 57.337)">
          <path id="Path_7067" data-name="Path 7067" class="cls-9" d="M4.079,0h-6.94c-.611,0-.626.05-.729.664l-3.9,24.259L-12.218.783C-12.324.136-12.429,0-13.177,0h-3.174c-1.171,0-1.214.174-1.36.822l-4.928,24.1L-26.335.664C-26.416.05-26.448,0-27.051,0h-7.122c-.741,0-.861.068-.861.97,0,2.669.637,3.646,2.538,3.859l.715.033,5.432,29.843c.173.689.263.833.91.833h4.7c.749,0,.775-.046.905-.833l4.676-23.2L-11.2,34.717c.132.776.147.822.912.822h4.8c.635,0,.732-.144.905-.833L1.564,4.844l.69-.015c1.9-.213,2.526-1.2,2.526-3.859,0-.845-.118-.934-.7-.97" transform="translate(35.033 0)"/>
        </g>
        <g id="Group_7267" data-name="Group 7267" transform="translate(92.769 65.526)">
          <path id="Path_7068" data-name="Path 7068" class="cls-9" d="M1.356,2.234A5.6,5.6,0,0,1-2.56,4.407,3.609,3.609,0,0,1-6.019.534c0-4.882,5.791-4.6,7.375-4.494ZM7.532,3.481a16.974,16.974,0,0,1-.546-4.735v-9.391c0-5.913-2.567-8.545-8.4-8.545-4.059,0-8.356,1.755-8.356,2.86a10.069,10.069,0,0,0,.444,1.774c.117.359.391,1.169,2.117,1.034.706-.054,3.686-.623,4.941-.623,3.3,0,3.628,1.925,3.628,4.2v1.866c-4.127,0-13.006.039-13.006,8.987,0,5.038,2.792,8.162,7.3,8.162a7.7,7.7,0,0,0,6.143-3l.387-.437.128.678c.208,1.093.412,1.849,1.262,1.849H9.55c.76,0,.846-.056.846-.932,0-2.668-.651-3.614-2.864-3.746" transform="translate(11.65 19.19)"/>
        </g>
        <g id="Group_7268" data-name="Group 7268" transform="translate(59.529 22.467)">
          <path id="Path_7069" data-name="Path 7069" class="cls-9" d="M1.081,2.267.451,2.26V-18.9c0-.518-.031-.575-.517-.575H-8.437c-.722,0-.823.057-.823.919,0,2.886.766,3.765,3.24,3.765h.606V2.26l-.636.007c-2.478,0-3.234.892-3.234,3.77,0,.859.114.929.833.929H3.506c.7,0,.831-.07.831-.929,0-2.845-.812-3.77-3.255-3.77" transform="translate(9.284 19.473)"/>
        </g>
        <g id="Group_7269" data-name="Group 7269" transform="translate(62.711 12.427)">
          <path id="Path_7070" data-name="Path 7070" class="cls-9" d="M.371,0A3.64,3.64,0,0,0-3.185,3.792,3.7,3.7,0,0,0,.371,7.616a3.679,3.679,0,0,0,3.5-3.824A3.657,3.657,0,0,0,.371,0" transform="translate(3.185)"/>
        </g>
        <g id="Group_7270" data-name="Group 7270" transform="translate(0.001 14.286)">
          <path id="Path_7071" data-name="Path 7071" class="cls-9" d="M2.782.5h.163C5.472.5,6.284-.438,6.284-3.382c0-.88-.113-.955-.856-.955H-6.085c-.661,0-.761.1-.821.5l-.03.451c0,2.932.8,3.87,3.29,3.887h.17V17.871c0,3.314,0,7.842-5.335,7.842-4.933,0-5.328-3.557-5.328-7.842V.5h.163c2.484-.018,3.289-.956,3.289-3.887,0,0-.037-.545-.037-.552-.061-.308-.179-.4-.815-.4h-11.5c-.737,0-.855.075-.855.955C-23.9-.4-23.13.5-20.549.5h.151V17.871c0,9.344,3.472,13.337,11.587,13.337S2.782,27.215,2.782,17.871Z" transform="translate(23.897 4.337)"/>
        </g>
        <g id="Group_7271" data-name="Group 7271" transform="translate(30.891 21.53)">
          <path id="Path_7072" data-name="Path 7072" class="cls-9" d="M2.345,2.365V-11.91c0-5.8-1.908-8.4-6.173-8.4-3.8,0-5.914,2.227-7.554,3.91-.119-.6-.255-1.094-.255-1.094-.262-1.164-.469-1.879-1.219-1.879h-6.472c-.72,0-.816.057-.816.919,0,2.732.673,3.708,2.981,3.756a14.88,14.88,0,0,1,.528,4.806V2.365c-2.432.015-3.185.908-3.185,3.77,0,.859.121.929.837.929h7.7c.471,0,.495-.074.495-.577l.007-19.148c.7-.723,2.3-2.315,4.361-2.315,2.916,0,2.916,3.325,2.916,4.75V6.487c0,.5.013.577.5.577H4.679c.693,0,.822-.07.822-.929,0-2.812-.785-3.743-3.156-3.77" transform="translate(20.143 20.312)"/>
        </g>
        <g id="Group_7272" data-name="Group 7272" transform="translate(73.984 14.286)">
          <path id="Path_7073" data-name="Path 7073" class="cls-9" d="M1.074,3.707c3.421,0,6.187-.9,6.187-1.621,0-.13-.2-1.137-.325-1.636-.471-1.988-.649-2.724-4.279-2.272A1.321,1.321,0,0,1,1.51-2.154C.8-2.86.8-4.422.8-5.672v-13.3H4.052c2.5,0,3.252-.879,3.252-3.765,0-.862-.112-.919-.835-.919H.8V-31.1c0-.706-.06-.738-.328-.741s-1.449.155-2.053.239c-1.674.285-3.475,1.579-3.475,4.57v3.373H-8.4c-.72,0-.822.057-.822.919,0,2.886.757,3.765,3.231,3.765h.933V-6.592c0,5.062,0,10.3,6.132,10.3" transform="translate(9.223 31.838)"/>
        </g>
        <g id="Group_7273" data-name="Group 7273" transform="translate(92.621 21.53)">
          <path id="Path_7074" data-name="Path 7074" class="cls-9" d="M.632,1.162.673.694C.835-1.095,1.208-5.3,4.954-5.3c3.655,0,3.679,4.281,3.679,6.457ZM14.67,4.653c0-9.694-3.229-14.63-9.583-14.63-6.292,0-10.512,5.8-10.512,14.422C-5.426,15.9.426,18.323,5.332,18.323c3.961,0,8.564-1.847,8.564-3.022a10.929,10.929,0,0,0-.466-1.877c-.188-.586-.522-1.185-2.194-1.1-1.283.065-3.36.665-5.267.665C2.312,12.99.445,10.7.432,5.824H13.724c.777,0,.946-.192.946-1.171" transform="translate(5.426 9.977)"/>
        </g>
        <g id="Group_7274" data-name="Group 7274" transform="translate(115.611 12.553)">
          <path id="Path_7075" data-name="Path 7075" class="cls-9" d="M1.057,3.36C-2.505,3.36-3.214.1-3.214-5.572c0-6,.741-9.242,4.566-9.242a6.579,6.579,0,0,1,3.9,1.148V1.352a5,5,0,0,1-4.2,2.007m10.6-.564a14.436,14.436,0,0,1-.526-4.727v-26.35c0-.509-.041-.577-.522-.577H2.889c-.72,0-.844.068-.844.923,0,2.789.744,3.707,3.061,3.758l.148,0V-18.1l-.473-.326A7.17,7.17,0,0,0,.126-19.88c-6.016,0-9.207,5.28-9.207,15.237,0,8.421,2.9,13.062,8.193,13.062A10.171,10.171,0,0,0,6.053,5.358L6.386,6.5c.251.893.279.995,1.01.995h6.779c.711,0,.835-.07.835-.928,0-2.838-.75-3.771-3.354-3.771" transform="translate(9.081 28.858)"/>
        </g>
      </g>
    </g>
  </g>
</svg>
